<?xml version="1.0" encoding="utf-8"?>
<svg xmlns="http://www.w3.org/2000/svg" xmlns:xlink="http://www.w3.org/1999/xlink" width="600" height="400" viewBox="0 0 2400 1600">
<defs>
  <clipPath id="clip720">
    <rect x="0" y="0" width="2400" height="1600"/>
  </clipPath>
</defs>
<path clip-path="url(#clip720)" d="
M0 1600 L2400 1600 L2400 0 L0 0  Z
  " fill="#ffffff" fill-rule="evenodd" fill-opacity="1"/>
<defs>
  <clipPath id="clip721">
    <rect x="480" y="0" width="1681" height="1600"/>
  </clipPath>
</defs>
<path clip-path="url(#clip720)" d="
M223.45 1486.45 L2352.76 1486.45 L2352.76 123.472 L223.45 123.472  Z
  " fill="#ffffff" fill-rule="evenodd" fill-opacity="1"/>
<defs>
  <clipPath id="clip722">
    <rect x="223" y="123" width="2130" height="1364"/>
  </clipPath>
</defs>
<polyline clip-path="url(#clip722)" style="stroke:#000000; stroke-linecap:butt; stroke-linejoin:round; stroke-width:2; stroke-opacity:0.1; fill:none" points="
  279.421,1486.45 279.421,123.472 
  "/>
<polyline clip-path="url(#clip722)" style="stroke:#000000; stroke-linecap:butt; stroke-linejoin:round; stroke-width:2; stroke-opacity:0.1; fill:none" points="
  708.647,1486.45 708.647,123.472 
  "/>
<polyline clip-path="url(#clip722)" style="stroke:#000000; stroke-linecap:butt; stroke-linejoin:round; stroke-width:2; stroke-opacity:0.1; fill:none" points="
  1137.87,1486.45 1137.87,123.472 
  "/>
<polyline clip-path="url(#clip722)" style="stroke:#000000; stroke-linecap:butt; stroke-linejoin:round; stroke-width:2; stroke-opacity:0.1; fill:none" points="
  1567.1,1486.45 1567.1,123.472 
  "/>
<polyline clip-path="url(#clip722)" style="stroke:#000000; stroke-linecap:butt; stroke-linejoin:round; stroke-width:2; stroke-opacity:0.1; fill:none" points="
  1996.33,1486.45 1996.33,123.472 
  "/>
<polyline clip-path="url(#clip720)" style="stroke:#000000; stroke-linecap:butt; stroke-linejoin:round; stroke-width:4; stroke-opacity:1; fill:none" points="
  223.45,1486.45 2352.76,1486.45 
  "/>
<polyline clip-path="url(#clip720)" style="stroke:#000000; stroke-linecap:butt; stroke-linejoin:round; stroke-width:4; stroke-opacity:1; fill:none" points="
  279.421,1486.45 279.421,1467.55 
  "/>
<polyline clip-path="url(#clip720)" style="stroke:#000000; stroke-linecap:butt; stroke-linejoin:round; stroke-width:4; stroke-opacity:1; fill:none" points="
  708.647,1486.45 708.647,1467.55 
  "/>
<polyline clip-path="url(#clip720)" style="stroke:#000000; stroke-linecap:butt; stroke-linejoin:round; stroke-width:4; stroke-opacity:1; fill:none" points="
  1137.87,1486.45 1137.87,1467.55 
  "/>
<polyline clip-path="url(#clip720)" style="stroke:#000000; stroke-linecap:butt; stroke-linejoin:round; stroke-width:4; stroke-opacity:1; fill:none" points="
  1567.1,1486.45 1567.1,1467.55 
  "/>
<polyline clip-path="url(#clip720)" style="stroke:#000000; stroke-linecap:butt; stroke-linejoin:round; stroke-width:4; stroke-opacity:1; fill:none" points="
  1996.33,1486.45 1996.33,1467.55 
  "/>
<path clip-path="url(#clip720)" d="M279.421 1515.64 Q275.81 1515.64 273.981 1519.2 Q272.176 1522.75 272.176 1529.87 Q272.176 1536.98 273.981 1540.55 Q275.81 1544.09 279.421 1544.09 Q283.055 1544.09 284.861 1540.55 Q286.689 1536.98 286.689 1529.87 Q286.689 1522.75 284.861 1519.2 Q283.055 1515.64 279.421 1515.64 M279.421 1511.93 Q285.231 1511.93 288.287 1516.54 Q291.365 1521.12 291.365 1529.87 Q291.365 1538.6 288.287 1543.21 Q285.231 1547.79 279.421 1547.79 Q273.611 1547.79 270.532 1543.21 Q267.476 1538.6 267.476 1529.87 Q267.476 1521.12 270.532 1516.54 Q273.611 1511.93 279.421 1511.93 Z" fill="#000000" fill-rule="evenodd" fill-opacity="1" /><path clip-path="url(#clip720)" d="M668.254 1543.18 L675.893 1543.18 L675.893 1516.82 L667.583 1518.49 L667.583 1514.23 L675.846 1512.56 L680.522 1512.56 L680.522 1543.18 L688.161 1543.18 L688.161 1547.12 L668.254 1547.12 L668.254 1543.18 Z" fill="#000000" fill-rule="evenodd" fill-opacity="1" /><path clip-path="url(#clip720)" d="M707.606 1515.64 Q703.994 1515.64 702.166 1519.2 Q700.36 1522.75 700.36 1529.87 Q700.36 1536.98 702.166 1540.55 Q703.994 1544.09 707.606 1544.09 Q711.24 1544.09 713.045 1540.55 Q714.874 1536.98 714.874 1529.87 Q714.874 1522.75 713.045 1519.2 Q711.24 1515.64 707.606 1515.64 M707.606 1511.93 Q713.416 1511.93 716.471 1516.54 Q719.55 1521.12 719.55 1529.87 Q719.55 1538.6 716.471 1543.21 Q713.416 1547.79 707.606 1547.79 Q701.795 1547.79 698.717 1543.21 Q695.661 1538.6 695.661 1529.87 Q695.661 1521.12 698.717 1516.54 Q701.795 1511.93 707.606 1511.93 Z" fill="#000000" fill-rule="evenodd" fill-opacity="1" /><path clip-path="url(#clip720)" d="M737.767 1515.64 Q734.156 1515.64 732.328 1519.2 Q730.522 1522.75 730.522 1529.87 Q730.522 1536.98 732.328 1540.55 Q734.156 1544.09 737.767 1544.09 Q741.402 1544.09 743.207 1540.55 Q745.036 1536.98 745.036 1529.87 Q745.036 1522.75 743.207 1519.2 Q741.402 1515.64 737.767 1515.64 M737.767 1511.93 Q743.578 1511.93 746.633 1516.54 Q749.712 1521.12 749.712 1529.87 Q749.712 1538.6 746.633 1543.21 Q743.578 1547.79 737.767 1547.79 Q731.957 1547.79 728.879 1543.21 Q725.823 1538.6 725.823 1529.87 Q725.823 1521.12 728.879 1516.54 Q731.957 1511.93 737.767 1511.93 Z" fill="#000000" fill-rule="evenodd" fill-opacity="1" /><path clip-path="url(#clip720)" d="M1101.57 1543.18 L1117.89 1543.18 L1117.89 1547.12 L1095.94 1547.12 L1095.94 1543.18 Q1098.6 1540.43 1103.19 1535.8 Q1107.79 1531.15 1108.97 1529.81 Q1111.22 1527.28 1112.1 1525.55 Q1113 1523.79 1113 1522.1 Q1113 1519.34 1111.06 1517.61 Q1109.14 1515.87 1106.03 1515.87 Q1103.83 1515.87 1101.38 1516.63 Q1098.95 1517.4 1096.17 1518.95 L1096.17 1514.23 Q1099 1513.09 1101.45 1512.51 Q1103.9 1511.93 1105.94 1511.93 Q1111.31 1511.93 1114.51 1514.62 Q1117.7 1517.31 1117.7 1521.8 Q1117.7 1523.93 1116.89 1525.85 Q1116.1 1527.74 1114 1530.34 Q1113.42 1531.01 1110.32 1534.23 Q1107.21 1537.42 1101.57 1543.18 Z" fill="#000000" fill-rule="evenodd" fill-opacity="1" /><path clip-path="url(#clip720)" d="M1137.7 1515.64 Q1134.09 1515.64 1132.26 1519.2 Q1130.45 1522.75 1130.45 1529.87 Q1130.45 1536.98 1132.26 1540.55 Q1134.09 1544.09 1137.7 1544.09 Q1141.33 1544.09 1143.14 1540.55 Q1144.97 1536.98 1144.97 1529.87 Q1144.97 1522.75 1143.14 1519.2 Q1141.33 1515.64 1137.7 1515.64 M1137.7 1511.93 Q1143.51 1511.93 1146.57 1516.54 Q1149.64 1521.12 1149.64 1529.87 Q1149.64 1538.6 1146.57 1543.21 Q1143.51 1547.79 1137.7 1547.79 Q1131.89 1547.79 1128.81 1543.21 Q1125.76 1538.6 1125.76 1529.87 Q1125.76 1521.12 1128.81 1516.54 Q1131.89 1511.93 1137.7 1511.93 Z" fill="#000000" fill-rule="evenodd" fill-opacity="1" /><path clip-path="url(#clip720)" d="M1167.86 1515.64 Q1164.25 1515.64 1162.42 1519.2 Q1160.62 1522.75 1160.62 1529.87 Q1160.62 1536.98 1162.42 1540.55 Q1164.25 1544.09 1167.86 1544.09 Q1171.5 1544.09 1173.3 1540.55 Q1175.13 1536.98 1175.13 1529.87 Q1175.13 1522.75 1173.3 1519.2 Q1171.5 1515.64 1167.86 1515.64 M1167.86 1511.93 Q1173.67 1511.93 1176.73 1516.54 Q1179.81 1521.12 1179.81 1529.87 Q1179.81 1538.6 1176.73 1543.21 Q1173.67 1547.79 1167.86 1547.79 Q1162.05 1547.79 1158.97 1543.21 Q1155.92 1538.6 1155.92 1529.87 Q1155.92 1521.12 1158.97 1516.54 Q1162.05 1511.93 1167.86 1511.93 Z" fill="#000000" fill-rule="evenodd" fill-opacity="1" /><path clip-path="url(#clip720)" d="M1540.86 1528.49 Q1544.22 1529.2 1546.09 1531.47 Q1547.99 1533.74 1547.99 1537.07 Q1547.99 1542.19 1544.47 1544.99 Q1540.95 1547.79 1534.47 1547.79 Q1532.3 1547.79 1529.98 1547.35 Q1527.69 1546.93 1525.24 1546.08 L1525.24 1541.56 Q1527.18 1542.7 1529.5 1543.28 Q1531.81 1543.86 1534.33 1543.86 Q1538.73 1543.86 1541.02 1542.12 Q1543.34 1540.38 1543.34 1537.07 Q1543.34 1534.02 1541.19 1532.31 Q1539.06 1530.57 1535.24 1530.57 L1531.21 1530.57 L1531.21 1526.73 L1535.42 1526.73 Q1538.87 1526.73 1540.7 1525.36 Q1542.53 1523.97 1542.53 1521.38 Q1542.53 1518.72 1540.63 1517.31 Q1538.76 1515.87 1535.24 1515.87 Q1533.32 1515.87 1531.12 1516.29 Q1528.92 1516.7 1526.28 1517.58 L1526.28 1513.42 Q1528.94 1512.68 1531.26 1512.31 Q1533.59 1511.93 1535.65 1511.93 Q1540.98 1511.93 1544.08 1514.37 Q1547.18 1516.77 1547.18 1520.89 Q1547.18 1523.76 1545.54 1525.75 Q1543.89 1527.72 1540.86 1528.49 Z" fill="#000000" fill-rule="evenodd" fill-opacity="1" /><path clip-path="url(#clip720)" d="M1566.86 1515.64 Q1563.25 1515.64 1561.42 1519.2 Q1559.61 1522.75 1559.61 1529.87 Q1559.61 1536.98 1561.42 1540.55 Q1563.25 1544.09 1566.86 1544.09 Q1570.49 1544.09 1572.3 1540.55 Q1574.13 1536.98 1574.13 1529.87 Q1574.13 1522.75 1572.3 1519.2 Q1570.49 1515.64 1566.86 1515.64 M1566.86 1511.93 Q1572.67 1511.93 1575.72 1516.54 Q1578.8 1521.12 1578.8 1529.87 Q1578.8 1538.6 1575.72 1543.21 Q1572.67 1547.79 1566.86 1547.79 Q1561.05 1547.79 1557.97 1543.21 Q1554.91 1538.6 1554.91 1529.87 Q1554.91 1521.12 1557.97 1516.54 Q1561.05 1511.93 1566.86 1511.93 Z" fill="#000000" fill-rule="evenodd" fill-opacity="1" /><path clip-path="url(#clip720)" d="M1597.02 1515.64 Q1593.41 1515.64 1591.58 1519.2 Q1589.77 1522.75 1589.77 1529.87 Q1589.77 1536.98 1591.58 1540.55 Q1593.41 1544.09 1597.02 1544.09 Q1600.65 1544.09 1602.46 1540.55 Q1604.29 1536.98 1604.29 1529.87 Q1604.29 1522.75 1602.46 1519.2 Q1600.65 1515.64 1597.02 1515.64 M1597.02 1511.93 Q1602.83 1511.93 1605.88 1516.54 Q1608.96 1521.12 1608.96 1529.87 Q1608.96 1538.6 1605.88 1543.21 Q1602.83 1547.79 1597.02 1547.79 Q1591.21 1547.79 1588.13 1543.21 Q1585.07 1538.6 1585.07 1529.87 Q1585.07 1521.12 1588.13 1516.54 Q1591.21 1511.93 1597.02 1511.93 Z" fill="#000000" fill-rule="evenodd" fill-opacity="1" /><path clip-path="url(#clip720)" d="M1969.42 1516.63 L1957.61 1535.08 L1969.42 1535.08 L1969.42 1516.63 M1968.19 1512.56 L1974.07 1512.56 L1974.07 1535.08 L1979 1535.08 L1979 1538.97 L1974.07 1538.97 L1974.07 1547.12 L1969.42 1547.12 L1969.42 1538.97 L1953.81 1538.97 L1953.81 1534.46 L1968.19 1512.56 Z" fill="#000000" fill-rule="evenodd" fill-opacity="1" /><path clip-path="url(#clip720)" d="M1996.73 1515.64 Q1993.12 1515.64 1991.29 1519.2 Q1989.49 1522.75 1989.49 1529.87 Q1989.49 1536.98 1991.29 1540.55 Q1993.12 1544.09 1996.73 1544.09 Q2000.37 1544.09 2002.17 1540.55 Q2004 1536.98 2004 1529.87 Q2004 1522.75 2002.17 1519.2 Q2000.37 1515.64 1996.73 1515.64 M1996.73 1511.93 Q2002.54 1511.93 2005.6 1516.54 Q2008.68 1521.12 2008.68 1529.87 Q2008.68 1538.6 2005.6 1543.21 Q2002.54 1547.79 1996.73 1547.79 Q1990.92 1547.79 1987.84 1543.21 Q1984.79 1538.6 1984.79 1529.87 Q1984.79 1521.12 1987.84 1516.54 Q1990.92 1511.93 1996.73 1511.93 Z" fill="#000000" fill-rule="evenodd" fill-opacity="1" /><path clip-path="url(#clip720)" d="M2026.89 1515.64 Q2023.28 1515.64 2021.45 1519.2 Q2019.65 1522.75 2019.65 1529.87 Q2019.65 1536.98 2021.45 1540.55 Q2023.28 1544.09 2026.89 1544.09 Q2030.53 1544.09 2032.33 1540.55 Q2034.16 1536.98 2034.16 1529.87 Q2034.16 1522.75 2032.33 1519.2 Q2030.53 1515.64 2026.89 1515.64 M2026.89 1511.93 Q2032.7 1511.93 2035.76 1516.54 Q2038.84 1521.12 2038.84 1529.87 Q2038.84 1538.6 2035.76 1543.21 Q2032.7 1547.79 2026.89 1547.79 Q2021.08 1547.79 2018 1543.21 Q2014.95 1538.6 2014.95 1529.87 Q2014.95 1521.12 2018 1516.54 Q2021.08 1511.93 2026.89 1511.93 Z" fill="#000000" fill-rule="evenodd" fill-opacity="1" /><polyline clip-path="url(#clip722)" style="stroke:#000000; stroke-linecap:butt; stroke-linejoin:round; stroke-width:2; stroke-opacity:0.1; fill:none" points="
  223.45,1391.26 2352.76,1391.26 
  "/>
<polyline clip-path="url(#clip722)" style="stroke:#000000; stroke-linecap:butt; stroke-linejoin:round; stroke-width:2; stroke-opacity:0.1; fill:none" points="
  223.45,1182.95 2352.76,1182.95 
  "/>
<polyline clip-path="url(#clip722)" style="stroke:#000000; stroke-linecap:butt; stroke-linejoin:round; stroke-width:2; stroke-opacity:0.1; fill:none" points="
  223.45,974.647 2352.76,974.647 
  "/>
<polyline clip-path="url(#clip722)" style="stroke:#000000; stroke-linecap:butt; stroke-linejoin:round; stroke-width:2; stroke-opacity:0.1; fill:none" points="
  223.45,766.342 2352.76,766.342 
  "/>
<polyline clip-path="url(#clip722)" style="stroke:#000000; stroke-linecap:butt; stroke-linejoin:round; stroke-width:2; stroke-opacity:0.1; fill:none" points="
  223.45,558.037 2352.76,558.037 
  "/>
<polyline clip-path="url(#clip722)" style="stroke:#000000; stroke-linecap:butt; stroke-linejoin:round; stroke-width:2; stroke-opacity:0.1; fill:none" points="
  223.45,349.733 2352.76,349.733 
  "/>
<polyline clip-path="url(#clip722)" style="stroke:#000000; stroke-linecap:butt; stroke-linejoin:round; stroke-width:2; stroke-opacity:0.1; fill:none" points="
  223.45,141.428 2352.76,141.428 
  "/>
<polyline clip-path="url(#clip720)" style="stroke:#000000; stroke-linecap:butt; stroke-linejoin:round; stroke-width:4; stroke-opacity:1; fill:none" points="
  223.45,1486.45 223.45,123.472 
  "/>
<polyline clip-path="url(#clip720)" style="stroke:#000000; stroke-linecap:butt; stroke-linejoin:round; stroke-width:4; stroke-opacity:1; fill:none" points="
  223.45,1391.26 242.347,1391.26 
  "/>
<polyline clip-path="url(#clip720)" style="stroke:#000000; stroke-linecap:butt; stroke-linejoin:round; stroke-width:4; stroke-opacity:1; fill:none" points="
  223.45,1182.95 242.347,1182.95 
  "/>
<polyline clip-path="url(#clip720)" style="stroke:#000000; stroke-linecap:butt; stroke-linejoin:round; stroke-width:4; stroke-opacity:1; fill:none" points="
  223.45,974.647 242.347,974.647 
  "/>
<polyline clip-path="url(#clip720)" style="stroke:#000000; stroke-linecap:butt; stroke-linejoin:round; stroke-width:4; stroke-opacity:1; fill:none" points="
  223.45,766.342 242.347,766.342 
  "/>
<polyline clip-path="url(#clip720)" style="stroke:#000000; stroke-linecap:butt; stroke-linejoin:round; stroke-width:4; stroke-opacity:1; fill:none" points="
  223.45,558.037 242.347,558.037 
  "/>
<polyline clip-path="url(#clip720)" style="stroke:#000000; stroke-linecap:butt; stroke-linejoin:round; stroke-width:4; stroke-opacity:1; fill:none" points="
  223.45,349.733 242.347,349.733 
  "/>
<polyline clip-path="url(#clip720)" style="stroke:#000000; stroke-linecap:butt; stroke-linejoin:round; stroke-width:4; stroke-opacity:1; fill:none" points="
  223.45,141.428 242.347,141.428 
  "/>
<path clip-path="url(#clip720)" d="M50.9921 1391.71 L80.6679 1391.71 L80.6679 1395.64 L50.9921 1395.64 L50.9921 1391.71 Z" fill="#000000" fill-rule="evenodd" fill-opacity="1" /><path clip-path="url(#clip720)" d="M100.76 1377.05 Q97.1493 1377.05 95.3206 1380.62 Q93.515 1384.16 93.515 1391.29 Q93.515 1398.4 95.3206 1401.96 Q97.1493 1405.5 100.76 1405.5 Q104.395 1405.5 106.2 1401.96 Q108.029 1398.4 108.029 1391.29 Q108.029 1384.16 106.2 1380.62 Q104.395 1377.05 100.76 1377.05 M100.76 1373.35 Q106.571 1373.35 109.626 1377.96 Q112.705 1382.54 112.705 1391.29 Q112.705 1400.02 109.626 1404.62 Q106.571 1409.21 100.76 1409.21 Q94.9502 1409.21 91.8715 1404.62 Q88.816 1400.02 88.816 1391.29 Q88.816 1382.54 91.8715 1377.96 Q94.9502 1373.35 100.76 1373.35 Z" fill="#000000" fill-rule="evenodd" fill-opacity="1" /><path clip-path="url(#clip720)" d="M120.922 1402.66 L125.807 1402.66 L125.807 1408.54 L120.922 1408.54 L120.922 1402.66 Z" fill="#000000" fill-rule="evenodd" fill-opacity="1" /><path clip-path="url(#clip720)" d="M145.992 1377.05 Q142.381 1377.05 140.552 1380.62 Q138.746 1384.16 138.746 1391.29 Q138.746 1398.4 140.552 1401.96 Q142.381 1405.5 145.992 1405.5 Q149.626 1405.5 151.431 1401.96 Q153.26 1398.4 153.26 1391.29 Q153.26 1384.16 151.431 1380.62 Q149.626 1377.05 145.992 1377.05 M145.992 1373.35 Q151.802 1373.35 154.857 1377.96 Q157.936 1382.54 157.936 1391.29 Q157.936 1400.02 154.857 1404.62 Q151.802 1409.21 145.992 1409.21 Q140.181 1409.21 137.103 1404.62 Q134.047 1400.02 134.047 1391.29 Q134.047 1382.54 137.103 1377.96 Q140.181 1373.35 145.992 1373.35 Z" fill="#000000" fill-rule="evenodd" fill-opacity="1" /><path clip-path="url(#clip720)" d="M180.32 1389.9 Q183.677 1390.62 185.552 1392.89 Q187.45 1395.16 187.45 1398.49 Q187.45 1403.61 183.931 1406.41 Q180.413 1409.21 173.931 1409.21 Q171.755 1409.21 169.441 1408.77 Q167.149 1408.35 164.695 1407.49 L164.695 1402.98 Q166.64 1404.11 168.954 1404.69 Q171.269 1405.27 173.792 1405.27 Q178.191 1405.27 180.482 1403.54 Q182.797 1401.8 182.797 1398.49 Q182.797 1395.43 180.644 1393.72 Q178.515 1391.98 174.695 1391.98 L170.667 1391.98 L170.667 1388.14 L174.88 1388.14 Q178.329 1388.14 180.158 1386.78 Q181.987 1385.39 181.987 1382.8 Q181.987 1380.13 180.089 1378.72 Q178.214 1377.29 174.695 1377.29 Q172.774 1377.29 170.575 1377.7 Q168.376 1378.12 165.737 1379 L165.737 1374.83 Q168.399 1374.09 170.714 1373.72 Q173.052 1373.35 175.112 1373.35 Q180.436 1373.35 183.538 1375.78 Q186.64 1378.19 186.64 1382.31 Q186.64 1385.18 184.996 1387.17 Q183.353 1389.14 180.32 1389.9 Z" fill="#000000" fill-rule="evenodd" fill-opacity="1" /><path clip-path="url(#clip720)" d="M51.9412 1183.4 L81.617 1183.4 L81.617 1187.34 L51.9412 1187.34 L51.9412 1183.4 Z" fill="#000000" fill-rule="evenodd" fill-opacity="1" /><path clip-path="url(#clip720)" d="M101.709 1168.75 Q98.0984 1168.75 96.2697 1172.31 Q94.4641 1175.86 94.4641 1182.99 Q94.4641 1190.09 96.2697 1193.66 Q98.0984 1197.2 101.709 1197.2 Q105.344 1197.2 107.149 1193.66 Q108.978 1190.09 108.978 1182.99 Q108.978 1175.86 107.149 1172.31 Q105.344 1168.75 101.709 1168.75 M101.709 1165.05 Q107.52 1165.05 110.575 1169.65 Q113.654 1174.24 113.654 1182.99 Q113.654 1191.71 110.575 1196.32 Q107.52 1200.9 101.709 1200.9 Q95.8993 1200.9 92.8206 1196.32 Q89.7651 1191.71 89.7651 1182.99 Q89.7651 1174.24 92.8206 1169.65 Q95.8993 1165.05 101.709 1165.05 Z" fill="#000000" fill-rule="evenodd" fill-opacity="1" /><path clip-path="url(#clip720)" d="M121.871 1194.35 L126.756 1194.35 L126.756 1200.23 L121.871 1200.23 L121.871 1194.35 Z" fill="#000000" fill-rule="evenodd" fill-opacity="1" /><path clip-path="url(#clip720)" d="M146.941 1168.75 Q143.33 1168.75 141.501 1172.31 Q139.695 1175.86 139.695 1182.99 Q139.695 1190.09 141.501 1193.66 Q143.33 1197.2 146.941 1197.2 Q150.575 1197.2 152.38 1193.66 Q154.209 1190.09 154.209 1182.99 Q154.209 1175.86 152.38 1172.31 Q150.575 1168.75 146.941 1168.75 M146.941 1165.05 Q152.751 1165.05 155.806 1169.65 Q158.885 1174.24 158.885 1182.99 Q158.885 1191.71 155.806 1196.32 Q152.751 1200.9 146.941 1200.9 Q141.131 1200.9 138.052 1196.32 Q134.996 1191.71 134.996 1182.99 Q134.996 1174.24 138.052 1169.65 Q141.131 1165.05 146.941 1165.05 Z" fill="#000000" fill-rule="evenodd" fill-opacity="1" /><path clip-path="url(#clip720)" d="M171.13 1196.3 L187.45 1196.3 L187.45 1200.23 L165.505 1200.23 L165.505 1196.3 Q168.167 1193.54 172.751 1188.91 Q177.357 1184.26 178.538 1182.92 Q180.783 1180.39 181.663 1178.66 Q182.565 1176.9 182.565 1175.21 Q182.565 1172.45 180.621 1170.72 Q178.7 1168.98 175.598 1168.98 Q173.399 1168.98 170.945 1169.75 Q168.515 1170.51 165.737 1172.06 L165.737 1167.34 Q168.561 1166.2 171.015 1165.62 Q173.468 1165.05 175.505 1165.05 Q180.876 1165.05 184.07 1167.73 Q187.265 1170.42 187.265 1174.91 Q187.265 1177.04 186.454 1178.96 Q185.667 1180.86 183.561 1183.45 Q182.982 1184.12 179.88 1187.34 Q176.778 1190.53 171.13 1196.3 Z" fill="#000000" fill-rule="evenodd" fill-opacity="1" /><path clip-path="url(#clip720)" d="M51.5708 975.098 L81.2466 975.098 L81.2466 979.033 L51.5708 979.033 L51.5708 975.098 Z" fill="#000000" fill-rule="evenodd" fill-opacity="1" /><path clip-path="url(#clip720)" d="M101.339 960.445 Q97.728 960.445 95.8993 964.01 Q94.0937 967.552 94.0937 974.681 Q94.0937 981.788 95.8993 985.353 Q97.728 988.894 101.339 988.894 Q104.973 988.894 106.779 985.353 Q108.608 981.788 108.608 974.681 Q108.608 967.552 106.779 964.01 Q104.973 960.445 101.339 960.445 M101.339 956.742 Q107.149 956.742 110.205 961.348 Q113.283 965.931 113.283 974.681 Q113.283 983.408 110.205 988.015 Q107.149 992.598 101.339 992.598 Q95.5289 992.598 92.4502 988.015 Q89.3947 983.408 89.3947 974.681 Q89.3947 965.931 92.4502 961.348 Q95.5289 956.742 101.339 956.742 Z" fill="#000000" fill-rule="evenodd" fill-opacity="1" /><path clip-path="url(#clip720)" d="M121.501 986.047 L126.385 986.047 L126.385 991.927 L121.501 991.927 L121.501 986.047 Z" fill="#000000" fill-rule="evenodd" fill-opacity="1" /><path clip-path="url(#clip720)" d="M146.57 960.445 Q142.959 960.445 141.131 964.01 Q139.325 967.552 139.325 974.681 Q139.325 981.788 141.131 985.353 Q142.959 988.894 146.57 988.894 Q150.205 988.894 152.01 985.353 Q153.839 981.788 153.839 974.681 Q153.839 967.552 152.01 964.01 Q150.205 960.445 146.57 960.445 M146.57 956.742 Q152.38 956.742 155.436 961.348 Q158.515 965.931 158.515 974.681 Q158.515 983.408 155.436 988.015 Q152.38 992.598 146.57 992.598 Q140.76 992.598 137.681 988.015 Q134.626 983.408 134.626 974.681 Q134.626 965.931 137.681 961.348 Q140.76 956.742 146.57 956.742 Z" fill="#000000" fill-rule="evenodd" fill-opacity="1" /><path clip-path="url(#clip720)" d="M167.542 987.991 L175.181 987.991 L175.181 961.626 L166.871 963.292 L166.871 959.033 L175.135 957.367 L179.811 957.367 L179.811 987.991 L187.45 987.991 L187.45 991.927 L167.542 991.927 L167.542 987.991 Z" fill="#000000" fill-rule="evenodd" fill-opacity="1" /><path clip-path="url(#clip720)" d="M100.112 752.141 Q96.5011 752.141 94.6724 755.705 Q92.8669 759.247 92.8669 766.377 Q92.8669 773.483 94.6724 777.048 Q96.5011 780.59 100.112 780.59 Q103.746 780.59 105.552 777.048 Q107.381 773.483 107.381 766.377 Q107.381 759.247 105.552 755.705 Q103.746 752.141 100.112 752.141 M100.112 748.437 Q105.922 748.437 108.978 753.043 Q112.057 757.627 112.057 766.377 Q112.057 775.104 108.978 779.71 Q105.922 784.293 100.112 784.293 Q94.3021 784.293 91.2234 779.71 Q88.1679 775.104 88.1679 766.377 Q88.1679 757.627 91.2234 753.043 Q94.3021 748.437 100.112 748.437 Z" fill="#000000" fill-rule="evenodd" fill-opacity="1" /><path clip-path="url(#clip720)" d="M120.274 777.742 L125.158 777.742 L125.158 783.622 L120.274 783.622 L120.274 777.742 Z" fill="#000000" fill-rule="evenodd" fill-opacity="1" /><path clip-path="url(#clip720)" d="M145.343 752.141 Q141.732 752.141 139.904 755.705 Q138.098 759.247 138.098 766.377 Q138.098 773.483 139.904 777.048 Q141.732 780.59 145.343 780.59 Q148.978 780.59 150.783 777.048 Q152.612 773.483 152.612 766.377 Q152.612 759.247 150.783 755.705 Q148.978 752.141 145.343 752.141 M145.343 748.437 Q151.154 748.437 154.209 753.043 Q157.288 757.627 157.288 766.377 Q157.288 775.104 154.209 779.71 Q151.154 784.293 145.343 784.293 Q139.533 784.293 136.455 779.71 Q133.399 775.104 133.399 766.377 Q133.399 757.627 136.455 753.043 Q139.533 748.437 145.343 748.437 Z" fill="#000000" fill-rule="evenodd" fill-opacity="1" /><path clip-path="url(#clip720)" d="M175.505 752.141 Q171.894 752.141 170.066 755.705 Q168.26 759.247 168.26 766.377 Q168.26 773.483 170.066 777.048 Q171.894 780.59 175.505 780.59 Q179.14 780.59 180.945 777.048 Q182.774 773.483 182.774 766.377 Q182.774 759.247 180.945 755.705 Q179.14 752.141 175.505 752.141 M175.505 748.437 Q181.316 748.437 184.371 753.043 Q187.45 757.627 187.45 766.377 Q187.45 775.104 184.371 779.71 Q181.316 784.293 175.505 784.293 Q169.695 784.293 166.617 779.71 Q163.561 775.104 163.561 766.377 Q163.561 757.627 166.617 753.043 Q169.695 748.437 175.505 748.437 Z" fill="#000000" fill-rule="evenodd" fill-opacity="1" /><path clip-path="url(#clip720)" d="M101.339 543.836 Q97.728 543.836 95.8993 547.401 Q94.0937 550.943 94.0937 558.072 Q94.0937 565.179 95.8993 568.743 Q97.728 572.285 101.339 572.285 Q104.973 572.285 106.779 568.743 Q108.608 565.179 108.608 558.072 Q108.608 550.943 106.779 547.401 Q104.973 543.836 101.339 543.836 M101.339 540.132 Q107.149 540.132 110.205 544.739 Q113.283 549.322 113.283 558.072 Q113.283 566.799 110.205 571.405 Q107.149 575.989 101.339 575.989 Q95.5289 575.989 92.4502 571.405 Q89.3947 566.799 89.3947 558.072 Q89.3947 549.322 92.4502 544.739 Q95.5289 540.132 101.339 540.132 Z" fill="#000000" fill-rule="evenodd" fill-opacity="1" /><path clip-path="url(#clip720)" d="M121.501 569.438 L126.385 569.438 L126.385 575.317 L121.501 575.317 L121.501 569.438 Z" fill="#000000" fill-rule="evenodd" fill-opacity="1" /><path clip-path="url(#clip720)" d="M146.57 543.836 Q142.959 543.836 141.131 547.401 Q139.325 550.943 139.325 558.072 Q139.325 565.179 141.131 568.743 Q142.959 572.285 146.57 572.285 Q150.205 572.285 152.01 568.743 Q153.839 565.179 153.839 558.072 Q153.839 550.943 152.01 547.401 Q150.205 543.836 146.57 543.836 M146.57 540.132 Q152.38 540.132 155.436 544.739 Q158.515 549.322 158.515 558.072 Q158.515 566.799 155.436 571.405 Q152.38 575.989 146.57 575.989 Q140.76 575.989 137.681 571.405 Q134.626 566.799 134.626 558.072 Q134.626 549.322 137.681 544.739 Q140.76 540.132 146.57 540.132 Z" fill="#000000" fill-rule="evenodd" fill-opacity="1" /><path clip-path="url(#clip720)" d="M167.542 571.382 L175.181 571.382 L175.181 545.017 L166.871 546.683 L166.871 542.424 L175.135 540.757 L179.811 540.757 L179.811 571.382 L187.45 571.382 L187.45 575.317 L167.542 575.317 L167.542 571.382 Z" fill="#000000" fill-rule="evenodd" fill-opacity="1" /><path clip-path="url(#clip720)" d="M101.709 335.532 Q98.0984 335.532 96.2697 339.096 Q94.4641 342.638 94.4641 349.768 Q94.4641 356.874 96.2697 360.439 Q98.0984 363.98 101.709 363.98 Q105.344 363.98 107.149 360.439 Q108.978 356.874 108.978 349.768 Q108.978 342.638 107.149 339.096 Q105.344 335.532 101.709 335.532 M101.709 331.828 Q107.52 331.828 110.575 336.434 Q113.654 341.018 113.654 349.768 Q113.654 358.494 110.575 363.101 Q107.52 367.684 101.709 367.684 Q95.8993 367.684 92.8206 363.101 Q89.7651 358.494 89.7651 349.768 Q89.7651 341.018 92.8206 336.434 Q95.8993 331.828 101.709 331.828 Z" fill="#000000" fill-rule="evenodd" fill-opacity="1" /><path clip-path="url(#clip720)" d="M121.871 361.133 L126.756 361.133 L126.756 367.013 L121.871 367.013 L121.871 361.133 Z" fill="#000000" fill-rule="evenodd" fill-opacity="1" /><path clip-path="url(#clip720)" d="M146.941 335.532 Q143.33 335.532 141.501 339.096 Q139.695 342.638 139.695 349.768 Q139.695 356.874 141.501 360.439 Q143.33 363.98 146.941 363.98 Q150.575 363.98 152.38 360.439 Q154.209 356.874 154.209 349.768 Q154.209 342.638 152.38 339.096 Q150.575 335.532 146.941 335.532 M146.941 331.828 Q152.751 331.828 155.806 336.434 Q158.885 341.018 158.885 349.768 Q158.885 358.494 155.806 363.101 Q152.751 367.684 146.941 367.684 Q141.131 367.684 138.052 363.101 Q134.996 358.494 134.996 349.768 Q134.996 341.018 138.052 336.434 Q141.131 331.828 146.941 331.828 Z" fill="#000000" fill-rule="evenodd" fill-opacity="1" /><path clip-path="url(#clip720)" d="M171.13 363.078 L187.45 363.078 L187.45 367.013 L165.505 367.013 L165.505 363.078 Q168.167 360.323 172.751 355.693 Q177.357 351.041 178.538 349.698 Q180.783 347.175 181.663 345.439 Q182.565 343.68 182.565 341.99 Q182.565 339.235 180.621 337.499 Q178.7 335.763 175.598 335.763 Q173.399 335.763 170.945 336.527 Q168.515 337.291 165.737 338.842 L165.737 334.12 Q168.561 332.985 171.015 332.407 Q173.468 331.828 175.505 331.828 Q180.876 331.828 184.07 334.513 Q187.265 337.198 187.265 341.689 Q187.265 343.819 186.454 345.74 Q185.667 347.638 183.561 350.231 Q182.982 350.902 179.88 354.119 Q176.778 357.314 171.13 363.078 Z" fill="#000000" fill-rule="evenodd" fill-opacity="1" /><path clip-path="url(#clip720)" d="M100.76 127.227 Q97.1493 127.227 95.3206 130.792 Q93.515 134.333 93.515 141.463 Q93.515 148.569 95.3206 152.134 Q97.1493 155.676 100.76 155.676 Q104.395 155.676 106.2 152.134 Q108.029 148.569 108.029 141.463 Q108.029 134.333 106.2 130.792 Q104.395 127.227 100.76 127.227 M100.76 123.523 Q106.571 123.523 109.626 128.13 Q112.705 132.713 112.705 141.463 Q112.705 150.19 109.626 154.796 Q106.571 159.38 100.76 159.38 Q94.9502 159.38 91.8715 154.796 Q88.816 150.19 88.816 141.463 Q88.816 132.713 91.8715 128.13 Q94.9502 123.523 100.76 123.523 Z" fill="#000000" fill-rule="evenodd" fill-opacity="1" /><path clip-path="url(#clip720)" d="M120.922 152.829 L125.807 152.829 L125.807 158.708 L120.922 158.708 L120.922 152.829 Z" fill="#000000" fill-rule="evenodd" fill-opacity="1" /><path clip-path="url(#clip720)" d="M145.992 127.227 Q142.381 127.227 140.552 130.792 Q138.746 134.333 138.746 141.463 Q138.746 148.569 140.552 152.134 Q142.381 155.676 145.992 155.676 Q149.626 155.676 151.431 152.134 Q153.26 148.569 153.26 141.463 Q153.26 134.333 151.431 130.792 Q149.626 127.227 145.992 127.227 M145.992 123.523 Q151.802 123.523 154.857 128.13 Q157.936 132.713 157.936 141.463 Q157.936 150.19 154.857 154.796 Q151.802 159.38 145.992 159.38 Q140.181 159.38 137.103 154.796 Q134.047 150.19 134.047 141.463 Q134.047 132.713 137.103 128.13 Q140.181 123.523 145.992 123.523 Z" fill="#000000" fill-rule="evenodd" fill-opacity="1" /><path clip-path="url(#clip720)" d="M180.32 140.074 Q183.677 140.792 185.552 143.06 Q187.45 145.329 187.45 148.662 Q187.45 153.778 183.931 156.579 Q180.413 159.38 173.931 159.38 Q171.755 159.38 169.441 158.94 Q167.149 158.523 164.695 157.667 L164.695 153.153 Q166.64 154.287 168.954 154.866 Q171.269 155.444 173.792 155.444 Q178.191 155.444 180.482 153.708 Q182.797 151.972 182.797 148.662 Q182.797 145.607 180.644 143.894 Q178.515 142.157 174.695 142.157 L170.667 142.157 L170.667 138.315 L174.88 138.315 Q178.329 138.315 180.158 136.949 Q181.987 135.56 181.987 132.968 Q181.987 130.306 180.089 128.894 Q178.214 127.458 174.695 127.458 Q172.774 127.458 170.575 127.875 Q168.376 128.292 165.737 129.171 L165.737 125.005 Q168.399 124.264 170.714 123.894 Q173.052 123.523 175.112 123.523 Q180.436 123.523 183.538 125.954 Q186.64 128.361 186.64 132.482 Q186.64 135.352 184.996 137.343 Q183.353 139.31 180.32 140.074 Z" fill="#000000" fill-rule="evenodd" fill-opacity="1" /><path clip-path="url(#clip720)" d="M860.631 18.8205 L860.631 65.8515 L870.515 65.8515 Q883.033 65.8515 888.825 60.1802 Q894.659 54.509 894.659 42.2752 Q894.659 30.1225 888.825 24.4918 Q883.033 18.8205 870.515 18.8205 L860.631 18.8205 M852.448 12.096 L869.26 12.096 Q886.84 12.096 895.064 19.4281 Q903.287 26.7198 903.287 42.2752 Q903.287 57.9117 895.023 65.2439 Q886.759 72.576 869.26 72.576 L852.448 72.576 L852.448 12.096 Z" fill="#000000" fill-rule="evenodd" fill-opacity="1" /><path clip-path="url(#clip720)" d="M954.815 48.0275 L954.815 51.6733 L920.544 51.6733 Q921.03 59.3701 925.162 63.421 Q929.334 67.4314 936.748 67.4314 Q941.042 67.4314 945.052 66.3781 Q949.103 65.3249 953.073 63.2184 L953.073 70.267 Q949.062 71.9684 944.849 72.8596 Q940.637 73.7508 936.302 73.7508 Q925.446 73.7508 919.086 67.4314 Q912.766 61.1119 912.766 50.3365 Q912.766 39.1965 918.762 32.6746 Q924.797 26.1121 935.006 26.1121 Q944.161 26.1121 949.467 32.0264 Q954.815 37.9003 954.815 48.0275 M947.361 45.84 Q947.28 39.7232 943.918 36.0774 Q940.596 32.4315 935.087 32.4315 Q928.848 32.4315 925.081 35.9558 Q921.354 39.4801 920.787 45.8805 L947.361 45.84 Z" fill="#000000" fill-rule="evenodd" fill-opacity="1" /><path clip-path="url(#clip720)" d="M993.339 34.1734 Q992.083 33.4443 990.584 33.1202 Q989.126 32.7556 987.343 32.7556 Q981.024 32.7556 977.621 36.8875 Q974.259 40.9789 974.259 48.6757 L974.259 72.576 L966.765 72.576 L966.765 27.2059 L974.259 27.2059 L974.259 34.2544 Q976.609 30.1225 980.376 28.1376 Q984.143 26.1121 989.531 26.1121 Q990.301 26.1121 991.232 26.2337 Q992.164 26.3147 993.298 26.5172 L993.339 34.1734 Z" fill="#000000" fill-rule="evenodd" fill-opacity="1" /><path clip-path="url(#clip720)" d="M1001.16 27.2059 L1008.61 27.2059 L1008.61 72.576 L1001.16 72.576 L1001.16 27.2059 M1001.16 9.54393 L1008.61 9.54393 L1008.61 18.9825 L1001.16 18.9825 L1001.16 9.54393 Z" fill="#000000" fill-rule="evenodd" fill-opacity="1" /><path clip-path="url(#clip720)" d="M1018.86 27.2059 L1026.76 27.2059 L1040.94 65.2844 L1055.12 27.2059 L1063.01 27.2059 L1046 72.576 L1035.87 72.576 L1018.86 27.2059 Z" fill="#000000" fill-rule="evenodd" fill-opacity="1" /><path clip-path="url(#clip720)" d="M1093.92 49.7694 Q1084.89 49.7694 1081.41 51.8354 Q1077.92 53.9013 1077.92 58.8839 Q1077.92 62.8538 1080.51 65.2034 Q1083.15 67.5124 1087.64 67.5124 Q1093.84 67.5124 1097.57 63.1374 Q1101.34 58.7219 1101.34 51.4303 L1101.34 49.7694 L1093.92 49.7694 M1108.79 46.6907 L1108.79 72.576 L1101.34 72.576 L1101.34 65.6895 Q1098.78 69.8214 1094.98 71.8063 Q1091.17 73.7508 1085.66 73.7508 Q1078.69 73.7508 1074.56 69.8619 Q1070.47 65.9325 1070.47 59.3701 Q1070.47 51.7138 1075.57 47.825 Q1080.72 43.9361 1090.88 43.9361 L1101.34 43.9361 L1101.34 43.2069 Q1101.34 38.0623 1097.93 35.2672 Q1094.57 32.4315 1088.45 32.4315 Q1084.57 32.4315 1080.88 33.3632 Q1077.19 34.295 1073.79 36.1584 L1073.79 29.2718 Q1077.88 27.692 1081.73 26.9223 Q1085.58 26.1121 1089.22 26.1121 Q1099.07 26.1121 1103.93 31.2163 Q1108.79 36.3204 1108.79 46.6907 Z" fill="#000000" fill-rule="evenodd" fill-opacity="1" /><path clip-path="url(#clip720)" d="M1154 34.0924 L1154 9.54393 L1161.45 9.54393 L1161.45 72.576 L1154 72.576 L1154 65.7705 Q1151.65 69.8214 1148.04 71.8063 Q1144.48 73.7508 1139.45 73.7508 Q1131.23 73.7508 1126.05 67.1883 Q1120.9 60.6258 1120.9 49.9314 Q1120.9 39.2371 1126.05 32.6746 Q1131.23 26.1121 1139.45 26.1121 Q1144.48 26.1121 1148.04 28.0971 Q1151.65 30.0415 1154 34.0924 M1128.6 49.9314 Q1128.6 58.1548 1131.96 62.8538 Q1135.36 67.5124 1141.28 67.5124 Q1147.19 67.5124 1150.59 62.8538 Q1154 58.1548 1154 49.9314 Q1154 41.7081 1150.59 37.0496 Q1147.19 32.3505 1141.28 32.3505 Q1135.36 32.3505 1131.96 37.0496 Q1128.6 41.7081 1128.6 49.9314 Z" fill="#000000" fill-rule="evenodd" fill-opacity="1" /><path clip-path="url(#clip720)" d="M1197.42 49.7694 Q1188.39 49.7694 1184.91 51.8354 Q1181.42 53.9013 1181.42 58.8839 Q1181.42 62.8538 1184.01 65.2034 Q1186.65 67.5124 1191.14 67.5124 Q1197.34 67.5124 1201.07 63.1374 Q1204.84 58.7219 1204.84 51.4303 L1204.84 49.7694 L1197.42 49.7694 M1212.29 46.6907 L1212.29 72.576 L1204.84 72.576 L1204.84 65.6895 Q1202.28 69.8214 1198.48 71.8063 Q1194.67 73.7508 1189.16 73.7508 Q1182.19 73.7508 1178.06 69.8619 Q1173.97 65.9325 1173.97 59.3701 Q1173.97 51.7138 1179.07 47.825 Q1184.22 43.9361 1194.39 43.9361 L1204.84 43.9361 L1204.84 43.2069 Q1204.84 38.0623 1201.43 35.2672 Q1198.07 32.4315 1191.95 32.4315 Q1188.07 32.4315 1184.38 33.3632 Q1180.69 34.295 1177.29 36.1584 L1177.29 29.2718 Q1181.38 27.692 1185.23 26.9223 Q1189.08 26.1121 1192.72 26.1121 Q1202.57 26.1121 1207.43 31.2163 Q1212.29 36.3204 1212.29 46.6907 Z" fill="#000000" fill-rule="evenodd" fill-opacity="1" /><path clip-path="url(#clip720)" d="M1256.57 28.5427 L1256.57 35.5912 Q1253.41 33.9709 1250 33.1607 Q1246.6 32.3505 1242.96 32.3505 Q1237.41 32.3505 1234.61 34.0519 Q1231.86 35.7533 1231.86 39.156 Q1231.86 41.7486 1233.84 43.2475 Q1235.83 44.7058 1241.82 46.0426 L1244.37 46.6097 Q1252.31 48.3111 1255.63 51.4303 Q1259 54.509 1259 60.0587 Q1259 66.3781 1253.97 70.0644 Q1248.99 73.7508 1240.24 73.7508 Q1236.6 73.7508 1232.63 73.0216 Q1228.7 72.3329 1224.32 70.9151 L1224.32 63.2184 Q1228.45 65.3654 1232.46 66.4591 Q1236.47 67.5124 1240.4 67.5124 Q1245.67 67.5124 1248.51 65.73 Q1251.34 63.9071 1251.34 60.6258 Q1251.34 57.5877 1249.27 55.9673 Q1247.25 54.3469 1240.32 52.8481 L1237.73 52.2405 Q1230.8 50.7821 1227.72 47.7845 Q1224.65 44.7463 1224.65 39.4801 Q1224.65 33.0797 1229.18 29.5959 Q1233.72 26.1121 1242.06 26.1121 Q1246.2 26.1121 1249.84 26.7198 Q1253.49 27.3274 1256.57 28.5427 Z" fill="#000000" fill-rule="evenodd" fill-opacity="1" /><path clip-path="url(#clip720)" d="M1327.09 34.0924 L1327.09 9.54393 L1334.55 9.54393 L1334.55 72.576 L1327.09 72.576 L1327.09 65.7705 Q1324.74 69.8214 1321.14 71.8063 Q1317.57 73.7508 1312.55 73.7508 Q1304.33 73.7508 1299.14 67.1883 Q1294 60.6258 1294 49.9314 Q1294 39.2371 1299.14 32.6746 Q1304.33 26.1121 1312.55 26.1121 Q1317.57 26.1121 1321.14 28.0971 Q1324.74 30.0415 1327.09 34.0924 M1301.69 49.9314 Q1301.69 58.1548 1305.06 62.8538 Q1308.46 67.5124 1314.37 67.5124 Q1320.29 67.5124 1323.69 62.8538 Q1327.09 58.1548 1327.09 49.9314 Q1327.09 41.7081 1323.69 37.0496 Q1320.29 32.3505 1314.37 32.3505 Q1308.46 32.3505 1305.06 37.0496 Q1301.69 41.7081 1301.69 49.9314 Z" fill="#000000" fill-rule="evenodd" fill-opacity="1" /><path clip-path="url(#clip720)" d="M1367.48 32.4315 Q1361.48 32.4315 1358 37.1306 Q1354.52 41.7891 1354.52 49.9314 Q1354.52 58.0738 1357.96 62.7728 Q1361.44 67.4314 1367.48 67.4314 Q1373.44 67.4314 1376.92 62.7323 Q1380.4 58.0333 1380.4 49.9314 Q1380.4 41.8701 1376.92 37.1711 Q1373.44 32.4315 1367.48 32.4315 M1367.48 26.1121 Q1377.2 26.1121 1382.75 32.4315 Q1388.3 38.7509 1388.3 49.9314 Q1388.3 61.0714 1382.75 67.4314 Q1377.2 73.7508 1367.48 73.7508 Q1357.72 73.7508 1352.17 67.4314 Q1346.66 61.0714 1346.66 49.9314 Q1346.66 38.7509 1352.17 32.4315 Q1357.72 26.1121 1367.48 26.1121 Z" fill="#000000" fill-rule="evenodd" fill-opacity="1" /><path clip-path="url(#clip720)" d="M1462.35 35.9153 Q1465.15 30.8922 1469.04 28.5022 Q1472.93 26.1121 1478.19 26.1121 Q1485.28 26.1121 1489.13 31.0947 Q1492.98 36.0368 1492.98 45.1919 L1492.98 72.576 L1485.48 72.576 L1485.48 45.4349 Q1485.48 38.913 1483.17 35.7533 Q1480.87 32.5936 1476.13 32.5936 Q1470.33 32.5936 1466.97 36.4419 Q1463.61 40.2903 1463.61 46.9338 L1463.61 72.576 L1456.11 72.576 L1456.11 45.4349 Q1456.11 38.8725 1453.81 35.7533 Q1451.5 32.5936 1446.68 32.5936 Q1440.96 32.5936 1437.6 36.4824 Q1434.24 40.3308 1434.24 46.9338 L1434.24 72.576 L1426.75 72.576 L1426.75 27.2059 L1434.24 27.2059 L1434.24 34.2544 Q1436.79 30.082 1440.36 28.0971 Q1443.92 26.1121 1448.82 26.1121 Q1453.76 26.1121 1457.21 28.6237 Q1460.69 31.1352 1462.35 35.9153 Z" fill="#000000" fill-rule="evenodd" fill-opacity="1" /><path clip-path="url(#clip720)" d="M1525.43 32.4315 Q1519.43 32.4315 1515.95 37.1306 Q1512.46 41.7891 1512.46 49.9314 Q1512.46 58.0738 1515.91 62.7728 Q1519.39 67.4314 1525.43 67.4314 Q1531.38 67.4314 1534.86 62.7323 Q1538.35 58.0333 1538.35 49.9314 Q1538.35 41.8701 1534.86 37.1711 Q1531.38 32.4315 1525.43 32.4315 M1525.43 26.1121 Q1535.15 26.1121 1540.7 32.4315 Q1546.25 38.7509 1546.25 49.9314 Q1546.25 61.0714 1540.7 67.4314 Q1535.15 73.7508 1525.43 73.7508 Q1515.66 73.7508 1510.11 67.4314 Q1504.6 61.0714 1504.6 49.9314 Q1504.6 38.7509 1510.11 32.4315 Q1515.66 26.1121 1525.43 26.1121 Z" fill="#000000" fill-rule="evenodd" fill-opacity="1" /><path clip-path="url(#clip720)" d="M1588.46 34.0924 L1588.46 9.54393 L1595.91 9.54393 L1595.91 72.576 L1588.46 72.576 L1588.46 65.7705 Q1586.11 69.8214 1582.5 71.8063 Q1578.94 73.7508 1573.91 73.7508 Q1565.69 73.7508 1560.51 67.1883 Q1555.36 60.6258 1555.36 49.9314 Q1555.36 39.2371 1560.51 32.6746 Q1565.69 26.1121 1573.91 26.1121 Q1578.94 26.1121 1582.5 28.0971 Q1586.11 30.0415 1588.46 34.0924 M1563.06 49.9314 Q1563.06 58.1548 1566.42 62.8538 Q1569.82 67.5124 1575.74 67.5124 Q1581.65 67.5124 1585.05 62.8538 Q1588.46 58.1548 1588.46 49.9314 Q1588.46 41.7081 1585.05 37.0496 Q1581.65 32.3505 1575.74 32.3505 Q1569.82 32.3505 1566.42 37.0496 Q1563.06 41.7081 1563.06 49.9314 Z" fill="#000000" fill-rule="evenodd" fill-opacity="1" /><path clip-path="url(#clip720)" d="M1650.07 48.0275 L1650.07 51.6733 L1615.8 51.6733 Q1616.29 59.3701 1620.42 63.421 Q1624.59 67.4314 1632 67.4314 Q1636.3 67.4314 1640.31 66.3781 Q1644.36 65.3249 1648.33 63.2184 L1648.33 70.267 Q1644.32 71.9684 1640.11 72.8596 Q1635.89 73.7508 1631.56 73.7508 Q1620.7 73.7508 1614.34 67.4314 Q1608.02 61.1119 1608.02 50.3365 Q1608.02 39.1965 1614.02 32.6746 Q1620.05 26.1121 1630.26 26.1121 Q1639.42 26.1121 1644.72 32.0264 Q1650.07 37.9003 1650.07 48.0275 M1642.62 45.84 Q1642.54 39.7232 1639.17 36.0774 Q1635.85 32.4315 1630.34 32.4315 Q1624.11 32.4315 1620.34 35.9558 Q1616.61 39.4801 1616.04 45.8805 L1642.62 45.84 Z" fill="#000000" fill-rule="evenodd" fill-opacity="1" /><path clip-path="url(#clip720)" d="M1662.31 9.54393 L1669.76 9.54393 L1669.76 72.576 L1662.31 72.576 L1662.31 9.54393 Z" fill="#000000" fill-rule="evenodd" fill-opacity="1" /><path clip-path="url(#clip720)" d="M1702.94 32.4315 Q1696.94 32.4315 1693.46 37.1306 Q1689.97 41.7891 1689.97 49.9314 Q1689.97 58.0738 1693.42 62.7728 Q1696.9 67.4314 1702.94 67.4314 Q1708.89 67.4314 1712.37 62.7323 Q1715.86 58.0333 1715.86 49.9314 Q1715.86 41.8701 1712.37 37.1711 Q1708.89 32.4315 1702.94 32.4315 M1702.94 26.1121 Q1712.66 26.1121 1718.21 32.4315 Q1723.76 38.7509 1723.76 49.9314 Q1723.76 61.0714 1718.21 67.4314 Q1712.66 73.7508 1702.94 73.7508 Q1693.17 73.7508 1687.62 67.4314 Q1682.11 61.0714 1682.11 49.9314 Q1682.11 38.7509 1687.62 32.4315 Q1693.17 26.1121 1702.94 26.1121 Z" fill="#000000" fill-rule="evenodd" fill-opacity="1" /><polyline clip-path="url(#clip722)" style="stroke:#009af9; stroke-linecap:butt; stroke-linejoin:round; stroke-width:4; stroke-opacity:1; fill:none" points="
  283.713,766.342 288.005,766.343 292.298,766.345 296.59,766.347 300.882,766.348 305.174,766.349 309.467,766.351 313.759,766.352 318.051,766.354 322.343,766.355 
  326.636,766.357 330.928,766.36 335.22,766.362 339.513,766.365 343.805,766.369 348.097,766.373 352.389,766.378 356.682,766.383 360.974,766.389 365.266,766.396 
  369.558,766.404 373.851,766.414 378.143,766.425 382.435,766.437 386.727,766.452 391.02,766.468 395.312,766.487 399.604,766.509 403.896,766.534 408.189,766.563 
  412.481,766.597 416.773,766.635 421.066,766.68 425.358,766.731 429.65,766.789 433.942,766.857 438.235,766.935 442.527,767.024 446.819,767.127 451.111,767.245 
  455.404,767.382 459.696,767.538 463.988,767.719 468.28,767.927 472.573,768.165 476.865,768.44 481.157,768.757 485.45,769.121 489.742,769.539 494.034,770.021 
  498.326,770.574 502.619,771.211 506.911,771.944 511.203,772.786 515.495,773.753 519.788,774.866 524.08,776.144 528.372,777.613 532.664,779.299 536.957,781.235 
  541.249,783.458 545.541,786.007 549.833,788.929 554.126,792.278 558.418,796.114 562.71,800.502 567.003,805.519 571.295,811.249 575.587,817.786 579.879,825.232 
  584.172,833.702 588.464,843.319 592.756,854.217 597.048,866.536 601.341,880.424 605.633,896.034 609.925,913.516 614.217,933.013 618.51,954.655 622.802,978.55 
  627.094,1004.76 631.386,1033.32 635.679,1064.17 639.971,1097.17 644.263,1132.09 648.556,1168.57 652.848,1206.1 657.14,1244.03 661.432,1281.57 665.725,1317.78 
  670.017,1351.62 674.309,1381.98 678.601,1407.74 682.894,1427.87 687.186,1441.47 691.478,1447.87 695.77,1446.72 700.063,1437.97 704.355,1421.95 708.647,1399.31 
  712.939,1370.97 717.232,1338.04 721.524,1301.76 725.816,1263.34 730.109,1223.96 734.401,1184.64 738.693,1146.25 742.985,1109.45 747.278,1074.74 751.57,1042.42 
  755.862,1012.66 760.154,985.519 764.447,960.945 768.739,938.837 773.031,919.046 777.323,901.401 781.616,885.717 785.908,871.809 790.2,859.5 794.492,848.619 
  798.785,839.009 803.077,830.526 807.369,823.042 811.662,816.439 815.954,810.613 820.246,805.474 824.538,800.938 828.831,796.934 833.123,793.4 837.415,790.278 
  841.707,787.521 846,785.084 850.292,782.93 854.584,781.026 858.876,779.343 863.169,777.853 867.461,776.536 871.753,775.37 876.046,774.338 880.338,773.425 
  884.63,772.616 888.922,771.9 893.215,771.267 897.507,770.705 901.799,770.208 906.091,769.768 910.384,769.377 914.676,769.032 918.968,768.726 923.26,768.454 
  927.553,768.214 931.845,768.001 936.137,767.812 940.429,767.645 944.722,767.497 949.014,767.366 953.306,767.249 957.599,767.146 961.891,767.055 966.183,766.974 
  970.475,766.902 974.768,766.838 979.06,766.782 983.352,766.732 987.644,766.688 991.937,766.648 996.229,766.613 1000.52,766.583 1004.81,766.555 1009.11,766.531 
  1013.4,766.51 1017.69,766.49 1021.98,766.474 1026.27,766.459 1030.57,766.445 1034.86,766.434 1039.15,766.423 1043.44,766.414 1047.74,766.406 1052.03,766.399 
  1056.32,766.392 1060.61,766.386 1064.91,766.381 1069.2,766.377 1073.49,766.373 1077.78,766.369 1082.07,766.366 1086.37,766.364 1090.66,766.361 1094.95,766.359 
  1099.24,766.357 1103.54,766.355 1107.83,766.354 1112.12,766.352 1116.41,766.351 1120.7,766.35 1125,766.349 1129.29,766.348 1133.58,766.348 1137.87,766.347 
  1142.17,766.347 1146.46,766.346 1150.75,766.346 1155.04,766.345 1159.33,766.345 1163.63,766.344 1167.92,766.344 1172.21,766.344 1176.5,766.344 1180.8,766.344 
  1185.09,766.343 1189.38,766.343 1193.67,766.343 1197.97,766.343 1202.26,766.343 1206.55,766.343 1210.84,766.343 1215.13,766.343 1219.43,766.343 1223.72,766.342 
  1228.01,766.342 1232.3,766.342 1236.6,766.342 1240.89,766.342 1245.18,766.342 1249.47,766.342 1253.76,766.342 1258.06,766.342 1262.35,766.342 1266.64,766.342 
  1270.93,766.342 1275.23,766.342 1279.52,766.342 1283.81,766.342 1288.1,766.342 1292.4,766.342 1296.69,766.342 1300.98,766.342 1305.27,766.342 1309.56,766.342 
  1313.86,766.342 1318.15,766.342 1322.44,766.342 1326.73,766.342 1331.03,766.342 1335.32,766.342 1339.61,766.342 1343.9,766.342 1348.19,766.342 1352.49,766.342 
  1356.78,766.342 1361.07,766.342 1365.36,766.342 1369.66,766.342 1373.95,766.342 1378.24,766.342 1382.53,766.342 1386.82,766.342 1391.12,766.342 1395.41,766.342 
  1399.7,766.342 1403.99,766.342 1408.29,766.342 1412.58,766.342 1416.87,766.342 1421.16,766.342 1425.46,766.342 1429.75,766.342 1434.04,766.342 1438.33,766.342 
  1442.62,766.342 1446.92,766.342 1451.21,766.342 1455.5,766.342 1459.79,766.342 1464.09,766.342 1468.38,766.342 1472.67,766.342 1476.96,766.342 1481.25,766.342 
  1485.55,766.342 1489.84,766.342 1494.13,766.342 1498.42,766.342 1502.72,766.342 1507.01,766.342 1511.3,766.342 1515.59,766.342 1519.89,766.342 1524.18,766.342 
  1528.47,766.342 1532.76,766.342 1537.05,766.342 1541.35,766.342 1545.64,766.342 1549.93,766.342 1554.22,766.342 1558.52,766.342 1562.81,766.342 1567.1,766.342 
  1571.39,766.342 1575.68,766.342 1579.98,766.342 1584.27,766.342 1588.56,766.342 1592.85,766.342 1597.15,766.342 1601.44,766.342 1605.73,766.342 1610.02,766.342 
  1614.31,766.342 1618.61,766.342 1622.9,766.342 1627.19,766.342 1631.48,766.342 1635.78,766.342 1640.07,766.342 1644.36,766.342 1648.65,766.342 1652.95,766.342 
  1657.24,766.342 1661.53,766.342 1665.82,766.342 1670.11,766.342 1674.41,766.342 1678.7,766.342 1682.99,766.342 1687.28,766.342 1691.58,766.342 1695.87,766.342 
  1700.16,766.342 1704.45,766.342 1708.74,766.342 1713.04,766.342 1717.33,766.342 1721.62,766.342 1725.91,766.342 1730.21,766.342 1734.5,766.342 1738.79,766.342 
  1743.08,766.342 1747.38,766.342 1751.67,766.342 1755.96,766.342 1760.25,766.342 1764.54,766.342 1768.84,766.342 1773.13,766.342 1777.42,766.342 1781.71,766.342 
  1786.01,766.342 1790.3,766.342 1794.59,766.342 1798.88,766.342 1803.17,766.342 1807.47,766.342 1811.76,766.342 1816.05,766.342 1820.34,766.342 1824.64,766.342 
  1828.93,766.342 1833.22,766.342 1837.51,766.342 1841.8,766.342 1846.1,766.342 1850.39,766.342 1854.68,766.342 1858.97,766.342 1863.27,766.342 1867.56,766.342 
  1871.85,766.342 1876.14,766.342 1880.44,766.342 1884.73,766.342 1889.02,766.342 1893.31,766.342 1897.6,766.342 1901.9,766.342 1906.19,766.342 1910.48,766.342 
  1914.77,766.342 1919.07,766.342 1923.36,766.342 1927.65,766.342 1931.94,766.342 1936.23,766.342 1940.53,766.342 1944.82,766.342 1949.11,766.342 1953.4,766.342 
  1957.7,766.342 1961.99,766.342 1966.28,766.342 1970.57,766.342 1974.87,766.342 1979.16,766.342 1983.45,766.342 1987.74,766.342 1992.03,766.342 1996.33,766.342 
  2000.62,766.342 2004.91,766.342 2009.2,766.342 2013.5,766.342 2017.79,766.342 2022.08,766.342 2026.37,766.342 2030.66,766.342 2034.96,766.342 2039.25,766.342 
  2043.54,766.342 2047.83,766.342 2052.13,766.342 2056.42,766.342 2060.71,766.342 2065,766.342 2069.29,766.342 2073.59,766.342 2077.88,766.342 2082.17,766.342 
  2086.46,766.342 2090.76,766.342 2095.05,766.342 2099.34,766.342 2103.63,766.342 2107.93,766.342 2112.22,766.342 2116.51,766.342 2120.8,766.342 2125.09,766.342 
  2129.39,766.342 2133.68,766.342 2137.97,766.342 2142.26,766.342 2146.56,766.342 2150.85,766.342 2155.14,766.342 2159.43,766.342 2163.72,766.342 2168.02,766.342 
  2172.31,766.342 2176.6,766.342 2180.89,766.342 2185.19,766.342 2189.48,766.342 2193.77,766.342 2198.06,766.342 2202.35,766.342 2206.65,766.342 2210.94,766.342 
  2215.23,766.342 2219.52,766.342 2223.82,766.342 2228.11,766.342 2232.4,766.342 2236.69,766.342 2240.99,766.342 2245.28,766.342 2249.57,766.342 2253.86,766.342 
  2258.15,766.342 2262.45,766.342 2266.74,766.342 2271.03,766.342 2275.32,766.342 2279.62,766.342 2283.91,766.342 2288.2,766.342 2292.49,766.342 
  "/>
<polyline clip-path="url(#clip722)" style="stroke:#e26f46; stroke-linecap:butt; stroke-linejoin:round; stroke-width:4; stroke-opacity:1; fill:none" points="
  283.713,766.342 288.005,766.345 292.298,766.342 296.59,766.34 300.882,766.34 305.174,766.339 309.467,766.338 313.759,766.338 318.051,766.337 322.343,766.336 
  326.636,766.335 330.928,766.334 335.22,766.333 339.513,766.332 343.805,766.33 348.097,766.329 352.389,766.327 356.682,766.324 360.974,766.322 365.266,766.319 
  369.558,766.315 373.851,766.311 378.143,766.306 382.435,766.301 386.727,766.295 391.02,766.288 395.312,766.279 399.604,766.27 403.896,766.259 408.189,766.247 
  412.481,766.232 416.773,766.216 421.066,766.196 425.358,766.175 429.65,766.149 433.942,766.12 438.235,766.087 442.527,766.048 446.819,766.004 451.111,765.953 
  455.404,765.894 459.696,765.827 463.988,765.749 468.28,765.659 472.573,765.556 476.865,765.438 481.157,765.302 485.45,765.145 489.742,764.965 494.034,764.758 
  498.326,764.52 502.619,764.246 506.911,763.932 511.203,763.57 515.495,763.154 519.788,762.677 524.08,762.129 528.372,761.5 532.664,760.778 536.957,759.95 
  541.249,759.001 545.541,757.914 549.833,756.67 554.126,755.247 558.418,753.621 562.71,751.765 567.003,749.65 571.295,747.242 575.587,744.506 579.879,741.403 
  584.172,737.893 588.464,733.931 592.756,729.475 597.048,724.479 601.341,718.902 605.633,712.705 609.925,705.86 614.217,698.347 618.51,690.165 622.802,681.337 
  627.094,671.915 631.386,661.99 635.679,651.702 639.971,641.245 644.263,630.882 648.556,620.94 652.848,611.823 657.14,604 661.432,597.994 665.725,594.364 
  670.017,593.67 674.309,596.43 678.601,603.07 682.894,613.871 687.186,628.921 691.478,648.069 695.77,670.913 700.063,696.799 704.355,724.863 708.647,754.085 
  712.939,783.371 717.232,811.645 721.524,837.929 725.816,861.413 730.109,881.505 734.401,897.844 738.693,910.303 742.985,918.953 747.278,924.034 751.57,925.901 
  755.862,924.986 760.154,921.752 764.447,916.664 768.739,910.162 773.031,902.646 777.323,894.466 781.616,885.919 785.908,877.247 790.2,868.644 794.492,860.258 
  798.785,852.199 803.077,844.544 807.369,837.341 811.662,830.62 815.954,824.389 820.246,818.648 824.538,813.383 828.831,808.577 833.123,804.205 837.415,800.24 
  841.707,796.656 846,793.422 850.292,790.512 854.584,787.897 858.876,785.551 863.169,783.45 867.461,781.571 871.753,779.891 876.046,778.391 880.338,777.054 
  884.63,775.861 888.922,774.799 893.215,773.853 897.507,773.012 901.799,772.263 906.091,771.598 910.384,771.007 914.676,770.481 918.968,770.014 923.26,769.6 
  927.553,769.232 931.845,768.905 936.137,768.616 940.429,768.358 944.722,768.13 949.014,767.928 953.306,767.748 957.599,767.589 961.891,767.447 966.183,767.322 
  970.475,767.211 974.768,767.112 979.06,767.025 983.352,766.947 987.644,766.879 991.937,766.818 996.229,766.764 1000.52,766.716 1004.81,766.673 1009.11,766.636 
  1013.4,766.602 1017.69,766.573 1021.98,766.547 1026.27,766.523 1030.57,766.503 1034.86,766.485 1039.15,766.468 1043.44,766.454 1047.74,766.441 1052.03,766.43 
  1056.32,766.42 1060.61,766.411 1064.91,766.403 1069.2,766.396 1073.49,766.39 1077.78,766.385 1082.07,766.38 1086.37,766.376 1090.66,766.372 1094.95,766.368 
  1099.24,766.365 1103.54,766.363 1107.83,766.36 1112.12,766.358 1116.41,766.356 1120.7,766.355 1125,766.353 1129.29,766.352 1133.58,766.351 1137.87,766.35 
  1142.17,766.349 1146.46,766.348 1150.75,766.347 1155.04,766.347 1159.33,766.346 1163.63,766.346 1167.92,766.345 1172.21,766.345 1176.5,766.345 1180.8,766.344 
  1185.09,766.344 1189.38,766.344 1193.67,766.344 1197.97,766.343 1202.26,766.343 1206.55,766.343 1210.84,766.343 1215.13,766.343 1219.43,766.343 1223.72,766.343 
  1228.01,766.343 1232.3,766.343 1236.6,766.342 1240.89,766.342 1245.18,766.342 1249.47,766.342 1253.76,766.342 1258.06,766.342 1262.35,766.342 1266.64,766.342 
  1270.93,766.342 1275.23,766.342 1279.52,766.342 1283.81,766.342 1288.1,766.342 1292.4,766.342 1296.69,766.342 1300.98,766.342 1305.27,766.342 1309.56,766.342 
  1313.86,766.342 1318.15,766.342 1322.44,766.342 1326.73,766.342 1331.03,766.342 1335.32,766.342 1339.61,766.342 1343.9,766.342 1348.19,766.342 1352.49,766.342 
  1356.78,766.342 1361.07,766.342 1365.36,766.342 1369.66,766.342 1373.95,766.342 1378.24,766.342 1382.53,766.342 1386.82,766.342 1391.12,766.342 1395.41,766.342 
  1399.7,766.342 1403.99,766.342 1408.29,766.342 1412.58,766.342 1416.87,766.342 1421.16,766.342 1425.46,766.342 1429.75,766.342 1434.04,766.342 1438.33,766.342 
  1442.62,766.342 1446.92,766.342 1451.21,766.342 1455.5,766.342 1459.79,766.342 1464.09,766.342 1468.38,766.342 1472.67,766.342 1476.96,766.342 1481.25,766.342 
  1485.55,766.342 1489.84,766.342 1494.13,766.342 1498.42,766.342 1502.72,766.342 1507.01,766.342 1511.3,766.342 1515.59,766.342 1519.89,766.342 1524.18,766.342 
  1528.47,766.342 1532.76,766.342 1537.05,766.342 1541.35,766.342 1545.64,766.342 1549.93,766.342 1554.22,766.342 1558.52,766.342 1562.81,766.342 1567.1,766.342 
  1571.39,766.342 1575.68,766.342 1579.98,766.342 1584.27,766.342 1588.56,766.342 1592.85,766.342 1597.15,766.342 1601.44,766.342 1605.73,766.342 1610.02,766.342 
  1614.31,766.342 1618.61,766.342 1622.9,766.342 1627.19,766.342 1631.48,766.342 1635.78,766.342 1640.07,766.342 1644.36,766.342 1648.65,766.342 1652.95,766.342 
  1657.24,766.342 1661.53,766.342 1665.82,766.342 1670.11,766.342 1674.41,766.342 1678.7,766.342 1682.99,766.342 1687.28,766.342 1691.58,766.342 1695.87,766.342 
  1700.16,766.342 1704.45,766.342 1708.74,766.342 1713.04,766.342 1717.33,766.342 1721.62,766.342 1725.91,766.342 1730.21,766.342 1734.5,766.342 1738.79,766.342 
  1743.08,766.342 1747.38,766.342 1751.67,766.342 1755.96,766.342 1760.25,766.342 1764.54,766.342 1768.84,766.342 1773.13,766.342 1777.42,766.342 1781.71,766.342 
  1786.01,766.342 1790.3,766.342 1794.59,766.342 1798.88,766.342 1803.17,766.342 1807.47,766.342 1811.76,766.342 1816.05,766.342 1820.34,766.342 1824.64,766.342 
  1828.93,766.342 1833.22,766.342 1837.51,766.342 1841.8,766.342 1846.1,766.342 1850.39,766.342 1854.68,766.342 1858.97,766.342 1863.27,766.342 1867.56,766.342 
  1871.85,766.342 1876.14,766.342 1880.44,766.342 1884.73,766.342 1889.02,766.342 1893.31,766.342 1897.6,766.342 1901.9,766.342 1906.19,766.342 1910.48,766.342 
  1914.77,766.342 1919.07,766.342 1923.36,766.342 1927.65,766.342 1931.94,766.342 1936.23,766.342 1940.53,766.342 1944.82,766.342 1949.11,766.342 1953.4,766.342 
  1957.7,766.342 1961.99,766.342 1966.28,766.342 1970.57,766.342 1974.87,766.342 1979.16,766.342 1983.45,766.342 1987.74,766.342 1992.03,766.342 1996.33,766.342 
  2000.62,766.342 2004.91,766.342 2009.2,766.342 2013.5,766.342 2017.79,766.342 2022.08,766.342 2026.37,766.342 2030.66,766.342 2034.96,766.342 2039.25,766.342 
  2043.54,766.342 2047.83,766.342 2052.13,766.342 2056.42,766.342 2060.71,766.342 2065,766.342 2069.29,766.342 2073.59,766.342 2077.88,766.342 2082.17,766.342 
  2086.46,766.342 2090.76,766.342 2095.05,766.342 2099.34,766.342 2103.63,766.342 2107.93,766.342 2112.22,766.342 2116.51,766.342 2120.8,766.342 2125.09,766.342 
  2129.39,766.342 2133.68,766.342 2137.97,766.342 2142.26,766.342 2146.56,766.342 2150.85,766.342 2155.14,766.342 2159.43,766.342 2163.72,766.342 2168.02,766.342 
  2172.31,766.342 2176.6,766.342 2180.89,766.342 2185.19,766.342 2189.48,766.342 2193.77,766.342 2198.06,766.342 2202.35,766.342 2206.65,766.342 2210.94,766.342 
  2215.23,766.342 2219.52,766.342 2223.82,766.342 2228.11,766.342 2232.4,766.342 2236.69,766.342 2240.99,766.342 2245.28,766.342 2249.57,766.342 2253.86,766.342 
  2258.15,766.342 2262.45,766.342 2266.74,766.342 2271.03,766.342 2275.32,766.342 2279.62,766.342 2283.91,766.342 2288.2,766.342 2292.49,766.342 
  "/>
<polyline clip-path="url(#clip722)" style="stroke:#3da44d; stroke-linecap:butt; stroke-linejoin:round; stroke-width:4; stroke-opacity:1; fill:none" points="
  283.713,766.342 288.005,766.339 292.298,766.34 296.59,766.341 300.882,766.341 305.174,766.341 309.467,766.34 313.759,766.34 318.051,766.34 322.343,766.34 
  326.636,766.339 330.928,766.339 335.22,766.339 339.513,766.338 343.805,766.337 348.097,766.337 352.389,766.336 356.682,766.335 360.974,766.334 365.266,766.333 
  369.558,766.331 373.851,766.33 378.143,766.328 382.435,766.326 386.727,766.323 391.02,766.321 395.312,766.317 399.604,766.314 403.896,766.309 408.189,766.305 
  412.481,766.299 416.773,766.292 421.066,766.285 425.358,766.276 429.65,766.266 433.942,766.255 438.235,766.242 442.527,766.227 446.819,766.209 451.111,766.189 
  455.404,766.166 459.696,766.14 463.988,766.109 468.28,766.074 472.573,766.034 476.865,765.987 481.157,765.934 485.45,765.873 489.742,765.802 494.034,765.721 
  498.326,765.627 502.619,765.519 506.911,765.396 511.203,765.254 515.495,765.09 519.788,764.902 524.08,764.686 528.372,764.439 532.664,764.154 536.957,763.827 
  541.249,763.452 545.541,763.022 549.833,762.53 554.126,761.965 558.418,761.319 562.71,760.58 567.003,759.736 571.295,758.772 575.587,757.674 579.879,756.423 
  584.172,755.003 588.464,753.392 592.756,751.569 597.048,749.512 601.341,747.198 605.633,744.603 609.925,741.706 614.217,738.488 618.51,734.931 622.802,731.025 
  627.094,726.77 631.386,722.174 635.679,717.263 639.971,712.08 644.263,706.694 648.556,701.2 652.848,695.725 657.14,690.429 661.432,685.508 665.725,681.189 
  670.017,677.728 674.309,675.396 678.601,674.465 682.894,675.193 687.186,677.793 691.478,682.419 695.77,689.136 700.063,697.906 704.355,708.577 708.647,720.886 
  712.939,734.468 717.232,748.881 721.524,763.636 725.816,778.234 730.109,792.202 734.401,805.122 738.693,816.657 742.985,826.561 747.278,834.689 751.57,840.99 
  755.862,845.494 760.154,848.301 764.447,849.561 768.739,849.457 773.031,848.189 777.323,845.965 781.616,842.983 785.908,839.43 790.2,835.474 794.492,831.262 
  798.785,826.917 803.077,822.545 807.369,818.226 811.662,814.025 815.954,809.99 820.246,806.155 824.538,802.543 828.831,799.166 833.123,796.03 837.415,793.134 
  841.707,790.472 846,788.036 850.292,785.815 854.584,783.797 858.876,781.969 863.169,780.317 867.461,778.827 871.753,777.486 876.046,776.281 880.338,775.201 
  884.63,774.233 888.922,773.367 893.215,772.592 897.507,771.901 901.799,771.285 906.091,770.735 910.384,770.245 914.676,769.809 918.968,769.421 923.26,769.075 
  927.553,768.768 931.845,768.496 936.137,768.253 940.429,768.038 944.722,767.846 949.014,767.677 953.306,767.526 957.599,767.392 961.891,767.273 966.183,767.168 
  970.475,767.074 974.768,766.991 979.06,766.918 983.352,766.852 987.644,766.795 991.937,766.743 996.229,766.698 1000.52,766.657 1004.81,766.622 1009.11,766.59 
  1013.4,766.562 1017.69,766.537 1021.98,766.515 1026.27,766.495 1030.57,766.478 1034.86,766.462 1039.15,766.449 1043.44,766.437 1047.74,766.426 1052.03,766.416 
  1056.32,766.408 1060.61,766.4 1064.91,766.394 1069.2,766.388 1073.49,766.383 1077.78,766.378 1082.07,766.374 1086.37,766.37 1090.66,766.367 1094.95,766.364 
  1099.24,766.362 1103.54,766.359 1107.83,766.357 1112.12,766.356 1116.41,766.354 1120.7,766.353 1125,766.352 1129.29,766.35 1133.58,766.35 1137.87,766.349 
  1142.17,766.348 1146.46,766.347 1150.75,766.347 1155.04,766.346 1159.33,766.346 1163.63,766.345 1167.92,766.345 1172.21,766.345 1176.5,766.344 1180.8,766.344 
  1185.09,766.344 1189.38,766.344 1193.67,766.343 1197.97,766.343 1202.26,766.343 1206.55,766.343 1210.84,766.343 1215.13,766.343 1219.43,766.343 1223.72,766.343 
  1228.01,766.343 1232.3,766.342 1236.6,766.342 1240.89,766.342 1245.18,766.342 1249.47,766.342 1253.76,766.342 1258.06,766.342 1262.35,766.342 1266.64,766.342 
  1270.93,766.342 1275.23,766.342 1279.52,766.342 1283.81,766.342 1288.1,766.342 1292.4,766.342 1296.69,766.342 1300.98,766.342 1305.27,766.342 1309.56,766.342 
  1313.86,766.342 1318.15,766.342 1322.44,766.342 1326.73,766.342 1331.03,766.342 1335.32,766.342 1339.61,766.342 1343.9,766.342 1348.19,766.342 1352.49,766.342 
  1356.78,766.342 1361.07,766.342 1365.36,766.342 1369.66,766.342 1373.95,766.342 1378.24,766.342 1382.53,766.342 1386.82,766.342 1391.12,766.342 1395.41,766.342 
  1399.7,766.342 1403.99,766.342 1408.29,766.342 1412.58,766.342 1416.87,766.342 1421.16,766.342 1425.46,766.342 1429.75,766.342 1434.04,766.342 1438.33,766.342 
  1442.62,766.342 1446.92,766.342 1451.21,766.342 1455.5,766.342 1459.79,766.342 1464.09,766.342 1468.38,766.342 1472.67,766.342 1476.96,766.342 1481.25,766.342 
  1485.55,766.342 1489.84,766.342 1494.13,766.342 1498.42,766.342 1502.72,766.342 1507.01,766.342 1511.3,766.342 1515.59,766.342 1519.89,766.342 1524.18,766.342 
  1528.47,766.342 1532.76,766.342 1537.05,766.342 1541.35,766.342 1545.64,766.342 1549.93,766.342 1554.22,766.342 1558.52,766.342 1562.81,766.342 1567.1,766.342 
  1571.39,766.342 1575.68,766.342 1579.98,766.342 1584.27,766.342 1588.56,766.342 1592.85,766.342 1597.15,766.342 1601.44,766.342 1605.73,766.342 1610.02,766.342 
  1614.31,766.342 1618.61,766.342 1622.9,766.342 1627.19,766.342 1631.48,766.342 1635.78,766.342 1640.07,766.342 1644.36,766.342 1648.65,766.342 1652.95,766.342 
  1657.24,766.342 1661.53,766.342 1665.82,766.342 1670.11,766.342 1674.41,766.342 1678.7,766.342 1682.99,766.342 1687.28,766.342 1691.58,766.342 1695.87,766.342 
  1700.16,766.342 1704.45,766.342 1708.74,766.342 1713.04,766.342 1717.33,766.342 1721.62,766.342 1725.91,766.342 1730.21,766.342 1734.5,766.342 1738.79,766.342 
  1743.08,766.342 1747.38,766.342 1751.67,766.342 1755.96,766.342 1760.25,766.342 1764.54,766.342 1768.84,766.342 1773.13,766.342 1777.42,766.342 1781.71,766.342 
  1786.01,766.342 1790.3,766.342 1794.59,766.342 1798.88,766.342 1803.17,766.342 1807.47,766.342 1811.76,766.342 1816.05,766.342 1820.34,766.342 1824.64,766.342 
  1828.93,766.342 1833.22,766.342 1837.51,766.342 1841.8,766.342 1846.1,766.342 1850.39,766.342 1854.68,766.342 1858.97,766.342 1863.27,766.342 1867.56,766.342 
  1871.85,766.342 1876.14,766.342 1880.44,766.342 1884.73,766.342 1889.02,766.342 1893.31,766.342 1897.6,766.342 1901.9,766.342 1906.19,766.342 1910.48,766.342 
  1914.77,766.342 1919.07,766.342 1923.36,766.342 1927.65,766.342 1931.94,766.342 1936.23,766.342 1940.53,766.342 1944.82,766.342 1949.11,766.342 1953.4,766.342 
  1957.7,766.342 1961.99,766.342 1966.28,766.342 1970.57,766.342 1974.87,766.342 1979.16,766.342 1983.45,766.342 1987.74,766.342 1992.03,766.342 1996.33,766.342 
  2000.62,766.342 2004.91,766.342 2009.2,766.342 2013.5,766.342 2017.79,766.342 2022.08,766.342 2026.37,766.342 2030.66,766.342 2034.96,766.342 2039.25,766.342 
  2043.54,766.342 2047.83,766.342 2052.13,766.342 2056.42,766.342 2060.71,766.342 2065,766.342 2069.29,766.342 2073.59,766.342 2077.88,766.342 2082.17,766.342 
  2086.46,766.342 2090.76,766.342 2095.05,766.342 2099.34,766.342 2103.63,766.342 2107.93,766.342 2112.22,766.342 2116.51,766.342 2120.8,766.342 2125.09,766.342 
  2129.39,766.342 2133.68,766.342 2137.97,766.342 2142.26,766.342 2146.56,766.342 2150.85,766.342 2155.14,766.342 2159.43,766.342 2163.72,766.342 2168.02,766.342 
  2172.31,766.342 2176.6,766.342 2180.89,766.342 2185.19,766.342 2189.48,766.342 2193.77,766.342 2198.06,766.342 2202.35,766.342 2206.65,766.342 2210.94,766.342 
  2215.23,766.342 2219.52,766.342 2223.82,766.342 2228.11,766.342 2232.4,766.342 2236.69,766.342 2240.99,766.342 2245.28,766.342 2249.57,766.342 2253.86,766.342 
  2258.15,766.342 2262.45,766.342 2266.74,766.342 2271.03,766.342 2275.32,766.342 2279.62,766.342 2283.91,766.342 2288.2,766.342 2292.49,766.342 
  "/>
<polyline clip-path="url(#clip722)" style="stroke:#c271d2; stroke-linecap:butt; stroke-linejoin:round; stroke-width:4; stroke-opacity:1; fill:none" points="
  283.713,766.342 288.005,766.342 292.298,766.341 296.59,766.34 300.882,766.339 305.174,766.339 309.467,766.339 313.759,766.338 318.051,766.337 322.343,766.337 
  326.636,766.336 330.928,766.335 335.22,766.334 339.513,766.333 343.805,766.331 348.097,766.33 352.389,766.328 356.682,766.326 360.974,766.323 365.266,766.32 
  369.558,766.317 373.851,766.313 378.143,766.309 382.435,766.304 386.727,766.298 391.02,766.292 395.312,766.284 399.604,766.275 403.896,766.265 408.189,766.253 
  412.481,766.24 416.773,766.225 421.066,766.207 425.358,766.187 429.65,766.163 433.942,766.136 438.235,766.105 442.527,766.069 446.819,766.028 451.111,765.981 
  455.404,765.926 459.696,765.863 463.988,765.791 468.28,765.708 472.573,765.612 476.865,765.502 481.157,765.375 485.45,765.23 489.742,765.062 494.034,764.869 
  498.326,764.647 502.619,764.391 506.911,764.097 511.203,763.759 515.495,763.37 519.788,762.923 524.08,762.408 528.372,761.817 532.664,761.137 536.957,760.355 
  541.249,759.457 545.541,758.424 549.833,757.239 554.126,755.877 558.418,754.314 562.71,752.52 567.003,750.463 571.295,748.105 575.587,745.403 579.879,742.309 
  584.172,738.771 588.464,734.726 592.756,730.108 597.048,724.842 601.341,718.844 605.633,712.026 609.925,704.286 614.217,695.521 618.51,685.617 622.802,674.456 
  627.094,661.919 631.386,647.884 635.679,632.236 639.971,614.871 644.263,595.699 648.556,574.658 652.848,551.721 657.14,526.908 661.432,500.297 665.725,472.035 
  670.017,442.352 674.309,411.567 678.601,380.093 682.894,348.436 687.186,317.187 691.478,287.007 695.77,258.602 700.063,232.692 704.355,209.975 708.647,191.085 
  712.939,176.559 717.232,166.798 721.524,162.047 725.816,162.381 730.109,167.704 734.401,177.762 738.693,192.162 742.985,210.403 747.278,231.908 751.57,256.058 
  755.862,282.225 760.154,309.796 764.447,338.198 768.739,366.912 773.031,395.486 777.323,423.536 781.616,450.749 785.908,476.881 790.2,501.75 794.492,525.23 
  798.785,547.243 803.077,567.754 807.369,586.76 811.662,604.285 815.954,620.376 820.246,635.091 824.538,648.504 828.831,660.691 833.123,671.734 837.415,681.716 
  841.707,690.72 846,698.826 850.292,706.111 854.584,712.647 858.876,718.505 863.169,723.748 867.461,728.435 871.753,732.621 876.046,736.357 880.338,739.689 
  884.63,742.658 888.922,745.302 893.215,747.656 897.507,749.75 901.799,751.612 906.091,753.268 910.384,754.739 914.676,756.046 918.968,757.207 923.26,758.238 
  927.553,759.153 931.845,759.966 936.137,760.687 940.429,761.327 944.722,761.895 949.014,762.398 953.306,762.845 957.599,763.241 961.891,763.593 966.183,763.905 
  970.475,764.181 974.768,764.426 979.06,764.644 983.352,764.836 987.644,765.007 991.937,765.159 996.229,765.293 1000.52,765.412 1004.81,765.518 1009.11,765.611 
  1013.4,765.694 1017.69,765.768 1021.98,765.833 1026.27,765.891 1030.57,765.942 1034.86,765.988 1039.15,766.028 1043.44,766.064 1047.74,766.095 1052.03,766.123 
  1056.32,766.148 1060.61,766.17 1064.91,766.19 1069.2,766.207 1073.49,766.222 1077.78,766.236 1082.07,766.248 1086.37,766.259 1090.66,766.268 1094.95,766.277 
  1099.24,766.284 1103.54,766.291 1107.83,766.296 1112.12,766.302 1116.41,766.306 1120.7,766.31 1125,766.314 1129.29,766.317 1133.58,766.32 1137.87,766.322 
  1142.17,766.325 1146.46,766.327 1150.75,766.328 1155.04,766.33 1159.33,766.331 1163.63,766.332 1167.92,766.334 1172.21,766.335 1176.5,766.335 1180.8,766.336 
  1185.09,766.337 1189.38,766.337 1193.67,766.338 1197.97,766.338 1202.26,766.339 1206.55,766.339 1210.84,766.339 1215.13,766.34 1219.43,766.34 1223.72,766.34 
  1228.01,766.34 1232.3,766.341 1236.6,766.341 1240.89,766.341 1245.18,766.341 1249.47,766.341 1253.76,766.341 1258.06,766.341 1262.35,766.341 1266.64,766.341 
  1270.93,766.342 1275.23,766.342 1279.52,766.342 1283.81,766.342 1288.1,766.342 1292.4,766.342 1296.69,766.342 1300.98,766.342 1305.27,766.342 1309.56,766.342 
  1313.86,766.342 1318.15,766.342 1322.44,766.342 1326.73,766.342 1331.03,766.342 1335.32,766.342 1339.61,766.342 1343.9,766.342 1348.19,766.342 1352.49,766.342 
  1356.78,766.342 1361.07,766.342 1365.36,766.342 1369.66,766.342 1373.95,766.342 1378.24,766.342 1382.53,766.342 1386.82,766.342 1391.12,766.342 1395.41,766.342 
  1399.7,766.342 1403.99,766.342 1408.29,766.342 1412.58,766.342 1416.87,766.342 1421.16,766.342 1425.46,766.342 1429.75,766.342 1434.04,766.342 1438.33,766.342 
  1442.62,766.342 1446.92,766.342 1451.21,766.342 1455.5,766.342 1459.79,766.342 1464.09,766.342 1468.38,766.342 1472.67,766.342 1476.96,766.342 1481.25,766.342 
  1485.55,766.342 1489.84,766.342 1494.13,766.342 1498.42,766.342 1502.72,766.342 1507.01,766.342 1511.3,766.342 1515.59,766.342 1519.89,766.342 1524.18,766.342 
  1528.47,766.342 1532.76,766.342 1537.05,766.342 1541.35,766.342 1545.64,766.342 1549.93,766.342 1554.22,766.342 1558.52,766.342 1562.81,766.342 1567.1,766.342 
  1571.39,766.342 1575.68,766.342 1579.98,766.342 1584.27,766.342 1588.56,766.342 1592.85,766.342 1597.15,766.342 1601.44,766.342 1605.73,766.342 1610.02,766.342 
  1614.31,766.342 1618.61,766.342 1622.9,766.342 1627.19,766.342 1631.48,766.342 1635.78,766.342 1640.07,766.342 1644.36,766.342 1648.65,766.342 1652.95,766.342 
  1657.24,766.342 1661.53,766.342 1665.82,766.342 1670.11,766.342 1674.41,766.342 1678.7,766.342 1682.99,766.342 1687.28,766.342 1691.58,766.342 1695.87,766.342 
  1700.16,766.342 1704.45,766.342 1708.74,766.342 1713.04,766.342 1717.33,766.342 1721.62,766.342 1725.91,766.342 1730.21,766.342 1734.5,766.342 1738.79,766.342 
  1743.08,766.342 1747.38,766.342 1751.67,766.342 1755.96,766.342 1760.25,766.342 1764.54,766.342 1768.84,766.342 1773.13,766.342 1777.42,766.342 1781.71,766.342 
  1786.01,766.342 1790.3,766.342 1794.59,766.342 1798.88,766.342 1803.17,766.342 1807.47,766.342 1811.76,766.342 1816.05,766.342 1820.34,766.342 1824.64,766.342 
  1828.93,766.342 1833.22,766.342 1837.51,766.342 1841.8,766.342 1846.1,766.342 1850.39,766.342 1854.68,766.342 1858.97,766.342 1863.27,766.342 1867.56,766.342 
  1871.85,766.342 1876.14,766.342 1880.44,766.342 1884.73,766.342 1889.02,766.342 1893.31,766.342 1897.6,766.342 1901.9,766.342 1906.19,766.342 1910.48,766.342 
  1914.77,766.342 1919.07,766.342 1923.36,766.342 1927.65,766.342 1931.94,766.342 1936.23,766.342 1940.53,766.342 1944.82,766.342 1949.11,766.342 1953.4,766.342 
  1957.7,766.342 1961.99,766.342 1966.28,766.342 1970.57,766.342 1974.87,766.342 1979.16,766.342 1983.45,766.342 1987.74,766.342 1992.03,766.342 1996.33,766.342 
  2000.62,766.342 2004.91,766.342 2009.2,766.342 2013.5,766.342 2017.79,766.342 2022.08,766.342 2026.37,766.342 2030.66,766.342 2034.96,766.342 2039.25,766.342 
  2043.54,766.342 2047.83,766.342 2052.13,766.342 2056.42,766.342 2060.71,766.342 2065,766.342 2069.29,766.342 2073.59,766.342 2077.88,766.342 2082.17,766.342 
  2086.46,766.342 2090.76,766.342 2095.05,766.342 2099.34,766.342 2103.63,766.342 2107.93,766.342 2112.22,766.342 2116.51,766.342 2120.8,766.342 2125.09,766.342 
  2129.39,766.342 2133.68,766.342 2137.97,766.342 2142.26,766.342 2146.56,766.342 2150.85,766.342 2155.14,766.342 2159.43,766.342 2163.72,766.342 2168.02,766.342 
  2172.31,766.342 2176.6,766.342 2180.89,766.342 2185.19,766.342 2189.48,766.342 2193.77,766.342 2198.06,766.342 2202.35,766.342 2206.65,766.342 2210.94,766.342 
  2215.23,766.342 2219.52,766.342 2223.82,766.342 2228.11,766.342 2232.4,766.342 2236.69,766.342 2240.99,766.342 2245.28,766.342 2249.57,766.342 2253.86,766.342 
  2258.15,766.342 2262.45,766.342 2266.74,766.342 2271.03,766.342 2275.32,766.342 2279.62,766.342 2283.91,766.342 2288.2,766.342 2292.49,766.342 
  "/>
<path clip-path="url(#clip720)" d="
M1986.14 428.105 L2281.78 428.105 L2281.78 168.905 L1986.14 168.905  Z
  " fill="#ffffff" fill-rule="evenodd" fill-opacity="1"/>
<polyline clip-path="url(#clip720)" style="stroke:#000000; stroke-linecap:butt; stroke-linejoin:round; stroke-width:4; stroke-opacity:1; fill:none" points="
  1986.14,428.105 2281.78,428.105 2281.78,168.905 1986.14,168.905 1986.14,428.105 
  "/>
<polyline clip-path="url(#clip720)" style="stroke:#009af9; stroke-linecap:butt; stroke-linejoin:round; stroke-width:4; stroke-opacity:1; fill:none" points="
  2009.8,220.745 2151.75,220.745 
  "/>
<path clip-path="url(#clip720)" d="M2194.32 216.034 L2194.32 202.006 L2198.58 202.006 L2198.58 238.025 L2194.32 238.025 L2194.32 234.136 Q2192.98 236.451 2190.92 237.585 Q2188.88 238.696 2186.01 238.696 Q2181.31 238.696 2178.35 234.946 Q2175.41 231.196 2175.41 225.085 Q2175.41 218.974 2178.35 215.224 Q2181.31 211.474 2186.01 211.474 Q2188.88 211.474 2190.92 212.608 Q2192.98 213.719 2194.32 216.034 M2179.81 225.085 Q2179.81 229.784 2181.73 232.469 Q2183.67 235.131 2187.05 235.131 Q2190.43 235.131 2192.38 232.469 Q2194.32 229.784 2194.32 225.085 Q2194.32 220.386 2192.38 217.724 Q2190.43 215.039 2187.05 215.039 Q2183.67 215.039 2181.73 217.724 Q2179.81 220.386 2179.81 225.085 Z" fill="#000000" fill-rule="evenodd" fill-opacity="1" /><path clip-path="url(#clip720)" d="M2228.26 204.599 L2228.26 209.159 Q2225.6 207.886 2223.23 207.261 Q2220.87 206.636 2218.67 206.636 Q2214.85 206.636 2212.77 208.117 Q2210.71 209.599 2210.71 212.33 Q2210.71 214.622 2212.08 215.803 Q2213.47 216.96 2217.31 217.678 L2220.13 218.256 Q2225.36 219.252 2227.84 221.775 Q2230.34 224.275 2230.34 228.488 Q2230.34 233.511 2226.96 236.103 Q2223.6 238.696 2217.1 238.696 Q2214.65 238.696 2211.87 238.14 Q2209.11 237.585 2206.15 236.497 L2206.15 231.682 Q2209 233.279 2211.73 234.089 Q2214.46 234.9 2217.1 234.9 Q2221.1 234.9 2223.28 233.326 Q2225.46 231.752 2225.46 228.835 Q2225.46 226.289 2223.88 224.853 Q2222.33 223.418 2218.77 222.701 L2215.92 222.145 Q2210.69 221.103 2208.35 218.881 Q2206.01 216.659 2206.01 212.701 Q2206.01 208.117 2209.23 205.479 Q2212.47 202.84 2218.14 202.84 Q2220.57 202.84 2223.1 203.279 Q2225.62 203.719 2228.26 204.599 Z" fill="#000000" fill-rule="evenodd" fill-opacity="1" /><polyline clip-path="url(#clip720)" style="stroke:#e26f46; stroke-linecap:butt; stroke-linejoin:round; stroke-width:4; stroke-opacity:1; fill:none" points="
  2009.8,272.585 2151.75,272.585 
  "/>
<path clip-path="url(#clip720)" d="M2194.32 267.874 L2194.32 253.846 L2198.58 253.846 L2198.58 289.865 L2194.32 289.865 L2194.32 285.976 Q2192.98 288.291 2190.92 289.425 Q2188.88 290.536 2186.01 290.536 Q2181.31 290.536 2178.35 286.786 Q2175.41 283.036 2175.41 276.925 Q2175.41 270.814 2178.35 267.064 Q2181.31 263.314 2186.01 263.314 Q2188.88 263.314 2190.92 264.448 Q2192.98 265.559 2194.32 267.874 M2179.81 276.925 Q2179.81 281.624 2181.73 284.309 Q2183.67 286.971 2187.05 286.971 Q2190.43 286.971 2192.38 284.309 Q2194.32 281.624 2194.32 276.925 Q2194.32 272.226 2192.38 269.564 Q2190.43 266.879 2187.05 266.879 Q2183.67 266.879 2181.73 269.564 Q2179.81 272.226 2179.81 276.925 Z" fill="#000000" fill-rule="evenodd" fill-opacity="1" /><path clip-path="url(#clip720)" d="M2207.54 255.305 L2229.39 255.305 L2229.39 259.24 L2212.22 259.24 L2212.22 269.471 L2228.67 269.471 L2228.67 273.406 L2212.22 273.406 L2212.22 285.929 L2229.81 285.929 L2229.81 289.865 L2207.54 289.865 L2207.54 255.305 Z" fill="#000000" fill-rule="evenodd" fill-opacity="1" /><polyline clip-path="url(#clip720)" style="stroke:#3da44d; stroke-linecap:butt; stroke-linejoin:round; stroke-width:4; stroke-opacity:1; fill:none" points="
  2009.8,324.425 2151.75,324.425 
  "/>
<path clip-path="url(#clip720)" d="M2194.32 319.714 L2194.32 305.686 L2198.58 305.686 L2198.58 341.705 L2194.32 341.705 L2194.32 337.816 Q2192.98 340.131 2190.92 341.265 Q2188.88 342.376 2186.01 342.376 Q2181.31 342.376 2178.35 338.626 Q2175.41 334.876 2175.41 328.765 Q2175.41 322.654 2178.35 318.904 Q2181.31 315.154 2186.01 315.154 Q2188.88 315.154 2190.92 316.288 Q2192.98 317.399 2194.32 319.714 M2179.81 328.765 Q2179.81 333.464 2181.73 336.149 Q2183.67 338.811 2187.05 338.811 Q2190.43 338.811 2192.38 336.149 Q2194.32 333.464 2194.32 328.765 Q2194.32 324.066 2192.38 321.404 Q2190.43 318.719 2187.05 318.719 Q2183.67 318.719 2181.73 321.404 Q2179.81 324.066 2179.81 328.765 Z" fill="#000000" fill-rule="evenodd" fill-opacity="1" /><path clip-path="url(#clip720)" d="M2207.54 307.145 L2212.22 307.145 L2212.22 341.705 L2207.54 341.705 L2207.54 307.145 Z" fill="#000000" fill-rule="evenodd" fill-opacity="1" /><polyline clip-path="url(#clip720)" style="stroke:#c271d2; stroke-linecap:butt; stroke-linejoin:round; stroke-width:4; stroke-opacity:1; fill:none" points="
  2009.8,376.265 2151.75,376.265 
  "/>
<path clip-path="url(#clip720)" d="M2194.32 371.554 L2194.32 357.526 L2198.58 357.526 L2198.58 393.545 L2194.32 393.545 L2194.32 389.656 Q2192.98 391.971 2190.92 393.105 Q2188.88 394.216 2186.01 394.216 Q2181.31 394.216 2178.35 390.466 Q2175.41 386.716 2175.41 380.605 Q2175.41 374.494 2178.35 370.744 Q2181.31 366.994 2186.01 366.994 Q2188.88 366.994 2190.92 368.128 Q2192.98 369.239 2194.32 371.554 M2179.81 380.605 Q2179.81 385.304 2181.73 387.989 Q2183.67 390.651 2187.05 390.651 Q2190.43 390.651 2192.38 387.989 Q2194.32 385.304 2194.32 380.605 Q2194.32 375.906 2192.38 373.244 Q2190.43 370.559 2187.05 370.559 Q2183.67 370.559 2181.73 373.244 Q2179.81 375.906 2179.81 380.605 Z" fill="#000000" fill-rule="evenodd" fill-opacity="1" /><path clip-path="url(#clip720)" d="M2223.93 377.341 Q2225.43 377.85 2226.85 379.517 Q2228.28 381.184 2229.72 384.1 L2234.46 393.545 L2229.44 393.545 L2225.02 384.679 Q2223.3 381.207 2221.68 380.073 Q2220.09 378.938 2217.31 378.938 L2212.22 378.938 L2212.22 393.545 L2207.54 393.545 L2207.54 358.985 L2218.1 358.985 Q2224.02 358.985 2226.94 361.461 Q2229.85 363.938 2229.85 368.938 Q2229.85 372.202 2228.33 374.355 Q2226.82 376.508 2223.93 377.341 M2212.22 362.827 L2212.22 375.096 L2218.1 375.096 Q2221.48 375.096 2223.19 373.545 Q2224.92 371.971 2224.92 368.938 Q2224.92 365.906 2223.19 364.378 Q2221.48 362.827 2218.1 362.827 L2212.22 362.827 Z" fill="#000000" fill-rule="evenodd" fill-opacity="1" /></svg>
