<?xml version="1.0" encoding="utf-8"?>
<svg xmlns="http://www.w3.org/2000/svg" xmlns:xlink="http://www.w3.org/1999/xlink" width="600" height="400" viewBox="0 0 2400 1600">
<defs>
  <clipPath id="clip020">
    <rect x="0" y="0" width="2400" height="1600"/>
  </clipPath>
</defs>
<path clip-path="url(#clip020)" d="
M0 1600 L2400 1600 L2400 0 L0 0  Z
  " fill="#ffffff" fill-rule="evenodd" fill-opacity="1"/>
<defs>
  <clipPath id="clip021">
    <rect x="480" y="0" width="1681" height="1600"/>
  </clipPath>
</defs>
<path clip-path="url(#clip020)" d="
M306.25 1486.45 L2352.76 1486.45 L2352.76 123.472 L306.25 123.472  Z
  " fill="#ffffff" fill-rule="evenodd" fill-opacity="1"/>
<defs>
  <clipPath id="clip022">
    <rect x="306" y="123" width="2048" height="1364"/>
  </clipPath>
</defs>
<polyline clip-path="url(#clip022)" style="stroke:#000000; stroke-linecap:butt; stroke-linejoin:round; stroke-width:2; stroke-opacity:0.1; fill:none" points="
  360.045,1486.45 360.045,123.472 
  "/>
<polyline clip-path="url(#clip022)" style="stroke:#000000; stroke-linecap:butt; stroke-linejoin:round; stroke-width:2; stroke-opacity:0.1; fill:none" points="
  772.58,1486.45 772.58,123.472 
  "/>
<polyline clip-path="url(#clip022)" style="stroke:#000000; stroke-linecap:butt; stroke-linejoin:round; stroke-width:2; stroke-opacity:0.1; fill:none" points="
  1185.12,1486.45 1185.12,123.472 
  "/>
<polyline clip-path="url(#clip022)" style="stroke:#000000; stroke-linecap:butt; stroke-linejoin:round; stroke-width:2; stroke-opacity:0.1; fill:none" points="
  1597.65,1486.45 1597.65,123.472 
  "/>
<polyline clip-path="url(#clip022)" style="stroke:#000000; stroke-linecap:butt; stroke-linejoin:round; stroke-width:2; stroke-opacity:0.1; fill:none" points="
  2010.19,1486.45 2010.19,123.472 
  "/>
<polyline clip-path="url(#clip020)" style="stroke:#000000; stroke-linecap:butt; stroke-linejoin:round; stroke-width:4; stroke-opacity:1; fill:none" points="
  306.25,1486.45 2352.76,1486.45 
  "/>
<polyline clip-path="url(#clip020)" style="stroke:#000000; stroke-linecap:butt; stroke-linejoin:round; stroke-width:4; stroke-opacity:1; fill:none" points="
  360.045,1486.45 360.045,1467.55 
  "/>
<polyline clip-path="url(#clip020)" style="stroke:#000000; stroke-linecap:butt; stroke-linejoin:round; stroke-width:4; stroke-opacity:1; fill:none" points="
  772.58,1486.45 772.58,1467.55 
  "/>
<polyline clip-path="url(#clip020)" style="stroke:#000000; stroke-linecap:butt; stroke-linejoin:round; stroke-width:4; stroke-opacity:1; fill:none" points="
  1185.12,1486.45 1185.12,1467.55 
  "/>
<polyline clip-path="url(#clip020)" style="stroke:#000000; stroke-linecap:butt; stroke-linejoin:round; stroke-width:4; stroke-opacity:1; fill:none" points="
  1597.65,1486.45 1597.65,1467.55 
  "/>
<polyline clip-path="url(#clip020)" style="stroke:#000000; stroke-linecap:butt; stroke-linejoin:round; stroke-width:4; stroke-opacity:1; fill:none" points="
  2010.19,1486.45 2010.19,1467.55 
  "/>
<path clip-path="url(#clip020)" d="M360.045 1515.64 Q356.434 1515.64 354.605 1519.2 Q352.799 1522.75 352.799 1529.87 Q352.799 1536.98 354.605 1540.55 Q356.434 1544.09 360.045 1544.09 Q363.679 1544.09 365.485 1540.55 Q367.313 1536.98 367.313 1529.87 Q367.313 1522.75 365.485 1519.2 Q363.679 1515.64 360.045 1515.64 M360.045 1511.93 Q365.855 1511.93 368.911 1516.54 Q371.989 1521.12 371.989 1529.87 Q371.989 1538.6 368.911 1543.21 Q365.855 1547.79 360.045 1547.79 Q354.235 1547.79 351.156 1543.21 Q348.1 1538.6 348.1 1529.87 Q348.1 1521.12 351.156 1516.54 Q354.235 1511.93 360.045 1511.93 Z" fill="#000000" fill-rule="evenodd" fill-opacity="1" /><path clip-path="url(#clip020)" d="M732.187 1543.18 L739.826 1543.18 L739.826 1516.82 L731.516 1518.49 L731.516 1514.23 L739.779 1512.56 L744.455 1512.56 L744.455 1543.18 L752.094 1543.18 L752.094 1547.12 L732.187 1547.12 L732.187 1543.18 Z" fill="#000000" fill-rule="evenodd" fill-opacity="1" /><path clip-path="url(#clip020)" d="M771.539 1515.64 Q767.927 1515.64 766.099 1519.2 Q764.293 1522.75 764.293 1529.87 Q764.293 1536.98 766.099 1540.55 Q767.927 1544.09 771.539 1544.09 Q775.173 1544.09 776.978 1540.55 Q778.807 1536.98 778.807 1529.87 Q778.807 1522.75 776.978 1519.2 Q775.173 1515.64 771.539 1515.64 M771.539 1511.93 Q777.349 1511.93 780.404 1516.54 Q783.483 1521.12 783.483 1529.87 Q783.483 1538.6 780.404 1543.21 Q777.349 1547.79 771.539 1547.79 Q765.728 1547.79 762.65 1543.21 Q759.594 1538.6 759.594 1529.87 Q759.594 1521.12 762.65 1516.54 Q765.728 1511.93 771.539 1511.93 Z" fill="#000000" fill-rule="evenodd" fill-opacity="1" /><path clip-path="url(#clip020)" d="M801.7 1515.64 Q798.089 1515.64 796.261 1519.2 Q794.455 1522.75 794.455 1529.87 Q794.455 1536.98 796.261 1540.55 Q798.089 1544.09 801.7 1544.09 Q805.335 1544.09 807.14 1540.55 Q808.969 1536.98 808.969 1529.87 Q808.969 1522.75 807.14 1519.2 Q805.335 1515.64 801.7 1515.64 M801.7 1511.93 Q807.511 1511.93 810.566 1516.54 Q813.645 1521.12 813.645 1529.87 Q813.645 1538.6 810.566 1543.21 Q807.511 1547.79 801.7 1547.79 Q795.89 1547.79 792.812 1543.21 Q789.756 1538.6 789.756 1529.87 Q789.756 1521.12 792.812 1516.54 Q795.89 1511.93 801.7 1511.93 Z" fill="#000000" fill-rule="evenodd" fill-opacity="1" /><path clip-path="url(#clip020)" d="M1148.81 1543.18 L1165.13 1543.18 L1165.13 1547.12 L1143.18 1547.12 L1143.18 1543.18 Q1145.85 1540.43 1150.43 1535.8 Q1155.03 1531.15 1156.22 1529.81 Q1158.46 1527.28 1159.34 1525.55 Q1160.24 1523.79 1160.24 1522.1 Q1160.24 1519.34 1158.3 1517.61 Q1156.38 1515.87 1153.28 1515.87 Q1151.08 1515.87 1148.62 1516.63 Q1146.19 1517.4 1143.41 1518.95 L1143.41 1514.23 Q1146.24 1513.09 1148.69 1512.51 Q1151.15 1511.93 1153.18 1511.93 Q1158.55 1511.93 1161.75 1514.62 Q1164.94 1517.31 1164.94 1521.8 Q1164.94 1523.93 1164.13 1525.85 Q1163.34 1527.74 1161.24 1530.34 Q1160.66 1531.01 1157.56 1534.23 Q1154.46 1537.42 1148.81 1543.18 Z" fill="#000000" fill-rule="evenodd" fill-opacity="1" /><path clip-path="url(#clip020)" d="M1184.94 1515.64 Q1181.33 1515.64 1179.5 1519.2 Q1177.7 1522.75 1177.7 1529.87 Q1177.7 1536.98 1179.5 1540.55 Q1181.33 1544.09 1184.94 1544.09 Q1188.58 1544.09 1190.38 1540.55 Q1192.21 1536.98 1192.21 1529.87 Q1192.21 1522.75 1190.38 1519.2 Q1188.58 1515.64 1184.94 1515.64 M1184.94 1511.93 Q1190.75 1511.93 1193.81 1516.54 Q1196.89 1521.12 1196.89 1529.87 Q1196.89 1538.6 1193.81 1543.21 Q1190.75 1547.79 1184.94 1547.79 Q1179.13 1547.79 1176.05 1543.21 Q1173 1538.6 1173 1529.87 Q1173 1521.12 1176.05 1516.54 Q1179.13 1511.93 1184.94 1511.93 Z" fill="#000000" fill-rule="evenodd" fill-opacity="1" /><path clip-path="url(#clip020)" d="M1215.1 1515.64 Q1211.49 1515.64 1209.66 1519.2 Q1207.86 1522.75 1207.86 1529.87 Q1207.86 1536.98 1209.66 1540.55 Q1211.49 1544.09 1215.1 1544.09 Q1218.74 1544.09 1220.54 1540.55 Q1222.37 1536.98 1222.37 1529.87 Q1222.37 1522.75 1220.54 1519.2 Q1218.74 1515.64 1215.1 1515.64 M1215.1 1511.93 Q1220.91 1511.93 1223.97 1516.54 Q1227.05 1521.12 1227.05 1529.87 Q1227.05 1538.6 1223.97 1543.21 Q1220.91 1547.79 1215.1 1547.79 Q1209.29 1547.79 1206.22 1543.21 Q1203.16 1538.6 1203.16 1529.87 Q1203.16 1521.12 1206.22 1516.54 Q1209.29 1511.93 1215.1 1511.93 Z" fill="#000000" fill-rule="evenodd" fill-opacity="1" /><path clip-path="url(#clip020)" d="M1571.41 1528.49 Q1574.77 1529.2 1576.64 1531.47 Q1578.54 1533.74 1578.54 1537.07 Q1578.54 1542.19 1575.02 1544.99 Q1571.51 1547.79 1565.02 1547.79 Q1562.85 1547.79 1560.53 1547.35 Q1558.24 1546.93 1555.79 1546.08 L1555.79 1541.56 Q1557.73 1542.7 1560.05 1543.28 Q1562.36 1543.86 1564.89 1543.86 Q1569.28 1543.86 1571.57 1542.12 Q1573.89 1540.38 1573.89 1537.07 Q1573.89 1534.02 1571.74 1532.31 Q1569.61 1530.57 1565.79 1530.57 L1561.76 1530.57 L1561.76 1526.73 L1565.97 1526.73 Q1569.42 1526.73 1571.25 1525.36 Q1573.08 1523.97 1573.08 1521.38 Q1573.08 1518.72 1571.18 1517.31 Q1569.31 1515.87 1565.79 1515.87 Q1563.87 1515.87 1561.67 1516.29 Q1559.47 1516.7 1556.83 1517.58 L1556.83 1513.42 Q1559.49 1512.68 1561.81 1512.31 Q1564.14 1511.93 1566.2 1511.93 Q1571.53 1511.93 1574.63 1514.37 Q1577.73 1516.77 1577.73 1520.89 Q1577.73 1523.76 1576.09 1525.75 Q1574.45 1527.72 1571.41 1528.49 Z" fill="#000000" fill-rule="evenodd" fill-opacity="1" /><path clip-path="url(#clip020)" d="M1597.41 1515.64 Q1593.8 1515.64 1591.97 1519.2 Q1590.16 1522.75 1590.16 1529.87 Q1590.16 1536.98 1591.97 1540.55 Q1593.8 1544.09 1597.41 1544.09 Q1601.04 1544.09 1602.85 1540.55 Q1604.68 1536.98 1604.68 1529.87 Q1604.68 1522.75 1602.85 1519.2 Q1601.04 1515.64 1597.41 1515.64 M1597.41 1511.93 Q1603.22 1511.93 1606.27 1516.54 Q1609.35 1521.12 1609.35 1529.87 Q1609.35 1538.6 1606.27 1543.21 Q1603.22 1547.79 1597.41 1547.79 Q1591.6 1547.79 1588.52 1543.21 Q1585.46 1538.6 1585.46 1529.87 Q1585.46 1521.12 1588.52 1516.54 Q1591.6 1511.93 1597.41 1511.93 Z" fill="#000000" fill-rule="evenodd" fill-opacity="1" /><path clip-path="url(#clip020)" d="M1627.57 1515.64 Q1623.96 1515.64 1622.13 1519.2 Q1620.32 1522.75 1620.32 1529.87 Q1620.32 1536.98 1622.13 1540.55 Q1623.96 1544.09 1627.57 1544.09 Q1631.2 1544.09 1633.01 1540.55 Q1634.84 1536.98 1634.84 1529.87 Q1634.84 1522.75 1633.01 1519.2 Q1631.2 1515.64 1627.57 1515.64 M1627.57 1511.93 Q1633.38 1511.93 1636.44 1516.54 Q1639.51 1521.12 1639.51 1529.87 Q1639.51 1538.6 1636.44 1543.21 Q1633.38 1547.79 1627.57 1547.79 Q1621.76 1547.79 1618.68 1543.21 Q1615.63 1538.6 1615.63 1529.87 Q1615.63 1521.12 1618.68 1516.54 Q1621.76 1511.93 1627.57 1511.93 Z" fill="#000000" fill-rule="evenodd" fill-opacity="1" /><path clip-path="url(#clip020)" d="M1983.28 1516.63 L1971.47 1535.08 L1983.28 1535.08 L1983.28 1516.63 M1982.05 1512.56 L1987.93 1512.56 L1987.93 1535.08 L1992.86 1535.08 L1992.86 1538.97 L1987.93 1538.97 L1987.93 1547.12 L1983.28 1547.12 L1983.28 1538.97 L1967.68 1538.97 L1967.68 1534.46 L1982.05 1512.56 Z" fill="#000000" fill-rule="evenodd" fill-opacity="1" /><path clip-path="url(#clip020)" d="M2010.59 1515.64 Q2006.98 1515.64 2005.15 1519.2 Q2003.35 1522.75 2003.35 1529.87 Q2003.35 1536.98 2005.15 1540.55 Q2006.98 1544.09 2010.59 1544.09 Q2014.23 1544.09 2016.03 1540.55 Q2017.86 1536.98 2017.86 1529.87 Q2017.86 1522.75 2016.03 1519.2 Q2014.23 1515.64 2010.59 1515.64 M2010.59 1511.93 Q2016.4 1511.93 2019.46 1516.54 Q2022.54 1521.12 2022.54 1529.87 Q2022.54 1538.6 2019.46 1543.21 Q2016.4 1547.79 2010.59 1547.79 Q2004.78 1547.79 2001.7 1543.21 Q1998.65 1538.6 1998.65 1529.87 Q1998.65 1521.12 2001.7 1516.54 Q2004.78 1511.93 2010.59 1511.93 Z" fill="#000000" fill-rule="evenodd" fill-opacity="1" /><path clip-path="url(#clip020)" d="M2040.75 1515.64 Q2037.14 1515.64 2035.31 1519.2 Q2033.51 1522.75 2033.51 1529.87 Q2033.51 1536.98 2035.31 1540.55 Q2037.14 1544.09 2040.75 1544.09 Q2044.39 1544.09 2046.19 1540.55 Q2048.02 1536.98 2048.02 1529.87 Q2048.02 1522.75 2046.19 1519.2 Q2044.39 1515.64 2040.75 1515.64 M2040.75 1511.93 Q2046.56 1511.93 2049.62 1516.54 Q2052.7 1521.12 2052.7 1529.87 Q2052.7 1538.6 2049.62 1543.21 Q2046.56 1547.79 2040.75 1547.79 Q2034.94 1547.79 2031.86 1543.21 Q2028.81 1538.6 2028.81 1529.87 Q2028.81 1521.12 2031.86 1516.54 Q2034.94 1511.93 2040.75 1511.93 Z" fill="#000000" fill-rule="evenodd" fill-opacity="1" /><polyline clip-path="url(#clip022)" style="stroke:#000000; stroke-linecap:butt; stroke-linejoin:round; stroke-width:2; stroke-opacity:0.1; fill:none" points="
  306.25,1447.87 2352.76,1447.87 
  "/>
<polyline clip-path="url(#clip022)" style="stroke:#000000; stroke-linecap:butt; stroke-linejoin:round; stroke-width:2; stroke-opacity:0.1; fill:none" points="
  306.25,1192.71 2352.76,1192.71 
  "/>
<polyline clip-path="url(#clip022)" style="stroke:#000000; stroke-linecap:butt; stroke-linejoin:round; stroke-width:2; stroke-opacity:0.1; fill:none" points="
  306.25,937.557 2352.76,937.557 
  "/>
<polyline clip-path="url(#clip022)" style="stroke:#000000; stroke-linecap:butt; stroke-linejoin:round; stroke-width:2; stroke-opacity:0.1; fill:none" points="
  306.25,682.399 2352.76,682.399 
  "/>
<polyline clip-path="url(#clip022)" style="stroke:#000000; stroke-linecap:butt; stroke-linejoin:round; stroke-width:2; stroke-opacity:0.1; fill:none" points="
  306.25,427.24 2352.76,427.24 
  "/>
<polyline clip-path="url(#clip022)" style="stroke:#000000; stroke-linecap:butt; stroke-linejoin:round; stroke-width:2; stroke-opacity:0.1; fill:none" points="
  306.25,172.082 2352.76,172.082 
  "/>
<polyline clip-path="url(#clip020)" style="stroke:#000000; stroke-linecap:butt; stroke-linejoin:round; stroke-width:4; stroke-opacity:1; fill:none" points="
  306.25,1486.45 306.25,123.472 
  "/>
<polyline clip-path="url(#clip020)" style="stroke:#000000; stroke-linecap:butt; stroke-linejoin:round; stroke-width:4; stroke-opacity:1; fill:none" points="
  306.25,1447.87 325.148,1447.87 
  "/>
<polyline clip-path="url(#clip020)" style="stroke:#000000; stroke-linecap:butt; stroke-linejoin:round; stroke-width:4; stroke-opacity:1; fill:none" points="
  306.25,1192.71 325.148,1192.71 
  "/>
<polyline clip-path="url(#clip020)" style="stroke:#000000; stroke-linecap:butt; stroke-linejoin:round; stroke-width:4; stroke-opacity:1; fill:none" points="
  306.25,937.557 325.148,937.557 
  "/>
<polyline clip-path="url(#clip020)" style="stroke:#000000; stroke-linecap:butt; stroke-linejoin:round; stroke-width:4; stroke-opacity:1; fill:none" points="
  306.25,682.399 325.148,682.399 
  "/>
<polyline clip-path="url(#clip020)" style="stroke:#000000; stroke-linecap:butt; stroke-linejoin:round; stroke-width:4; stroke-opacity:1; fill:none" points="
  306.25,427.24 325.148,427.24 
  "/>
<polyline clip-path="url(#clip020)" style="stroke:#000000; stroke-linecap:butt; stroke-linejoin:round; stroke-width:4; stroke-opacity:1; fill:none" points="
  306.25,172.082 325.148,172.082 
  "/>
<path clip-path="url(#clip020)" d="M258.306 1433.67 Q254.695 1433.67 252.866 1437.24 Q251.06 1440.78 251.06 1447.91 Q251.06 1455.01 252.866 1458.58 Q254.695 1462.12 258.306 1462.12 Q261.94 1462.12 263.746 1458.58 Q265.574 1455.01 265.574 1447.91 Q265.574 1440.78 263.746 1437.24 Q261.94 1433.67 258.306 1433.67 M258.306 1429.97 Q264.116 1429.97 267.172 1434.57 Q270.25 1439.16 270.25 1447.91 Q270.25 1456.63 267.172 1461.24 Q264.116 1465.82 258.306 1465.82 Q252.496 1465.82 249.417 1461.24 Q246.361 1456.63 246.361 1447.91 Q246.361 1439.16 249.417 1434.57 Q252.496 1429.97 258.306 1429.97 Z" fill="#000000" fill-rule="evenodd" fill-opacity="1" /><path clip-path="url(#clip020)" d="M52.4505 1181.88 L70.8068 1181.88 L70.8068 1185.82 L56.7328 1185.82 L56.7328 1194.29 Q57.7513 1193.94 58.7699 1193.78 Q59.7884 1193.6 60.8069 1193.6 Q66.5939 1193.6 69.9735 1196.77 Q73.3531 1199.94 73.3531 1205.35 Q73.3531 1210.93 69.8809 1214.04 Q66.4087 1217.11 60.0893 1217.11 Q57.9134 1217.11 55.6449 1216.74 Q53.3995 1216.37 50.9921 1215.63 L50.9921 1210.93 Q53.0754 1212.07 55.2977 1212.62 Q57.5199 1213.18 59.9967 1213.18 Q64.0013 1213.18 66.3393 1211.07 Q68.6772 1208.97 68.6772 1205.35 Q68.6772 1201.74 66.3393 1199.64 Q64.0013 1197.53 59.9967 1197.53 Q58.1217 1197.53 56.2467 1197.95 Q54.3949 1198.36 52.4505 1199.24 L52.4505 1181.88 Z" fill="#000000" fill-rule="evenodd" fill-opacity="1" /><path clip-path="url(#clip020)" d="M82.566 1210.56 L87.4503 1210.56 L87.4503 1216.44 L82.566 1216.44 L82.566 1210.56 Z" fill="#000000" fill-rule="evenodd" fill-opacity="1" /><path clip-path="url(#clip020)" d="M107.635 1184.96 Q104.024 1184.96 102.196 1188.53 Q100.39 1192.07 100.39 1199.2 Q100.39 1206.3 102.196 1209.87 Q104.024 1213.41 107.635 1213.41 Q111.27 1213.41 113.075 1209.87 Q114.904 1206.3 114.904 1199.2 Q114.904 1192.07 113.075 1188.53 Q111.27 1184.96 107.635 1184.96 M107.635 1181.26 Q113.445 1181.26 116.501 1185.86 Q119.58 1190.45 119.58 1199.2 Q119.58 1207.92 116.501 1212.53 Q113.445 1217.11 107.635 1217.11 Q101.825 1217.11 98.7465 1212.53 Q95.691 1207.92 95.691 1199.2 Q95.691 1190.45 98.7465 1185.86 Q101.825 1181.26 107.635 1181.26 Z" fill="#000000" fill-rule="evenodd" fill-opacity="1" /><path clip-path="url(#clip020)" d="M137.797 1184.96 Q134.186 1184.96 132.357 1188.53 Q130.552 1192.07 130.552 1199.2 Q130.552 1206.3 132.357 1209.87 Q134.186 1213.41 137.797 1213.41 Q141.431 1213.41 143.237 1209.87 Q145.066 1206.3 145.066 1199.2 Q145.066 1192.07 143.237 1188.53 Q141.431 1184.96 137.797 1184.96 M137.797 1181.26 Q143.607 1181.26 146.663 1185.86 Q149.742 1190.45 149.742 1199.2 Q149.742 1207.92 146.663 1212.53 Q143.607 1217.11 137.797 1217.11 Q131.987 1217.11 128.908 1212.53 Q125.853 1207.92 125.853 1199.2 Q125.853 1190.45 128.908 1185.86 Q131.987 1181.26 137.797 1181.26 Z" fill="#000000" fill-rule="evenodd" fill-opacity="1" /><path clip-path="url(#clip020)" d="M186.13 1190.98 L175.552 1201.6 L186.13 1212.18 L183.376 1214.98 L172.751 1204.36 L162.126 1214.98 L159.394 1212.18 L169.95 1201.6 L159.394 1190.98 L162.126 1188.18 L172.751 1198.8 L183.376 1188.18 L186.13 1190.98 Z" fill="#000000" fill-rule="evenodd" fill-opacity="1" /><path clip-path="url(#clip020)" d="M198.491 1212.51 L206.13 1212.51 L206.13 1186.14 L197.82 1187.81 L197.82 1183.55 L206.084 1181.88 L210.76 1181.88 L210.76 1212.51 L218.399 1212.51 L218.399 1216.44 L198.491 1216.44 L198.491 1212.51 Z" fill="#000000" fill-rule="evenodd" fill-opacity="1" /><path clip-path="url(#clip020)" d="M237.843 1184.96 Q234.232 1184.96 232.403 1188.53 Q230.598 1192.07 230.598 1199.2 Q230.598 1206.3 232.403 1209.87 Q234.232 1213.41 237.843 1213.41 Q241.477 1213.41 243.283 1209.87 Q245.111 1206.3 245.111 1199.2 Q245.111 1192.07 243.283 1188.53 Q241.477 1184.96 237.843 1184.96 M237.843 1181.26 Q243.653 1181.26 246.709 1185.86 Q249.787 1190.45 249.787 1199.2 Q249.787 1207.92 246.709 1212.53 Q243.653 1217.11 237.843 1217.11 Q232.033 1217.11 228.954 1212.53 Q225.899 1207.92 225.899 1199.2 Q225.899 1190.45 228.954 1185.86 Q232.033 1181.26 237.843 1181.26 Z" fill="#000000" fill-rule="evenodd" fill-opacity="1" /><path clip-path="url(#clip020)" d="M262.464 1164.26 L252.872 1179.25 L262.464 1179.25 L262.464 1164.26 M261.467 1160.95 L266.244 1160.95 L266.244 1179.25 L270.25 1179.25 L270.25 1182.41 L266.244 1182.41 L266.244 1189.03 L262.464 1189.03 L262.464 1182.41 L249.787 1182.41 L249.787 1178.74 L261.467 1160.95 Z" fill="#000000" fill-rule="evenodd" fill-opacity="1" /><path clip-path="url(#clip020)" d="M55.5089 957.349 L63.1477 957.349 L63.1477 930.984 L54.8376 932.65 L54.8376 928.391 L63.1014 926.724 L67.7773 926.724 L67.7773 957.349 L75.4162 957.349 L75.4162 961.284 L55.5089 961.284 L55.5089 957.349 Z" fill="#000000" fill-rule="evenodd" fill-opacity="1" /><path clip-path="url(#clip020)" d="M84.8606 955.405 L89.7448 955.405 L89.7448 961.284 L84.8606 961.284 L84.8606 955.405 Z" fill="#000000" fill-rule="evenodd" fill-opacity="1" /><path clip-path="url(#clip020)" d="M109.93 929.803 Q106.319 929.803 104.49 933.368 Q102.685 936.91 102.685 944.039 Q102.685 951.146 104.49 954.71 Q106.319 958.252 109.93 958.252 Q113.564 958.252 115.37 954.71 Q117.198 951.146 117.198 944.039 Q117.198 936.91 115.37 933.368 Q113.564 929.803 109.93 929.803 M109.93 926.099 Q115.74 926.099 118.796 930.706 Q121.874 935.289 121.874 944.039 Q121.874 952.766 118.796 957.372 Q115.74 961.956 109.93 961.956 Q104.12 961.956 101.041 957.372 Q97.9855 952.766 97.9855 944.039 Q97.9855 935.289 101.041 930.706 Q104.12 926.099 109.93 926.099 Z" fill="#000000" fill-rule="evenodd" fill-opacity="1" /><path clip-path="url(#clip020)" d="M140.092 929.803 Q136.481 929.803 134.652 933.368 Q132.846 936.91 132.846 944.039 Q132.846 951.146 134.652 954.71 Q136.481 958.252 140.092 958.252 Q143.726 958.252 145.532 954.71 Q147.36 951.146 147.36 944.039 Q147.36 936.91 145.532 933.368 Q143.726 929.803 140.092 929.803 M140.092 926.099 Q145.902 926.099 148.957 930.706 Q152.036 935.289 152.036 944.039 Q152.036 952.766 148.957 957.372 Q145.902 961.956 140.092 961.956 Q134.282 961.956 131.203 957.372 Q128.147 952.766 128.147 944.039 Q128.147 935.289 131.203 930.706 Q134.282 926.099 140.092 926.099 Z" fill="#000000" fill-rule="evenodd" fill-opacity="1" /><path clip-path="url(#clip020)" d="M188.425 935.822 L177.846 946.446 L188.425 957.025 L185.67 959.826 L175.045 949.201 L164.42 959.826 L161.689 957.025 L172.244 946.446 L161.689 935.822 L164.42 933.021 L175.045 943.646 L185.67 933.021 L188.425 935.822 Z" fill="#000000" fill-rule="evenodd" fill-opacity="1" /><path clip-path="url(#clip020)" d="M200.786 957.349 L208.425 957.349 L208.425 930.984 L200.115 932.65 L200.115 928.391 L208.378 926.724 L213.054 926.724 L213.054 957.349 L220.693 957.349 L220.693 961.284 L200.786 961.284 L200.786 957.349 Z" fill="#000000" fill-rule="evenodd" fill-opacity="1" /><path clip-path="url(#clip020)" d="M240.138 929.803 Q236.526 929.803 234.698 933.368 Q232.892 936.91 232.892 944.039 Q232.892 951.146 234.698 954.71 Q236.526 958.252 240.138 958.252 Q243.772 958.252 245.577 954.71 Q247.406 951.146 247.406 944.039 Q247.406 936.91 245.577 933.368 Q243.772 929.803 240.138 929.803 M240.138 926.099 Q245.948 926.099 249.003 930.706 Q252.082 935.289 252.082 944.039 Q252.082 952.766 249.003 957.372 Q245.948 961.956 240.138 961.956 Q234.327 961.956 231.249 957.372 Q228.193 952.766 228.193 944.039 Q228.193 935.289 231.249 930.706 Q234.327 926.099 240.138 926.099 Z" fill="#000000" fill-rule="evenodd" fill-opacity="1" /><path clip-path="url(#clip020)" d="M253.267 905.794 L268.181 905.794 L268.181 908.991 L256.746 908.991 L256.746 915.875 Q257.574 915.593 258.401 915.461 Q259.229 915.311 260.056 915.311 Q264.758 915.311 267.504 917.887 Q270.25 920.464 270.25 924.865 Q270.25 929.398 267.429 931.918 Q264.608 934.419 259.473 934.419 Q257.705 934.419 255.862 934.118 Q254.038 933.818 252.082 933.216 L252.082 929.398 Q253.775 930.319 255.58 930.771 Q257.386 931.222 259.398 931.222 Q262.652 931.222 264.551 929.511 Q266.451 927.799 266.451 924.865 Q266.451 921.931 264.551 920.22 Q262.652 918.508 259.398 918.508 Q257.875 918.508 256.351 918.847 Q254.847 919.185 253.267 919.9 L253.267 905.794 Z" fill="#000000" fill-rule="evenodd" fill-opacity="1" /><path clip-path="url(#clip020)" d="M55.5089 702.191 L63.1477 702.191 L63.1477 675.825 L54.8376 677.492 L54.8376 673.233 L63.1014 671.566 L67.7773 671.566 L67.7773 702.191 L75.4162 702.191 L75.4162 706.126 L55.5089 706.126 L55.5089 702.191 Z" fill="#000000" fill-rule="evenodd" fill-opacity="1" /><path clip-path="url(#clip020)" d="M84.8606 700.247 L89.7448 700.247 L89.7448 706.126 L84.8606 706.126 L84.8606 700.247 Z" fill="#000000" fill-rule="evenodd" fill-opacity="1" /><path clip-path="url(#clip020)" d="M99.9762 671.566 L118.333 671.566 L118.333 675.501 L104.259 675.501 L104.259 683.974 Q105.277 683.626 106.296 683.464 Q107.314 683.279 108.333 683.279 Q114.12 683.279 117.499 686.45 Q120.879 689.622 120.879 695.038 Q120.879 700.617 117.407 703.719 Q113.934 706.798 107.615 706.798 Q105.439 706.798 103.171 706.427 Q100.925 706.057 98.5179 705.316 L98.5179 700.617 Q100.601 701.751 102.823 702.307 Q105.046 702.862 107.522 702.862 Q111.527 702.862 113.865 700.756 Q116.203 698.649 116.203 695.038 Q116.203 691.427 113.865 689.321 Q111.527 687.214 107.522 687.214 Q105.648 687.214 103.773 687.631 Q101.921 688.048 99.9762 688.927 L99.9762 671.566 Z" fill="#000000" fill-rule="evenodd" fill-opacity="1" /><path clip-path="url(#clip020)" d="M140.092 674.645 Q136.481 674.645 134.652 678.21 Q132.846 681.751 132.846 688.881 Q132.846 695.987 134.652 699.552 Q136.481 703.094 140.092 703.094 Q143.726 703.094 145.532 699.552 Q147.36 695.987 147.36 688.881 Q147.36 681.751 145.532 678.21 Q143.726 674.645 140.092 674.645 M140.092 670.941 Q145.902 670.941 148.957 675.548 Q152.036 680.131 152.036 688.881 Q152.036 697.608 148.957 702.214 Q145.902 706.798 140.092 706.798 Q134.282 706.798 131.203 702.214 Q128.147 697.608 128.147 688.881 Q128.147 680.131 131.203 675.548 Q134.282 670.941 140.092 670.941 Z" fill="#000000" fill-rule="evenodd" fill-opacity="1" /><path clip-path="url(#clip020)" d="M188.425 680.663 L177.846 691.288 L188.425 701.867 L185.67 704.668 L175.045 694.043 L164.42 704.668 L161.689 701.867 L172.244 691.288 L161.689 680.663 L164.42 677.862 L175.045 688.487 L185.67 677.862 L188.425 680.663 Z" fill="#000000" fill-rule="evenodd" fill-opacity="1" /><path clip-path="url(#clip020)" d="M200.786 702.191 L208.425 702.191 L208.425 675.825 L200.115 677.492 L200.115 673.233 L208.378 671.566 L213.054 671.566 L213.054 702.191 L220.693 702.191 L220.693 706.126 L200.786 706.126 L200.786 702.191 Z" fill="#000000" fill-rule="evenodd" fill-opacity="1" /><path clip-path="url(#clip020)" d="M240.138 674.645 Q236.526 674.645 234.698 678.21 Q232.892 681.751 232.892 688.881 Q232.892 695.987 234.698 699.552 Q236.526 703.094 240.138 703.094 Q243.772 703.094 245.577 699.552 Q247.406 695.987 247.406 688.881 Q247.406 681.751 245.577 678.21 Q243.772 674.645 240.138 674.645 M240.138 670.941 Q245.948 670.941 249.003 675.548 Q252.082 680.131 252.082 688.881 Q252.082 697.608 249.003 702.214 Q245.948 706.798 240.138 706.798 Q234.327 706.798 231.249 702.214 Q228.193 697.608 228.193 688.881 Q228.193 680.131 231.249 675.548 Q234.327 670.941 240.138 670.941 Z" fill="#000000" fill-rule="evenodd" fill-opacity="1" /><path clip-path="url(#clip020)" d="M253.267 650.636 L268.181 650.636 L268.181 653.833 L256.746 653.833 L256.746 660.717 Q257.574 660.435 258.401 660.303 Q259.229 660.153 260.056 660.153 Q264.758 660.153 267.504 662.729 Q270.25 665.306 270.25 669.707 Q270.25 674.24 267.429 676.76 Q264.608 679.261 259.473 679.261 Q257.705 679.261 255.862 678.96 Q254.038 678.659 252.082 678.058 L252.082 674.24 Q253.775 675.161 255.58 675.613 Q257.386 676.064 259.398 676.064 Q262.652 676.064 264.551 674.352 Q266.451 672.641 266.451 669.707 Q266.451 666.773 264.551 665.061 Q262.652 663.35 259.398 663.35 Q257.875 663.35 256.351 663.688 Q254.847 664.027 253.267 664.742 L253.267 650.636 Z" fill="#000000" fill-rule="evenodd" fill-opacity="1" /><path clip-path="url(#clip020)" d="M58.7265 447.033 L75.0458 447.033 L75.0458 450.968 L53.1015 450.968 L53.1015 447.033 Q55.7635 444.278 60.3468 439.649 Q64.9533 434.996 66.1338 433.653 Q68.3792 431.13 69.2588 429.394 Q70.1616 427.635 70.1616 425.945 Q70.1616 423.19 68.2171 421.454 Q66.2959 419.718 63.194 419.718 Q60.995 419.718 58.5413 420.482 Q56.1107 421.246 53.333 422.797 L53.333 418.075 Q56.157 416.94 58.6107 416.362 Q61.0644 415.783 63.1014 415.783 Q68.4718 415.783 71.6662 418.468 Q74.8606 421.153 74.8606 425.644 Q74.8606 427.774 74.0505 429.695 Q73.2634 431.593 71.1569 434.186 Q70.5782 434.857 67.4764 438.075 Q64.3746 441.269 58.7265 447.033 Z" fill="#000000" fill-rule="evenodd" fill-opacity="1" /><path clip-path="url(#clip020)" d="M84.8606 445.088 L89.7448 445.088 L89.7448 450.968 L84.8606 450.968 L84.8606 445.088 Z" fill="#000000" fill-rule="evenodd" fill-opacity="1" /><path clip-path="url(#clip020)" d="M109.93 419.487 Q106.319 419.487 104.49 423.052 Q102.685 426.593 102.685 433.723 Q102.685 440.829 104.49 444.394 Q106.319 447.936 109.93 447.936 Q113.564 447.936 115.37 444.394 Q117.198 440.829 117.198 433.723 Q117.198 426.593 115.37 423.052 Q113.564 419.487 109.93 419.487 M109.93 415.783 Q115.74 415.783 118.796 420.39 Q121.874 424.973 121.874 433.723 Q121.874 442.45 118.796 447.056 Q115.74 451.639 109.93 451.639 Q104.12 451.639 101.041 447.056 Q97.9855 442.45 97.9855 433.723 Q97.9855 424.973 101.041 420.39 Q104.12 415.783 109.93 415.783 Z" fill="#000000" fill-rule="evenodd" fill-opacity="1" /><path clip-path="url(#clip020)" d="M140.092 419.487 Q136.481 419.487 134.652 423.052 Q132.846 426.593 132.846 433.723 Q132.846 440.829 134.652 444.394 Q136.481 447.936 140.092 447.936 Q143.726 447.936 145.532 444.394 Q147.36 440.829 147.36 433.723 Q147.36 426.593 145.532 423.052 Q143.726 419.487 140.092 419.487 M140.092 415.783 Q145.902 415.783 148.957 420.39 Q152.036 424.973 152.036 433.723 Q152.036 442.45 148.957 447.056 Q145.902 451.639 140.092 451.639 Q134.282 451.639 131.203 447.056 Q128.147 442.45 128.147 433.723 Q128.147 424.973 131.203 420.39 Q134.282 415.783 140.092 415.783 Z" fill="#000000" fill-rule="evenodd" fill-opacity="1" /><path clip-path="url(#clip020)" d="M188.425 425.505 L177.846 436.13 L188.425 446.709 L185.67 449.51 L175.045 438.885 L164.42 449.51 L161.689 446.709 L172.244 436.13 L161.689 425.505 L164.42 422.704 L175.045 433.329 L185.67 422.704 L188.425 425.505 Z" fill="#000000" fill-rule="evenodd" fill-opacity="1" /><path clip-path="url(#clip020)" d="M200.786 447.033 L208.425 447.033 L208.425 420.667 L200.115 422.334 L200.115 418.075 L208.378 416.408 L213.054 416.408 L213.054 447.033 L220.693 447.033 L220.693 450.968 L200.786 450.968 L200.786 447.033 Z" fill="#000000" fill-rule="evenodd" fill-opacity="1" /><path clip-path="url(#clip020)" d="M240.138 419.487 Q236.526 419.487 234.698 423.052 Q232.892 426.593 232.892 433.723 Q232.892 440.829 234.698 444.394 Q236.526 447.936 240.138 447.936 Q243.772 447.936 245.577 444.394 Q247.406 440.829 247.406 433.723 Q247.406 426.593 245.577 423.052 Q243.772 419.487 240.138 419.487 M240.138 415.783 Q245.948 415.783 249.003 420.39 Q252.082 424.973 252.082 433.723 Q252.082 442.45 249.003 447.056 Q245.948 451.639 240.138 451.639 Q234.327 451.639 231.249 447.056 Q228.193 442.45 228.193 433.723 Q228.193 424.973 231.249 420.39 Q234.327 415.783 240.138 415.783 Z" fill="#000000" fill-rule="evenodd" fill-opacity="1" /><path clip-path="url(#clip020)" d="M253.267 395.478 L268.181 395.478 L268.181 398.675 L256.746 398.675 L256.746 405.559 Q257.574 405.277 258.401 405.145 Q259.229 404.994 260.056 404.994 Q264.758 404.994 267.504 407.571 Q270.25 410.148 270.25 414.549 Q270.25 419.081 267.429 421.602 Q264.608 424.103 259.473 424.103 Q257.705 424.103 255.862 423.802 Q254.038 423.501 252.082 422.899 L252.082 419.081 Q253.775 420.003 255.58 420.454 Q257.386 420.906 259.398 420.906 Q262.652 420.906 264.551 419.194 Q266.451 417.483 266.451 414.549 Q266.451 411.615 264.551 409.903 Q262.652 408.192 259.398 408.192 Q257.875 408.192 256.351 408.53 Q254.847 408.869 253.267 409.583 L253.267 395.478 Z" fill="#000000" fill-rule="evenodd" fill-opacity="1" /><path clip-path="url(#clip020)" d="M58.7265 191.875 L75.0458 191.875 L75.0458 195.81 L53.1015 195.81 L53.1015 191.875 Q55.7635 189.12 60.3468 184.491 Q64.9533 179.838 66.1338 178.495 Q68.3792 175.972 69.2588 174.236 Q70.1616 172.477 70.1616 170.787 Q70.1616 168.032 68.2171 166.296 Q66.2959 164.56 63.194 164.56 Q60.995 164.56 58.5413 165.324 Q56.1107 166.088 53.333 167.639 L53.333 162.917 Q56.157 161.782 58.6107 161.204 Q61.0644 160.625 63.1014 160.625 Q68.4718 160.625 71.6662 163.31 Q74.8606 165.995 74.8606 170.486 Q74.8606 172.616 74.0505 174.537 Q73.2634 176.435 71.1569 179.028 Q70.5782 179.699 67.4764 182.916 Q64.3746 186.111 58.7265 191.875 Z" fill="#000000" fill-rule="evenodd" fill-opacity="1" /><path clip-path="url(#clip020)" d="M84.8606 189.93 L89.7448 189.93 L89.7448 195.81 L84.8606 195.81 L84.8606 189.93 Z" fill="#000000" fill-rule="evenodd" fill-opacity="1" /><path clip-path="url(#clip020)" d="M99.9762 161.25 L118.333 161.25 L118.333 165.185 L104.259 165.185 L104.259 173.657 Q105.277 173.31 106.296 173.148 Q107.314 172.963 108.333 172.963 Q114.12 172.963 117.499 176.134 Q120.879 179.305 120.879 184.722 Q120.879 190.301 117.407 193.403 Q113.934 196.481 107.615 196.481 Q105.439 196.481 103.171 196.111 Q100.925 195.74 98.5179 195 L98.5179 190.301 Q100.601 191.435 102.823 191.99 Q105.046 192.546 107.522 192.546 Q111.527 192.546 113.865 190.44 Q116.203 188.333 116.203 184.722 Q116.203 181.111 113.865 179.004 Q111.527 176.898 107.522 176.898 Q105.648 176.898 103.773 177.315 Q101.921 177.731 99.9762 178.611 L99.9762 161.25 Z" fill="#000000" fill-rule="evenodd" fill-opacity="1" /><path clip-path="url(#clip020)" d="M140.092 164.329 Q136.481 164.329 134.652 167.893 Q132.846 171.435 132.846 178.565 Q132.846 185.671 134.652 189.236 Q136.481 192.778 140.092 192.778 Q143.726 192.778 145.532 189.236 Q147.36 185.671 147.36 178.565 Q147.36 171.435 145.532 167.893 Q143.726 164.329 140.092 164.329 M140.092 160.625 Q145.902 160.625 148.957 165.231 Q152.036 169.815 152.036 178.565 Q152.036 187.291 148.957 191.898 Q145.902 196.481 140.092 196.481 Q134.282 196.481 131.203 191.898 Q128.147 187.291 128.147 178.565 Q128.147 169.815 131.203 165.231 Q134.282 160.625 140.092 160.625 Z" fill="#000000" fill-rule="evenodd" fill-opacity="1" /><path clip-path="url(#clip020)" d="M188.425 170.347 L177.846 180.972 L188.425 191.551 L185.67 194.352 L175.045 183.727 L164.42 194.352 L161.689 191.551 L172.244 180.972 L161.689 170.347 L164.42 167.546 L175.045 178.171 L185.67 167.546 L188.425 170.347 Z" fill="#000000" fill-rule="evenodd" fill-opacity="1" /><path clip-path="url(#clip020)" d="M200.786 191.875 L208.425 191.875 L208.425 165.509 L200.115 167.176 L200.115 162.917 L208.378 161.25 L213.054 161.25 L213.054 191.875 L220.693 191.875 L220.693 195.81 L200.786 195.81 L200.786 191.875 Z" fill="#000000" fill-rule="evenodd" fill-opacity="1" /><path clip-path="url(#clip020)" d="M240.138 164.329 Q236.526 164.329 234.698 167.893 Q232.892 171.435 232.892 178.565 Q232.892 185.671 234.698 189.236 Q236.526 192.778 240.138 192.778 Q243.772 192.778 245.577 189.236 Q247.406 185.671 247.406 178.565 Q247.406 171.435 245.577 167.893 Q243.772 164.329 240.138 164.329 M240.138 160.625 Q245.948 160.625 249.003 165.231 Q252.082 169.815 252.082 178.565 Q252.082 187.291 249.003 191.898 Q245.948 196.481 240.138 196.481 Q234.327 196.481 231.249 191.898 Q228.193 187.291 228.193 178.565 Q228.193 169.815 231.249 165.231 Q234.327 160.625 240.138 160.625 Z" fill="#000000" fill-rule="evenodd" fill-opacity="1" /><path clip-path="url(#clip020)" d="M253.267 140.32 L268.181 140.32 L268.181 143.517 L256.746 143.517 L256.746 150.4 Q257.574 150.118 258.401 149.987 Q259.229 149.836 260.056 149.836 Q264.758 149.836 267.504 152.413 Q270.25 154.99 270.25 159.391 Q270.25 163.923 267.429 166.444 Q264.608 168.945 259.473 168.945 Q257.705 168.945 255.862 168.644 Q254.038 168.343 252.082 167.741 L252.082 163.923 Q253.775 164.845 255.58 165.296 Q257.386 165.748 259.398 165.748 Q262.652 165.748 264.551 164.036 Q266.451 162.325 266.451 159.391 Q266.451 156.457 264.551 154.745 Q262.652 153.034 259.398 153.034 Q257.875 153.034 256.351 153.372 Q254.847 153.711 253.267 154.425 L253.267 140.32 Z" fill="#000000" fill-rule="evenodd" fill-opacity="1" /><path clip-path="url(#clip020)" d="M589.666 48.0275 L589.666 51.6733 L555.396 51.6733 Q555.882 59.3701 560.014 63.421 Q564.186 67.4314 571.599 67.4314 Q575.893 67.4314 579.903 66.3781 Q583.954 65.3249 587.924 63.2184 L587.924 70.267 Q583.914 71.9684 579.701 72.8596 Q575.488 73.7508 571.154 73.7508 Q560.297 73.7508 553.937 67.4314 Q547.618 61.1119 547.618 50.3365 Q547.618 39.1965 553.613 32.6746 Q559.649 26.1121 569.857 26.1121 Q579.012 26.1121 584.319 32.0264 Q589.666 37.9003 589.666 48.0275 M582.213 45.84 Q582.131 39.7232 578.769 36.0774 Q575.447 32.4315 569.938 32.4315 Q563.7 32.4315 559.933 35.9558 Q556.206 39.4801 555.639 45.8805 L582.213 45.84 Z" fill="#000000" fill-rule="evenodd" fill-opacity="1" /><path clip-path="url(#clip020)" d="M638.155 27.2059 L621.749 49.2833 L639.006 72.576 L630.216 72.576 L617.01 54.752 L603.804 72.576 L595.013 72.576 L612.635 48.8377 L596.512 27.2059 L605.303 27.2059 L617.334 43.369 L629.365 27.2059 L638.155 27.2059 Z" fill="#000000" fill-rule="evenodd" fill-opacity="1" /><path clip-path="url(#clip020)" d="M680.73 28.9478 L680.73 35.9153 Q677.571 34.1734 674.371 33.3227 Q671.211 32.4315 667.97 32.4315 Q660.719 32.4315 656.709 37.0496 Q652.698 41.6271 652.698 49.9314 Q652.698 58.2358 656.709 62.8538 Q660.719 67.4314 667.97 67.4314 Q671.211 67.4314 674.371 66.5807 Q677.571 65.6895 680.73 63.9476 L680.73 70.8341 Q677.611 72.2924 674.249 73.0216 Q670.927 73.7508 667.16 73.7508 Q656.911 73.7508 650.875 67.3098 Q644.839 60.8689 644.839 49.9314 Q644.839 38.832 650.916 32.472 Q657.033 26.1121 667.646 26.1121 Q671.089 26.1121 674.371 26.8413 Q677.652 27.5299 680.73 28.9478 Z" fill="#000000" fill-rule="evenodd" fill-opacity="1" /><path clip-path="url(#clip020)" d="M732.501 48.0275 L732.501 51.6733 L698.23 51.6733 Q698.717 59.3701 702.848 63.421 Q707.021 67.4314 714.434 67.4314 Q718.728 67.4314 722.738 66.3781 Q726.789 65.3249 730.759 63.2184 L730.759 70.267 Q726.749 71.9684 722.536 72.8596 Q718.323 73.7508 713.988 73.7508 Q703.132 73.7508 696.772 67.4314 Q690.453 61.1119 690.453 50.3365 Q690.453 39.1965 696.448 32.6746 Q702.484 26.1121 712.692 26.1121 Q721.847 26.1121 727.154 32.0264 Q732.501 37.9003 732.501 48.0275 M725.047 45.84 Q724.966 39.7232 721.604 36.0774 Q718.282 32.4315 712.773 32.4315 Q706.535 32.4315 702.767 35.9558 Q699.041 39.4801 698.473 45.8805 L725.047 45.84 Z" fill="#000000" fill-rule="evenodd" fill-opacity="1" /><path clip-path="url(#clip020)" d="M773.658 28.5427 L773.658 35.5912 Q770.499 33.9709 767.096 33.1607 Q763.693 32.3505 760.047 32.3505 Q754.497 32.3505 751.702 34.0519 Q748.948 35.7533 748.948 39.156 Q748.948 41.7486 750.933 43.2475 Q752.918 44.7058 758.913 46.0426 L761.465 46.6097 Q769.405 48.3111 772.727 51.4303 Q776.089 54.509 776.089 60.0587 Q776.089 66.3781 771.066 70.0644 Q766.083 73.7508 757.333 73.7508 Q753.687 73.7508 749.717 73.0216 Q745.788 72.3329 741.413 70.9151 L741.413 63.2184 Q745.545 65.3654 749.555 66.4591 Q753.566 67.5124 757.495 67.5124 Q762.761 67.5124 765.597 65.73 Q768.433 63.9071 768.433 60.6258 Q768.433 57.5877 766.367 55.9673 Q764.341 54.3469 757.414 52.8481 L754.822 52.2405 Q747.894 50.7821 744.816 47.7845 Q741.737 44.7463 741.737 39.4801 Q741.737 33.0797 746.274 29.5959 Q750.811 26.1121 759.156 26.1121 Q763.288 26.1121 766.934 26.7198 Q770.58 27.3274 773.658 28.5427 Z" fill="#000000" fill-rule="evenodd" fill-opacity="1" /><path clip-path="url(#clip020)" d="M816.881 28.5427 L816.881 35.5912 Q813.722 33.9709 810.319 33.1607 Q806.916 32.3505 803.27 32.3505 Q797.721 32.3505 794.925 34.0519 Q792.171 35.7533 792.171 39.156 Q792.171 41.7486 794.156 43.2475 Q796.141 44.7058 802.136 46.0426 L804.688 46.6097 Q812.628 48.3111 815.95 51.4303 Q819.312 54.509 819.312 60.0587 Q819.312 66.3781 814.289 70.0644 Q809.306 73.7508 800.556 73.7508 Q796.91 73.7508 792.941 73.0216 Q789.011 72.3329 784.636 70.9151 L784.636 63.2184 Q788.768 65.3654 792.779 66.4591 Q796.789 67.5124 800.718 67.5124 Q805.984 67.5124 808.82 65.73 Q811.656 63.9071 811.656 60.6258 Q811.656 57.5877 809.59 55.9673 Q807.564 54.3469 800.637 52.8481 L798.045 52.2405 Q791.118 50.7821 788.039 47.7845 Q784.96 44.7463 784.96 39.4801 Q784.96 33.0797 789.497 29.5959 Q794.034 26.1121 802.379 26.1121 Q806.511 26.1121 810.157 26.7198 Q813.803 27.3274 816.881 28.5427 Z" fill="#000000" fill-rule="evenodd" fill-opacity="1" /><path clip-path="url(#clip020)" d="M848.762 32.4315 Q842.767 32.4315 839.283 37.1306 Q835.799 41.7891 835.799 49.9314 Q835.799 58.0738 839.242 62.7728 Q842.726 67.4314 848.762 67.4314 Q854.717 67.4314 858.201 62.7323 Q861.684 58.0333 861.684 49.9314 Q861.684 41.8701 858.201 37.1711 Q854.717 32.4315 848.762 32.4315 M848.762 26.1121 Q858.484 26.1121 864.034 32.4315 Q869.584 38.7509 869.584 49.9314 Q869.584 61.0714 864.034 67.4314 Q858.484 73.7508 848.762 73.7508 Q838.999 73.7508 833.45 67.4314 Q827.94 61.0714 827.94 49.9314 Q827.94 38.7509 833.45 32.4315 Q838.999 26.1121 848.762 26.1121 Z" fill="#000000" fill-rule="evenodd" fill-opacity="1" /><path clip-path="url(#clip020)" d="M938.165 34.0924 L938.165 9.54393 L945.619 9.54393 L945.619 72.576 L938.165 72.576 L938.165 65.7705 Q935.816 69.8214 932.211 71.8063 Q928.646 73.7508 923.623 73.7508 Q915.399 73.7508 910.214 67.1883 Q905.07 60.6258 905.07 49.9314 Q905.07 39.2371 910.214 32.6746 Q915.399 26.1121 923.623 26.1121 Q928.646 26.1121 932.211 28.0971 Q935.816 30.0415 938.165 34.0924 M912.766 49.9314 Q912.766 58.1548 916.129 62.8538 Q919.531 67.5124 925.446 67.5124 Q931.36 67.5124 934.763 62.8538 Q938.165 58.1548 938.165 49.9314 Q938.165 41.7081 934.763 37.0496 Q931.36 32.3505 925.446 32.3505 Q919.531 32.3505 916.129 37.0496 Q912.766 41.7081 912.766 49.9314 Z" fill="#000000" fill-rule="evenodd" fill-opacity="1" /><path clip-path="url(#clip020)" d="M999.78 48.0275 L999.78 51.6733 L965.509 51.6733 Q965.995 59.3701 970.127 63.421 Q974.3 67.4314 981.713 67.4314 Q986.007 67.4314 990.017 66.3781 Q994.068 65.3249 998.038 63.2184 L998.038 70.267 Q994.027 71.9684 989.814 72.8596 Q985.602 73.7508 981.267 73.7508 Q970.411 73.7508 964.051 67.4314 Q957.731 61.1119 957.731 50.3365 Q957.731 39.1965 963.727 32.6746 Q969.763 26.1121 979.971 26.1121 Q989.126 26.1121 994.433 32.0264 Q999.78 37.9003 999.78 48.0275 M992.326 45.84 Q992.245 39.7232 988.883 36.0774 Q985.561 32.4315 980.052 32.4315 Q973.813 32.4315 970.046 35.9558 Q966.319 39.4801 965.752 45.8805 L992.326 45.84 Z" fill="#000000" fill-rule="evenodd" fill-opacity="1" /><path clip-path="url(#clip020)" d="M1068.24 34.0924 L1068.24 9.54393 L1075.69 9.54393 L1075.69 72.576 L1068.24 72.576 L1068.24 65.7705 Q1065.89 69.8214 1062.29 71.8063 Q1058.72 73.7508 1053.7 73.7508 Q1045.47 73.7508 1040.29 67.1883 Q1035.14 60.6258 1035.14 49.9314 Q1035.14 39.2371 1040.29 32.6746 Q1045.47 26.1121 1053.7 26.1121 Q1058.72 26.1121 1062.29 28.0971 Q1065.89 30.0415 1068.24 34.0924 M1042.84 49.9314 Q1042.84 58.1548 1046.2 62.8538 Q1049.61 67.5124 1055.52 67.5124 Q1061.43 67.5124 1064.84 62.8538 Q1068.24 58.1548 1068.24 49.9314 Q1068.24 41.7081 1064.84 37.0496 Q1061.43 32.3505 1055.52 32.3505 Q1049.61 32.3505 1046.2 37.0496 Q1042.84 41.7081 1042.84 49.9314 Z" fill="#000000" fill-rule="evenodd" fill-opacity="1" /><path clip-path="url(#clip020)" d="M1129.85 48.0275 L1129.85 51.6733 L1095.58 51.6733 Q1096.07 59.3701 1100.2 63.421 Q1104.37 67.4314 1111.79 67.4314 Q1116.08 67.4314 1120.09 66.3781 Q1124.14 65.3249 1128.11 63.2184 L1128.11 70.267 Q1124.1 71.9684 1119.89 72.8596 Q1115.68 73.7508 1111.34 73.7508 Q1100.49 73.7508 1094.13 67.4314 Q1087.81 61.1119 1087.81 50.3365 Q1087.81 39.1965 1093.8 32.6746 Q1099.84 26.1121 1110.05 26.1121 Q1119.2 26.1121 1124.51 32.0264 Q1129.85 37.9003 1129.85 48.0275 M1122.4 45.84 Q1122.32 39.7232 1118.96 36.0774 Q1115.64 32.4315 1110.13 32.4315 Q1103.89 32.4315 1100.12 35.9558 Q1096.39 39.4801 1095.83 45.8805 L1122.4 45.84 Z" fill="#000000" fill-rule="evenodd" fill-opacity="1" /><path clip-path="url(#clip020)" d="M1177.41 35.9153 Q1180.21 30.8922 1184.1 28.5022 Q1187.98 26.1121 1193.25 26.1121 Q1200.34 26.1121 1204.19 31.0947 Q1208.04 36.0368 1208.04 45.1919 L1208.04 72.576 L1200.54 72.576 L1200.54 45.4349 Q1200.54 38.913 1198.23 35.7533 Q1195.92 32.5936 1191.18 32.5936 Q1185.39 32.5936 1182.03 36.4419 Q1178.67 40.2903 1178.67 46.9338 L1178.67 72.576 L1171.17 72.576 L1171.17 45.4349 Q1171.17 38.8725 1168.86 35.7533 Q1166.56 32.5936 1161.73 32.5936 Q1156.02 32.5936 1152.66 36.4824 Q1149.3 40.3308 1149.3 46.9338 L1149.3 72.576 L1141.8 72.576 L1141.8 27.2059 L1149.3 27.2059 L1149.3 34.2544 Q1151.85 30.082 1155.42 28.0971 Q1158.98 26.1121 1163.88 26.1121 Q1168.82 26.1121 1172.27 28.6237 Q1175.75 31.1352 1177.41 35.9153 Z" fill="#000000" fill-rule="evenodd" fill-opacity="1" /><path clip-path="url(#clip020)" d="M1243.52 49.7694 Q1234.49 49.7694 1231.01 51.8354 Q1227.52 53.9013 1227.52 58.8839 Q1227.52 62.8538 1230.11 65.2034 Q1232.75 67.5124 1237.24 67.5124 Q1243.44 67.5124 1247.17 63.1374 Q1250.94 58.7219 1250.94 51.4303 L1250.94 49.7694 L1243.52 49.7694 M1258.39 46.6907 L1258.39 72.576 L1250.94 72.576 L1250.94 65.6895 Q1248.38 69.8214 1244.58 71.8063 Q1240.77 73.7508 1235.26 73.7508 Q1228.29 73.7508 1224.16 69.8619 Q1220.07 65.9325 1220.07 59.3701 Q1220.07 51.7138 1225.17 47.825 Q1230.32 43.9361 1240.48 43.9361 L1250.94 43.9361 L1250.94 43.2069 Q1250.94 38.0623 1247.53 35.2672 Q1244.17 32.4315 1238.05 32.4315 Q1234.17 32.4315 1230.48 33.3632 Q1226.79 34.295 1223.39 36.1584 L1223.39 29.2718 Q1227.48 27.692 1231.33 26.9223 Q1235.18 26.1121 1238.82 26.1121 Q1248.67 26.1121 1253.53 31.2163 Q1258.39 36.3204 1258.39 46.6907 Z" fill="#000000" fill-rule="evenodd" fill-opacity="1" /><path clip-path="url(#clip020)" d="M1311.46 45.1919 L1311.46 72.576 L1304 72.576 L1304 45.4349 Q1304 38.994 1301.49 35.7938 Q1298.98 32.5936 1293.96 32.5936 Q1287.92 32.5936 1284.44 36.4419 Q1280.95 40.2903 1280.95 46.9338 L1280.95 72.576 L1273.46 72.576 L1273.46 27.2059 L1280.95 27.2059 L1280.95 34.2544 Q1283.63 30.163 1287.23 28.1376 Q1290.88 26.1121 1295.62 26.1121 Q1303.44 26.1121 1307.45 30.9732 Q1311.46 35.7938 1311.46 45.1919 Z" fill="#000000" fill-rule="evenodd" fill-opacity="1" /><path clip-path="url(#clip020)" d="M1356.18 34.0924 L1356.18 9.54393 L1363.63 9.54393 L1363.63 72.576 L1356.18 72.576 L1356.18 65.7705 Q1353.83 69.8214 1350.22 71.8063 Q1346.66 73.7508 1341.64 73.7508 Q1333.41 73.7508 1328.23 67.1883 Q1323.08 60.6258 1323.08 49.9314 Q1323.08 39.2371 1328.23 32.6746 Q1333.41 26.1121 1341.64 26.1121 Q1346.66 26.1121 1350.22 28.0971 Q1353.83 30.0415 1356.18 34.0924 M1330.78 49.9314 Q1330.78 58.1548 1334.14 62.8538 Q1337.54 67.5124 1343.46 67.5124 Q1349.37 67.5124 1352.78 62.8538 Q1356.18 58.1548 1356.18 49.9314 Q1356.18 41.7081 1352.78 37.0496 Q1349.37 32.3505 1343.46 32.3505 Q1337.54 32.3505 1334.14 37.0496 Q1330.78 41.7081 1330.78 49.9314 Z" fill="#000000" fill-rule="evenodd" fill-opacity="1" /><path clip-path="url(#clip020)" d="M1399.6 49.7694 Q1390.57 49.7694 1387.09 51.8354 Q1383.6 53.9013 1383.6 58.8839 Q1383.6 62.8538 1386.2 65.2034 Q1388.83 67.5124 1393.33 67.5124 Q1399.52 67.5124 1403.25 63.1374 Q1407.02 58.7219 1407.02 51.4303 L1407.02 49.7694 L1399.6 49.7694 M1414.47 46.6907 L1414.47 72.576 L1407.02 72.576 L1407.02 65.6895 Q1404.47 69.8214 1400.66 71.8063 Q1396.85 73.7508 1391.34 73.7508 Q1384.37 73.7508 1380.24 69.8619 Q1376.15 65.9325 1376.15 59.3701 Q1376.15 51.7138 1381.25 47.825 Q1386.4 43.9361 1396.57 43.9361 L1407.02 43.9361 L1407.02 43.2069 Q1407.02 38.0623 1403.61 35.2672 Q1400.25 32.4315 1394.14 32.4315 Q1390.25 32.4315 1386.56 33.3632 Q1382.87 34.295 1379.47 36.1584 L1379.47 29.2718 Q1383.56 27.692 1387.41 26.9223 Q1391.26 26.1121 1394.9 26.1121 Q1404.75 26.1121 1409.61 31.2163 Q1414.47 36.3204 1414.47 46.6907 Z" fill="#000000" fill-rule="evenodd" fill-opacity="1" /><path clip-path="url(#clip020)" d="M1486.05 34.0924 L1486.05 9.54393 L1493.5 9.54393 L1493.5 72.576 L1486.05 72.576 L1486.05 65.7705 Q1483.7 69.8214 1480.1 71.8063 Q1476.53 73.7508 1471.51 73.7508 Q1463.28 73.7508 1458.1 67.1883 Q1452.95 60.6258 1452.95 49.9314 Q1452.95 39.2371 1458.1 32.6746 Q1463.28 26.1121 1471.51 26.1121 Q1476.53 26.1121 1480.1 28.0971 Q1483.7 30.0415 1486.05 34.0924 M1460.65 49.9314 Q1460.65 58.1548 1464.01 62.8538 Q1467.42 67.5124 1473.33 67.5124 Q1479.24 67.5124 1482.65 62.8538 Q1486.05 58.1548 1486.05 49.9314 Q1486.05 41.7081 1482.65 37.0496 Q1479.24 32.3505 1473.33 32.3505 Q1467.42 32.3505 1464.01 37.0496 Q1460.65 41.7081 1460.65 49.9314 Z" fill="#000000" fill-rule="evenodd" fill-opacity="1" /><path clip-path="url(#clip020)" d="M1547.66 48.0275 L1547.66 51.6733 L1513.39 51.6733 Q1513.88 59.3701 1518.01 63.421 Q1522.18 67.4314 1529.6 67.4314 Q1533.89 67.4314 1537.9 66.3781 Q1541.95 65.3249 1545.92 63.2184 L1545.92 70.267 Q1541.91 71.9684 1537.7 72.8596 Q1533.49 73.7508 1529.15 73.7508 Q1518.3 73.7508 1511.94 67.4314 Q1505.62 61.1119 1505.62 50.3365 Q1505.62 39.1965 1511.61 32.6746 Q1517.65 26.1121 1527.86 26.1121 Q1537.01 26.1121 1542.32 32.0264 Q1547.66 37.9003 1547.66 48.0275 M1540.21 45.84 Q1540.13 39.7232 1536.77 36.0774 Q1533.45 32.4315 1527.94 32.4315 Q1521.7 32.4315 1517.93 35.9558 Q1514.2 39.4801 1513.64 45.8805 L1540.21 45.84 Z" fill="#000000" fill-rule="evenodd" fill-opacity="1" /><path clip-path="url(#clip020)" d="M1586.27 9.54393 L1593.72 9.54393 L1593.72 72.576 L1586.27 72.576 L1586.27 9.54393 Z" fill="#000000" fill-rule="evenodd" fill-opacity="1" /><path clip-path="url(#clip020)" d="M1648.13 48.0275 L1648.13 51.6733 L1613.86 51.6733 Q1614.34 59.3701 1618.47 63.421 Q1622.65 67.4314 1630.06 67.4314 Q1634.35 67.4314 1638.36 66.3781 Q1642.42 65.3249 1646.39 63.2184 L1646.39 70.267 Q1642.37 71.9684 1638.16 72.8596 Q1633.95 73.7508 1629.61 73.7508 Q1618.76 73.7508 1612.4 67.4314 Q1606.08 61.1119 1606.08 50.3365 Q1606.08 39.1965 1612.07 32.6746 Q1618.11 26.1121 1628.32 26.1121 Q1637.47 26.1121 1642.78 32.0264 Q1648.13 37.9003 1648.13 48.0275 M1640.67 45.84 Q1640.59 39.7232 1637.23 36.0774 Q1633.91 32.4315 1628.4 32.4315 Q1622.16 32.4315 1618.39 35.9558 Q1614.67 39.4801 1614.1 45.8805 L1640.67 45.84 Z" fill="#000000" fill-rule="evenodd" fill-opacity="1" /><path clip-path="url(#clip020)" d="M1660.36 27.2059 L1667.81 27.2059 L1667.81 72.576 L1660.36 72.576 L1660.36 27.2059 M1660.36 9.54393 L1667.81 9.54393 L1667.81 18.9825 L1660.36 18.9825 L1660.36 9.54393 Z" fill="#000000" fill-rule="evenodd" fill-opacity="1" /><path clip-path="url(#clip020)" d="M1690.78 14.324 L1690.78 27.2059 L1706.14 27.2059 L1706.14 32.9987 L1690.78 32.9987 L1690.78 57.6282 Q1690.78 63.1779 1692.28 64.7578 Q1693.82 66.3376 1698.48 66.3376 L1706.14 66.3376 L1706.14 72.576 L1698.48 72.576 Q1689.85 72.576 1686.57 69.3758 Q1683.29 66.1351 1683.29 57.6282 L1683.29 32.9987 L1677.82 32.9987 L1677.82 27.2059 L1683.29 27.2059 L1683.29 14.324 L1690.78 14.324 Z" fill="#000000" fill-rule="evenodd" fill-opacity="1" /><path clip-path="url(#clip020)" d="M1733.52 32.4315 Q1727.52 32.4315 1724.04 37.1306 Q1720.56 41.7891 1720.56 49.9314 Q1720.56 58.0738 1724 62.7728 Q1727.48 67.4314 1733.52 67.4314 Q1739.47 67.4314 1742.96 62.7323 Q1746.44 58.0333 1746.44 49.9314 Q1746.44 41.8701 1742.96 37.1711 Q1739.47 32.4315 1733.52 32.4315 M1733.52 26.1121 Q1743.24 26.1121 1748.79 32.4315 Q1754.34 38.7509 1754.34 49.9314 Q1754.34 61.0714 1748.79 67.4314 Q1743.24 73.7508 1733.52 73.7508 Q1723.76 73.7508 1718.21 67.4314 Q1712.7 61.0714 1712.7 49.9314 Q1712.7 38.7509 1718.21 32.4315 Q1723.76 26.1121 1733.52 26.1121 Z" fill="#000000" fill-rule="evenodd" fill-opacity="1" /><path clip-path="url(#clip020)" d="M1795.62 28.5427 L1795.62 35.5912 Q1792.46 33.9709 1789.06 33.1607 Q1785.66 32.3505 1782.01 32.3505 Q1776.46 32.3505 1773.66 34.0519 Q1770.91 35.7533 1770.91 39.156 Q1770.91 41.7486 1772.89 43.2475 Q1774.88 44.7058 1780.88 46.0426 L1783.43 46.6097 Q1791.37 48.3111 1794.69 51.4303 Q1798.05 54.509 1798.05 60.0587 Q1798.05 66.3781 1793.03 70.0644 Q1788.05 73.7508 1779.3 73.7508 Q1775.65 73.7508 1771.68 73.0216 Q1767.75 72.3329 1763.38 70.9151 L1763.38 63.2184 Q1767.51 65.3654 1771.52 66.4591 Q1775.53 67.5124 1779.46 67.5124 Q1784.72 67.5124 1787.56 65.73 Q1790.39 63.9071 1790.39 60.6258 Q1790.39 57.5877 1788.33 55.9673 Q1786.3 54.3469 1779.38 52.8481 L1776.78 52.2405 Q1769.86 50.7821 1766.78 47.7845 Q1763.7 44.7463 1763.7 39.4801 Q1763.7 33.0797 1768.24 29.5959 Q1772.77 26.1121 1781.12 26.1121 Q1785.25 26.1121 1788.9 26.7198 Q1792.54 27.3274 1795.62 28.5427 Z" fill="#000000" fill-rule="evenodd" fill-opacity="1" /><path clip-path="url(#clip020)" d="M1843.5 65.7705 L1843.5 89.8329 L1836.01 89.8329 L1836.01 27.2059 L1843.5 27.2059 L1843.5 34.0924 Q1845.85 30.0415 1849.42 28.0971 Q1853.02 26.1121 1858 26.1121 Q1866.27 26.1121 1871.41 32.6746 Q1876.6 39.2371 1876.6 49.9314 Q1876.6 60.6258 1871.41 67.1883 Q1866.27 73.7508 1858 73.7508 Q1853.02 73.7508 1849.42 71.8063 Q1845.85 69.8214 1843.5 65.7705 M1868.86 49.9314 Q1868.86 41.7081 1865.46 37.0496 Q1862.1 32.3505 1856.18 32.3505 Q1850.27 32.3505 1846.86 37.0496 Q1843.5 41.7081 1843.5 49.9314 Q1843.5 58.1548 1846.86 62.8538 Q1850.27 67.5124 1856.18 67.5124 Q1862.1 67.5124 1865.46 62.8538 Q1868.86 58.1548 1868.86 49.9314 Z" fill="#000000" fill-rule="evenodd" fill-opacity="1" /><path clip-path="url(#clip020)" d="M1906.53 32.4315 Q1900.54 32.4315 1897.05 37.1306 Q1893.57 41.7891 1893.57 49.9314 Q1893.57 58.0738 1897.01 62.7728 Q1900.5 67.4314 1906.53 67.4314 Q1912.49 67.4314 1915.97 62.7323 Q1919.46 58.0333 1919.46 49.9314 Q1919.46 41.8701 1915.97 37.1711 Q1912.49 32.4315 1906.53 32.4315 M1906.53 26.1121 Q1916.26 26.1121 1921.81 32.4315 Q1927.36 38.7509 1927.36 49.9314 Q1927.36 61.0714 1921.81 67.4314 Q1916.26 73.7508 1906.53 73.7508 Q1896.77 73.7508 1891.22 67.4314 Q1885.71 61.0714 1885.71 49.9314 Q1885.71 38.7509 1891.22 32.4315 Q1896.77 26.1121 1906.53 26.1121 Z" fill="#000000" fill-rule="evenodd" fill-opacity="1" /><path clip-path="url(#clip020)" d="M1966 34.1734 Q1964.75 33.4443 1963.25 33.1202 Q1961.79 32.7556 1960.01 32.7556 Q1953.69 32.7556 1950.28 36.8875 Q1946.92 40.9789 1946.92 48.6757 L1946.92 72.576 L1939.43 72.576 L1939.43 27.2059 L1946.92 27.2059 L1946.92 34.2544 Q1949.27 30.1225 1953.04 28.1376 Q1956.81 26.1121 1962.19 26.1121 Q1962.96 26.1121 1963.89 26.2337 Q1964.83 26.3147 1965.96 26.5172 L1966 34.1734 Z" fill="#000000" fill-rule="evenodd" fill-opacity="1" /><path clip-path="url(#clip020)" d="M2030.05 34.0924 L2030.05 9.54393 L2037.5 9.54393 L2037.5 72.576 L2030.05 72.576 L2030.05 65.7705 Q2027.7 69.8214 2024.09 71.8063 Q2020.53 73.7508 2015.5 73.7508 Q2007.28 73.7508 2002.09 67.1883 Q1996.95 60.6258 1996.95 49.9314 Q1996.95 39.2371 2002.09 32.6746 Q2007.28 26.1121 2015.5 26.1121 Q2020.53 26.1121 2024.09 28.0971 Q2027.7 30.0415 2030.05 34.0924 M2004.65 49.9314 Q2004.65 58.1548 2008.01 62.8538 Q2011.41 67.5124 2017.33 67.5124 Q2023.24 67.5124 2026.64 62.8538 Q2030.05 58.1548 2030.05 49.9314 Q2030.05 41.7081 2026.64 37.0496 Q2023.24 32.3505 2017.33 32.3505 Q2011.41 32.3505 2008.01 37.0496 Q2004.65 41.7081 2004.65 49.9314 Z" fill="#000000" fill-rule="evenodd" fill-opacity="1" /><path clip-path="url(#clip020)" d="M2052.85 27.2059 L2060.31 27.2059 L2060.31 72.576 L2052.85 72.576 L2052.85 27.2059 M2052.85 9.54393 L2060.31 9.54393 L2060.31 18.9825 L2052.85 18.9825 L2052.85 9.54393 Z" fill="#000000" fill-rule="evenodd" fill-opacity="1" /><path clip-path="url(#clip020)" d="M2096.52 49.7694 Q2087.49 49.7694 2084 51.8354 Q2080.52 53.9013 2080.52 58.8839 Q2080.52 62.8538 2083.11 65.2034 Q2085.75 67.5124 2090.24 67.5124 Q2096.44 67.5124 2100.17 63.1374 Q2103.93 58.7219 2103.93 51.4303 L2103.93 49.7694 L2096.52 49.7694 M2111.39 46.6907 L2111.39 72.576 L2103.93 72.576 L2103.93 65.6895 Q2101.38 69.8214 2097.57 71.8063 Q2093.77 73.7508 2088.26 73.7508 Q2081.29 73.7508 2077.16 69.8619 Q2073.07 65.9325 2073.07 59.3701 Q2073.07 51.7138 2078.17 47.825 Q2083.32 43.9361 2093.48 43.9361 L2103.93 43.9361 L2103.93 43.2069 Q2103.93 38.0623 2100.53 35.2672 Q2097.17 32.4315 2091.05 32.4315 Q2087.16 32.4315 2083.48 33.3632 Q2079.79 34.295 2076.39 36.1584 L2076.39 29.2718 Q2080.48 27.692 2084.33 26.9223 Q2088.18 26.1121 2091.82 26.1121 Q2101.67 26.1121 2106.53 31.2163 Q2111.39 36.3204 2111.39 46.6907 Z" fill="#000000" fill-rule="evenodd" fill-opacity="1" /><polyline clip-path="url(#clip022)" style="stroke:#009af9; stroke-linecap:butt; stroke-linejoin:round; stroke-width:4; stroke-opacity:1; fill:none" points="
  364.17,1447.87 368.296,1447.87 372.421,1447.87 376.546,1447.87 380.672,1447.87 384.797,1447.87 388.922,1447.87 393.048,1447.87 397.173,1447.87 401.298,1447.87 
  405.424,1447.87 409.549,1447.87 413.674,1447.87 417.8,1447.87 421.925,1447.87 426.05,1447.87 430.176,1447.87 434.301,1447.87 438.427,1447.87 442.552,1447.87 
  446.677,1447.87 450.803,1447.87 454.928,1447.87 459.053,1447.87 463.179,1447.87 467.304,1447.87 471.429,1447.87 475.555,1447.87 479.68,1447.87 483.805,1447.87 
  487.931,1447.87 492.056,1447.87 496.182,1447.87 500.307,1447.87 504.432,1447.87 508.558,1447.87 512.683,1447.87 516.808,1447.87 520.934,1447.87 525.059,1447.87 
  529.184,1447.87 533.31,1447.87 537.435,1447.87 541.56,1447.87 545.686,1447.87 549.811,1447.87 553.936,1447.87 558.062,1447.87 562.187,1447.87 566.313,1447.87 
  570.438,1447.87 574.563,1447.87 578.689,1447.87 582.814,1447.87 586.939,1447.87 591.065,1447.87 595.19,1447.87 599.315,1447.87 603.441,1447.87 607.566,1447.87 
  611.691,1447.87 615.817,1447.87 619.942,1447.87 624.067,1447.87 628.193,1447.87 632.318,1447.87 636.444,1447.87 640.569,1447.87 644.694,1447.87 648.82,1447.87 
  652.945,1447.87 657.07,1447.87 661.196,1447.87 665.321,1443.78 669.446,1434.31 673.572,1423.5 677.697,1411.2 681.822,1397.2 685.948,1381.3 690.073,1363.29 
  694.199,1342.92 698.324,1319.95 702.449,1294.13 706.575,1265.19 710.7,1232.88 714.825,1196.96 718.951,1157.23 723.076,1113.54 727.201,1065.77 731.327,1013.91 
  735.452,958.072 739.577,898.473 743.703,835.497 747.828,769.698 751.953,701.817 756.079,632.78 760.204,563.697 764.33,495.835 768.455,430.585 772.58,369.408 
  776.706,313.776 780.831,265.099 784.956,224.653 789.082,193.508 793.207,172.473 797.332,162.047 801.458,162.395 805.583,173.35 809.708,194.424 813.834,224.853 
  817.959,263.643 822.084,309.635 826.21,361.564 830.335,418.126 834.461,478.033 838.586,540.059 842.711,603.076 846.837,666.081 850.962,728.212 855.087,788.749 
  859.213,847.118 863.338,902.877 867.463,955.708 871.589,1005.4 875.714,1051.85 879.839,1095.01 883.965,1134.91 888.09,1171.63 892.216,1205.29 896.341,1236.02 
  900.466,1264 904.592,1289.39 908.717,1312.38 912.842,1333.14 916.968,1351.85 921.093,1368.69 925.218,1383.81 929.344,1397.37 933.469,1409.52 937.594,1420.39 
  941.72,1430.1 945.845,1438.77 949.97,1446.51 954.096,1447.87 958.221,1447.87 962.347,1447.87 966.472,1447.87 970.597,1447.87 974.723,1447.87 978.848,1447.87 
  982.973,1447.87 987.099,1447.87 991.224,1447.87 995.349,1447.87 999.475,1447.87 1003.6,1447.87 1007.73,1447.87 1011.85,1447.87 1015.98,1447.87 1020.1,1447.87 
  1024.23,1447.87 1028.35,1447.87 1032.48,1447.87 1036.6,1447.87 1040.73,1447.87 1044.85,1447.87 1048.98,1447.87 1053.1,1447.87 1057.23,1447.87 1061.36,1447.87 
  1065.48,1447.87 1069.61,1447.87 1073.73,1447.87 1077.86,1447.87 1081.98,1447.87 1086.11,1447.87 1090.23,1447.87 1094.36,1447.87 1098.48,1447.87 1102.61,1447.87 
  1106.73,1447.87 1110.86,1447.87 1114.98,1447.87 1119.11,1447.87 1123.24,1447.87 1127.36,1447.87 1131.49,1447.87 1135.61,1447.87 1139.74,1447.87 1143.86,1447.87 
  1147.99,1447.87 1152.11,1447.87 1156.24,1447.87 1160.36,1447.87 1164.49,1447.87 1168.61,1447.87 1172.74,1447.87 1176.86,1447.87 1180.99,1447.87 1185.12,1447.87 
  1189.24,1447.87 1193.37,1447.87 1197.49,1447.87 1201.62,1447.87 1205.74,1447.87 1209.87,1447.87 1213.99,1447.87 1218.12,1447.87 1222.24,1447.87 1226.37,1447.87 
  1230.49,1447.87 1234.62,1447.87 1238.75,1447.87 1242.87,1447.87 1247,1447.87 1251.12,1447.87 1255.25,1447.87 1259.37,1447.87 1263.5,1447.87 1267.62,1447.87 
  1271.75,1447.87 1275.87,1447.87 1280,1447.87 1284.12,1447.87 1288.25,1447.87 1292.37,1447.87 1296.5,1447.87 1300.63,1447.87 1304.75,1447.87 1308.88,1447.87 
  1313,1447.87 1317.13,1447.87 1321.25,1447.87 1325.38,1447.87 1329.5,1447.87 1333.63,1447.87 1337.75,1447.87 1341.88,1447.87 1346,1447.87 1350.13,1447.87 
  1354.26,1447.87 1358.38,1447.87 1362.51,1447.87 1366.63,1447.87 1370.76,1447.87 1374.88,1447.87 1379.01,1447.87 1383.13,1447.87 1387.26,1447.87 1391.38,1447.87 
  1395.51,1447.87 1399.63,1447.87 1403.76,1447.87 1407.88,1447.87 1412.01,1447.87 1416.14,1447.87 1420.26,1447.87 1424.39,1447.87 1428.51,1447.87 1432.64,1447.87 
  1436.76,1447.87 1440.89,1447.87 1445.01,1447.87 1449.14,1447.87 1453.26,1447.87 1457.39,1447.87 1461.51,1447.87 1465.64,1447.87 1469.77,1447.87 1473.89,1447.87 
  1478.02,1447.87 1482.14,1447.87 1486.27,1447.87 1490.39,1447.87 1494.52,1447.87 1498.64,1447.87 1502.77,1447.87 1506.89,1447.87 1511.02,1447.87 1515.14,1447.87 
  1519.27,1447.87 1523.39,1447.87 1527.52,1447.87 1531.65,1447.87 1535.77,1447.87 1539.9,1447.87 1544.02,1447.87 1548.15,1447.87 1552.27,1447.87 1556.4,1447.87 
  1560.52,1447.87 1564.65,1447.87 1568.77,1447.87 1572.9,1447.87 1577.02,1447.87 1581.15,1447.87 1585.28,1447.87 1589.4,1447.87 1593.53,1447.87 1597.65,1447.87 
  1601.78,1447.87 1605.9,1447.87 1610.03,1447.87 1614.15,1447.87 1618.28,1447.87 1622.4,1447.87 1626.53,1447.87 1630.65,1447.87 1634.78,1447.87 1638.9,1447.87 
  1643.03,1447.87 1647.16,1447.87 1651.28,1447.87 1655.41,1447.87 1659.53,1447.87 1663.66,1447.87 1667.78,1447.87 1671.91,1447.87 1676.03,1447.87 1680.16,1447.87 
  1684.28,1447.87 1688.41,1447.87 1692.53,1447.87 1696.66,1447.87 1700.78,1447.87 1704.91,1447.87 1709.04,1447.87 1713.16,1447.87 1717.29,1447.87 1721.41,1447.87 
  1725.54,1447.87 1729.66,1447.87 1733.79,1447.87 1737.91,1447.87 1742.04,1447.87 1746.16,1447.87 1750.29,1447.87 1754.41,1447.87 1758.54,1447.87 1762.67,1447.87 
  1766.79,1447.87 1770.92,1447.87 1775.04,1447.87 1779.17,1447.87 1783.29,1447.87 1787.42,1447.87 1791.54,1447.87 1795.67,1447.87 1799.79,1447.87 1803.92,1447.87 
  1808.04,1447.87 1812.17,1447.87 1816.29,1447.87 1820.42,1447.87 1824.55,1447.87 1828.67,1447.87 1832.8,1447.87 1836.92,1447.87 1841.05,1447.87 1845.17,1447.87 
  1849.3,1447.87 1853.42,1447.87 1857.55,1447.87 1861.67,1447.87 1865.8,1447.87 1869.92,1447.87 1874.05,1447.87 1878.18,1447.87 1882.3,1447.87 1886.43,1447.87 
  1890.55,1447.87 1894.68,1447.87 1898.8,1447.87 1902.93,1447.87 1907.05,1447.87 1911.18,1447.87 1915.3,1447.87 1919.43,1447.87 1923.55,1447.87 1927.68,1447.87 
  1931.8,1447.87 1935.93,1447.87 1940.06,1447.87 1944.18,1447.87 1948.31,1447.87 1952.43,1447.87 1956.56,1447.87 1960.68,1447.87 1964.81,1447.87 1968.93,1447.87 
  1973.06,1447.87 1977.18,1447.87 1981.31,1447.87 1985.43,1447.87 1989.56,1447.87 1993.69,1447.87 1997.81,1447.87 2001.94,1447.87 2006.06,1447.87 2010.19,1447.87 
  2014.31,1447.87 2018.44,1447.87 2022.56,1447.87 2026.69,1447.87 2030.81,1447.87 2034.94,1447.87 2039.06,1447.87 2043.19,1447.87 2047.31,1447.87 2051.44,1447.87 
  2055.57,1447.87 2059.69,1447.87 2063.82,1447.87 2067.94,1447.87 2072.07,1447.87 2076.19,1447.87 2080.32,1447.87 2084.44,1447.87 2088.57,1447.87 2092.69,1447.87 
  2096.82,1447.87 2100.94,1447.87 2105.07,1447.87 2109.19,1447.87 2113.32,1447.87 2117.45,1447.87 2121.57,1447.87 2125.7,1447.87 2129.82,1447.87 2133.95,1447.87 
  2138.07,1447.87 2142.2,1447.87 2146.32,1447.87 2150.45,1447.87 2154.57,1447.87 2158.7,1447.87 2162.82,1447.87 2166.95,1447.87 2171.08,1447.87 2175.2,1447.87 
  2179.33,1447.87 2183.45,1447.87 2187.58,1447.87 2191.7,1447.87 2195.83,1447.87 2199.95,1447.87 2204.08,1447.87 2208.2,1447.87 2212.33,1447.87 2216.45,1447.87 
  2220.58,1447.87 2224.7,1447.87 2228.83,1447.87 2232.96,1447.87 2237.08,1447.87 2241.21,1447.87 2245.33,1447.87 2249.46,1447.87 2253.58,1447.87 2257.71,1447.87 
  2261.83,1447.87 2265.96,1447.87 2270.08,1447.87 2274.21,1447.87 2278.33,1447.87 2282.46,1447.87 2286.59,1447.87 2290.71,1447.87 2294.84,1447.87 
  "/>
<path clip-path="url(#clip020)" d="
M2004.72 272.585 L2284.54 272.585 L2284.54 168.905 L2004.72 168.905  Z
  " fill="#ffffff" fill-rule="evenodd" fill-opacity="1"/>
<polyline clip-path="url(#clip020)" style="stroke:#000000; stroke-linecap:butt; stroke-linejoin:round; stroke-width:4; stroke-opacity:1; fill:none" points="
  2004.72,272.585 2284.54,272.585 2284.54,168.905 2004.72,168.905 2004.72,272.585 
  "/>
<polyline clip-path="url(#clip020)" style="stroke:#009af9; stroke-linecap:butt; stroke-linejoin:round; stroke-width:4; stroke-opacity:1; fill:none" points="
  2027.46,220.745 2163.89,220.745 
  "/>
<path clip-path="url(#clip020)" d="M2200.47 240.432 Q2198.67 245.062 2196.95 246.474 Q2195.24 247.886 2192.37 247.886 L2188.97 247.886 L2188.97 244.321 L2191.47 244.321 Q2193.23 244.321 2194.2 243.488 Q2195.17 242.654 2196.35 239.552 L2197.12 237.608 L2186.63 212.099 L2191.14 212.099 L2199.25 232.377 L2207.35 212.099 L2211.86 212.099 L2200.47 240.432 Z" fill="#000000" fill-rule="evenodd" fill-opacity="1" /><path clip-path="url(#clip020)" d="M2219.15 234.089 L2226.79 234.089 L2226.79 207.724 L2218.48 209.391 L2218.48 205.131 L2226.75 203.465 L2231.42 203.465 L2231.42 234.089 L2239.06 234.089 L2239.06 238.025 L2219.15 238.025 L2219.15 234.089 Z" fill="#000000" fill-rule="evenodd" fill-opacity="1" /></svg>
