<?xml version="1.0" encoding="utf-8"?>
<svg xmlns="http://www.w3.org/2000/svg" xmlns:xlink="http://www.w3.org/1999/xlink" width="600" height="400" viewBox="0 0 2400 1600">
<defs>
  <clipPath id="clip980">
    <rect x="0" y="0" width="2400" height="1600"/>
  </clipPath>
</defs>
<path clip-path="url(#clip980)" d="
M0 1600 L2400 1600 L2400 0 L0 0  Z
  " fill="#ffffff" fill-rule="evenodd" fill-opacity="1"/>
<defs>
  <clipPath id="clip981">
    <rect x="480" y="0" width="1681" height="1600"/>
  </clipPath>
</defs>
<path clip-path="url(#clip980)" d="
M277.431 1486.45 L2352.76 1486.45 L2352.76 123.472 L277.431 123.472  Z
  " fill="#ffffff" fill-rule="evenodd" fill-opacity="1"/>
<defs>
  <clipPath id="clip982">
    <rect x="277" y="123" width="2076" height="1364"/>
  </clipPath>
</defs>
<polyline clip-path="url(#clip982)" style="stroke:#000000; stroke-linecap:butt; stroke-linejoin:round; stroke-width:2; stroke-opacity:0.1; fill:none" points="
  331.983,1486.45 331.983,123.472 
  "/>
<polyline clip-path="url(#clip982)" style="stroke:#000000; stroke-linecap:butt; stroke-linejoin:round; stroke-width:2; stroke-opacity:0.1; fill:none" points="
  750.328,1486.45 750.328,123.472 
  "/>
<polyline clip-path="url(#clip982)" style="stroke:#000000; stroke-linecap:butt; stroke-linejoin:round; stroke-width:2; stroke-opacity:0.1; fill:none" points="
  1168.67,1486.45 1168.67,123.472 
  "/>
<polyline clip-path="url(#clip982)" style="stroke:#000000; stroke-linecap:butt; stroke-linejoin:round; stroke-width:2; stroke-opacity:0.1; fill:none" points="
  1587.02,1486.45 1587.02,123.472 
  "/>
<polyline clip-path="url(#clip982)" style="stroke:#000000; stroke-linecap:butt; stroke-linejoin:round; stroke-width:2; stroke-opacity:0.1; fill:none" points="
  2005.36,1486.45 2005.36,123.472 
  "/>
<polyline clip-path="url(#clip980)" style="stroke:#000000; stroke-linecap:butt; stroke-linejoin:round; stroke-width:4; stroke-opacity:1; fill:none" points="
  277.431,1486.45 2352.76,1486.45 
  "/>
<polyline clip-path="url(#clip980)" style="stroke:#000000; stroke-linecap:butt; stroke-linejoin:round; stroke-width:4; stroke-opacity:1; fill:none" points="
  331.983,1486.45 331.983,1467.55 
  "/>
<polyline clip-path="url(#clip980)" style="stroke:#000000; stroke-linecap:butt; stroke-linejoin:round; stroke-width:4; stroke-opacity:1; fill:none" points="
  750.328,1486.45 750.328,1467.55 
  "/>
<polyline clip-path="url(#clip980)" style="stroke:#000000; stroke-linecap:butt; stroke-linejoin:round; stroke-width:4; stroke-opacity:1; fill:none" points="
  1168.67,1486.45 1168.67,1467.55 
  "/>
<polyline clip-path="url(#clip980)" style="stroke:#000000; stroke-linecap:butt; stroke-linejoin:round; stroke-width:4; stroke-opacity:1; fill:none" points="
  1587.02,1486.45 1587.02,1467.55 
  "/>
<polyline clip-path="url(#clip980)" style="stroke:#000000; stroke-linecap:butt; stroke-linejoin:round; stroke-width:4; stroke-opacity:1; fill:none" points="
  2005.36,1486.45 2005.36,1467.55 
  "/>
<path clip-path="url(#clip980)" d="M331.983 1515.64 Q328.372 1515.64 326.543 1519.2 Q324.738 1522.75 324.738 1529.87 Q324.738 1536.98 326.543 1540.55 Q328.372 1544.09 331.983 1544.09 Q335.617 1544.09 337.423 1540.55 Q339.252 1536.98 339.252 1529.87 Q339.252 1522.75 337.423 1519.2 Q335.617 1515.64 331.983 1515.64 M331.983 1511.93 Q337.793 1511.93 340.849 1516.54 Q343.927 1521.12 343.927 1529.87 Q343.927 1538.6 340.849 1543.21 Q337.793 1547.79 331.983 1547.79 Q326.173 1547.79 323.094 1543.21 Q320.039 1538.6 320.039 1529.87 Q320.039 1521.12 323.094 1516.54 Q326.173 1511.93 331.983 1511.93 Z" fill="#000000" fill-rule="evenodd" fill-opacity="1" /><path clip-path="url(#clip980)" d="M709.935 1543.18 L717.573 1543.18 L717.573 1516.82 L709.263 1518.49 L709.263 1514.23 L717.527 1512.56 L722.203 1512.56 L722.203 1543.18 L729.842 1543.18 L729.842 1547.12 L709.935 1547.12 L709.935 1543.18 Z" fill="#000000" fill-rule="evenodd" fill-opacity="1" /><path clip-path="url(#clip980)" d="M749.286 1515.64 Q745.675 1515.64 743.846 1519.2 Q742.041 1522.75 742.041 1529.87 Q742.041 1536.98 743.846 1540.55 Q745.675 1544.09 749.286 1544.09 Q752.92 1544.09 754.726 1540.55 Q756.555 1536.98 756.555 1529.87 Q756.555 1522.75 754.726 1519.2 Q752.92 1515.64 749.286 1515.64 M749.286 1511.93 Q755.096 1511.93 758.152 1516.54 Q761.231 1521.12 761.231 1529.87 Q761.231 1538.6 758.152 1543.21 Q755.096 1547.79 749.286 1547.79 Q743.476 1547.79 740.397 1543.21 Q737.342 1538.6 737.342 1529.87 Q737.342 1521.12 740.397 1516.54 Q743.476 1511.93 749.286 1511.93 Z" fill="#000000" fill-rule="evenodd" fill-opacity="1" /><path clip-path="url(#clip980)" d="M779.448 1515.64 Q775.837 1515.64 774.008 1519.2 Q772.203 1522.75 772.203 1529.87 Q772.203 1536.98 774.008 1540.55 Q775.837 1544.09 779.448 1544.09 Q783.082 1544.09 784.888 1540.55 Q786.717 1536.98 786.717 1529.87 Q786.717 1522.75 784.888 1519.2 Q783.082 1515.64 779.448 1515.64 M779.448 1511.93 Q785.258 1511.93 788.314 1516.54 Q791.393 1521.12 791.393 1529.87 Q791.393 1538.6 788.314 1543.21 Q785.258 1547.79 779.448 1547.79 Q773.638 1547.79 770.559 1543.21 Q767.504 1538.6 767.504 1529.87 Q767.504 1521.12 770.559 1516.54 Q773.638 1511.93 779.448 1511.93 Z" fill="#000000" fill-rule="evenodd" fill-opacity="1" /><path clip-path="url(#clip980)" d="M1132.37 1543.18 L1148.68 1543.18 L1148.68 1547.12 L1126.74 1547.12 L1126.74 1543.18 Q1129.4 1540.43 1133.99 1535.8 Q1138.59 1531.15 1139.77 1529.81 Q1142.02 1527.28 1142.9 1525.55 Q1143.8 1523.79 1143.8 1522.1 Q1143.8 1519.34 1141.86 1517.61 Q1139.93 1515.87 1136.83 1515.87 Q1134.63 1515.87 1132.18 1516.63 Q1129.75 1517.4 1126.97 1518.95 L1126.97 1514.23 Q1129.8 1513.09 1132.25 1512.51 Q1134.7 1511.93 1136.74 1511.93 Q1142.11 1511.93 1145.3 1514.62 Q1148.5 1517.31 1148.5 1521.8 Q1148.5 1523.93 1147.69 1525.85 Q1146.9 1527.74 1144.8 1530.34 Q1144.22 1531.01 1141.12 1534.23 Q1138.01 1537.42 1132.37 1543.18 Z" fill="#000000" fill-rule="evenodd" fill-opacity="1" /><path clip-path="url(#clip980)" d="M1168.5 1515.64 Q1164.89 1515.64 1163.06 1519.2 Q1161.25 1522.75 1161.25 1529.87 Q1161.25 1536.98 1163.06 1540.55 Q1164.89 1544.09 1168.5 1544.09 Q1172.13 1544.09 1173.94 1540.55 Q1175.77 1536.98 1175.77 1529.87 Q1175.77 1522.75 1173.94 1519.2 Q1172.13 1515.64 1168.5 1515.64 M1168.5 1511.93 Q1174.31 1511.93 1177.36 1516.54 Q1180.44 1521.12 1180.44 1529.87 Q1180.44 1538.6 1177.36 1543.21 Q1174.31 1547.79 1168.5 1547.79 Q1162.69 1547.79 1159.61 1543.21 Q1156.55 1538.6 1156.55 1529.87 Q1156.55 1521.12 1159.61 1516.54 Q1162.69 1511.93 1168.5 1511.93 Z" fill="#000000" fill-rule="evenodd" fill-opacity="1" /><path clip-path="url(#clip980)" d="M1198.66 1515.64 Q1195.05 1515.64 1193.22 1519.2 Q1191.42 1522.75 1191.42 1529.87 Q1191.42 1536.98 1193.22 1540.55 Q1195.05 1544.09 1198.66 1544.09 Q1202.3 1544.09 1204.1 1540.55 Q1205.93 1536.98 1205.93 1529.87 Q1205.93 1522.75 1204.1 1519.2 Q1202.3 1515.64 1198.66 1515.64 M1198.66 1511.93 Q1204.47 1511.93 1207.53 1516.54 Q1210.61 1521.12 1210.61 1529.87 Q1210.61 1538.6 1207.53 1543.21 Q1204.47 1547.79 1198.66 1547.79 Q1192.85 1547.79 1189.77 1543.21 Q1186.72 1538.6 1186.72 1529.87 Q1186.72 1521.12 1189.77 1516.54 Q1192.85 1511.93 1198.66 1511.93 Z" fill="#000000" fill-rule="evenodd" fill-opacity="1" /><path clip-path="url(#clip980)" d="M1560.78 1528.49 Q1564.14 1529.2 1566.01 1531.47 Q1567.91 1533.74 1567.91 1537.07 Q1567.91 1542.19 1564.39 1544.99 Q1560.87 1547.79 1554.39 1547.79 Q1552.21 1547.79 1549.9 1547.35 Q1547.61 1546.93 1545.15 1546.08 L1545.15 1541.56 Q1547.1 1542.7 1549.41 1543.28 Q1551.73 1543.86 1554.25 1543.86 Q1558.65 1543.86 1560.94 1542.12 Q1563.26 1540.38 1563.26 1537.07 Q1563.26 1534.02 1561.1 1532.31 Q1558.97 1530.57 1555.15 1530.57 L1551.13 1530.57 L1551.13 1526.73 L1555.34 1526.73 Q1558.79 1526.73 1560.62 1525.36 Q1562.45 1523.97 1562.45 1521.38 Q1562.45 1518.72 1560.55 1517.31 Q1558.67 1515.87 1555.15 1515.87 Q1553.23 1515.87 1551.03 1516.29 Q1548.83 1516.7 1546.2 1517.58 L1546.2 1513.42 Q1548.86 1512.68 1551.17 1512.31 Q1553.51 1511.93 1555.57 1511.93 Q1560.9 1511.93 1564 1514.37 Q1567.1 1516.77 1567.1 1520.89 Q1567.1 1523.76 1565.46 1525.75 Q1563.81 1527.72 1560.78 1528.49 Z" fill="#000000" fill-rule="evenodd" fill-opacity="1" /><path clip-path="url(#clip980)" d="M1586.77 1515.64 Q1583.16 1515.64 1581.33 1519.2 Q1579.53 1522.75 1579.53 1529.87 Q1579.53 1536.98 1581.33 1540.55 Q1583.16 1544.09 1586.77 1544.09 Q1590.41 1544.09 1592.21 1540.55 Q1594.04 1536.98 1594.04 1529.87 Q1594.04 1522.75 1592.21 1519.2 Q1590.41 1515.64 1586.77 1515.64 M1586.77 1511.93 Q1592.58 1511.93 1595.64 1516.54 Q1598.72 1521.12 1598.72 1529.87 Q1598.72 1538.6 1595.64 1543.21 Q1592.58 1547.79 1586.77 1547.79 Q1580.96 1547.79 1577.89 1543.21 Q1574.83 1538.6 1574.83 1529.87 Q1574.83 1521.12 1577.89 1516.54 Q1580.96 1511.93 1586.77 1511.93 Z" fill="#000000" fill-rule="evenodd" fill-opacity="1" /><path clip-path="url(#clip980)" d="M1616.94 1515.64 Q1613.33 1515.64 1611.5 1519.2 Q1609.69 1522.75 1609.69 1529.87 Q1609.69 1536.98 1611.5 1540.55 Q1613.33 1544.09 1616.94 1544.09 Q1620.57 1544.09 1622.38 1540.55 Q1624.2 1536.98 1624.2 1529.87 Q1624.2 1522.75 1622.38 1519.2 Q1620.57 1515.64 1616.94 1515.64 M1616.94 1511.93 Q1622.75 1511.93 1625.8 1516.54 Q1628.88 1521.12 1628.88 1529.87 Q1628.88 1538.6 1625.8 1543.21 Q1622.75 1547.79 1616.94 1547.79 Q1611.13 1547.79 1608.05 1543.21 Q1604.99 1538.6 1604.99 1529.87 Q1604.99 1521.12 1608.05 1516.54 Q1611.13 1511.93 1616.94 1511.93 Z" fill="#000000" fill-rule="evenodd" fill-opacity="1" /><path clip-path="url(#clip980)" d="M1978.45 1516.63 L1966.65 1535.08 L1978.45 1535.08 L1978.45 1516.63 M1977.23 1512.56 L1983.11 1512.56 L1983.11 1535.08 L1988.04 1535.08 L1988.04 1538.97 L1983.11 1538.97 L1983.11 1547.12 L1978.45 1547.12 L1978.45 1538.97 L1962.85 1538.97 L1962.85 1534.46 L1977.23 1512.56 Z" fill="#000000" fill-rule="evenodd" fill-opacity="1" /><path clip-path="url(#clip980)" d="M2005.77 1515.64 Q2002.16 1515.64 2000.33 1519.2 Q1998.52 1522.75 1998.52 1529.87 Q1998.52 1536.98 2000.33 1540.55 Q2002.16 1544.09 2005.77 1544.09 Q2009.4 1544.09 2011.21 1540.55 Q2013.04 1536.98 2013.04 1529.87 Q2013.04 1522.75 2011.21 1519.2 Q2009.4 1515.64 2005.77 1515.64 M2005.77 1511.93 Q2011.58 1511.93 2014.63 1516.54 Q2017.71 1521.12 2017.71 1529.87 Q2017.71 1538.6 2014.63 1543.21 Q2011.58 1547.79 2005.77 1547.79 Q1999.96 1547.79 1996.88 1543.21 Q1993.82 1538.6 1993.82 1529.87 Q1993.82 1521.12 1996.88 1516.54 Q1999.96 1511.93 2005.77 1511.93 Z" fill="#000000" fill-rule="evenodd" fill-opacity="1" /><path clip-path="url(#clip980)" d="M2035.93 1515.64 Q2032.32 1515.64 2030.49 1519.2 Q2028.68 1522.75 2028.68 1529.87 Q2028.68 1536.98 2030.49 1540.55 Q2032.32 1544.09 2035.93 1544.09 Q2039.56 1544.09 2041.37 1540.55 Q2043.2 1536.98 2043.2 1529.87 Q2043.2 1522.75 2041.37 1519.2 Q2039.56 1515.64 2035.93 1515.64 M2035.93 1511.93 Q2041.74 1511.93 2044.8 1516.54 Q2047.87 1521.12 2047.87 1529.87 Q2047.87 1538.6 2044.8 1543.21 Q2041.74 1547.79 2035.93 1547.79 Q2030.12 1547.79 2027.04 1543.21 Q2023.98 1538.6 2023.98 1529.87 Q2023.98 1521.12 2027.04 1516.54 Q2030.12 1511.93 2035.93 1511.93 Z" fill="#000000" fill-rule="evenodd" fill-opacity="1" /><polyline clip-path="url(#clip982)" style="stroke:#000000; stroke-linecap:butt; stroke-linejoin:round; stroke-width:2; stroke-opacity:0.1; fill:none" points="
  277.431,1447.87 2352.76,1447.87 
  "/>
<polyline clip-path="url(#clip982)" style="stroke:#000000; stroke-linecap:butt; stroke-linejoin:round; stroke-width:2; stroke-opacity:0.1; fill:none" points="
  277.431,1091.7 2352.76,1091.7 
  "/>
<polyline clip-path="url(#clip982)" style="stroke:#000000; stroke-linecap:butt; stroke-linejoin:round; stroke-width:2; stroke-opacity:0.1; fill:none" points="
  277.431,735.53 2352.76,735.53 
  "/>
<polyline clip-path="url(#clip982)" style="stroke:#000000; stroke-linecap:butt; stroke-linejoin:round; stroke-width:2; stroke-opacity:0.1; fill:none" points="
  277.431,379.358 2352.76,379.358 
  "/>
<polyline clip-path="url(#clip980)" style="stroke:#000000; stroke-linecap:butt; stroke-linejoin:round; stroke-width:4; stroke-opacity:1; fill:none" points="
  277.431,1486.45 277.431,123.472 
  "/>
<polyline clip-path="url(#clip980)" style="stroke:#000000; stroke-linecap:butt; stroke-linejoin:round; stroke-width:4; stroke-opacity:1; fill:none" points="
  277.431,1447.87 296.329,1447.87 
  "/>
<polyline clip-path="url(#clip980)" style="stroke:#000000; stroke-linecap:butt; stroke-linejoin:round; stroke-width:4; stroke-opacity:1; fill:none" points="
  277.431,1091.7 296.329,1091.7 
  "/>
<polyline clip-path="url(#clip980)" style="stroke:#000000; stroke-linecap:butt; stroke-linejoin:round; stroke-width:4; stroke-opacity:1; fill:none" points="
  277.431,735.53 296.329,735.53 
  "/>
<polyline clip-path="url(#clip980)" style="stroke:#000000; stroke-linecap:butt; stroke-linejoin:round; stroke-width:4; stroke-opacity:1; fill:none" points="
  277.431,379.358 296.329,379.358 
  "/>
<path clip-path="url(#clip980)" d="M229.487 1433.67 Q225.875 1433.67 224.047 1437.24 Q222.241 1440.78 222.241 1447.91 Q222.241 1455.01 224.047 1458.58 Q225.875 1462.12 229.487 1462.12 Q233.121 1462.12 234.926 1458.58 Q236.755 1455.01 236.755 1447.91 Q236.755 1440.78 234.926 1437.24 Q233.121 1433.67 229.487 1433.67 M229.487 1429.97 Q235.297 1429.97 238.352 1434.57 Q241.431 1439.16 241.431 1447.91 Q241.431 1456.63 238.352 1461.24 Q235.297 1465.82 229.487 1465.82 Q223.676 1465.82 220.598 1461.24 Q217.542 1456.63 217.542 1447.91 Q217.542 1439.16 220.598 1434.57 Q223.676 1429.97 229.487 1429.97 Z" fill="#000000" fill-rule="evenodd" fill-opacity="1" /><path clip-path="url(#clip980)" d="M57.7745 1111.49 L74.0939 1111.49 L74.0939 1115.43 L52.1495 1115.43 L52.1495 1111.49 Q54.8115 1108.74 59.3949 1104.11 Q64.0013 1099.46 65.1819 1098.11 Q67.4272 1095.59 68.3068 1093.86 Q69.2096 1092.1 69.2096 1090.41 Q69.2096 1087.65 67.2652 1085.92 Q65.3439 1084.18 62.2421 1084.18 Q60.043 1084.18 57.5893 1084.94 Q55.1588 1085.71 52.381 1087.26 L52.381 1082.54 Q55.2051 1081.4 57.6588 1080.82 Q60.1124 1080.24 62.1495 1080.24 Q67.5198 1080.24 70.7142 1082.93 Q73.9087 1085.61 73.9087 1090.11 Q73.9087 1092.23 73.0985 1094.16 Q72.3115 1096.05 70.205 1098.65 Q69.6263 1099.32 66.5245 1102.54 Q63.4226 1105.73 57.7745 1111.49 Z" fill="#000000" fill-rule="evenodd" fill-opacity="1" /><path clip-path="url(#clip980)" d="M83.9086 1109.55 L88.7928 1109.55 L88.7928 1115.43 L83.9086 1115.43 L83.9086 1109.55 Z" fill="#000000" fill-rule="evenodd" fill-opacity="1" /><path clip-path="url(#clip980)" d="M108.978 1083.95 Q105.367 1083.95 103.538 1087.51 Q101.733 1091.05 101.733 1098.18 Q101.733 1105.29 103.538 1108.86 Q105.367 1112.4 108.978 1112.4 Q112.612 1112.4 114.418 1108.86 Q116.246 1105.29 116.246 1098.18 Q116.246 1091.05 114.418 1087.51 Q112.612 1083.95 108.978 1083.95 M108.978 1080.24 Q114.788 1080.24 117.844 1084.85 Q120.922 1089.43 120.922 1098.18 Q120.922 1106.91 117.844 1111.52 Q114.788 1116.1 108.978 1116.1 Q103.168 1116.1 100.089 1111.52 Q97.0335 1106.91 97.0335 1098.18 Q97.0335 1089.43 100.089 1084.85 Q103.168 1080.24 108.978 1080.24 Z" fill="#000000" fill-rule="evenodd" fill-opacity="1" /><path clip-path="url(#clip980)" d="M157.311 1089.97 L146.732 1100.59 L157.311 1111.17 L154.556 1113.97 L143.931 1103.35 L133.306 1113.97 L130.575 1111.17 L141.131 1100.59 L130.575 1089.97 L133.306 1087.17 L143.931 1097.79 L154.556 1087.17 L157.311 1089.97 Z" fill="#000000" fill-rule="evenodd" fill-opacity="1" /><path clip-path="url(#clip980)" d="M169.672 1111.49 L177.311 1111.49 L177.311 1085.13 L169.001 1086.79 L169.001 1082.54 L177.265 1080.87 L181.94 1080.87 L181.94 1111.49 L189.579 1111.49 L189.579 1115.43 L169.672 1115.43 L169.672 1111.49 Z" fill="#000000" fill-rule="evenodd" fill-opacity="1" /><path clip-path="url(#clip980)" d="M209.024 1083.95 Q205.413 1083.95 203.584 1087.51 Q201.778 1091.05 201.778 1098.18 Q201.778 1105.29 203.584 1108.86 Q205.413 1112.4 209.024 1112.4 Q212.658 1112.4 214.463 1108.86 Q216.292 1105.29 216.292 1098.18 Q216.292 1091.05 214.463 1087.51 Q212.658 1083.95 209.024 1083.95 M209.024 1080.24 Q214.834 1080.24 217.889 1084.85 Q220.968 1089.43 220.968 1098.18 Q220.968 1106.91 217.889 1111.52 Q214.834 1116.1 209.024 1116.1 Q203.214 1116.1 200.135 1111.52 Q197.079 1106.91 197.079 1098.18 Q197.079 1089.43 200.135 1084.85 Q203.214 1080.24 209.024 1080.24 Z" fill="#000000" fill-rule="evenodd" fill-opacity="1" /><path clip-path="url(#clip980)" d="M233.645 1063.25 L224.053 1078.24 L233.645 1078.24 L233.645 1063.25 M232.648 1059.94 L237.425 1059.94 L237.425 1078.24 L241.431 1078.24 L241.431 1081.4 L237.425 1081.4 L237.425 1088.02 L233.645 1088.02 L233.645 1081.4 L220.968 1081.4 L220.968 1077.73 L232.648 1059.94 Z" fill="#000000" fill-rule="evenodd" fill-opacity="1" /><path clip-path="url(#clip980)" d="M66.5939 728.772 L54.7884 747.221 L66.5939 747.221 L66.5939 728.772 M65.367 724.698 L71.2466 724.698 L71.2466 747.221 L76.1772 747.221 L76.1772 751.109 L71.2466 751.109 L71.2466 759.258 L66.5939 759.258 L66.5939 751.109 L50.9921 751.109 L50.9921 746.596 L65.367 724.698 Z" fill="#000000" fill-rule="evenodd" fill-opacity="1" /><path clip-path="url(#clip980)" d="M83.9086 753.378 L88.7928 753.378 L88.7928 759.258 L83.9086 759.258 L83.9086 753.378 Z" fill="#000000" fill-rule="evenodd" fill-opacity="1" /><path clip-path="url(#clip980)" d="M108.978 727.776 Q105.367 727.776 103.538 731.341 Q101.733 734.883 101.733 742.012 Q101.733 749.119 103.538 752.683 Q105.367 756.225 108.978 756.225 Q112.612 756.225 114.418 752.683 Q116.246 749.119 116.246 742.012 Q116.246 734.883 114.418 731.341 Q112.612 727.776 108.978 727.776 M108.978 724.073 Q114.788 724.073 117.844 728.679 Q120.922 733.262 120.922 742.012 Q120.922 750.739 117.844 755.346 Q114.788 759.929 108.978 759.929 Q103.168 759.929 100.089 755.346 Q97.0335 750.739 97.0335 742.012 Q97.0335 733.262 100.089 728.679 Q103.168 724.073 108.978 724.073 Z" fill="#000000" fill-rule="evenodd" fill-opacity="1" /><path clip-path="url(#clip980)" d="M157.311 733.795 L146.732 744.42 L157.311 754.998 L154.556 757.799 L143.931 747.174 L133.306 757.799 L130.575 754.998 L141.131 744.42 L130.575 733.795 L133.306 730.994 L143.931 741.619 L154.556 730.994 L157.311 733.795 Z" fill="#000000" fill-rule="evenodd" fill-opacity="1" /><path clip-path="url(#clip980)" d="M169.672 755.322 L177.311 755.322 L177.311 728.957 L169.001 730.623 L169.001 726.364 L177.265 724.698 L181.94 724.698 L181.94 755.322 L189.579 755.322 L189.579 759.258 L169.672 759.258 L169.672 755.322 Z" fill="#000000" fill-rule="evenodd" fill-opacity="1" /><path clip-path="url(#clip980)" d="M209.024 727.776 Q205.413 727.776 203.584 731.341 Q201.778 734.883 201.778 742.012 Q201.778 749.119 203.584 752.683 Q205.413 756.225 209.024 756.225 Q212.658 756.225 214.463 752.683 Q216.292 749.119 216.292 742.012 Q216.292 734.883 214.463 731.341 Q212.658 727.776 209.024 727.776 M209.024 724.073 Q214.834 724.073 217.889 728.679 Q220.968 733.262 220.968 742.012 Q220.968 750.739 217.889 755.346 Q214.834 759.929 209.024 759.929 Q203.214 759.929 200.135 755.346 Q197.079 750.739 197.079 742.012 Q197.079 733.262 200.135 728.679 Q203.214 724.073 209.024 724.073 Z" fill="#000000" fill-rule="evenodd" fill-opacity="1" /><path clip-path="url(#clip980)" d="M233.645 707.077 L224.053 722.067 L233.645 722.067 L233.645 707.077 M232.648 703.767 L237.425 703.767 L237.425 722.067 L241.431 722.067 L241.431 725.227 L237.425 725.227 L237.425 731.847 L233.645 731.847 L233.645 725.227 L220.968 725.227 L220.968 721.559 L232.648 703.767 Z" fill="#000000" fill-rule="evenodd" fill-opacity="1" /><path clip-path="url(#clip980)" d="M64.3254 383.943 Q61.1773 383.943 59.3254 386.095 Q57.4967 388.248 57.4967 391.998 Q57.4967 395.725 59.3254 397.901 Q61.1773 400.054 64.3254 400.054 Q67.4735 400.054 69.3022 397.901 Q71.1541 395.725 71.1541 391.998 Q71.1541 388.248 69.3022 386.095 Q67.4735 383.943 64.3254 383.943 M73.6077 369.29 L73.6077 373.549 Q71.8485 372.716 70.0429 372.276 Q68.2606 371.836 66.5013 371.836 Q61.8717 371.836 59.418 374.961 Q56.9875 378.086 56.6402 384.405 Q58.006 382.392 60.0662 381.327 Q62.1263 380.239 64.6032 380.239 Q69.8115 380.239 72.8207 383.41 Q75.8531 386.558 75.8531 391.998 Q75.8531 397.322 72.705 400.54 Q69.5568 403.757 64.3254 403.757 Q58.33 403.757 55.1588 399.174 Q51.9875 394.567 51.9875 385.841 Q51.9875 377.646 55.8764 372.785 Q59.7652 367.901 66.3161 367.901 Q68.0754 367.901 69.8578 368.248 Q71.6633 368.595 73.6077 369.29 Z" fill="#000000" fill-rule="evenodd" fill-opacity="1" /><path clip-path="url(#clip980)" d="M83.9086 397.206 L88.7928 397.206 L88.7928 403.086 L83.9086 403.086 L83.9086 397.206 Z" fill="#000000" fill-rule="evenodd" fill-opacity="1" /><path clip-path="url(#clip980)" d="M108.978 371.605 Q105.367 371.605 103.538 375.169 Q101.733 378.711 101.733 385.841 Q101.733 392.947 103.538 396.512 Q105.367 400.054 108.978 400.054 Q112.612 400.054 114.418 396.512 Q116.246 392.947 116.246 385.841 Q116.246 378.711 114.418 375.169 Q112.612 371.605 108.978 371.605 M108.978 367.901 Q114.788 367.901 117.844 372.507 Q120.922 377.091 120.922 385.841 Q120.922 394.567 117.844 399.174 Q114.788 403.757 108.978 403.757 Q103.168 403.757 100.089 399.174 Q97.0335 394.567 97.0335 385.841 Q97.0335 377.091 100.089 372.507 Q103.168 367.901 108.978 367.901 Z" fill="#000000" fill-rule="evenodd" fill-opacity="1" /><path clip-path="url(#clip980)" d="M157.311 377.623 L146.732 388.248 L157.311 398.827 L154.556 401.628 L143.931 391.003 L133.306 401.628 L130.575 398.827 L141.131 388.248 L130.575 377.623 L133.306 374.822 L143.931 385.447 L154.556 374.822 L157.311 377.623 Z" fill="#000000" fill-rule="evenodd" fill-opacity="1" /><path clip-path="url(#clip980)" d="M169.672 399.151 L177.311 399.151 L177.311 372.785 L169.001 374.452 L169.001 370.193 L177.265 368.526 L181.94 368.526 L181.94 399.151 L189.579 399.151 L189.579 403.086 L169.672 403.086 L169.672 399.151 Z" fill="#000000" fill-rule="evenodd" fill-opacity="1" /><path clip-path="url(#clip980)" d="M209.024 371.605 Q205.413 371.605 203.584 375.169 Q201.778 378.711 201.778 385.841 Q201.778 392.947 203.584 396.512 Q205.413 400.054 209.024 400.054 Q212.658 400.054 214.463 396.512 Q216.292 392.947 216.292 385.841 Q216.292 378.711 214.463 375.169 Q212.658 371.605 209.024 371.605 M209.024 367.901 Q214.834 367.901 217.889 372.507 Q220.968 377.091 220.968 385.841 Q220.968 394.567 217.889 399.174 Q214.834 403.757 209.024 403.757 Q203.214 403.757 200.135 399.174 Q197.079 394.567 197.079 385.841 Q197.079 377.091 200.135 372.507 Q203.214 367.901 209.024 367.901 Z" fill="#000000" fill-rule="evenodd" fill-opacity="1" /><path clip-path="url(#clip980)" d="M233.645 350.906 L224.053 365.895 L233.645 365.895 L233.645 350.906 M232.648 347.596 L237.425 347.596 L237.425 365.895 L241.431 365.895 L241.431 369.055 L237.425 369.055 L237.425 375.676 L233.645 375.676 L233.645 369.055 L220.968 369.055 L220.968 365.388 L232.648 347.596 Z" fill="#000000" fill-rule="evenodd" fill-opacity="1" /><path clip-path="url(#clip980)" d="M472.991 12.096 L524.154 12.096 L524.154 18.9825 L502.685 18.9825 L502.685 72.576 L494.461 72.576 L494.461 18.9825 L472.991 18.9825 L472.991 12.096 Z" fill="#000000" fill-rule="evenodd" fill-opacity="1" /><path clip-path="url(#clip980)" d="M535.213 32.4315 Q529.218 32.4315 525.734 37.1306 Q522.25 41.7891 522.25 49.9314 Q522.25 58.0738 525.694 62.7728 Q529.177 67.4314 535.213 67.4314 Q541.168 67.4314 544.652 62.7323 Q548.136 58.0333 548.136 49.9314 Q548.136 41.8701 544.652 37.1711 Q541.168 32.4315 535.213 32.4315 M535.213 26.1121 Q544.936 26.1121 550.485 32.4315 Q556.035 38.7509 556.035 49.9314 Q556.035 61.0714 550.485 67.4314 Q544.936 73.7508 535.213 73.7508 Q525.451 73.7508 519.901 67.4314 Q514.392 61.0714 514.392 49.9314 Q514.392 38.7509 519.901 32.4315 Q525.451 26.1121 535.213 26.1121 Z" fill="#000000" fill-rule="evenodd" fill-opacity="1" /><path clip-path="url(#clip980)" d="M575.763 14.324 L575.763 27.2059 L591.116 27.2059 L591.116 32.9987 L575.763 32.9987 L575.763 57.6282 Q575.763 63.1779 577.262 64.7578 Q578.801 66.3376 583.46 66.3376 L591.116 66.3376 L591.116 72.576 L583.46 72.576 Q574.831 72.576 571.55 69.3758 Q568.269 66.1351 568.269 57.6282 L568.269 32.9987 L562.8 32.9987 L562.8 27.2059 L568.269 27.2059 L568.269 14.324 L575.763 14.324 Z" fill="#000000" fill-rule="evenodd" fill-opacity="1" /><path clip-path="url(#clip980)" d="M621.538 49.7694 Q612.505 49.7694 609.021 51.8354 Q605.537 53.9013 605.537 58.8839 Q605.537 62.8538 608.13 65.2034 Q610.763 67.5124 615.259 67.5124 Q621.457 67.5124 625.184 63.1374 Q628.951 58.7219 628.951 51.4303 L628.951 49.7694 L621.538 49.7694 M636.405 46.6907 L636.405 72.576 L628.951 72.576 L628.951 65.6895 Q626.399 69.8214 622.591 71.8063 Q618.783 73.7508 613.274 73.7508 Q606.307 73.7508 602.175 69.8619 Q598.083 65.9325 598.083 59.3701 Q598.083 51.7138 603.188 47.825 Q608.332 43.9361 618.5 43.9361 L628.951 43.9361 L628.951 43.2069 Q628.951 38.0623 625.548 35.2672 Q622.186 32.4315 616.069 32.4315 Q612.181 32.4315 608.494 33.3632 Q604.808 34.295 601.405 36.1584 L601.405 29.2718 Q605.497 27.692 609.345 26.9223 Q613.193 26.1121 616.839 26.1121 Q626.683 26.1121 631.544 31.2163 Q636.405 36.3204 636.405 46.6907 Z" fill="#000000" fill-rule="evenodd" fill-opacity="1" /><path clip-path="url(#clip980)" d="M651.758 9.54393 L659.212 9.54393 L659.212 72.576 L651.758 72.576 L651.758 9.54393 Z" fill="#000000" fill-rule="evenodd" fill-opacity="1" /><path clip-path="url(#clip980)" d="M731.034 34.0924 L731.034 9.54393 L738.488 9.54393 L738.488 72.576 L731.034 72.576 L731.034 65.7705 Q728.685 69.8214 725.079 71.8063 Q721.514 73.7508 716.491 73.7508 Q708.268 73.7508 703.083 67.1883 Q697.938 60.6258 697.938 49.9314 Q697.938 39.2371 703.083 32.6746 Q708.268 26.1121 716.491 26.1121 Q721.514 26.1121 725.079 28.0971 Q728.685 30.0415 731.034 34.0924 M705.635 49.9314 Q705.635 58.1548 708.997 62.8538 Q712.4 67.5124 718.314 67.5124 Q724.229 67.5124 727.631 62.8538 Q731.034 58.1548 731.034 49.9314 Q731.034 41.7081 727.631 37.0496 Q724.229 32.3505 718.314 32.3505 Q712.4 32.3505 708.997 37.0496 Q705.635 41.7081 705.635 49.9314 Z" fill="#000000" fill-rule="evenodd" fill-opacity="1" /><path clip-path="url(#clip980)" d="M792.648 48.0275 L792.648 51.6733 L758.378 51.6733 Q758.864 59.3701 762.996 63.421 Q767.168 67.4314 774.581 67.4314 Q778.875 67.4314 782.886 66.3781 Q786.937 65.3249 790.906 63.2184 L790.906 70.267 Q786.896 71.9684 782.683 72.8596 Q778.47 73.7508 774.136 73.7508 Q763.279 73.7508 756.919 67.4314 Q750.6 61.1119 750.6 50.3365 Q750.6 39.1965 756.595 32.6746 Q762.631 26.1121 772.839 26.1121 Q781.994 26.1121 787.301 32.0264 Q792.648 37.9003 792.648 48.0275 M785.195 45.84 Q785.114 39.7232 781.751 36.0774 Q778.43 32.4315 772.92 32.4315 Q766.682 32.4315 762.915 35.9558 Q759.188 39.4801 758.621 45.8805 L785.195 45.84 Z" fill="#000000" fill-rule="evenodd" fill-opacity="1" /><path clip-path="url(#clip980)" d="M831.253 27.2059 L838.707 27.2059 L838.707 72.576 L831.253 72.576 L831.253 27.2059 M831.253 9.54393 L838.707 9.54393 L838.707 18.9825 L831.253 18.9825 L831.253 9.54393 Z" fill="#000000" fill-rule="evenodd" fill-opacity="1" /><path clip-path="url(#clip980)" d="M892.017 45.1919 L892.017 72.576 L884.563 72.576 L884.563 45.4349 Q884.563 38.994 882.052 35.7938 Q879.54 32.5936 874.517 32.5936 Q868.481 32.5936 864.997 36.4419 Q861.514 40.2903 861.514 46.9338 L861.514 72.576 L854.019 72.576 L854.019 27.2059 L861.514 27.2059 L861.514 34.2544 Q864.187 30.163 867.793 28.1376 Q871.438 26.1121 876.178 26.1121 Q883.996 26.1121 888.007 30.9732 Q892.017 35.7938 892.017 45.1919 Z" fill="#000000" fill-rule="evenodd" fill-opacity="1" /><path clip-path="url(#clip980)" d="M914.256 14.324 L914.256 27.2059 L929.609 27.2059 L929.609 32.9987 L914.256 32.9987 L914.256 57.6282 Q914.256 63.1779 915.755 64.7578 Q917.295 66.3376 921.953 66.3376 L929.609 66.3376 L929.609 72.576 L921.953 72.576 Q913.325 72.576 910.044 69.3758 Q906.762 66.1351 906.762 57.6282 L906.762 32.9987 L901.294 32.9987 L901.294 27.2059 L906.762 27.2059 L906.762 14.324 L914.256 14.324 Z" fill="#000000" fill-rule="evenodd" fill-opacity="1" /><path clip-path="url(#clip980)" d="M978.22 48.0275 L978.22 51.6733 L943.95 51.6733 Q944.436 59.3701 948.568 63.421 Q952.74 67.4314 960.153 67.4314 Q964.447 67.4314 968.458 66.3781 Q972.508 65.3249 976.478 63.2184 L976.478 70.267 Q972.468 71.9684 968.255 72.8596 Q964.042 73.7508 959.708 73.7508 Q948.851 73.7508 942.491 67.4314 Q936.172 61.1119 936.172 50.3365 Q936.172 39.1965 942.167 32.6746 Q948.203 26.1121 958.411 26.1121 Q967.566 26.1121 972.873 32.0264 Q978.22 37.9003 978.22 48.0275 M970.767 45.84 Q970.686 39.7232 967.323 36.0774 Q964.002 32.4315 958.492 32.4315 Q952.254 32.4315 948.487 35.9558 Q944.76 39.4801 944.193 45.8805 L970.767 45.84 Z" fill="#000000" fill-rule="evenodd" fill-opacity="1" /><path clip-path="url(#clip980)" d="M1016.74 34.1734 Q1015.49 33.4443 1013.99 33.1202 Q1012.53 32.7556 1010.75 32.7556 Q1004.43 32.7556 1001.03 36.8875 Q997.665 40.9789 997.665 48.6757 L997.665 72.576 L990.17 72.576 L990.17 27.2059 L997.665 27.2059 L997.665 34.2544 Q1000.01 30.1225 1003.78 28.1376 Q1007.55 26.1121 1012.94 26.1121 Q1013.71 26.1121 1014.64 26.2337 Q1015.57 26.3147 1016.7 26.5172 L1016.74 34.1734 Z" fill="#000000" fill-rule="evenodd" fill-opacity="1" /><path clip-path="url(#clip980)" d="M1060.82 45.1919 L1060.82 72.576 L1053.36 72.576 L1053.36 45.4349 Q1053.36 38.994 1050.85 35.7938 Q1048.34 32.5936 1043.32 32.5936 Q1037.28 32.5936 1033.8 36.4419 Q1030.31 40.2903 1030.31 46.9338 L1030.31 72.576 L1022.82 72.576 L1022.82 27.2059 L1030.31 27.2059 L1030.31 34.2544 Q1032.99 30.163 1036.59 28.1376 Q1040.24 26.1121 1044.98 26.1121 Q1052.8 26.1121 1056.81 30.9732 Q1060.82 35.7938 1060.82 45.1919 Z" fill="#000000" fill-rule="evenodd" fill-opacity="1" /><path clip-path="url(#clip980)" d="M1096.3 49.7694 Q1087.27 49.7694 1083.79 51.8354 Q1080.3 53.9013 1080.3 58.8839 Q1080.3 62.8538 1082.9 65.2034 Q1085.53 67.5124 1090.03 67.5124 Q1096.22 67.5124 1099.95 63.1374 Q1103.72 58.7219 1103.72 51.4303 L1103.72 49.7694 L1096.3 49.7694 M1111.17 46.6907 L1111.17 72.576 L1103.72 72.576 L1103.72 65.6895 Q1101.17 69.8214 1097.36 71.8063 Q1093.55 73.7508 1088.04 73.7508 Q1081.07 73.7508 1076.94 69.8619 Q1072.85 65.9325 1072.85 59.3701 Q1072.85 51.7138 1077.95 47.825 Q1083.1 43.9361 1093.27 43.9361 L1103.72 43.9361 L1103.72 43.2069 Q1103.72 38.0623 1100.31 35.2672 Q1096.95 32.4315 1090.84 32.4315 Q1086.95 32.4315 1083.26 33.3632 Q1079.57 34.295 1076.17 36.1584 L1076.17 29.2718 Q1080.26 27.692 1084.11 26.9223 Q1087.96 26.1121 1091.61 26.1121 Q1101.45 26.1121 1106.31 31.2163 Q1111.17 36.3204 1111.17 46.6907 Z" fill="#000000" fill-rule="evenodd" fill-opacity="1" /><path clip-path="url(#clip980)" d="M1156.38 34.0924 L1156.38 9.54393 L1163.83 9.54393 L1163.83 72.576 L1156.38 72.576 L1156.38 65.7705 Q1154.03 69.8214 1150.42 71.8063 Q1146.86 73.7508 1141.84 73.7508 Q1133.61 73.7508 1128.43 67.1883 Q1123.28 60.6258 1123.28 49.9314 Q1123.28 39.2371 1128.43 32.6746 Q1133.61 26.1121 1141.84 26.1121 Q1146.86 26.1121 1150.42 28.0971 Q1154.03 30.0415 1156.38 34.0924 M1130.98 49.9314 Q1130.98 58.1548 1134.34 62.8538 Q1137.74 67.5124 1143.66 67.5124 Q1149.57 67.5124 1152.98 62.8538 Q1156.38 58.1548 1156.38 49.9314 Q1156.38 41.7081 1152.98 37.0496 Q1149.57 32.3505 1143.66 32.3505 Q1137.74 32.3505 1134.34 37.0496 Q1130.98 41.7081 1130.98 49.9314 Z" fill="#000000" fill-rule="evenodd" fill-opacity="1" /><path clip-path="url(#clip980)" d="M1196.77 32.4315 Q1190.77 32.4315 1187.29 37.1306 Q1183.8 41.7891 1183.8 49.9314 Q1183.8 58.0738 1187.25 62.7728 Q1190.73 67.4314 1196.77 67.4314 Q1202.72 67.4314 1206.21 62.7323 Q1209.69 58.0333 1209.69 49.9314 Q1209.69 41.8701 1206.21 37.1711 Q1202.72 32.4315 1196.77 32.4315 M1196.77 26.1121 Q1206.49 26.1121 1212.04 32.4315 Q1217.59 38.7509 1217.59 49.9314 Q1217.59 61.0714 1212.04 67.4314 Q1206.49 73.7508 1196.77 73.7508 Q1187 73.7508 1181.45 67.4314 Q1175.94 61.0714 1175.94 49.9314 Q1175.94 38.7509 1181.45 32.4315 Q1187 26.1121 1196.77 26.1121 Z" fill="#000000" fill-rule="evenodd" fill-opacity="1" /><path clip-path="url(#clip980)" d="M1258.87 28.5427 L1258.87 35.5912 Q1255.71 33.9709 1252.3 33.1607 Q1248.9 32.3505 1245.26 32.3505 Q1239.71 32.3505 1236.91 34.0519 Q1234.16 35.7533 1234.16 39.156 Q1234.16 41.7486 1236.14 43.2475 Q1238.13 44.7058 1244.12 46.0426 L1246.67 46.6097 Q1254.61 48.3111 1257.94 51.4303 Q1261.3 54.509 1261.3 60.0587 Q1261.3 66.3781 1256.27 70.0644 Q1251.29 73.7508 1242.54 73.7508 Q1238.9 73.7508 1234.93 73.0216 Q1231 72.3329 1226.62 70.9151 L1226.62 63.2184 Q1230.75 65.3654 1234.76 66.4591 Q1238.77 67.5124 1242.7 67.5124 Q1247.97 67.5124 1250.81 65.73 Q1253.64 63.9071 1253.64 60.6258 Q1253.64 57.5877 1251.58 55.9673 Q1249.55 54.3469 1242.62 52.8481 L1240.03 52.2405 Q1233.1 50.7821 1230.02 47.7845 Q1226.95 44.7463 1226.95 39.4801 Q1226.95 33.0797 1231.48 29.5959 Q1236.02 26.1121 1244.36 26.1121 Q1248.5 26.1121 1252.14 26.7198 Q1255.79 27.3274 1258.87 28.5427 Z" fill="#000000" fill-rule="evenodd" fill-opacity="1" /><path clip-path="url(#clip980)" d="M1306.75 65.7705 L1306.75 89.8329 L1299.25 89.8329 L1299.25 27.2059 L1306.75 27.2059 L1306.75 34.0924 Q1309.1 30.0415 1312.66 28.0971 Q1316.27 26.1121 1321.25 26.1121 Q1329.51 26.1121 1334.66 32.6746 Q1339.84 39.2371 1339.84 49.9314 Q1339.84 60.6258 1334.66 67.1883 Q1329.51 73.7508 1321.25 73.7508 Q1316.27 73.7508 1312.66 71.8063 Q1309.1 69.8214 1306.75 65.7705 M1332.11 49.9314 Q1332.11 41.7081 1328.7 37.0496 Q1325.34 32.3505 1319.43 32.3505 Q1313.51 32.3505 1310.11 37.0496 Q1306.75 41.7081 1306.75 49.9314 Q1306.75 58.1548 1310.11 62.8538 Q1313.51 67.5124 1319.43 67.5124 Q1325.34 67.5124 1328.7 62.8538 Q1332.11 58.1548 1332.11 49.9314 Z" fill="#000000" fill-rule="evenodd" fill-opacity="1" /><path clip-path="url(#clip980)" d="M1369.78 32.4315 Q1363.79 32.4315 1360.3 37.1306 Q1356.82 41.7891 1356.82 49.9314 Q1356.82 58.0738 1360.26 62.7728 Q1363.74 67.4314 1369.78 67.4314 Q1375.74 67.4314 1379.22 62.7323 Q1382.7 58.0333 1382.7 49.9314 Q1382.7 41.8701 1379.22 37.1711 Q1375.74 32.4315 1369.78 32.4315 M1369.78 26.1121 Q1379.5 26.1121 1385.05 32.4315 Q1390.6 38.7509 1390.6 49.9314 Q1390.6 61.0714 1385.05 67.4314 Q1379.5 73.7508 1369.78 73.7508 Q1360.02 73.7508 1354.47 67.4314 Q1348.96 61.0714 1348.96 49.9314 Q1348.96 38.7509 1354.47 32.4315 Q1360.02 26.1121 1369.78 26.1121 Z" fill="#000000" fill-rule="evenodd" fill-opacity="1" /><path clip-path="url(#clip980)" d="M1429.25 34.1734 Q1427.99 33.4443 1426.49 33.1202 Q1425.03 32.7556 1423.25 32.7556 Q1416.93 32.7556 1413.53 36.8875 Q1410.17 40.9789 1410.17 48.6757 L1410.17 72.576 L1402.67 72.576 L1402.67 27.2059 L1410.17 27.2059 L1410.17 34.2544 Q1412.52 30.1225 1416.29 28.1376 Q1420.05 26.1121 1425.44 26.1121 Q1426.21 26.1121 1427.14 26.2337 Q1428.07 26.3147 1429.21 26.5172 L1429.25 34.1734 Z" fill="#000000" fill-rule="evenodd" fill-opacity="1" /><path clip-path="url(#clip980)" d="M1493.29 34.0924 L1493.29 9.54393 L1500.75 9.54393 L1500.75 72.576 L1493.29 72.576 L1493.29 65.7705 Q1490.94 69.8214 1487.34 71.8063 Q1483.77 73.7508 1478.75 73.7508 Q1470.53 73.7508 1465.34 67.1883 Q1460.2 60.6258 1460.2 49.9314 Q1460.2 39.2371 1465.34 32.6746 Q1470.53 26.1121 1478.75 26.1121 Q1483.77 26.1121 1487.34 28.0971 Q1490.94 30.0415 1493.29 34.0924 M1467.89 49.9314 Q1467.89 58.1548 1471.26 62.8538 Q1474.66 67.5124 1480.57 67.5124 Q1486.49 67.5124 1489.89 62.8538 Q1493.29 58.1548 1493.29 49.9314 Q1493.29 41.7081 1489.89 37.0496 Q1486.49 32.3505 1480.57 32.3505 Q1474.66 32.3505 1471.26 37.0496 Q1467.89 41.7081 1467.89 49.9314 Z" fill="#000000" fill-rule="evenodd" fill-opacity="1" /><path clip-path="url(#clip980)" d="M1516.1 27.2059 L1523.55 27.2059 L1523.55 72.576 L1516.1 72.576 L1516.1 27.2059 M1516.1 9.54393 L1523.55 9.54393 L1523.55 18.9825 L1516.1 18.9825 L1516.1 9.54393 Z" fill="#000000" fill-rule="evenodd" fill-opacity="1" /><path clip-path="url(#clip980)" d="M1559.77 49.7694 Q1550.73 49.7694 1547.25 51.8354 Q1543.77 53.9013 1543.77 58.8839 Q1543.77 62.8538 1546.36 65.2034 Q1548.99 67.5124 1553.49 67.5124 Q1559.69 67.5124 1563.41 63.1374 Q1567.18 58.7219 1567.18 51.4303 L1567.18 49.7694 L1559.77 49.7694 M1574.63 46.6907 L1574.63 72.576 L1567.18 72.576 L1567.18 65.6895 Q1564.63 69.8214 1560.82 71.8063 Q1557.01 73.7508 1551.5 73.7508 Q1544.54 73.7508 1540.4 69.8619 Q1536.31 65.9325 1536.31 59.3701 Q1536.31 51.7138 1541.42 47.825 Q1546.56 43.9361 1556.73 43.9361 L1567.18 43.9361 L1567.18 43.2069 Q1567.18 38.0623 1563.78 35.2672 Q1560.42 32.4315 1554.3 32.4315 Q1550.41 32.4315 1546.72 33.3632 Q1543.04 34.295 1539.64 36.1584 L1539.64 29.2718 Q1543.73 27.692 1547.57 26.9223 Q1551.42 26.1121 1555.07 26.1121 Q1564.91 26.1121 1569.77 31.2163 Q1574.63 36.3204 1574.63 46.6907 Z" fill="#000000" fill-rule="evenodd" fill-opacity="1" /><path clip-path="url(#clip980)" d="M1623.57 65.7705 L1623.57 89.8329 L1616.08 89.8329 L1616.08 27.2059 L1623.57 27.2059 L1623.57 34.0924 Q1625.92 30.0415 1629.48 28.0971 Q1633.09 26.1121 1638.07 26.1121 Q1646.34 26.1121 1651.48 32.6746 Q1656.67 39.2371 1656.67 49.9314 Q1656.67 60.6258 1651.48 67.1883 Q1646.34 73.7508 1638.07 73.7508 Q1633.09 73.7508 1629.48 71.8063 Q1625.92 69.8214 1623.57 65.7705 M1648.93 49.9314 Q1648.93 41.7081 1645.53 37.0496 Q1642.16 32.3505 1636.25 32.3505 Q1630.33 32.3505 1626.93 37.0496 Q1623.57 41.7081 1623.57 49.9314 Q1623.57 58.1548 1626.93 62.8538 Q1630.33 67.5124 1636.25 67.5124 Q1642.16 67.5124 1645.53 62.8538 Q1648.93 58.1548 1648.93 49.9314 Z" fill="#000000" fill-rule="evenodd" fill-opacity="1" /><path clip-path="url(#clip980)" d="M1689.64 49.7694 Q1680.61 49.7694 1677.12 51.8354 Q1673.64 53.9013 1673.64 58.8839 Q1673.64 62.8538 1676.23 65.2034 Q1678.86 67.5124 1683.36 67.5124 Q1689.56 67.5124 1693.29 63.1374 Q1697.05 58.7219 1697.05 51.4303 L1697.05 49.7694 L1689.64 49.7694 M1704.51 46.6907 L1704.51 72.576 L1697.05 72.576 L1697.05 65.6895 Q1694.5 69.8214 1690.69 71.8063 Q1686.89 73.7508 1681.38 73.7508 Q1674.41 73.7508 1670.28 69.8619 Q1666.19 65.9325 1666.19 59.3701 Q1666.19 51.7138 1671.29 47.825 Q1676.43 43.9361 1686.6 43.9361 L1697.05 43.9361 L1697.05 43.2069 Q1697.05 38.0623 1693.65 35.2672 Q1690.29 32.4315 1684.17 32.4315 Q1680.28 32.4315 1676.6 33.3632 Q1672.91 34.295 1669.51 36.1584 L1669.51 29.2718 Q1673.6 27.692 1677.45 26.9223 Q1681.3 26.1121 1684.94 26.1121 Q1694.78 26.1121 1699.65 31.2163 Q1704.51 36.3204 1704.51 46.6907 Z" fill="#000000" fill-rule="evenodd" fill-opacity="1" /><path clip-path="url(#clip980)" d="M1746.15 34.1734 Q1744.89 33.4443 1743.4 33.1202 Q1741.94 32.7556 1740.15 32.7556 Q1733.84 32.7556 1730.43 36.8875 Q1727.07 40.9789 1727.07 48.6757 L1727.07 72.576 L1719.58 72.576 L1719.58 27.2059 L1727.07 27.2059 L1727.07 34.2544 Q1729.42 30.1225 1733.19 28.1376 Q1736.95 26.1121 1742.34 26.1121 Q1743.11 26.1121 1744.04 26.2337 Q1744.98 26.3147 1746.11 26.5172 L1746.15 34.1734 Z" fill="#000000" fill-rule="evenodd" fill-opacity="1" /><path clip-path="url(#clip980)" d="M1774.59 49.7694 Q1765.55 49.7694 1762.07 51.8354 Q1758.59 53.9013 1758.59 58.8839 Q1758.59 62.8538 1761.18 65.2034 Q1763.81 67.5124 1768.31 67.5124 Q1774.51 67.5124 1778.23 63.1374 Q1782 58.7219 1782 51.4303 L1782 49.7694 L1774.59 49.7694 M1789.45 46.6907 L1789.45 72.576 L1782 72.576 L1782 65.6895 Q1779.45 69.8214 1775.64 71.8063 Q1771.83 73.7508 1766.32 73.7508 Q1759.36 73.7508 1755.22 69.8619 Q1751.13 65.9325 1751.13 59.3701 Q1751.13 51.7138 1756.24 47.825 Q1761.38 43.9361 1771.55 43.9361 L1782 43.9361 L1782 43.2069 Q1782 38.0623 1778.6 35.2672 Q1775.24 32.4315 1769.12 32.4315 Q1765.23 32.4315 1761.54 33.3632 Q1757.86 34.295 1754.45 36.1584 L1754.45 29.2718 Q1758.55 27.692 1762.39 26.9223 Q1766.24 26.1121 1769.89 26.1121 Q1779.73 26.1121 1784.59 31.2163 Q1789.45 36.3204 1789.45 46.6907 Z" fill="#000000" fill-rule="evenodd" fill-opacity="1" /><path clip-path="url(#clip980)" d="M1857.47 34.1734 Q1856.21 33.4443 1854.71 33.1202 Q1853.26 32.7556 1851.47 32.7556 Q1845.15 32.7556 1841.75 36.8875 Q1838.39 40.9789 1838.39 48.6757 L1838.39 72.576 L1830.9 72.576 L1830.9 27.2059 L1838.39 27.2059 L1838.39 34.2544 Q1840.74 30.1225 1844.51 28.1376 Q1848.27 26.1121 1853.66 26.1121 Q1854.43 26.1121 1855.36 26.2337 Q1856.29 26.3147 1857.43 26.5172 L1857.47 34.1734 Z" fill="#000000" fill-rule="evenodd" fill-opacity="1" /><path clip-path="url(#clip980)" d="M1883.84 17.4837 Q1877.52 17.4837 1874.32 23.7221 Q1871.16 29.92 1871.16 42.3968 Q1871.16 54.833 1874.32 61.0714 Q1877.52 67.2693 1883.84 67.2693 Q1890.2 67.2693 1893.36 61.0714 Q1896.56 54.833 1896.56 42.3968 Q1896.56 29.92 1893.36 23.7221 Q1890.2 17.4837 1883.84 17.4837 M1883.84 11.0023 Q1894.01 11.0023 1899.36 19.0636 Q1904.74 27.0843 1904.74 42.3968 Q1904.74 57.6687 1899.36 65.73 Q1894.01 73.7508 1883.84 73.7508 Q1873.67 73.7508 1868.28 65.73 Q1862.94 57.6687 1862.94 42.3968 Q1862.94 27.0843 1868.28 19.0636 Q1873.67 11.0023 1883.84 11.0023 Z" fill="#000000" fill-rule="evenodd" fill-opacity="1" /><path clip-path="url(#clip980)" d="M1945.41 34.9026 L1997.35 34.9026 L1997.35 41.7081 L1945.41 41.7081 L1945.41 34.9026 M1945.41 51.4303 L1997.35 51.4303 L1997.35 58.3168 L1945.41 58.3168 L1945.41 51.4303 Z" fill="#000000" fill-rule="evenodd" fill-opacity="1" /><path clip-path="url(#clip980)" d="M2042.8 65.6895 L2056.17 65.6895 L2056.17 19.5497 L2041.62 22.4663 L2041.62 15.0127 L2056.08 12.096 L2064.27 12.096 L2064.27 65.6895 L2077.64 65.6895 L2077.64 72.576 L2042.8 72.576 L2042.8 65.6895 Z" fill="#000000" fill-rule="evenodd" fill-opacity="1" /><path clip-path="url(#clip980)" d="M2094.16 62.2867 L2102.71 62.2867 L2102.71 72.576 L2094.16 72.576 L2094.16 62.2867 Z" fill="#000000" fill-rule="evenodd" fill-opacity="1" /><path clip-path="url(#clip980)" d="M2120.62 12.096 L2152.74 12.096 L2152.74 18.9825 L2128.11 18.9825 L2128.11 33.8088 Q2129.89 33.2012 2131.67 32.9176 Q2133.46 32.5936 2135.24 32.5936 Q2145.37 32.5936 2151.28 38.1433 Q2157.2 43.6931 2157.2 53.1722 Q2157.2 62.9348 2151.12 68.3631 Q2145.04 73.7508 2133.98 73.7508 Q2130.18 73.7508 2126.21 73.1026 Q2122.28 72.4545 2118.06 71.1582 L2118.06 62.9348 Q2121.71 64.9198 2125.6 65.892 Q2129.49 66.8642 2133.82 66.8642 Q2140.83 66.8642 2144.92 63.1779 Q2149.01 59.4916 2149.01 53.1722 Q2149.01 46.8528 2144.92 43.1664 Q2140.83 39.4801 2133.82 39.4801 Q2130.54 39.4801 2127.26 40.2093 Q2124.02 40.9384 2120.62 42.4778 L2120.62 12.096 Z" fill="#000000" fill-rule="evenodd" fill-opacity="1" /><polyline clip-path="url(#clip982)" style="stroke:#009af9; stroke-linecap:butt; stroke-linejoin:round; stroke-width:4; stroke-opacity:1; fill:none" points="
  336.167,1447.87 340.35,1447.87 344.533,1447.87 348.717,1447.87 352.9,1447.87 357.084,1447.86 361.267,1447.86 365.451,1447.86 369.634,1447.85 373.818,1447.85 
  378.001,1447.85 382.184,1447.85 386.368,1447.85 390.551,1447.84 394.735,1447.84 398.918,1447.84 403.102,1447.84 407.285,1447.84 411.469,1447.84 415.652,1447.83 
  419.835,1447.83 424.019,1447.83 428.202,1447.83 432.386,1447.82 436.569,1447.82 440.753,1447.82 444.936,1447.82 449.12,1447.81 453.303,1447.81 457.487,1447.8 
  461.67,1447.8 465.853,1447.8 470.037,1447.79 474.22,1447.79 478.404,1447.78 482.587,1447.78 486.771,1447.77 490.954,1447.77 495.138,1447.76 499.321,1447.75 
  503.504,1447.75 507.688,1447.74 511.871,1447.73 516.055,1447.73 520.238,1447.72 524.422,1447.71 528.605,1447.7 532.789,1447.69 536.972,1447.68 541.155,1447.67 
  545.339,1447.66 549.522,1447.64 553.706,1447.63 557.889,1447.62 562.073,1447.6 566.256,1447.59 570.44,1447.57 574.623,1447.55 578.807,1447.54 582.99,1447.52 
  587.173,1447.5 591.357,1447.48 595.54,1447.45 599.724,1447.43 603.907,1447.4 608.091,1447.38 612.274,1447.35 616.458,1447.32 620.641,1447.29 624.824,1447.25 
  629.008,1447.22 633.191,1447.18 637.375,1447.14 641.558,1447.1 645.742,1447.06 649.925,1447.01 654.109,1446.96 658.292,1446.91 662.475,1446.86 666.659,1446.8 
  670.842,1446.74 675.026,1446.67 679.209,1446.61 683.393,1446.54 687.576,1446.46 691.76,1446.38 695.943,1446.29 700.127,1446.21 704.31,1446.11 708.493,1446.01 
  712.677,1445.91 716.86,1445.79 721.044,1445.68 725.227,1445.55 729.411,1445.42 733.594,1445.28 737.778,1445.13 741.961,1444.98 746.144,1444.82 750.328,1444.64 
  754.511,1444.46 758.695,1444.27 762.878,1444.06 767.062,1443.85 771.245,1443.62 775.429,1443.38 779.612,1443.12 783.795,1442.86 787.979,1442.57 792.162,1442.27 
  796.346,1441.95 800.529,1441.62 804.713,1441.27 808.896,1440.89 813.08,1440.5 817.263,1440.08 821.447,1439.64 825.63,1439.18 829.813,1438.69 833.997,1438.17 
  838.18,1437.62 842.364,1437.04 846.547,1436.43 850.731,1435.78 854.914,1435.1 859.098,1434.38 863.281,1433.62 867.464,1432.82 871.648,1431.97 875.831,1431.07 
  880.015,1430.13 884.198,1429.13 888.382,1428.08 892.565,1426.96 896.749,1425.79 900.932,1424.55 905.115,1423.24 909.299,1421.86 913.482,1420.4 917.666,1418.86 
  921.849,1417.24 926.033,1415.52 930.216,1413.71 934.4,1411.81 938.583,1409.79 942.767,1407.67 946.95,1405.43 951.133,1403.07 955.317,1400.58 959.5,1397.95 
  963.684,1395.18 967.867,1392.26 972.051,1389.18 976.234,1385.94 980.418,1382.52 984.601,1378.92 988.784,1375.13 992.968,1371.14 997.151,1366.93 1001.33,1362.5 
  1005.52,1357.84 1009.7,1352.94 1013.89,1347.78 1018.07,1342.35 1022.25,1336.64 1026.44,1330.64 1030.62,1324.33 1034.8,1317.7 1038.99,1310.74 1043.17,1303.44 
  1047.35,1295.76 1051.54,1287.72 1055.72,1279.27 1059.9,1270.42 1064.09,1261.15 1068.27,1251.43 1072.45,1241.26 1076.64,1230.62 1080.82,1219.49 1085,1207.86 
  1089.19,1195.7 1093.37,1183.02 1097.55,1169.78 1101.74,1155.98 1105.92,1141.6 1110.1,1126.64 1114.29,1111.07 1118.47,1094.89 1122.65,1078.1 1126.84,1060.67 
  1131.02,1042.62 1135.21,1023.93 1139.39,1004.6 1143.57,984.638 1147.76,964.047 1151.94,942.833 1156.12,921.007 1160.31,898.584 1164.49,875.581 1168.67,852.022 
  1172.86,827.932 1177.04,803.344 1181.22,778.291 1185.41,752.817 1189.59,726.965 1193.77,700.788 1197.96,674.342 1202.14,647.687 1206.32,620.891 1210.51,594.026 
  1214.69,567.167 1218.87,540.397 1223.06,513.8 1227.24,487.467 1231.42,461.491 1235.61,435.968 1239.79,410.997 1243.97,386.677 1248.16,363.111 1252.34,340.401 
  1256.53,318.646 1260.71,297.948 1264.89,278.402 1269.08,260.103 1273.26,243.14 1277.44,227.599 1281.63,213.557 1285.81,201.086 1289.99,190.25 1294.18,181.105 
  1298.36,173.697 1302.54,168.066 1306.73,164.236 1310.91,162.228 1315.09,162.047 1319.28,163.69 1323.46,167.145 1327.64,172.388 1331.83,179.385 1336.01,188.094 
  1340.19,198.464 1344.38,210.435 1348.56,223.94 1352.74,238.906 1356.93,255.253 1361.11,272.896 1365.29,291.746 1369.48,311.712 1373.66,332.697 1377.85,354.605 
  1382.03,377.34 1386.21,400.805 1390.4,424.902 1394.58,449.536 1398.76,474.615 1402.95,500.047 1407.13,525.746 1411.31,551.628 1415.5,577.612 1419.68,603.624 
  1423.86,629.59 1428.05,655.446 1432.23,681.127 1436.41,706.578 1440.6,731.745 1444.78,756.581 1448.96,781.042 1453.15,805.089 1457.33,828.689 1461.51,851.811 
  1465.7,874.43 1469.88,896.523 1474.06,918.073 1478.25,939.063 1482.43,959.483 1486.61,979.324 1490.8,998.58 1494.98,1017.25 1499.17,1035.33 1503.35,1052.82 
  1507.53,1069.72 1511.72,1086.05 1515.9,1101.8 1520.08,1116.99 1524.27,1131.62 1528.45,1145.7 1532.63,1159.24 1536.82,1172.27 1541,1184.78 1545.18,1196.79 
  1549.37,1208.32 1553.55,1219.37 1557.73,1229.97 1561.92,1240.12 1566.1,1249.85 1570.28,1259.15 1574.47,1268.06 1578.65,1276.57 1582.83,1284.72 1587.02,1292.5 
  1591.2,1299.93 1595.38,1307.03 1599.57,1313.81 1603.75,1320.29 1607.93,1326.46 1612.12,1332.35 1616.3,1337.97 1620.49,1343.33 1624.67,1348.43 1628.85,1353.3 
  1633.04,1357.94 1637.22,1362.36 1641.4,1366.57 1645.59,1370.57 1649.77,1374.39 1653.95,1378.02 1658.14,1381.48 1662.32,1384.77 1666.5,1387.91 1670.69,1390.89 
  1674.87,1393.72 1679.05,1396.42 1683.24,1398.99 1687.42,1401.43 1691.6,1403.75 1695.79,1405.95 1699.97,1408.05 1704.15,1410.05 1708.34,1411.94 1712.52,1413.74 
  1716.7,1415.46 1720.89,1417.08 1725.07,1418.63 1729.25,1420.1 1733.44,1421.5 1737.62,1422.83 1741.81,1424.09 1745.99,1425.29 1750.17,1426.42 1754.36,1427.51 
  1758.54,1428.53 1762.72,1429.51 1766.91,1430.44 1771.09,1431.32 1775.27,1432.15 1779.46,1432.95 1783.64,1433.7 1787.82,1434.42 1792.01,1435.1 1796.19,1435.75 
  1800.37,1436.36 1804.56,1436.94 1808.74,1437.5 1812.92,1438.02 1817.11,1438.52 1821.29,1438.99 1825.47,1439.44 1829.66,1439.87 1833.84,1440.28 1838.02,1440.66 
  1842.21,1441.03 1846.39,1441.37 1850.57,1441.7 1854.76,1442.02 1858.94,1442.31 1863.13,1442.6 1867.31,1442.86 1871.49,1443.12 1875.68,1443.36 1879.86,1443.59 
  1884.04,1443.81 1888.23,1444.01 1892.41,1444.21 1896.59,1444.39 1900.78,1444.57 1904.96,1444.74 1909.14,1444.9 1913.33,1445.05 1917.51,1445.19 1921.69,1445.33 
  1925.88,1445.46 1930.06,1445.58 1934.24,1445.7 1938.43,1445.81 1942.61,1445.91 1946.79,1446.01 1950.98,1446.11 1955.16,1446.2 1959.34,1446.28 1963.53,1446.36 
  1967.71,1446.44 1971.89,1446.51 1976.08,1446.58 1980.26,1446.65 1984.45,1446.71 1988.63,1446.77 1992.81,1446.82 1997,1446.88 2001.18,1446.93 2005.36,1446.98 
  2009.55,1447.02 2013.73,1447.06 2017.91,1447.11 2022.1,1447.14 2026.28,1447.18 2030.46,1447.22 2034.65,1447.25 2038.83,1447.28 2043.01,1447.31 2047.2,1447.34 
  2051.38,1447.37 2055.56,1447.39 2059.75,1447.42 2063.93,1447.44 2068.11,1447.46 2072.3,1447.48 2076.48,1447.5 2080.66,1447.52 2084.85,1447.54 2089.03,1447.56 
  2093.21,1447.57 2097.4,1447.59 2101.58,1447.6 2105.77,1447.62 2109.95,1447.63 2114.13,1447.64 2118.32,1447.65 2122.5,1447.66 2126.68,1447.68 2130.87,1447.69 
  2135.05,1447.69 2139.23,1447.7 2143.42,1447.71 2147.6,1447.72 2151.78,1447.73 2155.97,1447.74 2160.15,1447.74 2164.33,1447.75 2168.52,1447.76 2172.7,1447.76 
  2176.88,1447.77 2181.07,1447.77 2185.25,1447.78 2189.43,1447.78 2193.62,1447.79 2197.8,1447.79 2201.98,1447.8 2206.17,1447.8 2210.35,1447.8 2214.53,1447.81 
  2218.72,1447.81 2222.9,1447.81 2227.09,1447.82 2231.27,1447.82 2235.45,1447.82 2239.64,1447.82 2243.82,1447.83 2248,1447.83 2252.19,1447.83 2256.37,1447.83 
  2260.55,1447.84 2264.74,1447.84 2268.92,1447.84 2273.1,1447.84 2277.29,1447.84 2281.47,1447.84 2285.65,1447.85 2289.84,1447.85 2294.02,1447.85 
  "/>
<path clip-path="url(#clip980)" d="
M2000.56 272.585 L2283.58 272.585 L2283.58 168.905 L2000.56 168.905  Z
  " fill="#ffffff" fill-rule="evenodd" fill-opacity="1"/>
<polyline clip-path="url(#clip980)" style="stroke:#000000; stroke-linecap:butt; stroke-linejoin:round; stroke-width:4; stroke-opacity:1; fill:none" points="
  2000.56,272.585 2283.58,272.585 2283.58,168.905 2000.56,168.905 2000.56,272.585 
  "/>
<polyline clip-path="url(#clip980)" style="stroke:#009af9; stroke-linecap:butt; stroke-linejoin:round; stroke-width:4; stroke-opacity:1; fill:none" points="
  2023.62,220.745 2161.97,220.745 
  "/>
<path clip-path="url(#clip980)" d="M2198.87 240.432 Q2197.07 245.062 2195.35 246.474 Q2193.64 247.886 2190.77 247.886 L2187.37 247.886 L2187.37 244.321 L2189.87 244.321 Q2191.63 244.321 2192.6 243.488 Q2193.57 242.654 2194.75 239.552 L2195.52 237.608 L2185.03 212.099 L2189.54 212.099 L2197.65 232.377 L2205.75 212.099 L2210.26 212.099 L2198.87 240.432 Z" fill="#000000" fill-rule="evenodd" fill-opacity="1" /><path clip-path="url(#clip980)" d="M2217.55 234.089 L2225.19 234.089 L2225.19 207.724 L2216.88 209.391 L2216.88 205.131 L2225.15 203.465 L2229.82 203.465 L2229.82 234.089 L2237.46 234.089 L2237.46 238.025 L2217.55 238.025 L2217.55 234.089 Z" fill="#000000" fill-rule="evenodd" fill-opacity="1" /></svg>
