<?xml version="1.0" encoding="utf-8"?>
<svg xmlns="http://www.w3.org/2000/svg" xmlns:xlink="http://www.w3.org/1999/xlink" width="600" height="400" viewBox="0 0 2400 1600">
<defs>
  <clipPath id="clip980">
    <rect x="0" y="0" width="2400" height="1600"/>
  </clipPath>
</defs>
<path clip-path="url(#clip980)" d="
M0 1600 L2400 1600 L2400 0 L0 0  Z
  " fill="#ffffff" fill-rule="evenodd" fill-opacity="1"/>
<defs>
  <clipPath id="clip981">
    <rect x="480" y="0" width="1681" height="1600"/>
  </clipPath>
</defs>
<path clip-path="url(#clip980)" d="
M276.274 1486.45 L2352.76 1486.45 L2352.76 123.472 L276.274 123.472  Z
  " fill="#ffffff" fill-rule="evenodd" fill-opacity="1"/>
<defs>
  <clipPath id="clip982">
    <rect x="276" y="123" width="2077" height="1364"/>
  </clipPath>
</defs>
<polyline clip-path="url(#clip982)" style="stroke:#000000; stroke-linecap:butt; stroke-linejoin:round; stroke-width:2; stroke-opacity:0.1; fill:none" points="
  330.856,1486.45 330.856,123.472 
  "/>
<polyline clip-path="url(#clip982)" style="stroke:#000000; stroke-linecap:butt; stroke-linejoin:round; stroke-width:2; stroke-opacity:0.1; fill:none" points="
  749.434,1486.45 749.434,123.472 
  "/>
<polyline clip-path="url(#clip982)" style="stroke:#000000; stroke-linecap:butt; stroke-linejoin:round; stroke-width:2; stroke-opacity:0.1; fill:none" points="
  1168.01,1486.45 1168.01,123.472 
  "/>
<polyline clip-path="url(#clip982)" style="stroke:#000000; stroke-linecap:butt; stroke-linejoin:round; stroke-width:2; stroke-opacity:0.1; fill:none" points="
  1586.59,1486.45 1586.59,123.472 
  "/>
<polyline clip-path="url(#clip982)" style="stroke:#000000; stroke-linecap:butt; stroke-linejoin:round; stroke-width:2; stroke-opacity:0.1; fill:none" points="
  2005.17,1486.45 2005.17,123.472 
  "/>
<polyline clip-path="url(#clip980)" style="stroke:#000000; stroke-linecap:butt; stroke-linejoin:round; stroke-width:4; stroke-opacity:1; fill:none" points="
  276.274,1486.45 2352.76,1486.45 
  "/>
<polyline clip-path="url(#clip980)" style="stroke:#000000; stroke-linecap:butt; stroke-linejoin:round; stroke-width:4; stroke-opacity:1; fill:none" points="
  330.856,1486.45 330.856,1467.55 
  "/>
<polyline clip-path="url(#clip980)" style="stroke:#000000; stroke-linecap:butt; stroke-linejoin:round; stroke-width:4; stroke-opacity:1; fill:none" points="
  749.434,1486.45 749.434,1467.55 
  "/>
<polyline clip-path="url(#clip980)" style="stroke:#000000; stroke-linecap:butt; stroke-linejoin:round; stroke-width:4; stroke-opacity:1; fill:none" points="
  1168.01,1486.45 1168.01,1467.55 
  "/>
<polyline clip-path="url(#clip980)" style="stroke:#000000; stroke-linecap:butt; stroke-linejoin:round; stroke-width:4; stroke-opacity:1; fill:none" points="
  1586.59,1486.45 1586.59,1467.55 
  "/>
<polyline clip-path="url(#clip980)" style="stroke:#000000; stroke-linecap:butt; stroke-linejoin:round; stroke-width:4; stroke-opacity:1; fill:none" points="
  2005.17,1486.45 2005.17,1467.55 
  "/>
<path clip-path="url(#clip980)" d="M330.856 1515.64 Q327.245 1515.64 325.416 1519.2 Q323.611 1522.75 323.611 1529.87 Q323.611 1536.98 325.416 1540.55 Q327.245 1544.09 330.856 1544.09 Q334.49 1544.09 336.296 1540.55 Q338.125 1536.98 338.125 1529.87 Q338.125 1522.75 336.296 1519.2 Q334.49 1515.64 330.856 1515.64 M330.856 1511.93 Q336.666 1511.93 339.722 1516.54 Q342.8 1521.12 342.8 1529.87 Q342.8 1538.6 339.722 1543.21 Q336.666 1547.79 330.856 1547.79 Q325.046 1547.79 321.967 1543.21 Q318.912 1538.6 318.912 1529.87 Q318.912 1521.12 321.967 1516.54 Q325.046 1511.93 330.856 1511.93 Z" fill="#000000" fill-rule="evenodd" fill-opacity="1" /><path clip-path="url(#clip980)" d="M709.041 1543.18 L716.68 1543.18 L716.68 1516.82 L708.37 1518.49 L708.37 1514.23 L716.633 1512.56 L721.309 1512.56 L721.309 1543.18 L728.948 1543.18 L728.948 1547.12 L709.041 1547.12 L709.041 1543.18 Z" fill="#000000" fill-rule="evenodd" fill-opacity="1" /><path clip-path="url(#clip980)" d="M748.393 1515.64 Q744.781 1515.64 742.953 1519.2 Q741.147 1522.75 741.147 1529.87 Q741.147 1536.98 742.953 1540.55 Q744.781 1544.09 748.393 1544.09 Q752.027 1544.09 753.832 1540.55 Q755.661 1536.98 755.661 1529.87 Q755.661 1522.75 753.832 1519.2 Q752.027 1515.64 748.393 1515.64 M748.393 1511.93 Q754.203 1511.93 757.258 1516.54 Q760.337 1521.12 760.337 1529.87 Q760.337 1538.6 757.258 1543.21 Q754.203 1547.79 748.393 1547.79 Q742.582 1547.79 739.504 1543.21 Q736.448 1538.6 736.448 1529.87 Q736.448 1521.12 739.504 1516.54 Q742.582 1511.93 748.393 1511.93 Z" fill="#000000" fill-rule="evenodd" fill-opacity="1" /><path clip-path="url(#clip980)" d="M778.554 1515.64 Q774.943 1515.64 773.115 1519.2 Q771.309 1522.75 771.309 1529.87 Q771.309 1536.98 773.115 1540.55 Q774.943 1544.09 778.554 1544.09 Q782.189 1544.09 783.994 1540.55 Q785.823 1536.98 785.823 1529.87 Q785.823 1522.75 783.994 1519.2 Q782.189 1515.64 778.554 1515.64 M778.554 1511.93 Q784.365 1511.93 787.42 1516.54 Q790.499 1521.12 790.499 1529.87 Q790.499 1538.6 787.42 1543.21 Q784.365 1547.79 778.554 1547.79 Q772.744 1547.79 769.666 1543.21 Q766.61 1538.6 766.61 1529.87 Q766.61 1521.12 769.666 1516.54 Q772.744 1511.93 778.554 1511.93 Z" fill="#000000" fill-rule="evenodd" fill-opacity="1" /><path clip-path="url(#clip980)" d="M1131.7 1543.18 L1148.02 1543.18 L1148.02 1547.12 L1126.08 1547.12 L1126.08 1543.18 Q1128.74 1540.43 1133.33 1535.8 Q1137.93 1531.15 1139.11 1529.81 Q1141.36 1527.28 1142.24 1525.55 Q1143.14 1523.79 1143.14 1522.1 Q1143.14 1519.34 1141.2 1517.61 Q1139.27 1515.87 1136.17 1515.87 Q1133.97 1515.87 1131.52 1516.63 Q1129.09 1517.4 1126.31 1518.95 L1126.31 1514.23 Q1129.14 1513.09 1131.59 1512.51 Q1134.04 1511.93 1136.08 1511.93 Q1141.45 1511.93 1144.64 1514.62 Q1147.84 1517.31 1147.84 1521.8 Q1147.84 1523.93 1147.03 1525.85 Q1146.24 1527.74 1144.14 1530.34 Q1143.56 1531.01 1140.45 1534.23 Q1137.35 1537.42 1131.7 1543.18 Z" fill="#000000" fill-rule="evenodd" fill-opacity="1" /><path clip-path="url(#clip980)" d="M1167.84 1515.64 Q1164.23 1515.64 1162.4 1519.2 Q1160.59 1522.75 1160.59 1529.87 Q1160.59 1536.98 1162.4 1540.55 Q1164.23 1544.09 1167.84 1544.09 Q1171.47 1544.09 1173.28 1540.55 Q1175.11 1536.98 1175.11 1529.87 Q1175.11 1522.75 1173.28 1519.2 Q1171.47 1515.64 1167.84 1515.64 M1167.84 1511.93 Q1173.65 1511.93 1176.7 1516.54 Q1179.78 1521.12 1179.78 1529.87 Q1179.78 1538.6 1176.7 1543.21 Q1173.65 1547.79 1167.84 1547.79 Q1162.03 1547.79 1158.95 1543.21 Q1155.89 1538.6 1155.89 1529.87 Q1155.89 1521.12 1158.95 1516.54 Q1162.03 1511.93 1167.84 1511.93 Z" fill="#000000" fill-rule="evenodd" fill-opacity="1" /><path clip-path="url(#clip980)" d="M1198 1515.64 Q1194.39 1515.64 1192.56 1519.2 Q1190.76 1522.75 1190.76 1529.87 Q1190.76 1536.98 1192.56 1540.55 Q1194.39 1544.09 1198 1544.09 Q1201.63 1544.09 1203.44 1540.55 Q1205.27 1536.98 1205.27 1529.87 Q1205.27 1522.75 1203.44 1519.2 Q1201.63 1515.64 1198 1515.64 M1198 1511.93 Q1203.81 1511.93 1206.87 1516.54 Q1209.95 1521.12 1209.95 1529.87 Q1209.95 1538.6 1206.87 1543.21 Q1203.81 1547.79 1198 1547.79 Q1192.19 1547.79 1189.11 1543.21 Q1186.06 1538.6 1186.06 1529.87 Q1186.06 1521.12 1189.11 1516.54 Q1192.19 1511.93 1198 1511.93 Z" fill="#000000" fill-rule="evenodd" fill-opacity="1" /><path clip-path="url(#clip980)" d="M1560.35 1528.49 Q1563.71 1529.2 1565.58 1531.47 Q1567.48 1533.74 1567.48 1537.07 Q1567.48 1542.19 1563.96 1544.99 Q1560.44 1547.79 1553.96 1547.79 Q1551.79 1547.79 1549.47 1547.35 Q1547.18 1546.93 1544.73 1546.08 L1544.73 1541.56 Q1546.67 1542.7 1548.99 1543.28 Q1551.3 1543.86 1553.82 1543.86 Q1558.22 1543.86 1560.51 1542.12 Q1562.83 1540.38 1562.83 1537.07 Q1562.83 1534.02 1560.68 1532.31 Q1558.55 1530.57 1554.73 1530.57 L1550.7 1530.57 L1550.7 1526.73 L1554.91 1526.73 Q1558.36 1526.73 1560.19 1525.36 Q1562.02 1523.97 1562.02 1521.38 Q1562.02 1518.72 1560.12 1517.31 Q1558.25 1515.87 1554.73 1515.87 Q1552.81 1515.87 1550.61 1516.29 Q1548.41 1516.7 1545.77 1517.58 L1545.77 1513.42 Q1548.43 1512.68 1550.75 1512.31 Q1553.08 1511.93 1555.14 1511.93 Q1560.47 1511.93 1563.57 1514.37 Q1566.67 1516.77 1566.67 1520.89 Q1566.67 1523.76 1565.03 1525.75 Q1563.38 1527.72 1560.35 1528.49 Z" fill="#000000" fill-rule="evenodd" fill-opacity="1" /><path clip-path="url(#clip980)" d="M1586.35 1515.64 Q1582.74 1515.64 1580.91 1519.2 Q1579.1 1522.75 1579.1 1529.87 Q1579.1 1536.98 1580.91 1540.55 Q1582.74 1544.09 1586.35 1544.09 Q1589.98 1544.09 1591.79 1540.55 Q1593.62 1536.98 1593.62 1529.87 Q1593.62 1522.75 1591.79 1519.2 Q1589.98 1515.64 1586.35 1515.64 M1586.35 1511.93 Q1592.16 1511.93 1595.21 1516.54 Q1598.29 1521.12 1598.29 1529.87 Q1598.29 1538.6 1595.21 1543.21 Q1592.16 1547.79 1586.35 1547.79 Q1580.54 1547.79 1577.46 1543.21 Q1574.4 1538.6 1574.4 1529.87 Q1574.4 1521.12 1577.46 1516.54 Q1580.54 1511.93 1586.35 1511.93 Z" fill="#000000" fill-rule="evenodd" fill-opacity="1" /><path clip-path="url(#clip980)" d="M1616.51 1515.64 Q1612.9 1515.64 1611.07 1519.2 Q1609.26 1522.75 1609.26 1529.87 Q1609.26 1536.98 1611.07 1540.55 Q1612.9 1544.09 1616.51 1544.09 Q1620.14 1544.09 1621.95 1540.55 Q1623.78 1536.98 1623.78 1529.87 Q1623.78 1522.75 1621.95 1519.2 Q1620.14 1515.64 1616.51 1515.64 M1616.51 1511.93 Q1622.32 1511.93 1625.38 1516.54 Q1628.45 1521.12 1628.45 1529.87 Q1628.45 1538.6 1625.38 1543.21 Q1622.32 1547.79 1616.51 1547.79 Q1610.7 1547.79 1607.62 1543.21 Q1604.56 1538.6 1604.56 1529.87 Q1604.56 1521.12 1607.62 1516.54 Q1610.7 1511.93 1616.51 1511.93 Z" fill="#000000" fill-rule="evenodd" fill-opacity="1" /><path clip-path="url(#clip980)" d="M1978.26 1516.63 L1966.45 1535.08 L1978.26 1535.08 L1978.26 1516.63 M1977.03 1512.56 L1982.91 1512.56 L1982.91 1535.08 L1987.84 1535.08 L1987.84 1538.97 L1982.91 1538.97 L1982.91 1547.12 L1978.26 1547.12 L1978.26 1538.97 L1962.66 1538.97 L1962.66 1534.46 L1977.03 1512.56 Z" fill="#000000" fill-rule="evenodd" fill-opacity="1" /><path clip-path="url(#clip980)" d="M2005.57 1515.64 Q2001.96 1515.64 2000.13 1519.2 Q1998.33 1522.75 1998.33 1529.87 Q1998.33 1536.98 2000.13 1540.55 Q2001.96 1544.09 2005.57 1544.09 Q2009.21 1544.09 2011.01 1540.55 Q2012.84 1536.98 2012.84 1529.87 Q2012.84 1522.75 2011.01 1519.2 Q2009.21 1515.64 2005.57 1515.64 M2005.57 1511.93 Q2011.38 1511.93 2014.44 1516.54 Q2017.52 1521.12 2017.52 1529.87 Q2017.52 1538.6 2014.44 1543.21 Q2011.38 1547.79 2005.57 1547.79 Q1999.76 1547.79 1996.68 1543.21 Q1993.63 1538.6 1993.63 1529.87 Q1993.63 1521.12 1996.68 1516.54 Q1999.76 1511.93 2005.57 1511.93 Z" fill="#000000" fill-rule="evenodd" fill-opacity="1" /><path clip-path="url(#clip980)" d="M2035.74 1515.64 Q2032.12 1515.64 2030.3 1519.2 Q2028.49 1522.75 2028.49 1529.87 Q2028.49 1536.98 2030.3 1540.55 Q2032.12 1544.09 2035.74 1544.09 Q2039.37 1544.09 2041.18 1540.55 Q2043 1536.98 2043 1529.87 Q2043 1522.75 2041.18 1519.2 Q2039.37 1515.64 2035.74 1515.64 M2035.74 1511.93 Q2041.55 1511.93 2044.6 1516.54 Q2047.68 1521.12 2047.68 1529.87 Q2047.68 1538.6 2044.6 1543.21 Q2041.55 1547.79 2035.74 1547.79 Q2029.93 1547.79 2026.85 1543.21 Q2023.79 1538.6 2023.79 1529.87 Q2023.79 1521.12 2026.85 1516.54 Q2029.93 1511.93 2035.74 1511.93 Z" fill="#000000" fill-rule="evenodd" fill-opacity="1" /><polyline clip-path="url(#clip982)" style="stroke:#000000; stroke-linecap:butt; stroke-linejoin:round; stroke-width:2; stroke-opacity:0.1; fill:none" points="
  276.274,1447.87 2352.76,1447.87 
  "/>
<polyline clip-path="url(#clip982)" style="stroke:#000000; stroke-linecap:butt; stroke-linejoin:round; stroke-width:2; stroke-opacity:0.1; fill:none" points="
  276.274,1112.4 2352.76,1112.4 
  "/>
<polyline clip-path="url(#clip982)" style="stroke:#000000; stroke-linecap:butt; stroke-linejoin:round; stroke-width:2; stroke-opacity:0.1; fill:none" points="
  276.274,776.918 2352.76,776.918 
  "/>
<polyline clip-path="url(#clip982)" style="stroke:#000000; stroke-linecap:butt; stroke-linejoin:round; stroke-width:2; stroke-opacity:0.1; fill:none" points="
  276.274,441.441 2352.76,441.441 
  "/>
<polyline clip-path="url(#clip980)" style="stroke:#000000; stroke-linecap:butt; stroke-linejoin:round; stroke-width:4; stroke-opacity:1; fill:none" points="
  276.274,1486.45 276.274,123.472 
  "/>
<polyline clip-path="url(#clip980)" style="stroke:#000000; stroke-linecap:butt; stroke-linejoin:round; stroke-width:4; stroke-opacity:1; fill:none" points="
  276.274,1447.87 295.171,1447.87 
  "/>
<polyline clip-path="url(#clip980)" style="stroke:#000000; stroke-linecap:butt; stroke-linejoin:round; stroke-width:4; stroke-opacity:1; fill:none" points="
  276.274,1112.4 295.171,1112.4 
  "/>
<polyline clip-path="url(#clip980)" style="stroke:#000000; stroke-linecap:butt; stroke-linejoin:round; stroke-width:4; stroke-opacity:1; fill:none" points="
  276.274,776.918 295.171,776.918 
  "/>
<polyline clip-path="url(#clip980)" style="stroke:#000000; stroke-linecap:butt; stroke-linejoin:round; stroke-width:4; stroke-opacity:1; fill:none" points="
  276.274,441.441 295.171,441.441 
  "/>
<path clip-path="url(#clip980)" d="M228.329 1433.67 Q224.718 1433.67 222.889 1437.24 Q221.084 1440.78 221.084 1447.91 Q221.084 1455.01 222.889 1458.58 Q224.718 1462.12 228.329 1462.12 Q231.963 1462.12 233.769 1458.58 Q235.598 1455.01 235.598 1447.91 Q235.598 1440.78 233.769 1437.24 Q231.963 1433.67 228.329 1433.67 M228.329 1429.97 Q234.139 1429.97 237.195 1434.57 Q240.274 1439.16 240.274 1447.91 Q240.274 1456.63 237.195 1461.24 Q234.139 1465.82 228.329 1465.82 Q222.519 1465.82 219.44 1461.24 Q216.385 1456.63 216.385 1447.91 Q216.385 1439.16 219.44 1434.57 Q222.519 1429.97 228.329 1429.97 Z" fill="#000000" fill-rule="evenodd" fill-opacity="1" /><path clip-path="url(#clip980)" d="M53.3995 1132.19 L61.0384 1132.19 L61.0384 1105.82 L52.7282 1107.49 L52.7282 1103.23 L60.9921 1101.56 L65.668 1101.56 L65.668 1132.19 L73.3068 1132.19 L73.3068 1136.12 L53.3995 1136.12 L53.3995 1132.19 Z" fill="#000000" fill-rule="evenodd" fill-opacity="1" /><path clip-path="url(#clip980)" d="M82.7512 1130.24 L87.6354 1130.24 L87.6354 1136.12 L82.7512 1136.12 L82.7512 1130.24 Z" fill="#000000" fill-rule="evenodd" fill-opacity="1" /><path clip-path="url(#clip980)" d="M107.821 1104.64 Q104.209 1104.64 102.381 1108.21 Q100.575 1111.75 100.575 1118.88 Q100.575 1125.98 102.381 1129.55 Q104.209 1133.09 107.821 1133.09 Q111.455 1133.09 113.26 1129.55 Q115.089 1125.98 115.089 1118.88 Q115.089 1111.75 113.26 1108.21 Q111.455 1104.64 107.821 1104.64 M107.821 1100.94 Q113.631 1100.94 116.686 1105.54 Q119.765 1110.13 119.765 1118.88 Q119.765 1127.6 116.686 1132.21 Q113.631 1136.79 107.821 1136.79 Q102.01 1136.79 98.9317 1132.21 Q95.8761 1127.6 95.8761 1118.88 Q95.8761 1110.13 98.9317 1105.54 Q102.01 1100.94 107.821 1100.94 Z" fill="#000000" fill-rule="evenodd" fill-opacity="1" /><path clip-path="url(#clip980)" d="M156.154 1110.66 L145.575 1121.29 L156.154 1131.86 L153.399 1134.66 L142.774 1124.04 L132.149 1134.66 L129.418 1131.86 L139.973 1121.29 L129.418 1110.66 L132.149 1107.86 L142.774 1118.48 L153.399 1107.86 L156.154 1110.66 Z" fill="#000000" fill-rule="evenodd" fill-opacity="1" /><path clip-path="url(#clip980)" d="M168.515 1132.19 L176.153 1132.19 L176.153 1105.82 L167.843 1107.49 L167.843 1103.23 L176.107 1101.56 L180.783 1101.56 L180.783 1132.19 L188.422 1132.19 L188.422 1136.12 L168.515 1136.12 L168.515 1132.19 Z" fill="#000000" fill-rule="evenodd" fill-opacity="1" /><path clip-path="url(#clip980)" d="M207.866 1104.64 Q204.255 1104.64 202.426 1108.21 Q200.621 1111.75 200.621 1118.88 Q200.621 1125.98 202.426 1129.55 Q204.255 1133.09 207.866 1133.09 Q211.501 1133.09 213.306 1129.55 Q215.135 1125.98 215.135 1118.88 Q215.135 1111.75 213.306 1108.21 Q211.501 1104.64 207.866 1104.64 M207.866 1100.94 Q213.676 1100.94 216.732 1105.54 Q219.811 1110.13 219.811 1118.88 Q219.811 1127.6 216.732 1132.21 Q213.676 1136.79 207.866 1136.79 Q202.056 1136.79 198.977 1132.21 Q195.922 1127.6 195.922 1118.88 Q195.922 1110.13 198.977 1105.54 Q202.056 1100.94 207.866 1100.94 Z" fill="#000000" fill-rule="evenodd" fill-opacity="1" /><path clip-path="url(#clip980)" d="M232.487 1083.94 L222.895 1098.93 L232.487 1098.93 L232.487 1083.94 M231.49 1080.63 L236.267 1080.63 L236.267 1098.93 L240.274 1098.93 L240.274 1102.09 L236.267 1102.09 L236.267 1108.71 L232.487 1108.71 L232.487 1102.09 L219.811 1102.09 L219.811 1098.42 L231.49 1080.63 Z" fill="#000000" fill-rule="evenodd" fill-opacity="1" /><path clip-path="url(#clip980)" d="M56.6171 796.711 L72.9365 796.711 L72.9365 800.646 L50.9921 800.646 L50.9921 796.711 Q53.6541 793.956 58.2375 789.326 Q62.8439 784.674 64.0245 783.331 Q66.2698 780.808 67.1494 779.072 Q68.0522 777.312 68.0522 775.623 Q68.0522 772.868 66.1078 771.132 Q64.1865 769.396 61.0847 769.396 Q58.8856 769.396 56.4319 770.16 Q54.0014 770.924 51.2236 772.475 L51.2236 767.752 Q54.0477 766.618 56.5014 766.039 Q58.955 765.461 60.9921 765.461 Q66.3624 765.461 69.5568 768.146 Q72.7513 770.831 72.7513 775.322 Q72.7513 777.451 71.9411 779.373 Q71.1541 781.271 69.0476 783.863 Q68.4689 784.535 65.367 787.752 Q62.2652 790.947 56.6171 796.711 Z" fill="#000000" fill-rule="evenodd" fill-opacity="1" /><path clip-path="url(#clip980)" d="M82.7512 794.766 L87.6354 794.766 L87.6354 800.646 L82.7512 800.646 L82.7512 794.766 Z" fill="#000000" fill-rule="evenodd" fill-opacity="1" /><path clip-path="url(#clip980)" d="M107.821 769.164 Q104.209 769.164 102.381 772.729 Q100.575 776.271 100.575 783.4 Q100.575 790.507 102.381 794.072 Q104.209 797.613 107.821 797.613 Q111.455 797.613 113.26 794.072 Q115.089 790.507 115.089 783.4 Q115.089 776.271 113.26 772.729 Q111.455 769.164 107.821 769.164 M107.821 765.461 Q113.631 765.461 116.686 770.067 Q119.765 774.65 119.765 783.4 Q119.765 792.127 116.686 796.734 Q113.631 801.317 107.821 801.317 Q102.01 801.317 98.9317 796.734 Q95.8761 792.127 95.8761 783.4 Q95.8761 774.65 98.9317 770.067 Q102.01 765.461 107.821 765.461 Z" fill="#000000" fill-rule="evenodd" fill-opacity="1" /><path clip-path="url(#clip980)" d="M156.154 775.183 L145.575 785.808 L156.154 796.386 L153.399 799.187 L142.774 788.562 L132.149 799.187 L129.418 796.386 L139.973 785.808 L129.418 775.183 L132.149 772.382 L142.774 783.007 L153.399 772.382 L156.154 775.183 Z" fill="#000000" fill-rule="evenodd" fill-opacity="1" /><path clip-path="url(#clip980)" d="M168.515 796.711 L176.153 796.711 L176.153 770.345 L167.843 772.012 L167.843 767.752 L176.107 766.086 L180.783 766.086 L180.783 796.711 L188.422 796.711 L188.422 800.646 L168.515 800.646 L168.515 796.711 Z" fill="#000000" fill-rule="evenodd" fill-opacity="1" /><path clip-path="url(#clip980)" d="M207.866 769.164 Q204.255 769.164 202.426 772.729 Q200.621 776.271 200.621 783.4 Q200.621 790.507 202.426 794.072 Q204.255 797.613 207.866 797.613 Q211.501 797.613 213.306 794.072 Q215.135 790.507 215.135 783.4 Q215.135 776.271 213.306 772.729 Q211.501 769.164 207.866 769.164 M207.866 765.461 Q213.676 765.461 216.732 770.067 Q219.811 774.65 219.811 783.4 Q219.811 792.127 216.732 796.734 Q213.676 801.317 207.866 801.317 Q202.056 801.317 198.977 796.734 Q195.922 792.127 195.922 783.4 Q195.922 774.65 198.977 770.067 Q202.056 765.461 207.866 765.461 Z" fill="#000000" fill-rule="evenodd" fill-opacity="1" /><path clip-path="url(#clip980)" d="M232.487 748.465 L222.895 763.455 L232.487 763.455 L232.487 748.465 M231.49 745.155 L236.267 745.155 L236.267 763.455 L240.274 763.455 L240.274 766.615 L236.267 766.615 L236.267 773.235 L232.487 773.235 L232.487 766.615 L219.811 766.615 L219.811 762.947 L231.49 745.155 Z" fill="#000000" fill-rule="evenodd" fill-opacity="1" /><path clip-path="url(#clip980)" d="M66.7559 446.534 Q70.1124 447.252 71.9874 449.52 Q73.8855 451.789 73.8855 455.122 Q73.8855 460.238 70.367 463.039 Q66.8485 465.839 60.3671 465.839 Q58.1912 465.839 55.8764 465.4 Q53.5847 464.983 51.131 464.126 L51.131 459.613 Q53.0754 460.747 55.3903 461.326 Q57.7051 461.904 60.2282 461.904 Q64.6263 461.904 66.918 460.168 Q69.2328 458.432 69.2328 455.122 Q69.2328 452.066 67.08 450.353 Q64.9504 448.617 61.131 448.617 L57.1032 448.617 L57.1032 444.775 L61.3161 444.775 Q64.7652 444.775 66.5939 443.409 Q68.4226 442.02 68.4226 439.428 Q68.4226 436.766 66.5245 435.353 Q64.6495 433.918 61.131 433.918 Q59.2097 433.918 57.0106 434.335 Q54.8115 434.752 52.1727 435.631 L52.1727 431.465 Q54.8347 430.724 57.1495 430.354 Q59.4875 429.983 61.5476 429.983 Q66.8717 429.983 69.9735 432.414 Q73.0753 434.821 73.0753 438.941 Q73.0753 441.812 71.4318 443.803 Q69.7883 445.77 66.7559 446.534 Z" fill="#000000" fill-rule="evenodd" fill-opacity="1" /><path clip-path="url(#clip980)" d="M82.7512 459.289 L87.6354 459.289 L87.6354 465.168 L82.7512 465.168 L82.7512 459.289 Z" fill="#000000" fill-rule="evenodd" fill-opacity="1" /><path clip-path="url(#clip980)" d="M107.821 433.687 Q104.209 433.687 102.381 437.252 Q100.575 440.793 100.575 447.923 Q100.575 455.029 102.381 458.594 Q104.209 462.136 107.821 462.136 Q111.455 462.136 113.26 458.594 Q115.089 455.029 115.089 447.923 Q115.089 440.793 113.26 437.252 Q111.455 433.687 107.821 433.687 M107.821 429.983 Q113.631 429.983 116.686 434.59 Q119.765 439.173 119.765 447.923 Q119.765 456.65 116.686 461.256 Q113.631 465.839 107.821 465.839 Q102.01 465.839 98.9317 461.256 Q95.8761 456.65 95.8761 447.923 Q95.8761 439.173 98.9317 434.59 Q102.01 429.983 107.821 429.983 Z" fill="#000000" fill-rule="evenodd" fill-opacity="1" /><path clip-path="url(#clip980)" d="M156.154 439.705 L145.575 450.33 L156.154 460.909 L153.399 463.71 L142.774 453.085 L132.149 463.71 L129.418 460.909 L139.973 450.33 L129.418 439.705 L132.149 436.904 L142.774 447.529 L153.399 436.904 L156.154 439.705 Z" fill="#000000" fill-rule="evenodd" fill-opacity="1" /><path clip-path="url(#clip980)" d="M168.515 461.233 L176.153 461.233 L176.153 434.867 L167.843 436.534 L167.843 432.275 L176.107 430.608 L180.783 430.608 L180.783 461.233 L188.422 461.233 L188.422 465.168 L168.515 465.168 L168.515 461.233 Z" fill="#000000" fill-rule="evenodd" fill-opacity="1" /><path clip-path="url(#clip980)" d="M207.866 433.687 Q204.255 433.687 202.426 437.252 Q200.621 440.793 200.621 447.923 Q200.621 455.029 202.426 458.594 Q204.255 462.136 207.866 462.136 Q211.501 462.136 213.306 458.594 Q215.135 455.029 215.135 447.923 Q215.135 440.793 213.306 437.252 Q211.501 433.687 207.866 433.687 M207.866 429.983 Q213.676 429.983 216.732 434.59 Q219.811 439.173 219.811 447.923 Q219.811 456.65 216.732 461.256 Q213.676 465.839 207.866 465.839 Q202.056 465.839 198.977 461.256 Q195.922 456.65 195.922 447.923 Q195.922 439.173 198.977 434.59 Q202.056 429.983 207.866 429.983 Z" fill="#000000" fill-rule="evenodd" fill-opacity="1" /><path clip-path="url(#clip980)" d="M232.487 412.988 L222.895 427.978 L232.487 427.978 L232.487 412.988 M231.49 409.678 L236.267 409.678 L236.267 427.978 L240.274 427.978 L240.274 431.137 L236.267 431.137 L236.267 437.758 L232.487 437.758 L232.487 431.137 L219.811 431.137 L219.811 427.47 L231.49 409.678 Z" fill="#000000" fill-rule="evenodd" fill-opacity="1" /><path clip-path="url(#clip980)" d="M591.124 16.7545 L591.124 25.383 Q586.993 21.5346 582.294 19.6307 Q577.635 17.7268 572.369 17.7268 Q561.998 17.7268 556.489 24.0867 Q550.98 30.4061 550.98 42.3968 Q550.98 54.3469 556.489 60.7069 Q561.998 67.0263 572.369 67.0263 Q577.635 67.0263 582.294 65.1223 Q586.993 63.2184 591.124 59.3701 L591.124 67.9175 Q586.831 70.8341 582.01 72.2924 Q577.23 73.7508 571.883 73.7508 Q558.15 73.7508 550.251 65.3654 Q542.352 56.9395 542.352 42.3968 Q542.352 27.8135 550.251 19.4281 Q558.15 11.0023 571.883 11.0023 Q577.311 11.0023 582.091 12.4606 Q586.912 13.8784 591.124 16.7545 Z" fill="#000000" fill-rule="evenodd" fill-opacity="1" /><path clip-path="url(#clip980)" d="M641.153 45.1919 L641.153 72.576 L633.699 72.576 L633.699 45.4349 Q633.699 38.994 631.188 35.7938 Q628.676 32.5936 623.653 32.5936 Q617.617 32.5936 614.134 36.4419 Q610.65 40.2903 610.65 46.9338 L610.65 72.576 L603.156 72.576 L603.156 9.54393 L610.65 9.54393 L610.65 34.2544 Q613.323 30.163 616.929 28.1376 Q620.575 26.1121 625.314 26.1121 Q633.132 26.1121 637.143 30.9732 Q641.153 35.7938 641.153 45.1919 Z" fill="#000000" fill-rule="evenodd" fill-opacity="1" /><path clip-path="url(#clip980)" d="M694.828 48.0275 L694.828 51.6733 L660.557 51.6733 Q661.043 59.3701 665.175 63.421 Q669.347 67.4314 676.761 67.4314 Q681.055 67.4314 685.065 66.3781 Q689.116 65.3249 693.086 63.2184 L693.086 70.267 Q689.075 71.9684 684.862 72.8596 Q680.649 73.7508 676.315 73.7508 Q665.459 73.7508 659.099 67.4314 Q652.779 61.1119 652.779 50.3365 Q652.779 39.1965 658.775 32.6746 Q664.81 26.1121 675.019 26.1121 Q684.174 26.1121 689.48 32.0264 Q694.828 37.9003 694.828 48.0275 M687.374 45.84 Q687.293 39.7232 683.931 36.0774 Q680.609 32.4315 675.1 32.4315 Q668.861 32.4315 665.094 35.9558 Q661.367 39.4801 660.8 45.8805 L687.374 45.84 Z" fill="#000000" fill-rule="evenodd" fill-opacity="1" /><path clip-path="url(#clip980)" d="M736.917 49.3643 Q736.917 41.2625 733.554 36.8065 Q730.233 32.3505 724.197 32.3505 Q718.201 32.3505 714.839 36.8065 Q711.517 41.2625 711.517 49.3643 Q711.517 57.4256 714.839 61.8816 Q718.201 66.3376 724.197 66.3376 Q730.233 66.3376 733.554 61.8816 Q736.917 57.4256 736.917 49.3643 M744.37 66.9452 Q744.37 78.5308 739.226 84.1616 Q734.081 89.8329 723.468 89.8329 Q719.538 89.8329 716.054 89.2252 Q712.571 88.6581 709.289 87.4428 L709.289 80.1917 Q712.571 81.9741 715.771 82.8248 Q718.971 83.6755 722.293 83.6755 Q729.625 83.6755 733.271 79.8271 Q736.917 76.0193 736.917 68.282 L736.917 64.5957 Q734.608 68.6061 731.002 70.5911 Q727.397 72.576 722.374 72.576 Q714.029 72.576 708.925 66.2161 Q703.821 59.8562 703.821 49.3643 Q703.821 38.832 708.925 32.472 Q714.029 26.1121 722.374 26.1121 Q727.397 26.1121 731.002 28.0971 Q734.608 30.082 736.917 34.0924 L736.917 27.2059 L744.37 27.2059 L744.37 66.9452 Z" fill="#000000" fill-rule="evenodd" fill-opacity="1" /><path clip-path="url(#clip980)" d="M780.342 49.7694 Q771.309 49.7694 767.825 51.8354 Q764.341 53.9013 764.341 58.8839 Q764.341 62.8538 766.934 65.2034 Q769.567 67.5124 774.063 67.5124 Q780.261 67.5124 783.988 63.1374 Q787.755 58.7219 787.755 51.4303 L787.755 49.7694 L780.342 49.7694 M795.209 46.6907 L795.209 72.576 L787.755 72.576 L787.755 65.6895 Q785.203 69.8214 781.395 71.8063 Q777.588 73.7508 772.078 73.7508 Q765.111 73.7508 760.979 69.8619 Q756.887 65.9325 756.887 59.3701 Q756.887 51.7138 761.992 47.825 Q767.136 43.9361 777.304 43.9361 L787.755 43.9361 L787.755 43.2069 Q787.755 38.0623 784.353 35.2672 Q780.99 32.4315 774.874 32.4315 Q770.985 32.4315 767.298 33.3632 Q763.612 34.295 760.209 36.1584 L760.209 29.2718 Q764.301 27.692 768.149 26.9223 Q771.997 26.1121 775.643 26.1121 Q785.487 26.1121 790.348 31.2163 Q795.209 36.3204 795.209 46.6907 Z" fill="#000000" fill-rule="evenodd" fill-opacity="1" /><path clip-path="url(#clip980)" d="M840.417 34.0924 L840.417 9.54393 L847.871 9.54393 L847.871 72.576 L840.417 72.576 L840.417 65.7705 Q838.068 69.8214 834.462 71.8063 Q830.898 73.7508 825.874 73.7508 Q817.651 73.7508 812.466 67.1883 Q807.321 60.6258 807.321 49.9314 Q807.321 39.2371 812.466 32.6746 Q817.651 26.1121 825.874 26.1121 Q830.898 26.1121 834.462 28.0971 Q838.068 30.0415 840.417 34.0924 M815.018 49.9314 Q815.018 58.1548 818.38 62.8538 Q821.783 67.5124 827.697 67.5124 Q833.612 67.5124 837.014 62.8538 Q840.417 58.1548 840.417 49.9314 Q840.417 41.7081 837.014 37.0496 Q833.612 32.3505 827.697 32.3505 Q821.783 32.3505 818.38 37.0496 Q815.018 41.7081 815.018 49.9314 Z" fill="#000000" fill-rule="evenodd" fill-opacity="1" /><path clip-path="url(#clip980)" d="M883.843 49.7694 Q874.809 49.7694 871.326 51.8354 Q867.842 53.9013 867.842 58.8839 Q867.842 62.8538 870.434 65.2034 Q873.067 67.5124 877.564 67.5124 Q883.762 67.5124 887.489 63.1374 Q891.256 58.7219 891.256 51.4303 L891.256 49.7694 L883.843 49.7694 M898.71 46.6907 L898.71 72.576 L891.256 72.576 L891.256 65.6895 Q888.704 69.8214 884.896 71.8063 Q881.088 73.7508 875.579 73.7508 Q868.611 73.7508 864.48 69.8619 Q860.388 65.9325 860.388 59.3701 Q860.388 51.7138 865.492 47.825 Q870.637 43.9361 880.805 43.9361 L891.256 43.9361 L891.256 43.2069 Q891.256 38.0623 887.853 35.2672 Q884.491 32.4315 878.374 32.4315 Q874.485 32.4315 870.799 33.3632 Q867.113 34.295 863.71 36.1584 L863.71 29.2718 Q867.801 27.692 871.65 26.9223 Q875.498 26.1121 879.144 26.1121 Q888.987 26.1121 893.849 31.2163 Q898.71 36.3204 898.71 46.6907 Z" fill="#000000" fill-rule="evenodd" fill-opacity="1" /><path clip-path="url(#clip980)" d="M970.289 34.0924 L970.289 9.54393 L977.743 9.54393 L977.743 72.576 L970.289 72.576 L970.289 65.7705 Q967.94 69.8214 964.334 71.8063 Q960.77 73.7508 955.746 73.7508 Q947.523 73.7508 942.338 67.1883 Q937.193 60.6258 937.193 49.9314 Q937.193 39.2371 942.338 32.6746 Q947.523 26.1121 955.746 26.1121 Q960.77 26.1121 964.334 28.0971 Q967.94 30.0415 970.289 34.0924 M944.89 49.9314 Q944.89 58.1548 948.252 62.8538 Q951.655 67.5124 957.569 67.5124 Q963.484 67.5124 966.886 62.8538 Q970.289 58.1548 970.289 49.9314 Q970.289 41.7081 966.886 37.0496 Q963.484 32.3505 957.569 32.3505 Q951.655 32.3505 948.252 37.0496 Q944.89 41.7081 944.89 49.9314 Z" fill="#000000" fill-rule="evenodd" fill-opacity="1" /><path clip-path="url(#clip980)" d="M1031.9 48.0275 L1031.9 51.6733 L997.633 51.6733 Q998.119 59.3701 1002.25 63.421 Q1006.42 67.4314 1013.84 67.4314 Q1018.13 67.4314 1022.14 66.3781 Q1026.19 65.3249 1030.16 63.2184 L1030.16 70.267 Q1026.15 71.9684 1021.94 72.8596 Q1017.73 73.7508 1013.39 73.7508 Q1002.53 73.7508 996.174 67.4314 Q989.855 61.1119 989.855 50.3365 Q989.855 39.1965 995.85 32.6746 Q1001.89 26.1121 1012.09 26.1121 Q1021.25 26.1121 1026.56 32.0264 Q1031.9 37.9003 1031.9 48.0275 M1024.45 45.84 Q1024.37 39.7232 1021.01 36.0774 Q1017.68 32.4315 1012.18 32.4315 Q1005.94 32.4315 1002.17 35.9558 Q998.443 39.4801 997.876 45.8805 L1024.45 45.84 Z" fill="#000000" fill-rule="evenodd" fill-opacity="1" /><path clip-path="url(#clip980)" d="M1108.22 45.1919 L1108.22 72.576 L1100.77 72.576 L1100.77 45.4349 Q1100.77 38.994 1098.26 35.7938 Q1095.75 32.5936 1090.72 32.5936 Q1084.69 32.5936 1081.2 36.4419 Q1077.72 40.2903 1077.72 46.9338 L1077.72 72.576 L1070.22 72.576 L1070.22 27.2059 L1077.72 27.2059 L1077.72 34.2544 Q1080.39 30.163 1084 28.1376 Q1087.64 26.1121 1092.38 26.1121 Q1100.2 26.1121 1104.21 30.9732 Q1108.22 35.7938 1108.22 45.1919 Z" fill="#000000" fill-rule="evenodd" fill-opacity="1" /><path clip-path="url(#clip980)" d="M1140.67 32.4315 Q1134.67 32.4315 1131.19 37.1306 Q1127.71 41.7891 1127.71 49.9314 Q1127.71 58.0738 1131.15 62.7728 Q1134.63 67.4314 1140.67 67.4314 Q1146.62 67.4314 1150.11 62.7323 Q1153.59 58.0333 1153.59 49.9314 Q1153.59 41.8701 1150.11 37.1711 Q1146.62 32.4315 1140.67 32.4315 M1140.67 26.1121 Q1150.39 26.1121 1155.94 32.4315 Q1161.49 38.7509 1161.49 49.9314 Q1161.49 61.0714 1155.94 67.4314 Q1150.39 73.7508 1140.67 73.7508 Q1130.91 73.7508 1125.36 67.4314 Q1119.85 61.0714 1119.85 49.9314 Q1119.85 38.7509 1125.36 32.4315 Q1130.91 26.1121 1140.67 26.1121 Z" fill="#000000" fill-rule="evenodd" fill-opacity="1" /><path clip-path="url(#clip980)" d="M1168.5 27.2059 L1176.4 27.2059 L1190.58 65.2844 L1204.76 27.2059 L1212.65 27.2059 L1195.64 72.576 L1185.51 72.576 L1168.5 27.2059 Z" fill="#000000" fill-rule="evenodd" fill-opacity="1" /><path clip-path="url(#clip980)" d="M1240.52 32.4315 Q1234.53 32.4315 1231.05 37.1306 Q1227.56 41.7891 1227.56 49.9314 Q1227.56 58.0738 1231.01 62.7728 Q1234.49 67.4314 1240.52 67.4314 Q1246.48 67.4314 1249.96 62.7323 Q1253.45 58.0333 1253.45 49.9314 Q1253.45 41.8701 1249.96 37.1711 Q1246.48 32.4315 1240.52 32.4315 M1240.52 26.1121 Q1250.25 26.1121 1255.8 32.4315 Q1261.35 38.7509 1261.35 49.9314 Q1261.35 61.0714 1255.8 67.4314 Q1250.25 73.7508 1240.52 73.7508 Q1230.76 73.7508 1225.21 67.4314 Q1219.7 61.0714 1219.7 49.9314 Q1219.7 38.7509 1225.21 32.4315 Q1230.76 26.1121 1240.52 26.1121 Z" fill="#000000" fill-rule="evenodd" fill-opacity="1" /><path clip-path="url(#clip980)" d="M1302.63 28.5427 L1302.63 35.5912 Q1299.47 33.9709 1296.06 33.1607 Q1292.66 32.3505 1289.01 32.3505 Q1283.46 32.3505 1280.67 34.0519 Q1277.91 35.7533 1277.91 39.156 Q1277.91 41.7486 1279.9 43.2475 Q1281.88 44.7058 1287.88 46.0426 L1290.43 46.6097 Q1298.37 48.3111 1301.69 51.4303 Q1305.06 54.509 1305.06 60.0587 Q1305.06 66.3781 1300.03 70.0644 Q1295.05 73.7508 1286.3 73.7508 Q1282.65 73.7508 1278.68 73.0216 Q1274.76 72.3329 1270.38 70.9151 L1270.38 63.2184 Q1274.51 65.3654 1278.52 66.4591 Q1282.53 67.5124 1286.46 67.5124 Q1291.73 67.5124 1294.56 65.73 Q1297.4 63.9071 1297.4 60.6258 Q1297.4 57.5877 1295.33 55.9673 Q1293.31 54.3469 1286.38 52.8481 L1283.79 52.2405 Q1276.86 50.7821 1273.78 47.7845 Q1270.7 44.7463 1270.7 39.4801 Q1270.7 33.0797 1275.24 29.5959 Q1279.78 26.1121 1288.12 26.1121 Q1292.25 26.1121 1295.9 26.7198 Q1299.55 27.3274 1302.63 28.5427 Z" fill="#000000" fill-rule="evenodd" fill-opacity="1" /><path clip-path="url(#clip980)" d="M1343.3 27.2059 L1350.75 27.2059 L1350.75 72.576 L1343.3 72.576 L1343.3 27.2059 M1343.3 9.54393 L1350.75 9.54393 L1350.75 18.9825 L1343.3 18.9825 L1343.3 9.54393 Z" fill="#000000" fill-rule="evenodd" fill-opacity="1" /><path clip-path="url(#clip980)" d="M1404.06 45.1919 L1404.06 72.576 L1396.61 72.576 L1396.61 45.4349 Q1396.61 38.994 1394.09 35.7938 Q1391.58 32.5936 1386.56 32.5936 Q1380.52 32.5936 1377.04 36.4419 Q1373.56 40.2903 1373.56 46.9338 L1373.56 72.576 L1366.06 72.576 L1366.06 27.2059 L1373.56 27.2059 L1373.56 34.2544 Q1376.23 30.163 1379.84 28.1376 Q1383.48 26.1121 1388.22 26.1121 Q1396.04 26.1121 1400.05 30.9732 Q1404.06 35.7938 1404.06 45.1919 Z" fill="#000000" fill-rule="evenodd" fill-opacity="1" /><path clip-path="url(#clip980)" d="M1426.3 14.324 L1426.3 27.2059 L1441.65 27.2059 L1441.65 32.9987 L1426.3 32.9987 L1426.3 57.6282 Q1426.3 63.1779 1427.8 64.7578 Q1429.34 66.3376 1434 66.3376 L1441.65 66.3376 L1441.65 72.576 L1434 72.576 Q1425.37 72.576 1422.09 69.3758 Q1418.81 66.1351 1418.81 57.6282 L1418.81 32.9987 L1413.34 32.9987 L1413.34 27.2059 L1418.81 27.2059 L1418.81 14.324 L1426.3 14.324 Z" fill="#000000" fill-rule="evenodd" fill-opacity="1" /><path clip-path="url(#clip980)" d="M1490.26 48.0275 L1490.26 51.6733 L1455.99 51.6733 Q1456.48 59.3701 1460.61 63.421 Q1464.78 67.4314 1472.2 67.4314 Q1476.49 67.4314 1480.5 66.3781 Q1484.55 65.3249 1488.52 63.2184 L1488.52 70.267 Q1484.51 71.9684 1480.3 72.8596 Q1476.09 73.7508 1471.75 73.7508 Q1460.89 73.7508 1454.53 67.4314 Q1448.21 61.1119 1448.21 50.3365 Q1448.21 39.1965 1454.21 32.6746 Q1460.25 26.1121 1470.45 26.1121 Q1479.61 26.1121 1484.92 32.0264 Q1490.26 37.9003 1490.26 48.0275 M1482.81 45.84 Q1482.73 39.7232 1479.37 36.0774 Q1476.04 32.4315 1470.54 32.4315 Q1464.3 32.4315 1460.53 35.9558 Q1456.8 39.4801 1456.24 45.8805 L1482.81 45.84 Z" fill="#000000" fill-rule="evenodd" fill-opacity="1" /><path clip-path="url(#clip980)" d="M1528.79 34.1734 Q1527.53 33.4443 1526.03 33.1202 Q1524.57 32.7556 1522.79 32.7556 Q1516.47 32.7556 1513.07 36.8875 Q1509.71 40.9789 1509.71 48.6757 L1509.71 72.576 L1502.21 72.576 L1502.21 27.2059 L1509.71 27.2059 L1509.71 34.2544 Q1512.06 30.1225 1515.82 28.1376 Q1519.59 26.1121 1524.98 26.1121 Q1525.75 26.1121 1526.68 26.2337 Q1527.61 26.3147 1528.75 26.5172 L1528.79 34.1734 Z" fill="#000000" fill-rule="evenodd" fill-opacity="1" /><path clip-path="url(#clip980)" d="M1572.86 45.1919 L1572.86 72.576 L1565.41 72.576 L1565.41 45.4349 Q1565.41 38.994 1562.9 35.7938 Q1560.38 32.5936 1555.36 32.5936 Q1549.33 32.5936 1545.84 36.4419 Q1542.36 40.2903 1542.36 46.9338 L1542.36 72.576 L1534.86 72.576 L1534.86 27.2059 L1542.36 27.2059 L1542.36 34.2544 Q1545.03 30.163 1548.64 28.1376 Q1552.28 26.1121 1557.02 26.1121 Q1564.84 26.1121 1568.85 30.9732 Q1572.86 35.7938 1572.86 45.1919 Z" fill="#000000" fill-rule="evenodd" fill-opacity="1" /><path clip-path="url(#clip980)" d="M1608.35 49.7694 Q1599.31 49.7694 1595.83 51.8354 Q1592.35 53.9013 1592.35 58.8839 Q1592.35 62.8538 1594.94 65.2034 Q1597.57 67.5124 1602.07 67.5124 Q1608.27 67.5124 1611.99 63.1374 Q1615.76 58.7219 1615.76 51.4303 L1615.76 49.7694 L1608.35 49.7694 M1623.21 46.6907 L1623.21 72.576 L1615.76 72.576 L1615.76 65.6895 Q1613.21 69.8214 1609.4 71.8063 Q1605.59 73.7508 1600.08 73.7508 Q1593.12 73.7508 1588.98 69.8619 Q1584.89 65.9325 1584.89 59.3701 Q1584.89 51.7138 1590 47.825 Q1595.14 43.9361 1605.31 43.9361 L1615.76 43.9361 L1615.76 43.2069 Q1615.76 38.0623 1612.36 35.2672 Q1609 32.4315 1602.88 32.4315 Q1598.99 32.4315 1595.3 33.3632 Q1591.62 34.295 1588.21 36.1584 L1588.21 29.2718 Q1592.31 27.692 1596.15 26.9223 Q1600 26.1121 1603.65 26.1121 Q1613.49 26.1121 1618.35 31.2163 Q1623.21 36.3204 1623.21 46.6907 Z" fill="#000000" fill-rule="evenodd" fill-opacity="1" /><path clip-path="url(#clip980)" d="M1668.42 34.0924 L1668.42 9.54393 L1675.88 9.54393 L1675.88 72.576 L1668.42 72.576 L1668.42 65.7705 Q1666.07 69.8214 1662.47 71.8063 Q1658.9 73.7508 1653.88 73.7508 Q1645.66 73.7508 1640.47 67.1883 Q1635.33 60.6258 1635.33 49.9314 Q1635.33 39.2371 1640.47 32.6746 Q1645.66 26.1121 1653.88 26.1121 Q1658.9 26.1121 1662.47 28.0971 Q1666.07 30.0415 1668.42 34.0924 M1643.02 49.9314 Q1643.02 58.1548 1646.39 62.8538 Q1649.79 67.5124 1655.7 67.5124 Q1661.62 67.5124 1665.02 62.8538 Q1668.42 58.1548 1668.42 49.9314 Q1668.42 41.7081 1665.02 37.0496 Q1661.62 32.3505 1655.7 32.3505 Q1649.79 32.3505 1646.39 37.0496 Q1643.02 41.7081 1643.02 49.9314 Z" fill="#000000" fill-rule="evenodd" fill-opacity="1" /><path clip-path="url(#clip980)" d="M1708.81 32.4315 Q1702.81 32.4315 1699.33 37.1306 Q1695.85 41.7891 1695.85 49.9314 Q1695.85 58.0738 1699.29 62.7728 Q1702.77 67.4314 1708.81 67.4314 Q1714.76 67.4314 1718.25 62.7323 Q1721.73 58.0333 1721.73 49.9314 Q1721.73 41.8701 1718.25 37.1711 Q1714.76 32.4315 1708.81 32.4315 M1708.81 26.1121 Q1718.53 26.1121 1724.08 32.4315 Q1729.63 38.7509 1729.63 49.9314 Q1729.63 61.0714 1724.08 67.4314 Q1718.53 73.7508 1708.81 73.7508 Q1699.05 73.7508 1693.5 67.4314 Q1687.99 61.0714 1687.99 49.9314 Q1687.99 38.7509 1693.5 32.4315 Q1699.05 26.1121 1708.81 26.1121 Z" fill="#000000" fill-rule="evenodd" fill-opacity="1" /><path clip-path="url(#clip980)" d="M1770.91 28.5427 L1770.91 35.5912 Q1767.75 33.9709 1764.35 33.1607 Q1760.94 32.3505 1757.3 32.3505 Q1751.75 32.3505 1748.95 34.0519 Q1746.2 35.7533 1746.2 39.156 Q1746.2 41.7486 1748.18 43.2475 Q1750.17 44.7058 1756.16 46.0426 L1758.72 46.6097 Q1766.66 48.3111 1769.98 51.4303 Q1773.34 54.509 1773.34 60.0587 Q1773.34 66.3781 1768.32 70.0644 Q1763.33 73.7508 1754.58 73.7508 Q1750.94 73.7508 1746.97 73.0216 Q1743.04 72.3329 1738.66 70.9151 L1738.66 63.2184 Q1742.8 65.3654 1746.81 66.4591 Q1750.82 67.5124 1754.75 67.5124 Q1760.01 67.5124 1762.85 65.73 Q1765.68 63.9071 1765.68 60.6258 Q1765.68 57.5877 1763.62 55.9673 Q1761.59 54.3469 1754.67 52.8481 L1752.07 52.2405 Q1745.15 50.7821 1742.07 47.7845 Q1738.99 44.7463 1738.99 39.4801 Q1738.99 33.0797 1743.53 29.5959 Q1748.06 26.1121 1756.41 26.1121 Q1760.54 26.1121 1764.19 26.7198 Q1767.83 27.3274 1770.91 28.5427 Z" fill="#000000" fill-rule="evenodd" fill-opacity="1" /><path clip-path="url(#clip980)" d="M1818.79 65.7705 L1818.79 89.8329 L1811.3 89.8329 L1811.3 27.2059 L1818.79 27.2059 L1818.79 34.0924 Q1821.14 30.0415 1824.71 28.0971 Q1828.31 26.1121 1833.29 26.1121 Q1841.56 26.1121 1846.7 32.6746 Q1851.89 39.2371 1851.89 49.9314 Q1851.89 60.6258 1846.7 67.1883 Q1841.56 73.7508 1833.29 73.7508 Q1828.31 73.7508 1824.71 71.8063 Q1821.14 69.8214 1818.79 65.7705 M1844.15 49.9314 Q1844.15 41.7081 1840.75 37.0496 Q1837.39 32.3505 1831.47 32.3505 Q1825.56 32.3505 1822.15 37.0496 Q1818.79 41.7081 1818.79 49.9314 Q1818.79 58.1548 1822.15 62.8538 Q1825.56 67.5124 1831.47 67.5124 Q1837.39 67.5124 1840.75 62.8538 Q1844.15 58.1548 1844.15 49.9314 Z" fill="#000000" fill-rule="evenodd" fill-opacity="1" /><path clip-path="url(#clip980)" d="M1881.82 32.4315 Q1875.83 32.4315 1872.34 37.1306 Q1868.86 41.7891 1868.86 49.9314 Q1868.86 58.0738 1872.3 62.7728 Q1875.79 67.4314 1881.82 67.4314 Q1887.78 67.4314 1891.26 62.7323 Q1894.75 58.0333 1894.75 49.9314 Q1894.75 41.8701 1891.26 37.1711 Q1887.78 32.4315 1881.82 32.4315 M1881.82 26.1121 Q1891.55 26.1121 1897.1 32.4315 Q1902.65 38.7509 1902.65 49.9314 Q1902.65 61.0714 1897.1 67.4314 Q1891.55 73.7508 1881.82 73.7508 Q1872.06 73.7508 1866.51 67.4314 Q1861 61.0714 1861 49.9314 Q1861 38.7509 1866.51 32.4315 Q1872.06 26.1121 1881.82 26.1121 Z" fill="#000000" fill-rule="evenodd" fill-opacity="1" /><path clip-path="url(#clip980)" d="M1941.29 34.1734 Q1940.04 33.4443 1938.54 33.1202 Q1937.08 32.7556 1935.3 32.7556 Q1928.98 32.7556 1925.57 36.8875 Q1922.21 40.9789 1922.21 48.6757 L1922.21 72.576 L1914.72 72.576 L1914.72 27.2059 L1922.21 27.2059 L1922.21 34.2544 Q1924.56 30.1225 1928.33 28.1376 Q1932.1 26.1121 1937.48 26.1121 Q1938.25 26.1121 1939.18 26.2337 Q1940.12 26.3147 1941.25 26.5172 L1941.29 34.1734 Z" fill="#000000" fill-rule="evenodd" fill-opacity="1" /><path clip-path="url(#clip980)" d="M2005.34 34.0924 L2005.34 9.54393 L2012.79 9.54393 L2012.79 72.576 L2005.34 72.576 L2005.34 65.7705 Q2002.99 69.8214 1999.38 71.8063 Q1995.82 73.7508 1990.79 73.7508 Q1982.57 73.7508 1977.38 67.1883 Q1972.24 60.6258 1972.24 49.9314 Q1972.24 39.2371 1977.38 32.6746 Q1982.57 26.1121 1990.79 26.1121 Q1995.82 26.1121 1999.38 28.0971 Q2002.99 30.0415 2005.34 34.0924 M1979.94 49.9314 Q1979.94 58.1548 1983.3 62.8538 Q1986.7 67.5124 1992.62 67.5124 Q1998.53 67.5124 2001.93 62.8538 Q2005.34 58.1548 2005.34 49.9314 Q2005.34 41.7081 2001.93 37.0496 Q1998.53 32.3505 1992.62 32.3505 Q1986.7 32.3505 1983.3 37.0496 Q1979.94 41.7081 1979.94 49.9314 Z" fill="#000000" fill-rule="evenodd" fill-opacity="1" /><path clip-path="url(#clip980)" d="M2028.14 27.2059 L2035.6 27.2059 L2035.6 72.576 L2028.14 72.576 L2028.14 27.2059 M2028.14 9.54393 L2035.6 9.54393 L2035.6 18.9825 L2028.14 18.9825 L2028.14 9.54393 Z" fill="#000000" fill-rule="evenodd" fill-opacity="1" /><path clip-path="url(#clip980)" d="M2071.81 49.7694 Q2062.78 49.7694 2059.29 51.8354 Q2055.81 53.9013 2055.81 58.8839 Q2055.81 62.8538 2058.4 65.2034 Q2061.04 67.5124 2065.53 67.5124 Q2071.73 67.5124 2075.46 63.1374 Q2079.22 58.7219 2079.22 51.4303 L2079.22 49.7694 L2071.81 49.7694 M2086.68 46.6907 L2086.68 72.576 L2079.22 72.576 L2079.22 65.6895 Q2076.67 69.8214 2072.86 71.8063 Q2069.06 73.7508 2063.55 73.7508 Q2056.58 73.7508 2052.45 69.8619 Q2048.36 65.9325 2048.36 59.3701 Q2048.36 51.7138 2053.46 47.825 Q2058.61 43.9361 2068.77 43.9361 L2079.22 43.9361 L2079.22 43.2069 Q2079.22 38.0623 2075.82 35.2672 Q2072.46 32.4315 2066.34 32.4315 Q2062.45 32.4315 2058.77 33.3632 Q2055.08 34.295 2051.68 36.1584 L2051.68 29.2718 Q2055.77 27.692 2059.62 26.9223 Q2063.47 26.1121 2067.11 26.1121 Q2076.96 26.1121 2081.82 31.2163 Q2086.68 36.3204 2086.68 46.6907 Z" fill="#000000" fill-rule="evenodd" fill-opacity="1" /><polyline clip-path="url(#clip982)" style="stroke:#009af9; stroke-linecap:butt; stroke-linejoin:round; stroke-width:4; stroke-opacity:1; fill:none" points="
  335.042,1447.87 339.228,1447.87 343.413,1447.87 347.599,1447.87 351.785,1447.87 355.971,1447.87 360.157,1447.87 364.342,1447.86 368.528,1447.86 372.714,1447.86 
  376.9,1447.86 381.085,1447.86 385.271,1447.86 389.457,1447.85 393.643,1447.85 397.829,1447.85 402.014,1447.84 406.2,1447.84 410.386,1447.83 414.572,1447.83 
  418.758,1447.82 422.943,1447.81 427.129,1447.8 431.315,1447.79 435.501,1447.78 439.686,1447.77 443.872,1447.75 448.058,1447.73 452.244,1447.71 456.43,1447.68 
  460.615,1447.66 464.801,1447.62 468.987,1447.59 473.173,1447.54 477.358,1447.49 481.544,1447.43 485.73,1447.37 489.916,1447.29 494.102,1447.2 498.287,1447.1 
  502.473,1446.99 506.659,1446.85 510.845,1446.7 515.03,1446.52 519.216,1446.32 523.402,1446.09 527.588,1445.82 531.774,1445.51 535.959,1445.15 540.145,1444.74 
  544.331,1444.27 548.517,1443.72 552.703,1443.1 556.888,1442.38 561.074,1441.55 565.26,1440.6 569.446,1439.5 573.631,1438.24 577.817,1436.8 582.003,1435.13 
  586.189,1433.22 590.375,1431.03 594.56,1428.5 598.746,1425.61 602.932,1422.28 607.118,1418.46 611.303,1414.09 615.489,1409.07 619.675,1403.32 623.861,1396.74 
  628.047,1389.21 632.232,1380.6 636.418,1370.77 640.604,1359.57 644.79,1346.81 648.975,1332.3 653.161,1315.83 657.347,1297.18 661.533,1276.11 665.719,1252.36 
  669.904,1225.68 674.09,1195.82 678.276,1162.52 682.462,1125.57 686.648,1084.78 690.833,1040.01 695.019,991.201 699.205,938.403 703.391,881.779 707.576,821.642 
  711.762,758.483 715.948,692.978 720.134,626.007 724.32,558.647 728.505,492.155 732.691,427.938 736.877,367.497 741.063,312.366 745.248,264.028 749.434,223.835 
  753.62,192.926 757.806,172.156 761.992,162.047 766.177,162.758 770.363,174.084 774.549,195.486 778.735,226.126 782.92,264.939 787.106,310.697 791.292,362.085 
  795.478,417.763 799.664,476.429 803.849,536.863 808.035,597.962 812.221,658.762 816.407,718.447 820.593,776.351 824.778,831.956 828.964,884.872 833.15,934.832 
  837.336,981.671 841.521,1025.31 845.707,1065.76 849.893,1103.05 854.079,1137.28 858.265,1168.6 862.45,1197.14 866.636,1223.07 870.822,1246.56 875.008,1267.81 
  879.193,1286.96 883.379,1304.21 887.565,1319.71 891.751,1333.62 895.937,1346.08 900.122,1357.24 904.308,1367.21 908.494,1376.12 912.68,1384.07 916.865,1391.16 
  921.051,1397.48 925.237,1403.1 929.423,1408.11 933.609,1412.57 937.794,1416.53 941.98,1420.05 946.166,1423.18 950.352,1425.97 954.538,1428.44 958.723,1430.63 
  962.909,1432.58 967.095,1434.31 971.281,1435.84 975.466,1437.2 979.652,1438.41 983.838,1439.48 988.024,1440.43 992.21,1441.28 996.395,1442.02 1000.58,1442.69 
  1004.77,1443.28 1008.95,1443.8 1013.14,1444.26 1017.32,1444.67 1021.51,1445.03 1025.7,1445.36 1029.88,1445.64 1034.07,1445.89 1038.25,1446.12 1042.44,1446.32 
  1046.62,1446.5 1050.81,1446.65 1055,1446.79 1059.18,1446.91 1063.37,1447.02 1067.55,1447.12 1071.74,1447.2 1075.93,1447.28 1080.11,1447.35 1084.3,1447.41 
  1088.48,1447.46 1092.67,1447.51 1096.85,1447.55 1101.04,1447.59 1105.23,1447.62 1109.41,1447.65 1113.6,1447.67 1117.78,1447.7 1121.97,1447.72 1126.15,1447.73 
  1130.34,1447.75 1134.53,1447.76 1138.71,1447.78 1142.9,1447.79 1147.08,1447.8 1151.27,1447.81 1155.46,1447.81 1159.64,1447.82 1163.83,1447.83 1168.01,1447.83 
  1172.2,1447.84 1176.38,1447.84 1180.57,1447.84 1184.76,1447.85 1188.94,1447.85 1193.13,1447.85 1197.31,1447.86 1201.5,1447.86 1205.68,1447.86 1209.87,1447.86 
  1214.06,1447.86 1218.24,1447.86 1222.43,1447.86 1226.61,1447.87 1230.8,1447.87 1234.98,1447.87 1239.17,1447.87 1243.36,1447.87 1247.54,1447.87 1251.73,1447.87 
  1255.91,1447.87 1260.1,1447.87 1264.29,1447.87 1268.47,1447.87 1272.66,1447.87 1276.84,1447.87 1281.03,1447.87 1285.21,1447.87 1289.4,1447.87 1293.59,1447.87 
  1297.77,1447.87 1301.96,1447.87 1306.14,1447.87 1310.33,1447.87 1314.51,1447.87 1318.7,1447.87 1322.89,1447.87 1327.07,1447.87 1331.26,1447.87 1335.44,1447.87 
  1339.63,1447.87 1343.82,1447.87 1348,1447.87 1352.19,1447.87 1356.37,1447.87 1360.56,1447.87 1364.74,1447.87 1368.93,1447.87 1373.12,1447.87 1377.3,1447.87 
  1381.49,1447.87 1385.67,1447.87 1389.86,1447.87 1394.04,1447.87 1398.23,1447.87 1402.42,1447.87 1406.6,1447.87 1410.79,1447.87 1414.97,1447.87 1419.16,1447.87 
  1423.35,1447.87 1427.53,1447.87 1431.72,1447.87 1435.9,1447.87 1440.09,1447.87 1444.27,1447.87 1448.46,1447.87 1452.65,1447.87 1456.83,1447.87 1461.02,1447.87 
  1465.2,1447.87 1469.39,1447.87 1473.57,1447.87 1477.76,1447.87 1481.95,1447.87 1486.13,1447.87 1490.32,1447.87 1494.5,1447.87 1498.69,1447.87 1502.87,1447.87 
  1507.06,1447.87 1511.25,1447.87 1515.43,1447.87 1519.62,1447.87 1523.8,1447.87 1527.99,1447.87 1532.18,1447.87 1536.36,1447.87 1540.55,1447.87 1544.73,1447.87 
  1548.92,1447.87 1553.1,1447.87 1557.29,1447.87 1561.48,1447.87 1565.66,1447.87 1569.85,1447.87 1574.03,1447.87 1578.22,1447.87 1582.4,1447.87 1586.59,1447.87 
  1590.78,1447.87 1594.96,1447.87 1599.15,1447.87 1603.33,1447.87 1607.52,1447.87 1611.71,1447.87 1615.89,1447.87 1620.08,1447.87 1624.26,1447.87 1628.45,1447.87 
  1632.63,1447.87 1636.82,1447.87 1641.01,1447.87 1645.19,1447.87 1649.38,1447.87 1653.56,1447.87 1657.75,1447.87 1661.93,1447.87 1666.12,1447.87 1670.31,1447.87 
  1674.49,1447.87 1678.68,1447.87 1682.86,1447.87 1687.05,1447.87 1691.24,1447.87 1695.42,1447.87 1699.61,1447.87 1703.79,1447.87 1707.98,1447.87 1712.16,1447.87 
  1716.35,1447.87 1720.54,1447.87 1724.72,1447.87 1728.91,1447.87 1733.09,1447.87 1737.28,1447.87 1741.46,1447.87 1745.65,1447.87 1749.84,1447.87 1754.02,1447.87 
  1758.21,1447.87 1762.39,1447.87 1766.58,1447.87 1770.76,1447.87 1774.95,1447.87 1779.14,1447.87 1783.32,1447.87 1787.51,1447.87 1791.69,1447.87 1795.88,1447.87 
  1800.07,1447.87 1804.25,1447.87 1808.44,1447.87 1812.62,1447.87 1816.81,1447.87 1820.99,1447.87 1825.18,1447.87 1829.37,1447.87 1833.55,1447.87 1837.74,1447.87 
  1841.92,1447.87 1846.11,1447.87 1850.29,1447.87 1854.48,1447.87 1858.67,1447.87 1862.85,1447.87 1867.04,1447.87 1871.22,1447.87 1875.41,1447.87 1879.6,1447.87 
  1883.78,1447.87 1887.97,1447.87 1892.15,1447.87 1896.34,1447.87 1900.52,1447.87 1904.71,1447.87 1908.9,1447.87 1913.08,1447.87 1917.27,1447.87 1921.45,1447.87 
  1925.64,1447.87 1929.82,1447.87 1934.01,1447.87 1938.2,1447.87 1942.38,1447.87 1946.57,1447.87 1950.75,1447.87 1954.94,1447.87 1959.13,1447.87 1963.31,1447.87 
  1967.5,1447.87 1971.68,1447.87 1975.87,1447.87 1980.05,1447.87 1984.24,1447.87 1988.43,1447.87 1992.61,1447.87 1996.8,1447.87 2000.98,1447.87 2005.17,1447.87 
  2009.35,1447.87 2013.54,1447.87 2017.73,1447.87 2021.91,1447.87 2026.1,1447.87 2030.28,1447.87 2034.47,1447.87 2038.65,1447.87 2042.84,1447.87 2047.03,1447.87 
  2051.21,1447.87 2055.4,1447.87 2059.58,1447.87 2063.77,1447.87 2067.96,1447.87 2072.14,1447.87 2076.33,1447.87 2080.51,1447.87 2084.7,1447.87 2088.88,1447.87 
  2093.07,1447.87 2097.26,1447.87 2101.44,1447.87 2105.63,1447.87 2109.81,1447.87 2114,1447.87 2118.18,1447.87 2122.37,1447.87 2126.56,1447.87 2130.74,1447.87 
  2134.93,1447.87 2139.11,1447.87 2143.3,1447.87 2147.49,1447.87 2151.67,1447.87 2155.86,1447.87 2160.04,1447.87 2164.23,1447.87 2168.41,1447.87 2172.6,1447.87 
  2176.79,1447.87 2180.97,1447.87 2185.16,1447.87 2189.34,1447.87 2193.53,1447.87 2197.71,1447.87 2201.9,1447.87 2206.09,1447.87 2210.27,1447.87 2214.46,1447.87 
  2218.64,1447.87 2222.83,1447.87 2227.02,1447.87 2231.2,1447.87 2235.39,1447.87 2239.57,1447.87 2243.76,1447.87 2247.94,1447.87 2252.13,1447.87 2256.32,1447.87 
  2260.5,1447.87 2264.69,1447.87 2268.87,1447.87 2273.06,1447.87 2277.24,1447.87 2281.43,1447.87 2285.62,1447.87 2289.8,1447.87 2293.99,1447.87 
  "/>
<path clip-path="url(#clip980)" d="
M2000.39 272.585 L2283.54 272.585 L2283.54 168.905 L2000.39 168.905  Z
  " fill="#ffffff" fill-rule="evenodd" fill-opacity="1"/>
<polyline clip-path="url(#clip980)" style="stroke:#000000; stroke-linecap:butt; stroke-linejoin:round; stroke-width:4; stroke-opacity:1; fill:none" points="
  2000.39,272.585 2283.54,272.585 2283.54,168.905 2000.39,168.905 2000.39,272.585 
  "/>
<polyline clip-path="url(#clip980)" style="stroke:#009af9; stroke-linecap:butt; stroke-linejoin:round; stroke-width:4; stroke-opacity:1; fill:none" points="
  2023.46,220.745 2161.89,220.745 
  "/>
<path clip-path="url(#clip980)" d="M2198.81 240.432 Q2197 245.062 2195.29 246.474 Q2193.58 247.886 2190.71 247.886 L2187.3 247.886 L2187.3 244.321 L2189.8 244.321 Q2191.56 244.321 2192.53 243.488 Q2193.51 242.654 2194.69 239.552 L2195.45 237.608 L2184.97 212.099 L2189.48 212.099 L2197.58 232.377 L2205.68 212.099 L2210.2 212.099 L2198.81 240.432 Z" fill="#000000" fill-rule="evenodd" fill-opacity="1" /><path clip-path="url(#clip980)" d="M2217.49 234.089 L2225.13 234.089 L2225.13 207.724 L2216.82 209.391 L2216.82 205.131 L2225.08 203.465 L2229.76 203.465 L2229.76 234.089 L2237.4 234.089 L2237.4 238.025 L2217.49 238.025 L2217.49 234.089 Z" fill="#000000" fill-rule="evenodd" fill-opacity="1" /></svg>
