<?xml version="1.0" encoding="utf-8"?>
<svg xmlns="http://www.w3.org/2000/svg" xmlns:xlink="http://www.w3.org/1999/xlink" width="600" height="400" viewBox="0 0 2400 1600">
<defs>
  <clipPath id="clip680">
    <rect x="0" y="0" width="2400" height="1600"/>
  </clipPath>
</defs>
<path clip-path="url(#clip680)" d="
M0 1600 L2400 1600 L2400 0 L0 0  Z
  " fill="#ffffff" fill-rule="evenodd" fill-opacity="1"/>
<defs>
  <clipPath id="clip681">
    <rect x="480" y="0" width="1681" height="1600"/>
  </clipPath>
</defs>
<path clip-path="url(#clip680)" d="
M186.274 1486.45 L2352.76 1486.45 L2352.76 123.472 L186.274 123.472  Z
  " fill="#ffffff" fill-rule="evenodd" fill-opacity="1"/>
<defs>
  <clipPath id="clip682">
    <rect x="186" y="123" width="2167" height="1364"/>
  </clipPath>
</defs>
<polyline clip-path="url(#clip682)" style="stroke:#000000; stroke-linecap:butt; stroke-linejoin:round; stroke-width:2; stroke-opacity:0.1; fill:none" points="
  243.222,1486.45 243.222,123.472 
  "/>
<polyline clip-path="url(#clip682)" style="stroke:#000000; stroke-linecap:butt; stroke-linejoin:round; stroke-width:2; stroke-opacity:0.1; fill:none" points="
  679.943,1486.45 679.943,123.472 
  "/>
<polyline clip-path="url(#clip682)" style="stroke:#000000; stroke-linecap:butt; stroke-linejoin:round; stroke-width:2; stroke-opacity:0.1; fill:none" points="
  1116.66,1486.45 1116.66,123.472 
  "/>
<polyline clip-path="url(#clip682)" style="stroke:#000000; stroke-linecap:butt; stroke-linejoin:round; stroke-width:2; stroke-opacity:0.1; fill:none" points="
  1553.38,1486.45 1553.38,123.472 
  "/>
<polyline clip-path="url(#clip682)" style="stroke:#000000; stroke-linecap:butt; stroke-linejoin:round; stroke-width:2; stroke-opacity:0.1; fill:none" points="
  1990.1,1486.45 1990.1,123.472 
  "/>
<polyline clip-path="url(#clip680)" style="stroke:#000000; stroke-linecap:butt; stroke-linejoin:round; stroke-width:4; stroke-opacity:1; fill:none" points="
  186.274,1486.45 2352.76,1486.45 
  "/>
<polyline clip-path="url(#clip680)" style="stroke:#000000; stroke-linecap:butt; stroke-linejoin:round; stroke-width:4; stroke-opacity:1; fill:none" points="
  243.222,1486.45 243.222,1467.55 
  "/>
<polyline clip-path="url(#clip680)" style="stroke:#000000; stroke-linecap:butt; stroke-linejoin:round; stroke-width:4; stroke-opacity:1; fill:none" points="
  679.943,1486.45 679.943,1467.55 
  "/>
<polyline clip-path="url(#clip680)" style="stroke:#000000; stroke-linecap:butt; stroke-linejoin:round; stroke-width:4; stroke-opacity:1; fill:none" points="
  1116.66,1486.45 1116.66,1467.55 
  "/>
<polyline clip-path="url(#clip680)" style="stroke:#000000; stroke-linecap:butt; stroke-linejoin:round; stroke-width:4; stroke-opacity:1; fill:none" points="
  1553.38,1486.45 1553.38,1467.55 
  "/>
<polyline clip-path="url(#clip680)" style="stroke:#000000; stroke-linecap:butt; stroke-linejoin:round; stroke-width:4; stroke-opacity:1; fill:none" points="
  1990.1,1486.45 1990.1,1467.55 
  "/>
<path clip-path="url(#clip680)" d="M243.222 1515.64 Q239.611 1515.64 237.783 1519.2 Q235.977 1522.75 235.977 1529.87 Q235.977 1536.98 237.783 1540.55 Q239.611 1544.09 243.222 1544.09 Q246.857 1544.09 248.662 1540.55 Q250.491 1536.98 250.491 1529.87 Q250.491 1522.75 248.662 1519.2 Q246.857 1515.64 243.222 1515.64 M243.222 1511.93 Q249.032 1511.93 252.088 1516.54 Q255.167 1521.12 255.167 1529.87 Q255.167 1538.6 252.088 1543.21 Q249.032 1547.79 243.222 1547.79 Q237.412 1547.79 234.333 1543.21 Q231.278 1538.6 231.278 1529.87 Q231.278 1521.12 234.333 1516.54 Q237.412 1511.93 243.222 1511.93 Z" fill="#000000" fill-rule="evenodd" fill-opacity="1" /><path clip-path="url(#clip680)" d="M639.549 1543.18 L647.188 1543.18 L647.188 1516.82 L638.878 1518.49 L638.878 1514.23 L647.142 1512.56 L651.818 1512.56 L651.818 1543.18 L659.457 1543.18 L659.457 1547.12 L639.549 1547.12 L639.549 1543.18 Z" fill="#000000" fill-rule="evenodd" fill-opacity="1" /><path clip-path="url(#clip680)" d="M678.901 1515.64 Q675.29 1515.64 673.461 1519.2 Q671.656 1522.75 671.656 1529.87 Q671.656 1536.98 673.461 1540.55 Q675.29 1544.09 678.901 1544.09 Q682.535 1544.09 684.341 1540.55 Q686.169 1536.98 686.169 1529.87 Q686.169 1522.75 684.341 1519.2 Q682.535 1515.64 678.901 1515.64 M678.901 1511.93 Q684.711 1511.93 687.767 1516.54 Q690.845 1521.12 690.845 1529.87 Q690.845 1538.6 687.767 1543.21 Q684.711 1547.79 678.901 1547.79 Q673.091 1547.79 670.012 1543.21 Q666.957 1538.6 666.957 1529.87 Q666.957 1521.12 670.012 1516.54 Q673.091 1511.93 678.901 1511.93 Z" fill="#000000" fill-rule="evenodd" fill-opacity="1" /><path clip-path="url(#clip680)" d="M709.063 1515.64 Q705.452 1515.64 703.623 1519.2 Q701.817 1522.75 701.817 1529.87 Q701.817 1536.98 703.623 1540.55 Q705.452 1544.09 709.063 1544.09 Q712.697 1544.09 714.503 1540.55 Q716.331 1536.98 716.331 1529.87 Q716.331 1522.75 714.503 1519.2 Q712.697 1515.64 709.063 1515.64 M709.063 1511.93 Q714.873 1511.93 717.928 1516.54 Q721.007 1521.12 721.007 1529.87 Q721.007 1538.6 717.928 1543.21 Q714.873 1547.79 709.063 1547.79 Q703.253 1547.79 700.174 1543.21 Q697.118 1538.6 697.118 1529.87 Q697.118 1521.12 700.174 1516.54 Q703.253 1511.93 709.063 1511.93 Z" fill="#000000" fill-rule="evenodd" fill-opacity="1" /><path clip-path="url(#clip680)" d="M1080.36 1543.18 L1096.67 1543.18 L1096.67 1547.12 L1074.73 1547.12 L1074.73 1543.18 Q1077.39 1540.43 1081.98 1535.8 Q1086.58 1531.15 1087.76 1529.81 Q1090.01 1527.28 1090.89 1525.55 Q1091.79 1523.79 1091.79 1522.1 Q1091.79 1519.34 1089.85 1517.61 Q1087.92 1515.87 1084.82 1515.87 Q1082.62 1515.87 1080.17 1516.63 Q1077.74 1517.4 1074.96 1518.95 L1074.96 1514.23 Q1077.79 1513.09 1080.24 1512.51 Q1082.69 1511.93 1084.73 1511.93 Q1090.1 1511.93 1093.29 1514.62 Q1096.49 1517.31 1096.49 1521.8 Q1096.49 1523.93 1095.68 1525.85 Q1094.89 1527.74 1092.79 1530.34 Q1092.21 1531.01 1089.11 1534.23 Q1086 1537.42 1080.36 1543.18 Z" fill="#000000" fill-rule="evenodd" fill-opacity="1" /><path clip-path="url(#clip680)" d="M1116.49 1515.64 Q1112.88 1515.64 1111.05 1519.2 Q1109.24 1522.75 1109.24 1529.87 Q1109.24 1536.98 1111.05 1540.55 Q1112.88 1544.09 1116.49 1544.09 Q1120.12 1544.09 1121.93 1540.55 Q1123.76 1536.98 1123.76 1529.87 Q1123.76 1522.75 1121.93 1519.2 Q1120.12 1515.64 1116.49 1515.64 M1116.49 1511.93 Q1122.3 1511.93 1125.35 1516.54 Q1128.43 1521.12 1128.43 1529.87 Q1128.43 1538.6 1125.35 1543.21 Q1122.3 1547.79 1116.49 1547.79 Q1110.68 1547.79 1107.6 1543.21 Q1104.54 1538.6 1104.54 1529.87 Q1104.54 1521.12 1107.6 1516.54 Q1110.68 1511.93 1116.49 1511.93 Z" fill="#000000" fill-rule="evenodd" fill-opacity="1" /><path clip-path="url(#clip680)" d="M1146.65 1515.64 Q1143.04 1515.64 1141.21 1519.2 Q1139.41 1522.75 1139.41 1529.87 Q1139.41 1536.98 1141.21 1540.55 Q1143.04 1544.09 1146.65 1544.09 Q1150.29 1544.09 1152.09 1540.55 Q1153.92 1536.98 1153.92 1529.87 Q1153.92 1522.75 1152.09 1519.2 Q1150.29 1515.64 1146.65 1515.64 M1146.65 1511.93 Q1152.46 1511.93 1155.52 1516.54 Q1158.6 1521.12 1158.6 1529.87 Q1158.6 1538.6 1155.52 1543.21 Q1152.46 1547.79 1146.65 1547.79 Q1140.84 1547.79 1137.76 1543.21 Q1134.71 1538.6 1134.71 1529.87 Q1134.71 1521.12 1137.76 1516.54 Q1140.84 1511.93 1146.65 1511.93 Z" fill="#000000" fill-rule="evenodd" fill-opacity="1" /><path clip-path="url(#clip680)" d="M1527.14 1528.49 Q1530.5 1529.2 1532.38 1531.47 Q1534.27 1533.74 1534.27 1537.07 Q1534.27 1542.19 1530.76 1544.99 Q1527.24 1547.79 1520.76 1547.79 Q1518.58 1547.79 1516.27 1547.35 Q1513.97 1546.93 1511.52 1546.08 L1511.52 1541.56 Q1513.46 1542.7 1515.78 1543.28 Q1518.09 1543.86 1520.62 1543.86 Q1525.02 1543.86 1527.31 1542.12 Q1529.62 1540.38 1529.62 1537.07 Q1529.62 1534.02 1527.47 1532.31 Q1525.34 1530.57 1521.52 1530.57 L1517.49 1530.57 L1517.49 1526.73 L1521.71 1526.73 Q1525.15 1526.73 1526.98 1525.36 Q1528.81 1523.97 1528.81 1521.38 Q1528.81 1518.72 1526.91 1517.31 Q1525.04 1515.87 1521.52 1515.87 Q1519.6 1515.87 1517.4 1516.29 Q1515.2 1516.7 1512.56 1517.58 L1512.56 1513.42 Q1515.22 1512.68 1517.54 1512.31 Q1519.88 1511.93 1521.94 1511.93 Q1527.26 1511.93 1530.36 1514.37 Q1533.46 1516.77 1533.46 1520.89 Q1533.46 1523.76 1531.82 1525.75 Q1530.18 1527.72 1527.14 1528.49 Z" fill="#000000" fill-rule="evenodd" fill-opacity="1" /><path clip-path="url(#clip680)" d="M1553.14 1515.64 Q1549.53 1515.64 1547.7 1519.2 Q1545.89 1522.75 1545.89 1529.87 Q1545.89 1536.98 1547.7 1540.55 Q1549.53 1544.09 1553.14 1544.09 Q1556.77 1544.09 1558.58 1540.55 Q1560.41 1536.98 1560.41 1529.87 Q1560.41 1522.75 1558.58 1519.2 Q1556.77 1515.64 1553.14 1515.64 M1553.14 1511.93 Q1558.95 1511.93 1562.01 1516.54 Q1565.08 1521.12 1565.08 1529.87 Q1565.08 1538.6 1562.01 1543.21 Q1558.95 1547.79 1553.14 1547.79 Q1547.33 1547.79 1544.25 1543.21 Q1541.2 1538.6 1541.2 1529.87 Q1541.2 1521.12 1544.25 1516.54 Q1547.33 1511.93 1553.14 1511.93 Z" fill="#000000" fill-rule="evenodd" fill-opacity="1" /><path clip-path="url(#clip680)" d="M1583.3 1515.64 Q1579.69 1515.64 1577.86 1519.2 Q1576.06 1522.75 1576.06 1529.87 Q1576.06 1536.98 1577.86 1540.55 Q1579.69 1544.09 1583.3 1544.09 Q1586.94 1544.09 1588.74 1540.55 Q1590.57 1536.98 1590.57 1529.87 Q1590.57 1522.75 1588.74 1519.2 Q1586.94 1515.64 1583.3 1515.64 M1583.3 1511.93 Q1589.11 1511.93 1592.17 1516.54 Q1595.25 1521.12 1595.25 1529.87 Q1595.25 1538.6 1592.17 1543.21 Q1589.11 1547.79 1583.3 1547.79 Q1577.49 1547.79 1574.41 1543.21 Q1571.36 1538.6 1571.36 1529.87 Q1571.36 1521.12 1574.41 1516.54 Q1577.49 1511.93 1583.3 1511.93 Z" fill="#000000" fill-rule="evenodd" fill-opacity="1" /><path clip-path="url(#clip680)" d="M1963.19 1516.63 L1951.39 1535.08 L1963.19 1535.08 L1963.19 1516.63 M1961.97 1512.56 L1967.85 1512.56 L1967.85 1535.08 L1972.78 1535.08 L1972.78 1538.97 L1967.85 1538.97 L1967.85 1547.12 L1963.19 1547.12 L1963.19 1538.97 L1947.59 1538.97 L1947.59 1534.46 L1961.97 1512.56 Z" fill="#000000" fill-rule="evenodd" fill-opacity="1" /><path clip-path="url(#clip680)" d="M1990.51 1515.64 Q1986.9 1515.64 1985.07 1519.2 Q1983.26 1522.75 1983.26 1529.87 Q1983.26 1536.98 1985.07 1540.55 Q1986.9 1544.09 1990.51 1544.09 Q1994.14 1544.09 1995.95 1540.55 Q1997.78 1536.98 1997.78 1529.87 Q1997.78 1522.75 1995.95 1519.2 Q1994.14 1515.64 1990.51 1515.64 M1990.51 1511.93 Q1996.32 1511.93 1999.37 1516.54 Q2002.45 1521.12 2002.45 1529.87 Q2002.45 1538.6 1999.37 1543.21 Q1996.32 1547.79 1990.51 1547.79 Q1984.7 1547.79 1981.62 1543.21 Q1978.56 1538.6 1978.56 1529.87 Q1978.56 1521.12 1981.62 1516.54 Q1984.7 1511.93 1990.51 1511.93 Z" fill="#000000" fill-rule="evenodd" fill-opacity="1" /><path clip-path="url(#clip680)" d="M2020.67 1515.64 Q2017.06 1515.64 2015.23 1519.2 Q2013.43 1522.75 2013.43 1529.87 Q2013.43 1536.98 2015.23 1540.55 Q2017.06 1544.09 2020.67 1544.09 Q2024.3 1544.09 2026.11 1540.55 Q2027.94 1536.98 2027.94 1529.87 Q2027.94 1522.75 2026.11 1519.2 Q2024.3 1515.64 2020.67 1515.64 M2020.67 1511.93 Q2026.48 1511.93 2029.54 1516.54 Q2032.61 1521.12 2032.61 1529.87 Q2032.61 1538.6 2029.54 1543.21 Q2026.48 1547.79 2020.67 1547.79 Q2014.86 1547.79 2011.78 1543.21 Q2008.73 1538.6 2008.73 1529.87 Q2008.73 1521.12 2011.78 1516.54 Q2014.86 1511.93 2020.67 1511.93 Z" fill="#000000" fill-rule="evenodd" fill-opacity="1" /><polyline clip-path="url(#clip682)" style="stroke:#000000; stroke-linecap:butt; stroke-linejoin:round; stroke-width:2; stroke-opacity:0.1; fill:none" points="
  186.274,1447.87 2352.76,1447.87 
  "/>
<polyline clip-path="url(#clip682)" style="stroke:#000000; stroke-linecap:butt; stroke-linejoin:round; stroke-width:2; stroke-opacity:0.1; fill:none" points="
  186.274,1126.42 2352.76,1126.42 
  "/>
<polyline clip-path="url(#clip682)" style="stroke:#000000; stroke-linecap:butt; stroke-linejoin:round; stroke-width:2; stroke-opacity:0.1; fill:none" points="
  186.274,804.959 2352.76,804.959 
  "/>
<polyline clip-path="url(#clip682)" style="stroke:#000000; stroke-linecap:butt; stroke-linejoin:round; stroke-width:2; stroke-opacity:0.1; fill:none" points="
  186.274,483.502 2352.76,483.502 
  "/>
<polyline clip-path="url(#clip682)" style="stroke:#000000; stroke-linecap:butt; stroke-linejoin:round; stroke-width:2; stroke-opacity:0.1; fill:none" points="
  186.274,162.046 2352.76,162.046 
  "/>
<polyline clip-path="url(#clip680)" style="stroke:#000000; stroke-linecap:butt; stroke-linejoin:round; stroke-width:4; stroke-opacity:1; fill:none" points="
  186.274,1486.45 186.274,123.472 
  "/>
<polyline clip-path="url(#clip680)" style="stroke:#000000; stroke-linecap:butt; stroke-linejoin:round; stroke-width:4; stroke-opacity:1; fill:none" points="
  186.274,1447.87 205.172,1447.87 
  "/>
<polyline clip-path="url(#clip680)" style="stroke:#000000; stroke-linecap:butt; stroke-linejoin:round; stroke-width:4; stroke-opacity:1; fill:none" points="
  186.274,1126.42 205.172,1126.42 
  "/>
<polyline clip-path="url(#clip680)" style="stroke:#000000; stroke-linecap:butt; stroke-linejoin:round; stroke-width:4; stroke-opacity:1; fill:none" points="
  186.274,804.959 205.172,804.959 
  "/>
<polyline clip-path="url(#clip680)" style="stroke:#000000; stroke-linecap:butt; stroke-linejoin:round; stroke-width:4; stroke-opacity:1; fill:none" points="
  186.274,483.502 205.172,483.502 
  "/>
<polyline clip-path="url(#clip680)" style="stroke:#000000; stroke-linecap:butt; stroke-linejoin:round; stroke-width:4; stroke-opacity:1; fill:none" points="
  186.274,162.046 205.172,162.046 
  "/>
<path clip-path="url(#clip680)" d="M62.9365 1433.67 Q59.3254 1433.67 57.4967 1437.24 Q55.6912 1440.78 55.6912 1447.91 Q55.6912 1455.01 57.4967 1458.58 Q59.3254 1462.12 62.9365 1462.12 Q66.5707 1462.12 68.3763 1458.58 Q70.205 1455.01 70.205 1447.91 Q70.205 1440.78 68.3763 1437.24 Q66.5707 1433.67 62.9365 1433.67 M62.9365 1429.97 Q68.7467 1429.97 71.8022 1434.57 Q74.8809 1439.16 74.8809 1447.91 Q74.8809 1456.63 71.8022 1461.24 Q68.7467 1465.82 62.9365 1465.82 Q57.1264 1465.82 54.0477 1461.24 Q50.9921 1456.63 50.9921 1447.91 Q50.9921 1439.16 54.0477 1434.57 Q57.1264 1429.97 62.9365 1429.97 Z" fill="#000000" fill-rule="evenodd" fill-opacity="1" /><path clip-path="url(#clip680)" d="M83.0984 1459.27 L87.9827 1459.27 L87.9827 1465.15 L83.0984 1465.15 L83.0984 1459.27 Z" fill="#000000" fill-rule="evenodd" fill-opacity="1" /><path clip-path="url(#clip680)" d="M108.168 1433.67 Q104.557 1433.67 102.728 1437.24 Q100.922 1440.78 100.922 1447.91 Q100.922 1455.01 102.728 1458.58 Q104.557 1462.12 108.168 1462.12 Q111.802 1462.12 113.608 1458.58 Q115.436 1455.01 115.436 1447.91 Q115.436 1440.78 113.608 1437.24 Q111.802 1433.67 108.168 1433.67 M108.168 1429.97 Q113.978 1429.97 117.033 1434.57 Q120.112 1439.16 120.112 1447.91 Q120.112 1456.63 117.033 1461.24 Q113.978 1465.82 108.168 1465.82 Q102.358 1465.82 99.2789 1461.24 Q96.2234 1456.63 96.2234 1447.91 Q96.2234 1439.16 99.2789 1434.57 Q102.358 1429.97 108.168 1429.97 Z" fill="#000000" fill-rule="evenodd" fill-opacity="1" /><path clip-path="url(#clip680)" d="M138.33 1433.67 Q134.719 1433.67 132.89 1437.24 Q131.084 1440.78 131.084 1447.91 Q131.084 1455.01 132.89 1458.58 Q134.719 1462.12 138.33 1462.12 Q141.964 1462.12 143.769 1458.58 Q145.598 1455.01 145.598 1447.91 Q145.598 1440.78 143.769 1437.24 Q141.964 1433.67 138.33 1433.67 M138.33 1429.97 Q144.14 1429.97 147.195 1434.57 Q150.274 1439.16 150.274 1447.91 Q150.274 1456.63 147.195 1461.24 Q144.14 1465.82 138.33 1465.82 Q132.519 1465.82 129.441 1461.24 Q126.385 1456.63 126.385 1447.91 Q126.385 1439.16 129.441 1434.57 Q132.519 1429.97 138.33 1429.97 Z" fill="#000000" fill-rule="evenodd" fill-opacity="1" /><path clip-path="url(#clip680)" d="M63.9319 1112.21 Q60.3208 1112.21 58.4921 1115.78 Q56.6865 1119.32 56.6865 1126.45 Q56.6865 1133.56 58.4921 1137.12 Q60.3208 1140.66 63.9319 1140.66 Q67.5661 1140.66 69.3717 1137.12 Q71.2004 1133.56 71.2004 1126.45 Q71.2004 1119.32 69.3717 1115.78 Q67.5661 1112.21 63.9319 1112.21 M63.9319 1108.51 Q69.742 1108.51 72.7976 1113.12 Q75.8763 1117.7 75.8763 1126.45 Q75.8763 1135.18 72.7976 1139.78 Q69.742 1144.37 63.9319 1144.37 Q58.1217 1144.37 55.043 1139.78 Q51.9875 1135.18 51.9875 1126.45 Q51.9875 1117.7 55.043 1113.12 Q58.1217 1108.51 63.9319 1108.51 Z" fill="#000000" fill-rule="evenodd" fill-opacity="1" /><path clip-path="url(#clip680)" d="M84.0938 1137.82 L88.978 1137.82 L88.978 1143.7 L84.0938 1143.7 L84.0938 1137.82 Z" fill="#000000" fill-rule="evenodd" fill-opacity="1" /><path clip-path="url(#clip680)" d="M103.191 1139.76 L119.51 1139.76 L119.51 1143.7 L97.566 1143.7 L97.566 1139.76 Q100.228 1137.01 104.811 1132.38 Q109.418 1127.72 110.598 1126.38 Q112.844 1123.86 113.723 1122.12 Q114.626 1120.36 114.626 1118.67 Q114.626 1115.92 112.682 1114.18 Q110.76 1112.45 107.658 1112.45 Q105.459 1112.45 103.006 1113.21 Q100.575 1113.97 97.7974 1115.53 L97.7974 1110.8 Q100.621 1109.67 103.075 1109.09 Q105.529 1108.51 107.566 1108.51 Q112.936 1108.51 116.131 1111.2 Q119.325 1113.88 119.325 1118.37 Q119.325 1120.5 118.515 1122.42 Q117.728 1124.32 115.621 1126.91 Q115.043 1127.59 111.941 1130.8 Q108.839 1134 103.191 1139.76 Z" fill="#000000" fill-rule="evenodd" fill-opacity="1" /><path clip-path="url(#clip680)" d="M129.371 1109.14 L147.728 1109.14 L147.728 1113.07 L133.654 1113.07 L133.654 1121.54 Q134.672 1121.2 135.691 1121.03 Q136.709 1120.85 137.728 1120.85 Q143.515 1120.85 146.894 1124.02 Q150.274 1127.19 150.274 1132.61 Q150.274 1138.19 146.802 1141.29 Q143.33 1144.37 137.01 1144.37 Q134.834 1144.37 132.566 1144 Q130.32 1143.63 127.913 1142.89 L127.913 1138.19 Q129.996 1139.32 132.219 1139.88 Q134.441 1140.43 136.918 1140.43 Q140.922 1140.43 143.26 1138.33 Q145.598 1136.22 145.598 1132.61 Q145.598 1129 143.26 1126.89 Q140.922 1124.78 136.918 1124.78 Q135.043 1124.78 133.168 1125.2 Q131.316 1125.62 129.371 1126.5 L129.371 1109.14 Z" fill="#000000" fill-rule="evenodd" fill-opacity="1" /><path clip-path="url(#clip680)" d="M62.9365 790.758 Q59.3254 790.758 57.4967 794.323 Q55.6912 797.864 55.6912 804.994 Q55.6912 812.101 57.4967 815.665 Q59.3254 819.207 62.9365 819.207 Q66.5707 819.207 68.3763 815.665 Q70.205 812.101 70.205 804.994 Q70.205 797.864 68.3763 794.323 Q66.5707 790.758 62.9365 790.758 M62.9365 787.054 Q68.7467 787.054 71.8022 791.661 Q74.8809 796.244 74.8809 804.994 Q74.8809 813.721 71.8022 818.327 Q68.7467 822.911 62.9365 822.911 Q57.1264 822.911 54.0477 818.327 Q50.9921 813.721 50.9921 804.994 Q50.9921 796.244 54.0477 791.661 Q57.1264 787.054 62.9365 787.054 Z" fill="#000000" fill-rule="evenodd" fill-opacity="1" /><path clip-path="url(#clip680)" d="M83.0984 816.36 L87.9827 816.36 L87.9827 822.239 L83.0984 822.239 L83.0984 816.36 Z" fill="#000000" fill-rule="evenodd" fill-opacity="1" /><path clip-path="url(#clip680)" d="M98.2141 787.679 L116.57 787.679 L116.57 791.615 L102.496 791.615 L102.496 800.087 Q103.515 799.739 104.534 799.577 Q105.552 799.392 106.571 799.392 Q112.358 799.392 115.737 802.564 Q119.117 805.735 119.117 811.151 Q119.117 816.73 115.645 819.832 Q112.172 822.911 105.853 822.911 Q103.677 822.911 101.409 822.54 Q99.1632 822.17 96.7558 821.429 L96.7558 816.73 Q98.8391 817.864 101.061 818.42 Q103.284 818.975 105.76 818.975 Q109.765 818.975 112.103 816.869 Q114.441 814.763 114.441 811.151 Q114.441 807.54 112.103 805.434 Q109.765 803.327 105.76 803.327 Q103.885 803.327 102.01 803.744 Q100.159 804.161 98.2141 805.04 L98.2141 787.679 Z" fill="#000000" fill-rule="evenodd" fill-opacity="1" /><path clip-path="url(#clip680)" d="M138.33 790.758 Q134.719 790.758 132.89 794.323 Q131.084 797.864 131.084 804.994 Q131.084 812.101 132.89 815.665 Q134.719 819.207 138.33 819.207 Q141.964 819.207 143.769 815.665 Q145.598 812.101 145.598 804.994 Q145.598 797.864 143.769 794.323 Q141.964 790.758 138.33 790.758 M138.33 787.054 Q144.14 787.054 147.195 791.661 Q150.274 796.244 150.274 804.994 Q150.274 813.721 147.195 818.327 Q144.14 822.911 138.33 822.911 Q132.519 822.911 129.441 818.327 Q126.385 813.721 126.385 804.994 Q126.385 796.244 129.441 791.661 Q132.519 787.054 138.33 787.054 Z" fill="#000000" fill-rule="evenodd" fill-opacity="1" /><path clip-path="url(#clip680)" d="M63.9319 469.301 Q60.3208 469.301 58.4921 472.866 Q56.6865 476.408 56.6865 483.537 Q56.6865 490.644 58.4921 494.208 Q60.3208 497.75 63.9319 497.75 Q67.5661 497.75 69.3717 494.208 Q71.2004 490.644 71.2004 483.537 Q71.2004 476.408 69.3717 472.866 Q67.5661 469.301 63.9319 469.301 M63.9319 465.597 Q69.742 465.597 72.7976 470.204 Q75.8763 474.787 75.8763 483.537 Q75.8763 492.264 72.7976 496.87 Q69.742 501.454 63.9319 501.454 Q58.1217 501.454 55.043 496.87 Q51.9875 492.264 51.9875 483.537 Q51.9875 474.787 55.043 470.204 Q58.1217 465.597 63.9319 465.597 Z" fill="#000000" fill-rule="evenodd" fill-opacity="1" /><path clip-path="url(#clip680)" d="M84.0938 494.903 L88.978 494.903 L88.978 500.782 L84.0938 500.782 L84.0938 494.903 Z" fill="#000000" fill-rule="evenodd" fill-opacity="1" /><path clip-path="url(#clip680)" d="M97.9826 466.222 L120.205 466.222 L120.205 468.213 L107.658 500.782 L102.774 500.782 L114.58 470.158 L97.9826 470.158 L97.9826 466.222 Z" fill="#000000" fill-rule="evenodd" fill-opacity="1" /><path clip-path="url(#clip680)" d="M129.371 466.222 L147.728 466.222 L147.728 470.158 L133.654 470.158 L133.654 478.63 Q134.672 478.283 135.691 478.121 Q136.709 477.935 137.728 477.935 Q143.515 477.935 146.894 481.107 Q150.274 484.278 150.274 489.695 Q150.274 495.273 146.802 498.375 Q143.33 501.454 137.01 501.454 Q134.834 501.454 132.566 501.083 Q130.32 500.713 127.913 499.972 L127.913 495.273 Q129.996 496.408 132.219 496.963 Q134.441 497.519 136.918 497.519 Q140.922 497.519 143.26 495.412 Q145.598 493.306 145.598 489.695 Q145.598 486.083 143.26 483.977 Q140.922 481.871 136.918 481.871 Q135.043 481.871 133.168 482.287 Q131.316 482.704 129.371 483.584 L129.371 466.222 Z" fill="#000000" fill-rule="evenodd" fill-opacity="1" /><path clip-path="url(#clip680)" d="M53.7467 175.39 L61.3856 175.39 L61.3856 149.025 L53.0754 150.692 L53.0754 146.432 L61.3393 144.766 L66.0152 144.766 L66.0152 175.39 L73.654 175.39 L73.654 179.326 L53.7467 179.326 L53.7467 175.39 Z" fill="#000000" fill-rule="evenodd" fill-opacity="1" /><path clip-path="url(#clip680)" d="M83.0984 173.446 L87.9827 173.446 L87.9827 179.326 L83.0984 179.326 L83.0984 173.446 Z" fill="#000000" fill-rule="evenodd" fill-opacity="1" /><path clip-path="url(#clip680)" d="M108.168 147.844 Q104.557 147.844 102.728 151.409 Q100.922 154.951 100.922 162.08 Q100.922 169.187 102.728 172.752 Q104.557 176.293 108.168 176.293 Q111.802 176.293 113.608 172.752 Q115.436 169.187 115.436 162.08 Q115.436 154.951 113.608 151.409 Q111.802 147.844 108.168 147.844 M108.168 144.141 Q113.978 144.141 117.033 148.747 Q120.112 153.33 120.112 162.08 Q120.112 170.807 117.033 175.414 Q113.978 179.997 108.168 179.997 Q102.358 179.997 99.2789 175.414 Q96.2234 170.807 96.2234 162.08 Q96.2234 153.33 99.2789 148.747 Q102.358 144.141 108.168 144.141 Z" fill="#000000" fill-rule="evenodd" fill-opacity="1" /><path clip-path="url(#clip680)" d="M138.33 147.844 Q134.719 147.844 132.89 151.409 Q131.084 154.951 131.084 162.08 Q131.084 169.187 132.89 172.752 Q134.719 176.293 138.33 176.293 Q141.964 176.293 143.769 172.752 Q145.598 169.187 145.598 162.08 Q145.598 154.951 143.769 151.409 Q141.964 147.844 138.33 147.844 M138.33 144.141 Q144.14 144.141 147.195 148.747 Q150.274 153.33 150.274 162.08 Q150.274 170.807 147.195 175.414 Q144.14 179.997 138.33 179.997 Q132.519 179.997 129.441 175.414 Q126.385 170.807 126.385 162.08 Q126.385 153.33 129.441 148.747 Q132.519 144.141 138.33 144.141 Z" fill="#000000" fill-rule="evenodd" fill-opacity="1" /><path clip-path="url(#clip680)" d="M1018.08 12.096 L1030.27 12.096 L1045.7 53.2532 L1061.22 12.096 L1073.41 12.096 L1073.41 72.576 L1065.43 72.576 L1065.43 19.4686 L1049.83 60.9499 L1041.61 60.9499 L1026.02 19.4686 L1026.02 72.576 L1018.08 72.576 L1018.08 12.096 Z" fill="#000000" fill-rule="evenodd" fill-opacity="1" /><path clip-path="url(#clip680)" d="M1106.91 32.4315 Q1100.92 32.4315 1097.43 37.1306 Q1093.95 41.7891 1093.95 49.9314 Q1093.95 58.0738 1097.39 62.7728 Q1100.88 67.4314 1106.91 67.4314 Q1112.87 67.4314 1116.35 62.7323 Q1119.83 58.0333 1119.83 49.9314 Q1119.83 41.8701 1116.35 37.1711 Q1112.87 32.4315 1106.91 32.4315 M1106.91 26.1121 Q1116.63 26.1121 1122.18 32.4315 Q1127.73 38.7509 1127.73 49.9314 Q1127.73 61.0714 1122.18 67.4314 Q1116.63 73.7508 1106.91 73.7508 Q1097.15 73.7508 1091.6 67.4314 Q1086.09 61.0714 1086.09 49.9314 Q1086.09 38.7509 1091.6 32.4315 Q1097.15 26.1121 1106.91 26.1121 Z" fill="#000000" fill-rule="evenodd" fill-opacity="1" /><path clip-path="url(#clip680)" d="M1169.94 34.0924 L1169.94 9.54393 L1177.4 9.54393 L1177.4 72.576 L1169.94 72.576 L1169.94 65.7705 Q1167.59 69.8214 1163.99 71.8063 Q1160.42 73.7508 1155.4 73.7508 Q1147.18 73.7508 1141.99 67.1883 Q1136.85 60.6258 1136.85 49.9314 Q1136.85 39.2371 1141.99 32.6746 Q1147.18 26.1121 1155.4 26.1121 Q1160.42 26.1121 1163.99 28.0971 Q1167.59 30.0415 1169.94 34.0924 M1144.54 49.9314 Q1144.54 58.1548 1147.91 62.8538 Q1151.31 67.5124 1157.22 67.5124 Q1163.14 67.5124 1166.54 62.8538 Q1169.94 58.1548 1169.94 49.9314 Q1169.94 41.7081 1166.54 37.0496 Q1163.14 32.3505 1157.22 32.3505 Q1151.31 32.3505 1147.91 37.0496 Q1144.54 41.7081 1144.54 49.9314 Z" fill="#000000" fill-rule="evenodd" fill-opacity="1" /><path clip-path="url(#clip680)" d="M1231.56 48.0275 L1231.56 51.6733 L1197.29 51.6733 Q1197.77 59.3701 1201.91 63.421 Q1206.08 67.4314 1213.49 67.4314 Q1217.78 67.4314 1221.8 66.3781 Q1225.85 65.3249 1229.82 63.2184 L1229.82 70.267 Q1225.81 71.9684 1221.59 72.8596 Q1217.38 73.7508 1213.05 73.7508 Q1202.19 73.7508 1195.83 67.4314 Q1189.51 61.1119 1189.51 50.3365 Q1189.51 39.1965 1195.5 32.6746 Q1201.54 26.1121 1211.75 26.1121 Q1220.9 26.1121 1226.21 32.0264 Q1231.56 37.9003 1231.56 48.0275 M1224.1 45.84 Q1224.02 39.7232 1220.66 36.0774 Q1217.34 32.4315 1211.83 32.4315 Q1205.59 32.4315 1201.82 35.9558 Q1198.1 39.4801 1197.53 45.8805 L1224.1 45.84 Z" fill="#000000" fill-rule="evenodd" fill-opacity="1" /><path clip-path="url(#clip680)" d="M1243.79 9.54393 L1251.25 9.54393 L1251.25 72.576 L1243.79 72.576 L1243.79 9.54393 Z" fill="#000000" fill-rule="evenodd" fill-opacity="1" /><path clip-path="url(#clip680)" d="M1284.42 32.4315 Q1278.43 32.4315 1274.94 37.1306 Q1271.46 41.7891 1271.46 49.9314 Q1271.46 58.0738 1274.9 62.7728 Q1278.39 67.4314 1284.42 67.4314 Q1290.38 67.4314 1293.86 62.7323 Q1297.34 58.0333 1297.34 49.9314 Q1297.34 41.8701 1293.86 37.1711 Q1290.38 32.4315 1284.42 32.4315 M1284.42 26.1121 Q1294.14 26.1121 1299.69 32.4315 Q1305.24 38.7509 1305.24 49.9314 Q1305.24 61.0714 1299.69 67.4314 Q1294.14 73.7508 1284.42 73.7508 Q1274.66 73.7508 1269.11 67.4314 Q1263.6 61.0714 1263.6 49.9314 Q1263.6 38.7509 1269.11 32.4315 Q1274.66 26.1121 1284.42 26.1121 Z" fill="#000000" fill-rule="evenodd" fill-opacity="1" /><path clip-path="url(#clip680)" d="M1380.55 14.0809 L1380.55 22.0612 Q1375.89 19.8332 1371.76 18.7395 Q1367.63 17.6457 1363.78 17.6457 Q1357.1 17.6457 1353.45 20.2383 Q1349.84 22.8309 1349.84 27.611 Q1349.84 31.6214 1352.23 33.6873 Q1354.66 35.7128 1361.39 36.9686 L1366.33 37.9813 Q1375.49 39.7232 1379.82 44.1387 Q1384.2 48.5136 1384.2 55.8863 Q1384.2 64.6767 1378.28 69.2137 Q1372.41 73.7508 1361.02 73.7508 Q1356.73 73.7508 1351.87 72.7785 Q1347.05 71.8063 1341.86 69.9024 L1341.86 61.4765 Q1346.85 64.2716 1351.63 65.6895 Q1356.41 67.1073 1361.02 67.1073 Q1368.03 67.1073 1371.84 64.3527 Q1375.65 61.598 1375.65 56.4939 Q1375.65 52.0379 1372.89 49.5264 Q1370.18 47.0148 1363.94 45.759 L1358.96 44.7868 Q1349.8 42.9639 1345.71 39.075 Q1341.62 35.1862 1341.62 28.2591 Q1341.62 20.2383 1347.25 15.6203 Q1352.92 11.0023 1362.85 11.0023 Q1367.1 11.0023 1371.52 11.7719 Q1375.93 12.5416 1380.55 14.0809 Z" fill="#000000" fill-rule="evenodd" fill-opacity="1" /><path clip-path="url(#clip680)" d="M1396.96 12.096 L1435.2 12.096 L1435.2 18.9825 L1405.14 18.9825 L1405.14 36.8875 L1433.94 36.8875 L1433.94 43.7741 L1405.14 43.7741 L1405.14 65.6895 L1435.93 65.6895 L1435.93 72.576 L1396.96 72.576 L1396.96 12.096 Z" fill="#000000" fill-rule="evenodd" fill-opacity="1" /><path clip-path="url(#clip680)" d="M1449.38 12.096 L1457.56 12.096 L1457.56 72.576 L1449.38 72.576 L1449.38 12.096 Z" fill="#000000" fill-rule="evenodd" fill-opacity="1" /><path clip-path="url(#clip680)" d="M1502.52 44.2197 Q1505.16 45.1109 1507.63 48.0275 Q1510.14 50.9442 1512.65 56.0483 L1520.95 72.576 L1512.16 72.576 L1504.43 57.061 Q1501.43 50.9847 1498.59 48.9997 Q1495.8 47.0148 1490.94 47.0148 L1482.03 47.0148 L1482.03 72.576 L1473.84 72.576 L1473.84 12.096 L1492.31 12.096 Q1502.69 12.096 1507.79 16.4305 Q1512.89 20.7649 1512.89 29.5149 Q1512.89 35.2267 1510.22 38.994 Q1507.59 42.7613 1502.52 44.2197 M1482.03 18.8205 L1482.03 40.2903 L1492.31 40.2903 Q1498.23 40.2903 1501.23 37.5762 Q1504.26 34.8216 1504.26 29.5149 Q1504.26 24.2082 1501.23 21.5346 Q1498.23 18.8205 1492.31 18.8205 L1482.03 18.8205 Z" fill="#000000" fill-rule="evenodd" fill-opacity="1" /><polyline clip-path="url(#clip682)" style="stroke:#009af9; stroke-linecap:butt; stroke-linejoin:round; stroke-width:4; stroke-opacity:1; fill:none" points="
  247.59,162.047 251.957,162.047 256.324,162.047 260.691,162.047 265.058,162.048 269.426,162.048 273.793,162.049 278.16,162.049 282.527,162.05 286.894,162.051 
  291.262,162.052 295.629,162.053 299.996,162.054 304.363,162.056 308.73,162.057 313.098,162.059 317.465,162.062 321.832,162.064 326.199,162.067 330.566,162.07 
  334.934,162.074 339.301,162.079 343.668,162.084 348.035,162.09 352.402,162.096 356.77,162.104 361.137,162.113 365.504,162.123 369.871,162.135 374.238,162.149 
  378.606,162.165 382.973,162.183 387.34,162.204 391.707,162.228 396.074,162.255 400.442,162.287 404.809,162.324 409.176,162.366 413.543,162.414 417.91,162.47 
  422.278,162.534 426.645,162.608 431.012,162.693 435.379,162.791 439.746,162.903 444.114,163.033 448.481,163.182 452.848,163.353 457.215,163.551 461.582,163.778 
  465.95,164.039 470.317,164.34 474.684,164.685 479.051,165.083 483.418,165.541 487.786,166.067 492.153,166.672 496.52,167.368 500.887,168.167 505.254,169.087 
  509.622,170.143 513.989,171.357 518.356,172.751 522.723,174.352 527.09,176.19 531.458,178.299 535.825,180.717 540.192,183.489 544.559,186.665 548.927,190.3 
  553.294,194.458 557.661,199.21 562.028,204.634 566.395,210.819 570.763,217.861 575.13,225.867 579.497,234.951 583.864,245.24 588.231,256.864 592.599,269.963 
  596.966,284.68 601.333,301.161 605.7,319.545 610.067,339.966 614.435,362.544 618.802,387.372 623.169,414.518 627.536,444.005 631.903,475.809 636.271,509.848 
  640.638,545.976 645.005,583.978 649.372,623.57 653.739,664.405 658.107,706.08 662.474,748.149 666.841,790.148 671.208,831.606 675.575,872.076 679.943,911.148 
  684.31,948.471 688.677,983.761 693.044,1016.81 697.411,1047.49 701.779,1075.74 706.146,1101.56 710.513,1125.01 714.88,1146.19 719.247,1165.23 723.615,1182.27 
  727.982,1197.47 732.349,1211 736.716,1223.01 741.083,1233.66 745.451,1243.09 749.818,1251.43 754.185,1258.79 758.552,1265.3 762.919,1271.05 767.287,1276.13 
  771.654,1280.62 776.021,1284.58 780.388,1288.08 784.755,1291.17 789.123,1293.91 793.49,1296.32 797.857,1298.46 802.224,1300.35 806.591,1302.02 810.959,1303.49 
  815.326,1304.8 819.693,1305.96 824.06,1306.98 828.427,1307.89 832.795,1308.69 837.162,1309.4 841.529,1310.03 845.896,1310.59 850.263,1311.08 854.631,1311.52 
  858.998,1311.91 863.365,1312.25 867.732,1312.55 872.1,1312.82 876.467,1313.06 880.834,1313.27 885.201,1313.46 889.568,1313.63 893.936,1313.77 898.303,1313.9 
  902.67,1314.02 907.037,1314.12 911.404,1314.21 915.772,1314.29 920.139,1314.36 924.506,1314.43 928.873,1314.48 933.24,1314.53 937.608,1314.58 941.975,1314.62 
  946.342,1314.65 950.709,1314.68 955.076,1314.71 959.444,1314.73 963.811,1314.75 968.178,1314.77 972.545,1314.79 976.912,1314.8 981.28,1314.82 985.647,1314.83 
  990.014,1314.84 994.381,1314.85 998.748,1314.86 1003.12,1314.86 1007.48,1314.87 1011.85,1314.88 1016.22,1314.88 1020.58,1314.88 1024.95,1314.89 1029.32,1314.89 
  1033.69,1314.9 1038.05,1314.9 1042.42,1314.9 1046.79,1314.9 1051.15,1314.9 1055.52,1314.91 1059.89,1314.91 1064.26,1314.91 1068.62,1314.91 1072.99,1314.91 
  1077.36,1314.91 1081.73,1314.91 1086.09,1314.91 1090.46,1314.91 1094.83,1314.91 1099.19,1314.92 1103.56,1314.92 1107.93,1314.92 1112.3,1314.92 1116.66,1314.92 
  1121.03,1314.92 1125.4,1314.92 1129.76,1314.92 1134.13,1314.92 1138.5,1314.92 1142.87,1314.92 1147.23,1314.92 1151.6,1314.92 1155.97,1314.92 1160.33,1314.92 
  1164.7,1314.92 1169.07,1314.92 1173.44,1314.92 1177.8,1314.92 1182.17,1314.92 1186.54,1314.92 1190.91,1314.92 1195.27,1314.92 1199.64,1314.92 1204.01,1314.92 
  1208.37,1314.92 1212.74,1314.92 1217.11,1314.92 1221.48,1314.92 1225.84,1314.92 1230.21,1314.92 1234.58,1314.92 1238.94,1314.92 1243.31,1314.92 1247.68,1314.92 
  1252.05,1314.92 1256.41,1314.92 1260.78,1314.92 1265.15,1314.92 1269.51,1314.92 1273.88,1314.92 1278.25,1314.92 1282.62,1314.92 1286.98,1314.92 1291.35,1314.92 
  1295.72,1314.92 1300.09,1314.92 1304.45,1314.92 1308.82,1314.92 1313.19,1314.92 1317.55,1314.92 1321.92,1314.92 1326.29,1314.92 1330.66,1314.92 1335.02,1314.92 
  1339.39,1314.92 1343.76,1314.92 1348.12,1314.92 1352.49,1314.92 1356.86,1314.92 1361.23,1314.92 1365.59,1314.92 1369.96,1314.92 1374.33,1314.92 1378.7,1314.92 
  1383.06,1314.92 1387.43,1314.92 1391.8,1314.92 1396.16,1314.92 1400.53,1314.92 1404.9,1314.92 1409.27,1314.92 1413.63,1314.92 1418,1314.92 1422.37,1314.92 
  1426.73,1314.92 1431.1,1314.92 1435.47,1314.92 1439.84,1314.92 1444.2,1314.92 1448.57,1314.92 1452.94,1314.92 1457.3,1314.92 1461.67,1314.92 1466.04,1314.92 
  1470.41,1314.92 1474.77,1314.92 1479.14,1314.92 1483.51,1314.92 1487.88,1314.92 1492.24,1314.92 1496.61,1314.92 1500.98,1314.92 1505.34,1314.92 1509.71,1314.92 
  1514.08,1314.92 1518.45,1314.92 1522.81,1314.92 1527.18,1314.92 1531.55,1314.92 1535.91,1314.92 1540.28,1314.92 1544.65,1314.92 1549.02,1314.92 1553.38,1314.92 
  1557.75,1314.92 1562.12,1314.92 1566.48,1314.92 1570.85,1314.92 1575.22,1314.92 1579.59,1314.92 1583.95,1314.92 1588.32,1314.92 1592.69,1314.92 1597.06,1314.92 
  1601.42,1314.92 1605.79,1314.92 1610.16,1314.92 1614.52,1314.92 1618.89,1314.92 1623.26,1314.92 1627.63,1314.92 1631.99,1314.92 1636.36,1314.92 1640.73,1314.92 
  1645.09,1314.92 1649.46,1314.92 1653.83,1314.92 1658.2,1314.92 1662.56,1314.92 1666.93,1314.92 1671.3,1314.92 1675.66,1314.92 1680.03,1314.92 1684.4,1314.92 
  1688.77,1314.92 1693.13,1314.92 1697.5,1314.92 1701.87,1314.92 1706.24,1314.92 1710.6,1314.92 1714.97,1314.92 1719.34,1314.92 1723.7,1314.92 1728.07,1314.92 
  1732.44,1314.92 1736.81,1314.92 1741.17,1314.92 1745.54,1314.92 1749.91,1314.92 1754.27,1314.92 1758.64,1314.92 1763.01,1314.92 1767.38,1314.92 1771.74,1314.92 
  1776.11,1314.92 1780.48,1314.92 1784.84,1314.92 1789.21,1314.92 1793.58,1314.92 1797.95,1314.92 1802.31,1314.92 1806.68,1314.92 1811.05,1314.92 1815.42,1314.92 
  1819.78,1314.92 1824.15,1314.92 1828.52,1314.92 1832.88,1314.92 1837.25,1314.92 1841.62,1314.92 1845.99,1314.92 1850.35,1314.92 1854.72,1314.92 1859.09,1314.92 
  1863.45,1314.92 1867.82,1314.92 1872.19,1314.92 1876.56,1314.92 1880.92,1314.92 1885.29,1314.92 1889.66,1314.92 1894.02,1314.92 1898.39,1314.92 1902.76,1314.92 
  1907.13,1314.92 1911.49,1314.92 1915.86,1314.92 1920.23,1314.92 1924.6,1314.92 1928.96,1314.92 1933.33,1314.92 1937.7,1314.92 1942.06,1314.92 1946.43,1314.92 
  1950.8,1314.92 1955.17,1314.92 1959.53,1314.92 1963.9,1314.92 1968.27,1314.92 1972.63,1314.92 1977,1314.92 1981.37,1314.92 1985.74,1314.92 1990.1,1314.92 
  1994.47,1314.92 1998.84,1314.92 2003.21,1314.92 2007.57,1314.92 2011.94,1314.92 2016.31,1314.92 2020.67,1314.92 2025.04,1314.92 2029.41,1314.92 2033.78,1314.92 
  2038.14,1314.92 2042.51,1314.92 2046.88,1314.92 2051.24,1314.92 2055.61,1314.92 2059.98,1314.92 2064.35,1314.92 2068.71,1314.92 2073.08,1314.92 2077.45,1314.92 
  2081.81,1314.92 2086.18,1314.92 2090.55,1314.92 2094.92,1314.92 2099.28,1314.92 2103.65,1314.92 2108.02,1314.92 2112.39,1314.92 2116.75,1314.92 2121.12,1314.92 
  2125.49,1314.92 2129.85,1314.92 2134.22,1314.92 2138.59,1314.92 2142.96,1314.92 2147.32,1314.92 2151.69,1314.92 2156.06,1314.92 2160.42,1314.92 2164.79,1314.92 
  2169.16,1314.92 2173.53,1314.92 2177.89,1314.92 2182.26,1314.92 2186.63,1314.92 2190.99,1314.92 2195.36,1314.92 2199.73,1314.92 2204.1,1314.92 2208.46,1314.92 
  2212.83,1314.92 2217.2,1314.92 2221.57,1314.92 2225.93,1314.92 2230.3,1314.92 2234.67,1314.92 2239.03,1314.92 2243.4,1314.92 2247.77,1314.92 2252.14,1314.92 
  2256.5,1314.92 2260.87,1314.92 2265.24,1314.92 2269.6,1314.92 2273.97,1314.92 2278.34,1314.92 2282.71,1314.92 2287.07,1314.92 2291.44,1314.92 
  "/>
<polyline clip-path="url(#clip682)" style="stroke:#e26f46; stroke-linecap:butt; stroke-linejoin:round; stroke-width:4; stroke-opacity:1; fill:none" points="
  247.59,1447.87 251.957,1447.87 256.324,1447.87 260.691,1447.87 265.058,1447.87 269.426,1447.87 273.793,1447.87 278.16,1447.87 282.527,1447.87 286.894,1447.87 
  291.262,1447.87 295.629,1447.87 299.996,1447.87 304.363,1447.87 308.73,1447.87 313.098,1447.87 317.465,1447.87 321.832,1447.86 326.199,1447.86 330.566,1447.86 
  334.934,1447.86 339.301,1447.86 343.668,1447.86 348.035,1447.85 352.402,1447.85 356.77,1447.85 361.137,1447.84 365.504,1447.84 369.871,1447.83 374.238,1447.83 
  378.606,1447.82 382.973,1447.81 387.34,1447.8 391.707,1447.79 396.074,1447.78 400.442,1447.77 404.809,1447.75 409.176,1447.73 413.543,1447.71 417.91,1447.69 
  422.278,1447.66 426.645,1447.63 431.012,1447.59 435.379,1447.55 439.746,1447.5 444.114,1447.45 448.481,1447.38 452.848,1447.31 457.215,1447.22 461.582,1447.13 
  465.95,1447.01 470.317,1446.88 474.684,1446.74 479.051,1446.56 483.418,1446.37 487.786,1446.14 492.153,1445.88 496.52,1445.58 500.887,1445.24 505.254,1444.84 
  509.622,1444.39 513.989,1443.87 518.356,1443.27 522.723,1442.59 527.09,1441.8 531.458,1440.9 535.825,1439.87 540.192,1438.7 544.559,1437.35 548.927,1435.81 
  553.294,1434.05 557.661,1432.05 562.028,1429.78 566.395,1427.19 570.763,1424.26 575.13,1420.95 579.497,1417.22 583.864,1413.02 588.231,1408.32 592.599,1403.07 
  596.966,1397.24 601.333,1390.8 605.7,1383.72 610.067,1376 614.435,1367.64 618.802,1358.67 623.169,1349.13 627.536,1339.11 631.903,1328.71 636.271,1318.1 
  640.638,1307.44 645.005,1296.95 649.372,1286.87 653.739,1277.46 658.107,1268.98 662.474,1261.68 666.841,1255.79 671.208,1251.49 675.575,1248.93 679.943,1248.18 
  684.31,1249.23 688.677,1252.03 693.044,1256.44 697.411,1262.31 701.779,1269.42 706.146,1277.54 710.513,1286.43 714.88,1295.85 719.247,1305.58 723.615,1315.43 
  727.982,1325.22 732.349,1334.81 736.716,1344.09 741.083,1352.97 745.451,1361.39 749.818,1369.29 754.185,1376.68 758.552,1383.52 762.919,1389.84 767.287,1395.63 
  771.654,1400.93 776.021,1405.76 780.388,1410.14 784.755,1414.11 789.123,1417.69 793.49,1420.92 797.857,1423.83 802.224,1426.43 806.591,1428.77 810.959,1430.86 
  815.326,1432.74 819.693,1434.41 824.06,1435.9 828.427,1437.23 832.795,1438.41 837.162,1439.47 841.529,1440.41 845.896,1441.25 850.263,1441.99 854.631,1442.65 
  858.998,1443.24 863.365,1443.76 867.732,1444.23 872.1,1444.64 876.467,1445 880.834,1445.33 885.201,1445.62 889.568,1445.87 893.936,1446.1 898.303,1446.3 
  902.67,1446.48 907.037,1446.64 911.404,1446.78 915.772,1446.9 920.139,1447.01 924.506,1447.11 928.873,1447.2 933.24,1447.27 937.608,1447.34 941.975,1447.4 
  946.342,1447.45 950.709,1447.5 955.076,1447.54 959.444,1447.58 963.811,1447.61 968.178,1447.64 972.545,1447.67 976.912,1447.69 981.28,1447.71 985.647,1447.73 
  990.014,1447.75 994.381,1447.76 998.748,1447.77 1003.12,1447.79 1007.48,1447.8 1011.85,1447.8 1016.22,1447.81 1020.58,1447.82 1024.95,1447.83 1029.32,1447.83 
  1033.69,1447.84 1038.05,1447.84 1042.42,1447.84 1046.79,1447.85 1051.15,1447.85 1055.52,1447.85 1059.89,1447.85 1064.26,1447.86 1068.62,1447.86 1072.99,1447.86 
  1077.36,1447.86 1081.73,1447.86 1086.09,1447.86 1090.46,1447.87 1094.83,1447.87 1099.19,1447.87 1103.56,1447.87 1107.93,1447.87 1112.3,1447.87 1116.66,1447.87 
  1121.03,1447.87 1125.4,1447.87 1129.76,1447.87 1134.13,1447.87 1138.5,1447.87 1142.87,1447.87 1147.23,1447.87 1151.6,1447.87 1155.97,1447.87 1160.33,1447.87 
  1164.7,1447.87 1169.07,1447.87 1173.44,1447.87 1177.8,1447.87 1182.17,1447.87 1186.54,1447.87 1190.91,1447.87 1195.27,1447.87 1199.64,1447.87 1204.01,1447.87 
  1208.37,1447.87 1212.74,1447.87 1217.11,1447.87 1221.48,1447.87 1225.84,1447.87 1230.21,1447.87 1234.58,1447.87 1238.94,1447.87 1243.31,1447.87 1247.68,1447.87 
  1252.05,1447.87 1256.41,1447.87 1260.78,1447.87 1265.15,1447.87 1269.51,1447.87 1273.88,1447.87 1278.25,1447.87 1282.62,1447.87 1286.98,1447.87 1291.35,1447.87 
  1295.72,1447.87 1300.09,1447.87 1304.45,1447.87 1308.82,1447.87 1313.19,1447.87 1317.55,1447.87 1321.92,1447.87 1326.29,1447.87 1330.66,1447.87 1335.02,1447.87 
  1339.39,1447.87 1343.76,1447.87 1348.12,1447.87 1352.49,1447.87 1356.86,1447.87 1361.23,1447.87 1365.59,1447.87 1369.96,1447.87 1374.33,1447.87 1378.7,1447.87 
  1383.06,1447.87 1387.43,1447.87 1391.8,1447.87 1396.16,1447.87 1400.53,1447.87 1404.9,1447.87 1409.27,1447.87 1413.63,1447.87 1418,1447.87 1422.37,1447.87 
  1426.73,1447.87 1431.1,1447.87 1435.47,1447.87 1439.84,1447.87 1444.2,1447.87 1448.57,1447.87 1452.94,1447.87 1457.3,1447.87 1461.67,1447.87 1466.04,1447.87 
  1470.41,1447.87 1474.77,1447.87 1479.14,1447.87 1483.51,1447.87 1487.88,1447.87 1492.24,1447.87 1496.61,1447.87 1500.98,1447.87 1505.34,1447.87 1509.71,1447.87 
  1514.08,1447.87 1518.45,1447.87 1522.81,1447.87 1527.18,1447.87 1531.55,1447.87 1535.91,1447.87 1540.28,1447.87 1544.65,1447.87 1549.02,1447.87 1553.38,1447.87 
  1557.75,1447.87 1562.12,1447.87 1566.48,1447.87 1570.85,1447.87 1575.22,1447.87 1579.59,1447.87 1583.95,1447.87 1588.32,1447.87 1592.69,1447.87 1597.06,1447.87 
  1601.42,1447.87 1605.79,1447.87 1610.16,1447.87 1614.52,1447.87 1618.89,1447.87 1623.26,1447.87 1627.63,1447.87 1631.99,1447.87 1636.36,1447.87 1640.73,1447.87 
  1645.09,1447.87 1649.46,1447.87 1653.83,1447.87 1658.2,1447.87 1662.56,1447.87 1666.93,1447.87 1671.3,1447.87 1675.66,1447.87 1680.03,1447.87 1684.4,1447.87 
  1688.77,1447.87 1693.13,1447.87 1697.5,1447.87 1701.87,1447.87 1706.24,1447.87 1710.6,1447.87 1714.97,1447.87 1719.34,1447.87 1723.7,1447.87 1728.07,1447.87 
  1732.44,1447.87 1736.81,1447.87 1741.17,1447.87 1745.54,1447.87 1749.91,1447.87 1754.27,1447.87 1758.64,1447.87 1763.01,1447.87 1767.38,1447.87 1771.74,1447.87 
  1776.11,1447.87 1780.48,1447.87 1784.84,1447.87 1789.21,1447.87 1793.58,1447.87 1797.95,1447.87 1802.31,1447.87 1806.68,1447.87 1811.05,1447.87 1815.42,1447.87 
  1819.78,1447.87 1824.15,1447.87 1828.52,1447.87 1832.88,1447.87 1837.25,1447.87 1841.62,1447.87 1845.99,1447.87 1850.35,1447.87 1854.72,1447.87 1859.09,1447.87 
  1863.45,1447.87 1867.82,1447.87 1872.19,1447.87 1876.56,1447.87 1880.92,1447.87 1885.29,1447.87 1889.66,1447.87 1894.02,1447.87 1898.39,1447.87 1902.76,1447.87 
  1907.13,1447.87 1911.49,1447.87 1915.86,1447.87 1920.23,1447.87 1924.6,1447.87 1928.96,1447.87 1933.33,1447.87 1937.7,1447.87 1942.06,1447.87 1946.43,1447.87 
  1950.8,1447.87 1955.17,1447.87 1959.53,1447.87 1963.9,1447.87 1968.27,1447.87 1972.63,1447.87 1977,1447.87 1981.37,1447.87 1985.74,1447.87 1990.1,1447.87 
  1994.47,1447.87 1998.84,1447.87 2003.21,1447.87 2007.57,1447.87 2011.94,1447.87 2016.31,1447.87 2020.67,1447.87 2025.04,1447.87 2029.41,1447.87 2033.78,1447.87 
  2038.14,1447.87 2042.51,1447.87 2046.88,1447.87 2051.24,1447.87 2055.61,1447.87 2059.98,1447.87 2064.35,1447.87 2068.71,1447.87 2073.08,1447.87 2077.45,1447.87 
  2081.81,1447.87 2086.18,1447.87 2090.55,1447.87 2094.92,1447.87 2099.28,1447.87 2103.65,1447.87 2108.02,1447.87 2112.39,1447.87 2116.75,1447.87 2121.12,1447.87 
  2125.49,1447.87 2129.85,1447.87 2134.22,1447.87 2138.59,1447.87 2142.96,1447.87 2147.32,1447.87 2151.69,1447.87 2156.06,1447.87 2160.42,1447.87 2164.79,1447.87 
  2169.16,1447.87 2173.53,1447.87 2177.89,1447.87 2182.26,1447.87 2186.63,1447.87 2190.99,1447.87 2195.36,1447.87 2199.73,1447.87 2204.1,1447.87 2208.46,1447.87 
  2212.83,1447.87 2217.2,1447.87 2221.57,1447.87 2225.93,1447.87 2230.3,1447.87 2234.67,1447.87 2239.03,1447.87 2243.4,1447.87 2247.77,1447.87 2252.14,1447.87 
  2256.5,1447.87 2260.87,1447.87 2265.24,1447.87 2269.6,1447.87 2273.97,1447.87 2278.34,1447.87 2282.71,1447.87 2287.07,1447.87 2291.44,1447.87 
  "/>
<polyline clip-path="url(#clip682)" style="stroke:#3da44d; stroke-linecap:butt; stroke-linejoin:round; stroke-width:4; stroke-opacity:1; fill:none" points="
  247.59,1447.87 251.957,1447.87 256.324,1447.87 260.691,1447.87 265.058,1447.87 269.426,1447.87 273.793,1447.87 278.16,1447.87 282.527,1447.87 286.894,1447.87 
  291.262,1447.87 295.629,1447.87 299.996,1447.87 304.363,1447.87 308.73,1447.87 313.098,1447.87 317.465,1447.87 321.832,1447.87 326.199,1447.87 330.566,1447.87 
  334.934,1447.87 339.301,1447.87 343.668,1447.87 348.035,1447.87 352.402,1447.86 356.77,1447.86 361.137,1447.86 365.504,1447.86 369.871,1447.86 374.238,1447.86 
  378.606,1447.85 382.973,1447.85 387.34,1447.85 391.707,1447.84 396.074,1447.84 400.442,1447.83 404.809,1447.83 409.176,1447.82 413.543,1447.81 417.91,1447.8 
  422.278,1447.79 426.645,1447.78 431.012,1447.76 435.379,1447.75 439.746,1447.73 444.114,1447.71 448.481,1447.68 452.848,1447.65 457.215,1447.62 461.582,1447.58 
  465.95,1447.54 470.317,1447.49 474.684,1447.43 479.051,1447.36 483.418,1447.28 487.786,1447.19 492.153,1447.09 496.52,1446.97 500.887,1446.84 505.254,1446.68 
  509.622,1446.51 513.989,1446.3 518.356,1446.06 522.723,1445.79 527.09,1445.48 531.458,1445.13 535.825,1444.72 540.192,1444.25 544.559,1443.72 548.927,1443.11 
  553.294,1442.41 557.661,1441.61 562.028,1440.7 566.395,1439.66 570.763,1438.47 575.13,1437.13 579.497,1435.61 583.864,1433.89 588.231,1431.95 592.599,1429.77 
  596.966,1427.33 601.333,1424.6 605.7,1421.57 610.067,1418.23 614.435,1414.54 618.802,1410.52 623.169,1406.16 627.536,1401.48 631.903,1396.49 636.271,1391.23 
  640.638,1385.76 645.005,1380.15 649.372,1374.48 653.739,1368.85 658.107,1363.38 662.474,1358.2 666.841,1353.44 671.208,1349.21 675.575,1345.65 679.943,1342.84 
  684.31,1340.87 688.677,1339.8 693.044,1339.63 697.411,1340.36 701.779,1341.96 706.146,1344.35 710.513,1347.46 714.88,1351.18 719.247,1355.39 723.615,1360 
  727.982,1364.89 732.349,1369.95 736.716,1375.08 741.083,1380.22 745.451,1385.27 749.818,1390.18 754.185,1394.91 758.552,1399.43 762.919,1403.69 767.287,1407.7 
  771.654,1411.44 776.021,1414.91 780.388,1418.11 784.755,1421.05 789.123,1423.75 793.49,1426.21 797.857,1428.44 802.224,1430.47 806.591,1432.3 810.959,1433.95 
  815.326,1435.44 819.693,1436.78 824.06,1437.98 828.427,1439.06 832.795,1440.03 837.162,1440.89 841.529,1441.66 845.896,1442.35 850.263,1442.96 854.631,1443.51 
  858.998,1444 863.365,1444.43 867.732,1444.81 872.1,1445.16 876.467,1445.46 880.834,1445.73 885.201,1445.97 889.568,1446.19 893.936,1446.38 898.303,1446.55 
  902.67,1446.7 907.037,1446.83 911.404,1446.95 915.772,1447.05 920.139,1447.15 924.506,1447.23 928.873,1447.3 933.24,1447.37 937.608,1447.42 941.975,1447.47 
  946.342,1447.52 950.709,1447.56 955.076,1447.6 959.444,1447.63 963.811,1447.65 968.178,1447.68 972.545,1447.7 976.912,1447.72 981.28,1447.74 985.647,1447.75 
  990.014,1447.77 994.381,1447.78 998.748,1447.79 1003.12,1447.8 1007.48,1447.81 1011.85,1447.82 1016.22,1447.82 1020.58,1447.83 1024.95,1447.83 1029.32,1447.84 
  1033.69,1447.84 1038.05,1447.84 1042.42,1447.85 1046.79,1447.85 1051.15,1447.85 1055.52,1447.86 1059.89,1447.86 1064.26,1447.86 1068.62,1447.86 1072.99,1447.86 
  1077.36,1447.86 1081.73,1447.86 1086.09,1447.87 1090.46,1447.87 1094.83,1447.87 1099.19,1447.87 1103.56,1447.87 1107.93,1447.87 1112.3,1447.87 1116.66,1447.87 
  1121.03,1447.87 1125.4,1447.87 1129.76,1447.87 1134.13,1447.87 1138.5,1447.87 1142.87,1447.87 1147.23,1447.87 1151.6,1447.87 1155.97,1447.87 1160.33,1447.87 
  1164.7,1447.87 1169.07,1447.87 1173.44,1447.87 1177.8,1447.87 1182.17,1447.87 1186.54,1447.87 1190.91,1447.87 1195.27,1447.87 1199.64,1447.87 1204.01,1447.87 
  1208.37,1447.87 1212.74,1447.87 1217.11,1447.87 1221.48,1447.87 1225.84,1447.87 1230.21,1447.87 1234.58,1447.87 1238.94,1447.87 1243.31,1447.87 1247.68,1447.87 
  1252.05,1447.87 1256.41,1447.87 1260.78,1447.87 1265.15,1447.87 1269.51,1447.87 1273.88,1447.87 1278.25,1447.87 1282.62,1447.87 1286.98,1447.87 1291.35,1447.87 
  1295.72,1447.87 1300.09,1447.87 1304.45,1447.87 1308.82,1447.87 1313.19,1447.87 1317.55,1447.87 1321.92,1447.87 1326.29,1447.87 1330.66,1447.87 1335.02,1447.87 
  1339.39,1447.87 1343.76,1447.87 1348.12,1447.87 1352.49,1447.87 1356.86,1447.87 1361.23,1447.87 1365.59,1447.87 1369.96,1447.87 1374.33,1447.87 1378.7,1447.87 
  1383.06,1447.87 1387.43,1447.87 1391.8,1447.87 1396.16,1447.87 1400.53,1447.87 1404.9,1447.87 1409.27,1447.87 1413.63,1447.87 1418,1447.87 1422.37,1447.87 
  1426.73,1447.87 1431.1,1447.87 1435.47,1447.87 1439.84,1447.87 1444.2,1447.87 1448.57,1447.87 1452.94,1447.87 1457.3,1447.87 1461.67,1447.87 1466.04,1447.87 
  1470.41,1447.87 1474.77,1447.87 1479.14,1447.87 1483.51,1447.87 1487.88,1447.87 1492.24,1447.87 1496.61,1447.87 1500.98,1447.87 1505.34,1447.87 1509.71,1447.87 
  1514.08,1447.87 1518.45,1447.87 1522.81,1447.87 1527.18,1447.87 1531.55,1447.87 1535.91,1447.87 1540.28,1447.87 1544.65,1447.87 1549.02,1447.87 1553.38,1447.87 
  1557.75,1447.87 1562.12,1447.87 1566.48,1447.87 1570.85,1447.87 1575.22,1447.87 1579.59,1447.87 1583.95,1447.87 1588.32,1447.87 1592.69,1447.87 1597.06,1447.87 
  1601.42,1447.87 1605.79,1447.87 1610.16,1447.87 1614.52,1447.87 1618.89,1447.87 1623.26,1447.87 1627.63,1447.87 1631.99,1447.87 1636.36,1447.87 1640.73,1447.87 
  1645.09,1447.87 1649.46,1447.87 1653.83,1447.87 1658.2,1447.87 1662.56,1447.87 1666.93,1447.87 1671.3,1447.87 1675.66,1447.87 1680.03,1447.87 1684.4,1447.87 
  1688.77,1447.87 1693.13,1447.87 1697.5,1447.87 1701.87,1447.87 1706.24,1447.87 1710.6,1447.87 1714.97,1447.87 1719.34,1447.87 1723.7,1447.87 1728.07,1447.87 
  1732.44,1447.87 1736.81,1447.87 1741.17,1447.87 1745.54,1447.87 1749.91,1447.87 1754.27,1447.87 1758.64,1447.87 1763.01,1447.87 1767.38,1447.87 1771.74,1447.87 
  1776.11,1447.87 1780.48,1447.87 1784.84,1447.87 1789.21,1447.87 1793.58,1447.87 1797.95,1447.87 1802.31,1447.87 1806.68,1447.87 1811.05,1447.87 1815.42,1447.87 
  1819.78,1447.87 1824.15,1447.87 1828.52,1447.87 1832.88,1447.87 1837.25,1447.87 1841.62,1447.87 1845.99,1447.87 1850.35,1447.87 1854.72,1447.87 1859.09,1447.87 
  1863.45,1447.87 1867.82,1447.87 1872.19,1447.87 1876.56,1447.87 1880.92,1447.87 1885.29,1447.87 1889.66,1447.87 1894.02,1447.87 1898.39,1447.87 1902.76,1447.87 
  1907.13,1447.87 1911.49,1447.87 1915.86,1447.87 1920.23,1447.87 1924.6,1447.87 1928.96,1447.87 1933.33,1447.87 1937.7,1447.87 1942.06,1447.87 1946.43,1447.87 
  1950.8,1447.87 1955.17,1447.87 1959.53,1447.87 1963.9,1447.87 1968.27,1447.87 1972.63,1447.87 1977,1447.87 1981.37,1447.87 1985.74,1447.87 1990.1,1447.87 
  1994.47,1447.87 1998.84,1447.87 2003.21,1447.87 2007.57,1447.87 2011.94,1447.87 2016.31,1447.87 2020.67,1447.87 2025.04,1447.87 2029.41,1447.87 2033.78,1447.87 
  2038.14,1447.87 2042.51,1447.87 2046.88,1447.87 2051.24,1447.87 2055.61,1447.87 2059.98,1447.87 2064.35,1447.87 2068.71,1447.87 2073.08,1447.87 2077.45,1447.87 
  2081.81,1447.87 2086.18,1447.87 2090.55,1447.87 2094.92,1447.87 2099.28,1447.87 2103.65,1447.87 2108.02,1447.87 2112.39,1447.87 2116.75,1447.87 2121.12,1447.87 
  2125.49,1447.87 2129.85,1447.87 2134.22,1447.87 2138.59,1447.87 2142.96,1447.87 2147.32,1447.87 2151.69,1447.87 2156.06,1447.87 2160.42,1447.87 2164.79,1447.87 
  2169.16,1447.87 2173.53,1447.87 2177.89,1447.87 2182.26,1447.87 2186.63,1447.87 2190.99,1447.87 2195.36,1447.87 2199.73,1447.87 2204.1,1447.87 2208.46,1447.87 
  2212.83,1447.87 2217.2,1447.87 2221.57,1447.87 2225.93,1447.87 2230.3,1447.87 2234.67,1447.87 2239.03,1447.87 2243.4,1447.87 2247.77,1447.87 2252.14,1447.87 
  2256.5,1447.87 2260.87,1447.87 2265.24,1447.87 2269.6,1447.87 2273.97,1447.87 2278.34,1447.87 2282.71,1447.87 2287.07,1447.87 2291.44,1447.87 
  "/>
<polyline clip-path="url(#clip682)" style="stroke:#c271d2; stroke-linecap:butt; stroke-linejoin:round; stroke-width:4; stroke-opacity:1; fill:none" points="
  247.59,1447.87 251.957,1447.87 256.324,1447.87 260.691,1447.87 265.058,1447.87 269.426,1447.87 273.793,1447.87 278.16,1447.87 282.527,1447.87 286.894,1447.87 
  291.262,1447.87 295.629,1447.87 299.996,1447.87 304.363,1447.87 308.73,1447.87 313.098,1447.87 317.465,1447.87 321.832,1447.87 326.199,1447.87 330.566,1447.86 
  334.934,1447.86 339.301,1447.86 343.668,1447.86 348.035,1447.86 352.402,1447.85 356.77,1447.85 361.137,1447.85 365.504,1447.84 369.871,1447.84 374.238,1447.83 
  378.606,1447.83 382.973,1447.82 387.34,1447.81 391.707,1447.8 396.074,1447.79 400.442,1447.78 404.809,1447.76 409.176,1447.75 413.543,1447.73 417.91,1447.7 
  422.278,1447.68 426.645,1447.65 431.012,1447.61 435.379,1447.58 439.746,1447.53 444.114,1447.48 448.481,1447.42 452.848,1447.35 457.215,1447.27 461.582,1447.18 
  465.95,1447.08 470.317,1446.96 474.684,1446.82 479.051,1446.66 483.418,1446.47 487.786,1446.26 492.153,1446.02 496.52,1445.74 500.887,1445.42 505.254,1445.05 
  509.622,1444.62 513.989,1444.14 518.356,1443.57 522.723,1442.93 527.09,1442.19 531.458,1441.33 535.825,1440.35 540.192,1439.23 544.559,1437.93 548.927,1436.45 
  553.294,1434.75 557.661,1432.8 562.028,1430.56 566.395,1428 570.763,1425.07 575.13,1421.71 579.497,1417.88 583.864,1413.51 588.231,1408.53 592.599,1402.86 
  596.966,1396.41 601.333,1389.1 605.7,1380.82 610.067,1371.47 614.435,1360.94 618.802,1349.1 623.169,1335.86 627.536,1321.08 631.903,1304.65 636.271,1286.49 
  640.638,1266.49 645.005,1244.59 649.372,1220.75 653.739,1194.95 658.107,1167.22 662.474,1137.63 666.841,1106.29 671.208,1073.35 675.575,1039.01 679.943,1003.5 
  684.31,967.092 688.677,930.083 693.044,892.781 697.411,855.5 701.779,818.547 706.146,782.215 710.513,746.772 714.88,712.455 719.247,679.465 723.615,647.966 
  727.982,618.082 732.349,589.9 736.716,563.472 741.083,538.816 745.451,515.923 749.818,494.763 754.185,475.282 758.552,457.414 762.919,441.081 767.287,426.198 
  771.654,412.673 776.021,400.414 780.388,389.329 784.755,379.326 789.123,370.315 793.49,362.213 797.857,354.94 802.224,348.418 806.591,342.578 810.959,337.354 
  815.326,332.686 819.693,328.518 824.06,324.8 828.427,321.486 832.795,318.533 837.162,315.904 841.529,313.564 845.896,311.482 850.263,309.631 854.631,307.986 
  858.998,306.524 863.365,305.225 867.732,304.072 872.1,303.048 876.467,302.138 880.834,301.331 885.201,300.615 889.568,299.98 893.936,299.416 898.303,298.916 
  902.67,298.472 907.037,298.078 911.404,297.729 915.772,297.42 920.139,297.145 924.506,296.902 928.873,296.686 933.24,296.494 937.608,296.325 941.975,296.174 
  946.342,296.041 950.709,295.923 955.076,295.818 959.444,295.725 963.811,295.642 968.178,295.569 972.545,295.505 976.912,295.447 981.28,295.396 985.647,295.351 
  990.014,295.311 994.381,295.276 998.748,295.244 1003.12,295.217 1007.48,295.192 1011.85,295.17 1016.22,295.151 1020.58,295.133 1024.95,295.118 1029.32,295.105 
  1033.69,295.093 1038.05,295.082 1042.42,295.073 1046.79,295.064 1051.15,295.057 1055.52,295.05 1059.89,295.045 1064.26,295.039 1068.62,295.035 1072.99,295.031 
  1077.36,295.027 1081.73,295.024 1086.09,295.021 1090.46,295.019 1094.83,295.017 1099.19,295.015 1103.56,295.013 1107.93,295.011 1112.3,295.01 1116.66,295.009 
  1121.03,295.008 1125.4,295.007 1129.76,295.006 1134.13,295.005 1138.5,295.004 1142.87,295.004 1147.23,295.003 1151.6,295.003 1155.97,295.003 1160.33,295.002 
  1164.7,295.002 1169.07,295.002 1173.44,295.001 1177.8,295.001 1182.17,295.001 1186.54,295.001 1190.91,295.001 1195.27,295 1199.64,295 1204.01,295 
  1208.37,295 1212.74,295 1217.11,295 1221.48,295 1225.84,295 1230.21,295 1234.58,295 1238.94,295 1243.31,295 1247.68,295 
  1252.05,295 1256.41,295 1260.78,294.999 1265.15,294.999 1269.51,294.999 1273.88,294.999 1278.25,294.999 1282.62,294.999 1286.98,294.999 1291.35,294.999 
  1295.72,294.999 1300.09,294.999 1304.45,294.999 1308.82,294.999 1313.19,294.999 1317.55,294.999 1321.92,294.999 1326.29,294.999 1330.66,294.999 1335.02,294.999 
  1339.39,294.999 1343.76,294.999 1348.12,294.999 1352.49,294.999 1356.86,294.999 1361.23,294.999 1365.59,294.999 1369.96,294.999 1374.33,294.999 1378.7,294.999 
  1383.06,294.999 1387.43,294.999 1391.8,294.999 1396.16,294.999 1400.53,294.999 1404.9,294.999 1409.27,294.999 1413.63,294.999 1418,294.999 1422.37,294.999 
  1426.73,294.999 1431.1,294.999 1435.47,294.999 1439.84,294.999 1444.2,294.999 1448.57,294.999 1452.94,294.999 1457.3,294.999 1461.67,294.999 1466.04,294.999 
  1470.41,294.999 1474.77,294.999 1479.14,294.999 1483.51,294.999 1487.88,294.999 1492.24,294.999 1496.61,294.999 1500.98,294.999 1505.34,294.999 1509.71,294.999 
  1514.08,294.999 1518.45,294.999 1522.81,294.999 1527.18,294.999 1531.55,294.999 1535.91,294.999 1540.28,294.999 1544.65,294.999 1549.02,294.999 1553.38,294.999 
  1557.75,294.999 1562.12,294.999 1566.48,294.999 1570.85,294.999 1575.22,294.999 1579.59,294.999 1583.95,294.999 1588.32,294.999 1592.69,294.999 1597.06,294.999 
  1601.42,294.999 1605.79,294.999 1610.16,294.999 1614.52,294.999 1618.89,294.999 1623.26,294.999 1627.63,294.999 1631.99,294.999 1636.36,294.999 1640.73,294.999 
  1645.09,294.999 1649.46,294.999 1653.83,294.999 1658.2,294.999 1662.56,294.999 1666.93,294.999 1671.3,294.999 1675.66,294.999 1680.03,294.999 1684.4,294.999 
  1688.77,294.999 1693.13,294.999 1697.5,294.999 1701.87,294.999 1706.24,294.999 1710.6,294.999 1714.97,294.999 1719.34,294.999 1723.7,294.999 1728.07,294.999 
  1732.44,294.999 1736.81,294.999 1741.17,294.999 1745.54,294.999 1749.91,294.999 1754.27,294.999 1758.64,294.999 1763.01,294.999 1767.38,294.999 1771.74,294.999 
  1776.11,294.999 1780.48,294.999 1784.84,294.999 1789.21,294.999 1793.58,294.999 1797.95,294.999 1802.31,294.999 1806.68,294.999 1811.05,294.999 1815.42,294.999 
  1819.78,294.999 1824.15,294.999 1828.52,294.999 1832.88,294.999 1837.25,294.999 1841.62,294.999 1845.99,294.999 1850.35,294.999 1854.72,294.999 1859.09,294.999 
  1863.45,294.999 1867.82,294.999 1872.19,294.999 1876.56,294.999 1880.92,294.999 1885.29,294.999 1889.66,294.999 1894.02,294.999 1898.39,294.999 1902.76,294.999 
  1907.13,294.999 1911.49,294.999 1915.86,294.999 1920.23,294.999 1924.6,294.999 1928.96,294.999 1933.33,294.999 1937.7,294.999 1942.06,294.999 1946.43,294.999 
  1950.8,294.999 1955.17,294.999 1959.53,294.999 1963.9,294.999 1968.27,294.999 1972.63,294.999 1977,294.999 1981.37,294.999 1985.74,294.999 1990.1,294.999 
  1994.47,294.999 1998.84,294.999 2003.21,294.999 2007.57,294.999 2011.94,294.999 2016.31,294.999 2020.67,294.999 2025.04,294.999 2029.41,294.999 2033.78,294.999 
  2038.14,294.999 2042.51,294.999 2046.88,294.999 2051.24,294.999 2055.61,294.999 2059.98,294.999 2064.35,294.999 2068.71,294.999 2073.08,294.999 2077.45,294.999 
  2081.81,294.999 2086.18,294.999 2090.55,294.999 2094.92,294.999 2099.28,294.999 2103.65,294.999 2108.02,294.999 2112.39,294.999 2116.75,294.999 2121.12,294.999 
  2125.49,294.999 2129.85,294.999 2134.22,294.999 2138.59,294.999 2142.96,294.999 2147.32,294.999 2151.69,294.999 2156.06,294.999 2160.42,294.999 2164.79,294.999 
  2169.16,294.999 2173.53,294.999 2177.89,294.999 2182.26,294.999 2186.63,294.999 2190.99,294.999 2195.36,294.999 2199.73,294.999 2204.1,294.999 2208.46,294.999 
  2212.83,294.999 2217.2,294.999 2221.57,294.999 2225.93,294.999 2230.3,294.999 2234.67,294.999 2239.03,294.999 2243.4,294.999 2247.77,294.999 2252.14,294.999 
  2256.5,294.999 2260.87,294.999 2265.24,294.999 2269.6,294.999 2273.97,294.999 2278.34,294.999 2282.71,294.999 2287.07,294.999 2291.44,294.999 
  "/>
<path clip-path="url(#clip680)" d="
M2012.9 428.105 L2280.54 428.105 L2280.54 168.905 L2012.9 168.905  Z
  " fill="#ffffff" fill-rule="evenodd" fill-opacity="1"/>
<polyline clip-path="url(#clip680)" style="stroke:#000000; stroke-linecap:butt; stroke-linejoin:round; stroke-width:4; stroke-opacity:1; fill:none" points="
  2012.9,428.105 2280.54,428.105 2280.54,168.905 2012.9,168.905 2012.9,428.105 
  "/>
<polyline clip-path="url(#clip680)" style="stroke:#009af9; stroke-linecap:butt; stroke-linejoin:round; stroke-width:4; stroke-opacity:1; fill:none" points="
  2036.97,220.745 2181.4,220.745 
  "/>
<path clip-path="url(#clip680)" d="M2227.72 204.599 L2227.72 209.159 Q2225.06 207.886 2222.7 207.261 Q2220.34 206.636 2218.14 206.636 Q2214.32 206.636 2212.23 208.117 Q2210.17 209.599 2210.17 212.33 Q2210.17 214.622 2211.54 215.803 Q2212.93 216.96 2216.77 217.678 L2219.59 218.256 Q2224.83 219.252 2227.3 221.775 Q2229.8 224.275 2229.8 228.488 Q2229.8 233.511 2226.42 236.103 Q2223.07 238.696 2216.56 238.696 Q2214.11 238.696 2211.33 238.14 Q2208.58 237.585 2205.61 236.497 L2205.61 231.682 Q2208.46 233.279 2211.19 234.089 Q2213.92 234.9 2216.56 234.9 Q2220.57 234.9 2222.74 233.326 Q2224.92 231.752 2224.92 228.835 Q2224.92 226.289 2223.34 224.853 Q2221.79 223.418 2218.23 222.701 L2215.38 222.145 Q2210.15 221.103 2207.81 218.881 Q2205.47 216.659 2205.47 212.701 Q2205.47 208.117 2208.69 205.479 Q2211.93 202.84 2217.6 202.84 Q2220.03 202.84 2222.56 203.279 Q2225.08 203.719 2227.72 204.599 Z" fill="#000000" fill-rule="evenodd" fill-opacity="1" /><polyline clip-path="url(#clip680)" style="stroke:#e26f46; stroke-linecap:butt; stroke-linejoin:round; stroke-width:4; stroke-opacity:1; fill:none" points="
  2036.97,272.585 2181.4,272.585 
  "/>
<path clip-path="url(#clip680)" d="M2205.47 255.305 L2227.33 255.305 L2227.33 259.24 L2210.15 259.24 L2210.15 269.471 L2226.61 269.471 L2226.61 273.406 L2210.15 273.406 L2210.15 285.929 L2227.74 285.929 L2227.74 289.865 L2205.47 289.865 L2205.47 255.305 Z" fill="#000000" fill-rule="evenodd" fill-opacity="1" /><polyline clip-path="url(#clip680)" style="stroke:#3da44d; stroke-linecap:butt; stroke-linejoin:round; stroke-width:4; stroke-opacity:1; fill:none" points="
  2036.97,324.425 2181.4,324.425 
  "/>
<path clip-path="url(#clip680)" d="M2205.47 307.145 L2210.15 307.145 L2210.15 341.705 L2205.47 341.705 L2205.47 307.145 Z" fill="#000000" fill-rule="evenodd" fill-opacity="1" /><polyline clip-path="url(#clip680)" style="stroke:#c271d2; stroke-linecap:butt; stroke-linejoin:round; stroke-width:4; stroke-opacity:1; fill:none" points="
  2036.97,376.265 2181.4,376.265 
  "/>
<path clip-path="url(#clip680)" d="M2221.86 377.341 Q2223.37 377.85 2224.78 379.517 Q2226.22 381.184 2227.65 384.1 L2232.4 393.545 L2227.37 393.545 L2222.95 384.679 Q2221.24 381.207 2219.62 380.073 Q2218.02 378.938 2215.24 378.938 L2210.15 378.938 L2210.15 393.545 L2205.47 393.545 L2205.47 358.985 L2216.03 358.985 Q2221.96 358.985 2224.87 361.461 Q2227.79 363.938 2227.79 368.938 Q2227.79 372.202 2226.26 374.355 Q2224.76 376.508 2221.86 377.341 M2210.15 362.827 L2210.15 375.096 L2216.03 375.096 Q2219.41 375.096 2221.12 373.545 Q2222.86 371.971 2222.86 368.938 Q2222.86 365.906 2221.12 364.378 Q2219.41 362.827 2216.03 362.827 L2210.15 362.827 Z" fill="#000000" fill-rule="evenodd" fill-opacity="1" /></svg>
