<?xml version="1.0" encoding="utf-8"?>
<svg xmlns="http://www.w3.org/2000/svg" xmlns:xlink="http://www.w3.org/1999/xlink" width="600" height="400" viewBox="0 0 2400 1600">
<defs>
  <clipPath id="clip780">
    <rect x="0" y="0" width="2400" height="1600"/>
  </clipPath>
</defs>
<path clip-path="url(#clip780)" d="
M0 1600 L2400 1600 L2400 0 L0 0  Z
  " fill="#ffffff" fill-rule="evenodd" fill-opacity="1"/>
<defs>
  <clipPath id="clip781">
    <rect x="480" y="0" width="1681" height="1600"/>
  </clipPath>
</defs>
<path clip-path="url(#clip780)" d="
M277.431 1486.45 L2352.76 1486.45 L2352.76 123.472 L277.431 123.472  Z
  " fill="#ffffff" fill-rule="evenodd" fill-opacity="1"/>
<defs>
  <clipPath id="clip782">
    <rect x="277" y="123" width="2076" height="1364"/>
  </clipPath>
</defs>
<polyline clip-path="url(#clip782)" style="stroke:#000000; stroke-linecap:butt; stroke-linejoin:round; stroke-width:2; stroke-opacity:0.1; fill:none" points="
  331.983,1486.45 331.983,123.472 
  "/>
<polyline clip-path="url(#clip782)" style="stroke:#000000; stroke-linecap:butt; stroke-linejoin:round; stroke-width:2; stroke-opacity:0.1; fill:none" points="
  750.328,1486.45 750.328,123.472 
  "/>
<polyline clip-path="url(#clip782)" style="stroke:#000000; stroke-linecap:butt; stroke-linejoin:round; stroke-width:2; stroke-opacity:0.1; fill:none" points="
  1168.67,1486.45 1168.67,123.472 
  "/>
<polyline clip-path="url(#clip782)" style="stroke:#000000; stroke-linecap:butt; stroke-linejoin:round; stroke-width:2; stroke-opacity:0.1; fill:none" points="
  1587.02,1486.45 1587.02,123.472 
  "/>
<polyline clip-path="url(#clip782)" style="stroke:#000000; stroke-linecap:butt; stroke-linejoin:round; stroke-width:2; stroke-opacity:0.1; fill:none" points="
  2005.36,1486.45 2005.36,123.472 
  "/>
<polyline clip-path="url(#clip780)" style="stroke:#000000; stroke-linecap:butt; stroke-linejoin:round; stroke-width:4; stroke-opacity:1; fill:none" points="
  277.431,1486.45 2352.76,1486.45 
  "/>
<polyline clip-path="url(#clip780)" style="stroke:#000000; stroke-linecap:butt; stroke-linejoin:round; stroke-width:4; stroke-opacity:1; fill:none" points="
  331.983,1486.45 331.983,1467.55 
  "/>
<polyline clip-path="url(#clip780)" style="stroke:#000000; stroke-linecap:butt; stroke-linejoin:round; stroke-width:4; stroke-opacity:1; fill:none" points="
  750.328,1486.45 750.328,1467.55 
  "/>
<polyline clip-path="url(#clip780)" style="stroke:#000000; stroke-linecap:butt; stroke-linejoin:round; stroke-width:4; stroke-opacity:1; fill:none" points="
  1168.67,1486.45 1168.67,1467.55 
  "/>
<polyline clip-path="url(#clip780)" style="stroke:#000000; stroke-linecap:butt; stroke-linejoin:round; stroke-width:4; stroke-opacity:1; fill:none" points="
  1587.02,1486.45 1587.02,1467.55 
  "/>
<polyline clip-path="url(#clip780)" style="stroke:#000000; stroke-linecap:butt; stroke-linejoin:round; stroke-width:4; stroke-opacity:1; fill:none" points="
  2005.36,1486.45 2005.36,1467.55 
  "/>
<path clip-path="url(#clip780)" d="M331.983 1515.64 Q328.372 1515.64 326.543 1519.2 Q324.738 1522.75 324.738 1529.87 Q324.738 1536.98 326.543 1540.55 Q328.372 1544.09 331.983 1544.09 Q335.617 1544.09 337.423 1540.55 Q339.252 1536.98 339.252 1529.87 Q339.252 1522.75 337.423 1519.2 Q335.617 1515.64 331.983 1515.64 M331.983 1511.93 Q337.793 1511.93 340.849 1516.54 Q343.927 1521.12 343.927 1529.87 Q343.927 1538.6 340.849 1543.21 Q337.793 1547.79 331.983 1547.79 Q326.173 1547.79 323.094 1543.21 Q320.039 1538.6 320.039 1529.87 Q320.039 1521.12 323.094 1516.54 Q326.173 1511.93 331.983 1511.93 Z" fill="#000000" fill-rule="evenodd" fill-opacity="1" /><path clip-path="url(#clip780)" d="M709.935 1543.18 L717.573 1543.18 L717.573 1516.82 L709.263 1518.49 L709.263 1514.23 L717.527 1512.56 L722.203 1512.56 L722.203 1543.18 L729.842 1543.18 L729.842 1547.12 L709.935 1547.12 L709.935 1543.18 Z" fill="#000000" fill-rule="evenodd" fill-opacity="1" /><path clip-path="url(#clip780)" d="M749.286 1515.64 Q745.675 1515.64 743.846 1519.2 Q742.041 1522.75 742.041 1529.87 Q742.041 1536.98 743.846 1540.55 Q745.675 1544.09 749.286 1544.09 Q752.92 1544.09 754.726 1540.55 Q756.555 1536.98 756.555 1529.87 Q756.555 1522.75 754.726 1519.2 Q752.92 1515.64 749.286 1515.64 M749.286 1511.93 Q755.096 1511.93 758.152 1516.54 Q761.231 1521.12 761.231 1529.87 Q761.231 1538.6 758.152 1543.21 Q755.096 1547.79 749.286 1547.79 Q743.476 1547.79 740.397 1543.21 Q737.342 1538.6 737.342 1529.87 Q737.342 1521.12 740.397 1516.54 Q743.476 1511.93 749.286 1511.93 Z" fill="#000000" fill-rule="evenodd" fill-opacity="1" /><path clip-path="url(#clip780)" d="M779.448 1515.64 Q775.837 1515.64 774.008 1519.2 Q772.203 1522.75 772.203 1529.87 Q772.203 1536.98 774.008 1540.55 Q775.837 1544.09 779.448 1544.09 Q783.082 1544.09 784.888 1540.55 Q786.717 1536.98 786.717 1529.87 Q786.717 1522.75 784.888 1519.2 Q783.082 1515.64 779.448 1515.64 M779.448 1511.93 Q785.258 1511.93 788.314 1516.54 Q791.393 1521.12 791.393 1529.87 Q791.393 1538.6 788.314 1543.21 Q785.258 1547.79 779.448 1547.79 Q773.638 1547.79 770.559 1543.21 Q767.504 1538.6 767.504 1529.87 Q767.504 1521.12 770.559 1516.54 Q773.638 1511.93 779.448 1511.93 Z" fill="#000000" fill-rule="evenodd" fill-opacity="1" /><path clip-path="url(#clip780)" d="M1132.37 1543.18 L1148.68 1543.18 L1148.68 1547.12 L1126.74 1547.12 L1126.74 1543.18 Q1129.4 1540.43 1133.99 1535.8 Q1138.59 1531.15 1139.77 1529.81 Q1142.02 1527.28 1142.9 1525.55 Q1143.8 1523.79 1143.8 1522.1 Q1143.8 1519.34 1141.86 1517.61 Q1139.93 1515.87 1136.83 1515.87 Q1134.63 1515.87 1132.18 1516.63 Q1129.75 1517.4 1126.97 1518.95 L1126.97 1514.23 Q1129.8 1513.09 1132.25 1512.51 Q1134.7 1511.93 1136.74 1511.93 Q1142.11 1511.93 1145.3 1514.62 Q1148.5 1517.31 1148.5 1521.8 Q1148.5 1523.93 1147.69 1525.85 Q1146.9 1527.74 1144.8 1530.34 Q1144.22 1531.01 1141.12 1534.23 Q1138.01 1537.42 1132.37 1543.18 Z" fill="#000000" fill-rule="evenodd" fill-opacity="1" /><path clip-path="url(#clip780)" d="M1168.5 1515.64 Q1164.89 1515.64 1163.06 1519.2 Q1161.25 1522.75 1161.25 1529.87 Q1161.25 1536.98 1163.06 1540.55 Q1164.89 1544.09 1168.5 1544.09 Q1172.13 1544.09 1173.94 1540.55 Q1175.77 1536.98 1175.77 1529.87 Q1175.77 1522.75 1173.94 1519.2 Q1172.13 1515.64 1168.5 1515.64 M1168.5 1511.93 Q1174.31 1511.93 1177.36 1516.54 Q1180.44 1521.12 1180.44 1529.87 Q1180.44 1538.6 1177.36 1543.21 Q1174.31 1547.79 1168.5 1547.79 Q1162.69 1547.79 1159.61 1543.21 Q1156.55 1538.6 1156.55 1529.87 Q1156.55 1521.12 1159.61 1516.54 Q1162.69 1511.93 1168.5 1511.93 Z" fill="#000000" fill-rule="evenodd" fill-opacity="1" /><path clip-path="url(#clip780)" d="M1198.66 1515.64 Q1195.05 1515.64 1193.22 1519.2 Q1191.42 1522.75 1191.42 1529.87 Q1191.42 1536.98 1193.22 1540.55 Q1195.05 1544.09 1198.66 1544.09 Q1202.3 1544.09 1204.1 1540.55 Q1205.93 1536.98 1205.93 1529.87 Q1205.93 1522.75 1204.1 1519.2 Q1202.3 1515.64 1198.66 1515.64 M1198.66 1511.93 Q1204.47 1511.93 1207.53 1516.54 Q1210.61 1521.12 1210.61 1529.87 Q1210.61 1538.6 1207.53 1543.21 Q1204.47 1547.79 1198.66 1547.79 Q1192.85 1547.79 1189.77 1543.21 Q1186.72 1538.6 1186.72 1529.87 Q1186.72 1521.12 1189.77 1516.54 Q1192.85 1511.93 1198.66 1511.93 Z" fill="#000000" fill-rule="evenodd" fill-opacity="1" /><path clip-path="url(#clip780)" d="M1560.78 1528.49 Q1564.14 1529.2 1566.01 1531.47 Q1567.91 1533.74 1567.91 1537.07 Q1567.91 1542.19 1564.39 1544.99 Q1560.87 1547.79 1554.39 1547.79 Q1552.21 1547.79 1549.9 1547.35 Q1547.61 1546.93 1545.15 1546.08 L1545.15 1541.56 Q1547.1 1542.7 1549.41 1543.28 Q1551.73 1543.86 1554.25 1543.86 Q1558.65 1543.86 1560.94 1542.12 Q1563.26 1540.38 1563.26 1537.07 Q1563.26 1534.02 1561.1 1532.31 Q1558.97 1530.57 1555.15 1530.57 L1551.13 1530.57 L1551.13 1526.73 L1555.34 1526.73 Q1558.79 1526.73 1560.62 1525.36 Q1562.45 1523.97 1562.45 1521.38 Q1562.45 1518.72 1560.55 1517.31 Q1558.67 1515.87 1555.15 1515.87 Q1553.23 1515.87 1551.03 1516.29 Q1548.83 1516.7 1546.2 1517.58 L1546.2 1513.42 Q1548.86 1512.68 1551.17 1512.31 Q1553.51 1511.93 1555.57 1511.93 Q1560.9 1511.93 1564 1514.37 Q1567.1 1516.77 1567.1 1520.89 Q1567.1 1523.76 1565.46 1525.75 Q1563.81 1527.72 1560.78 1528.49 Z" fill="#000000" fill-rule="evenodd" fill-opacity="1" /><path clip-path="url(#clip780)" d="M1586.77 1515.64 Q1583.16 1515.64 1581.33 1519.2 Q1579.53 1522.75 1579.53 1529.87 Q1579.53 1536.98 1581.33 1540.55 Q1583.16 1544.09 1586.77 1544.09 Q1590.41 1544.09 1592.21 1540.55 Q1594.04 1536.98 1594.04 1529.87 Q1594.04 1522.75 1592.21 1519.2 Q1590.41 1515.64 1586.77 1515.64 M1586.77 1511.93 Q1592.58 1511.93 1595.64 1516.54 Q1598.72 1521.12 1598.72 1529.87 Q1598.72 1538.6 1595.64 1543.21 Q1592.58 1547.79 1586.77 1547.79 Q1580.96 1547.79 1577.89 1543.21 Q1574.83 1538.6 1574.83 1529.87 Q1574.83 1521.12 1577.89 1516.54 Q1580.96 1511.93 1586.77 1511.93 Z" fill="#000000" fill-rule="evenodd" fill-opacity="1" /><path clip-path="url(#clip780)" d="M1616.94 1515.64 Q1613.33 1515.64 1611.5 1519.2 Q1609.69 1522.75 1609.69 1529.87 Q1609.69 1536.98 1611.5 1540.55 Q1613.33 1544.09 1616.94 1544.09 Q1620.57 1544.09 1622.38 1540.55 Q1624.2 1536.98 1624.2 1529.87 Q1624.2 1522.75 1622.38 1519.2 Q1620.57 1515.64 1616.94 1515.64 M1616.94 1511.93 Q1622.75 1511.93 1625.8 1516.54 Q1628.88 1521.12 1628.88 1529.87 Q1628.88 1538.6 1625.8 1543.21 Q1622.75 1547.79 1616.94 1547.79 Q1611.13 1547.79 1608.05 1543.21 Q1604.99 1538.6 1604.99 1529.87 Q1604.99 1521.12 1608.05 1516.54 Q1611.13 1511.93 1616.94 1511.93 Z" fill="#000000" fill-rule="evenodd" fill-opacity="1" /><path clip-path="url(#clip780)" d="M1978.45 1516.63 L1966.65 1535.08 L1978.45 1535.08 L1978.45 1516.63 M1977.23 1512.56 L1983.11 1512.56 L1983.11 1535.08 L1988.04 1535.08 L1988.04 1538.97 L1983.11 1538.97 L1983.11 1547.12 L1978.45 1547.12 L1978.45 1538.97 L1962.85 1538.97 L1962.85 1534.46 L1977.23 1512.56 Z" fill="#000000" fill-rule="evenodd" fill-opacity="1" /><path clip-path="url(#clip780)" d="M2005.77 1515.64 Q2002.16 1515.64 2000.33 1519.2 Q1998.52 1522.75 1998.52 1529.87 Q1998.52 1536.98 2000.33 1540.55 Q2002.16 1544.09 2005.77 1544.09 Q2009.4 1544.09 2011.21 1540.55 Q2013.04 1536.98 2013.04 1529.87 Q2013.04 1522.75 2011.21 1519.2 Q2009.4 1515.64 2005.77 1515.64 M2005.77 1511.93 Q2011.58 1511.93 2014.63 1516.54 Q2017.71 1521.12 2017.71 1529.87 Q2017.71 1538.6 2014.63 1543.21 Q2011.58 1547.79 2005.77 1547.79 Q1999.96 1547.79 1996.88 1543.21 Q1993.82 1538.6 1993.82 1529.87 Q1993.82 1521.12 1996.88 1516.54 Q1999.96 1511.93 2005.77 1511.93 Z" fill="#000000" fill-rule="evenodd" fill-opacity="1" /><path clip-path="url(#clip780)" d="M2035.93 1515.64 Q2032.32 1515.64 2030.49 1519.2 Q2028.68 1522.75 2028.68 1529.87 Q2028.68 1536.98 2030.49 1540.55 Q2032.32 1544.09 2035.93 1544.09 Q2039.56 1544.09 2041.37 1540.55 Q2043.2 1536.98 2043.2 1529.87 Q2043.2 1522.75 2041.37 1519.2 Q2039.56 1515.64 2035.93 1515.64 M2035.93 1511.93 Q2041.74 1511.93 2044.8 1516.54 Q2047.87 1521.12 2047.87 1529.87 Q2047.87 1538.6 2044.8 1543.21 Q2041.74 1547.79 2035.93 1547.79 Q2030.12 1547.79 2027.04 1543.21 Q2023.98 1538.6 2023.98 1529.87 Q2023.98 1521.12 2027.04 1516.54 Q2030.12 1511.93 2035.93 1511.93 Z" fill="#000000" fill-rule="evenodd" fill-opacity="1" /><polyline clip-path="url(#clip782)" style="stroke:#000000; stroke-linecap:butt; stroke-linejoin:round; stroke-width:2; stroke-opacity:0.1; fill:none" points="
  277.431,1447.87 2352.76,1447.87 
  "/>
<polyline clip-path="url(#clip782)" style="stroke:#000000; stroke-linecap:butt; stroke-linejoin:round; stroke-width:2; stroke-opacity:0.1; fill:none" points="
  277.431,1091.7 2352.76,1091.7 
  "/>
<polyline clip-path="url(#clip782)" style="stroke:#000000; stroke-linecap:butt; stroke-linejoin:round; stroke-width:2; stroke-opacity:0.1; fill:none" points="
  277.431,735.53 2352.76,735.53 
  "/>
<polyline clip-path="url(#clip782)" style="stroke:#000000; stroke-linecap:butt; stroke-linejoin:round; stroke-width:2; stroke-opacity:0.1; fill:none" points="
  277.431,379.358 2352.76,379.358 
  "/>
<polyline clip-path="url(#clip780)" style="stroke:#000000; stroke-linecap:butt; stroke-linejoin:round; stroke-width:4; stroke-opacity:1; fill:none" points="
  277.431,1486.45 277.431,123.472 
  "/>
<polyline clip-path="url(#clip780)" style="stroke:#000000; stroke-linecap:butt; stroke-linejoin:round; stroke-width:4; stroke-opacity:1; fill:none" points="
  277.431,1447.87 296.329,1447.87 
  "/>
<polyline clip-path="url(#clip780)" style="stroke:#000000; stroke-linecap:butt; stroke-linejoin:round; stroke-width:4; stroke-opacity:1; fill:none" points="
  277.431,1091.7 296.329,1091.7 
  "/>
<polyline clip-path="url(#clip780)" style="stroke:#000000; stroke-linecap:butt; stroke-linejoin:round; stroke-width:4; stroke-opacity:1; fill:none" points="
  277.431,735.53 296.329,735.53 
  "/>
<polyline clip-path="url(#clip780)" style="stroke:#000000; stroke-linecap:butt; stroke-linejoin:round; stroke-width:4; stroke-opacity:1; fill:none" points="
  277.431,379.358 296.329,379.358 
  "/>
<path clip-path="url(#clip780)" d="M229.487 1433.67 Q225.875 1433.67 224.047 1437.24 Q222.241 1440.78 222.241 1447.91 Q222.241 1455.01 224.047 1458.58 Q225.875 1462.12 229.487 1462.12 Q233.121 1462.12 234.926 1458.58 Q236.755 1455.01 236.755 1447.91 Q236.755 1440.78 234.926 1437.24 Q233.121 1433.67 229.487 1433.67 M229.487 1429.97 Q235.297 1429.97 238.352 1434.57 Q241.431 1439.16 241.431 1447.91 Q241.431 1456.63 238.352 1461.24 Q235.297 1465.82 229.487 1465.82 Q223.676 1465.82 220.598 1461.24 Q217.542 1456.63 217.542 1447.91 Q217.542 1439.16 220.598 1434.57 Q223.676 1429.97 229.487 1429.97 Z" fill="#000000" fill-rule="evenodd" fill-opacity="1" /><path clip-path="url(#clip780)" d="M57.7745 1111.49 L74.0939 1111.49 L74.0939 1115.43 L52.1495 1115.43 L52.1495 1111.49 Q54.8115 1108.74 59.3949 1104.11 Q64.0013 1099.46 65.1819 1098.11 Q67.4272 1095.59 68.3068 1093.86 Q69.2096 1092.1 69.2096 1090.41 Q69.2096 1087.65 67.2652 1085.92 Q65.3439 1084.18 62.2421 1084.18 Q60.043 1084.18 57.5893 1084.94 Q55.1588 1085.71 52.381 1087.26 L52.381 1082.54 Q55.2051 1081.4 57.6588 1080.82 Q60.1124 1080.24 62.1495 1080.24 Q67.5198 1080.24 70.7142 1082.93 Q73.9087 1085.61 73.9087 1090.11 Q73.9087 1092.23 73.0985 1094.16 Q72.3115 1096.05 70.205 1098.65 Q69.6263 1099.32 66.5245 1102.54 Q63.4226 1105.73 57.7745 1111.49 Z" fill="#000000" fill-rule="evenodd" fill-opacity="1" /><path clip-path="url(#clip780)" d="M83.9086 1109.55 L88.7928 1109.55 L88.7928 1115.43 L83.9086 1115.43 L83.9086 1109.55 Z" fill="#000000" fill-rule="evenodd" fill-opacity="1" /><path clip-path="url(#clip780)" d="M108.978 1083.95 Q105.367 1083.95 103.538 1087.51 Q101.733 1091.05 101.733 1098.18 Q101.733 1105.29 103.538 1108.86 Q105.367 1112.4 108.978 1112.4 Q112.612 1112.4 114.418 1108.86 Q116.246 1105.29 116.246 1098.18 Q116.246 1091.05 114.418 1087.51 Q112.612 1083.95 108.978 1083.95 M108.978 1080.24 Q114.788 1080.24 117.844 1084.85 Q120.922 1089.43 120.922 1098.18 Q120.922 1106.91 117.844 1111.52 Q114.788 1116.1 108.978 1116.1 Q103.168 1116.1 100.089 1111.52 Q97.0335 1106.91 97.0335 1098.18 Q97.0335 1089.43 100.089 1084.85 Q103.168 1080.24 108.978 1080.24 Z" fill="#000000" fill-rule="evenodd" fill-opacity="1" /><path clip-path="url(#clip780)" d="M157.311 1089.97 L146.732 1100.59 L157.311 1111.17 L154.556 1113.97 L143.931 1103.35 L133.306 1113.97 L130.575 1111.17 L141.131 1100.59 L130.575 1089.97 L133.306 1087.17 L143.931 1097.79 L154.556 1087.17 L157.311 1089.97 Z" fill="#000000" fill-rule="evenodd" fill-opacity="1" /><path clip-path="url(#clip780)" d="M169.672 1111.49 L177.311 1111.49 L177.311 1085.13 L169.001 1086.79 L169.001 1082.54 L177.265 1080.87 L181.94 1080.87 L181.94 1111.49 L189.579 1111.49 L189.579 1115.43 L169.672 1115.43 L169.672 1111.49 Z" fill="#000000" fill-rule="evenodd" fill-opacity="1" /><path clip-path="url(#clip780)" d="M209.024 1083.95 Q205.413 1083.95 203.584 1087.51 Q201.778 1091.05 201.778 1098.18 Q201.778 1105.29 203.584 1108.86 Q205.413 1112.4 209.024 1112.4 Q212.658 1112.4 214.463 1108.86 Q216.292 1105.29 216.292 1098.18 Q216.292 1091.05 214.463 1087.51 Q212.658 1083.95 209.024 1083.95 M209.024 1080.24 Q214.834 1080.24 217.889 1084.85 Q220.968 1089.43 220.968 1098.18 Q220.968 1106.91 217.889 1111.52 Q214.834 1116.1 209.024 1116.1 Q203.214 1116.1 200.135 1111.52 Q197.079 1106.91 197.079 1098.18 Q197.079 1089.43 200.135 1084.85 Q203.214 1080.24 209.024 1080.24 Z" fill="#000000" fill-rule="evenodd" fill-opacity="1" /><path clip-path="url(#clip780)" d="M233.645 1063.25 L224.053 1078.24 L233.645 1078.24 L233.645 1063.25 M232.648 1059.94 L237.425 1059.94 L237.425 1078.24 L241.431 1078.24 L241.431 1081.4 L237.425 1081.4 L237.425 1088.02 L233.645 1088.02 L233.645 1081.4 L220.968 1081.4 L220.968 1077.73 L232.648 1059.94 Z" fill="#000000" fill-rule="evenodd" fill-opacity="1" /><path clip-path="url(#clip780)" d="M66.5939 728.772 L54.7884 747.221 L66.5939 747.221 L66.5939 728.772 M65.367 724.698 L71.2466 724.698 L71.2466 747.221 L76.1772 747.221 L76.1772 751.109 L71.2466 751.109 L71.2466 759.258 L66.5939 759.258 L66.5939 751.109 L50.9921 751.109 L50.9921 746.596 L65.367 724.698 Z" fill="#000000" fill-rule="evenodd" fill-opacity="1" /><path clip-path="url(#clip780)" d="M83.9086 753.378 L88.7928 753.378 L88.7928 759.258 L83.9086 759.258 L83.9086 753.378 Z" fill="#000000" fill-rule="evenodd" fill-opacity="1" /><path clip-path="url(#clip780)" d="M108.978 727.776 Q105.367 727.776 103.538 731.341 Q101.733 734.883 101.733 742.012 Q101.733 749.119 103.538 752.683 Q105.367 756.225 108.978 756.225 Q112.612 756.225 114.418 752.683 Q116.246 749.119 116.246 742.012 Q116.246 734.883 114.418 731.341 Q112.612 727.776 108.978 727.776 M108.978 724.073 Q114.788 724.073 117.844 728.679 Q120.922 733.262 120.922 742.012 Q120.922 750.739 117.844 755.346 Q114.788 759.929 108.978 759.929 Q103.168 759.929 100.089 755.346 Q97.0335 750.739 97.0335 742.012 Q97.0335 733.262 100.089 728.679 Q103.168 724.073 108.978 724.073 Z" fill="#000000" fill-rule="evenodd" fill-opacity="1" /><path clip-path="url(#clip780)" d="M157.311 733.795 L146.732 744.42 L157.311 754.998 L154.556 757.799 L143.931 747.174 L133.306 757.799 L130.575 754.998 L141.131 744.42 L130.575 733.795 L133.306 730.994 L143.931 741.619 L154.556 730.994 L157.311 733.795 Z" fill="#000000" fill-rule="evenodd" fill-opacity="1" /><path clip-path="url(#clip780)" d="M169.672 755.322 L177.311 755.322 L177.311 728.957 L169.001 730.623 L169.001 726.364 L177.265 724.698 L181.94 724.698 L181.94 755.322 L189.579 755.322 L189.579 759.258 L169.672 759.258 L169.672 755.322 Z" fill="#000000" fill-rule="evenodd" fill-opacity="1" /><path clip-path="url(#clip780)" d="M209.024 727.776 Q205.413 727.776 203.584 731.341 Q201.778 734.883 201.778 742.012 Q201.778 749.119 203.584 752.683 Q205.413 756.225 209.024 756.225 Q212.658 756.225 214.463 752.683 Q216.292 749.119 216.292 742.012 Q216.292 734.883 214.463 731.341 Q212.658 727.776 209.024 727.776 M209.024 724.073 Q214.834 724.073 217.889 728.679 Q220.968 733.262 220.968 742.012 Q220.968 750.739 217.889 755.346 Q214.834 759.929 209.024 759.929 Q203.214 759.929 200.135 755.346 Q197.079 750.739 197.079 742.012 Q197.079 733.262 200.135 728.679 Q203.214 724.073 209.024 724.073 Z" fill="#000000" fill-rule="evenodd" fill-opacity="1" /><path clip-path="url(#clip780)" d="M233.645 707.077 L224.053 722.067 L233.645 722.067 L233.645 707.077 M232.648 703.767 L237.425 703.767 L237.425 722.067 L241.431 722.067 L241.431 725.227 L237.425 725.227 L237.425 731.847 L233.645 731.847 L233.645 725.227 L220.968 725.227 L220.968 721.559 L232.648 703.767 Z" fill="#000000" fill-rule="evenodd" fill-opacity="1" /><path clip-path="url(#clip780)" d="M64.3254 383.943 Q61.1773 383.943 59.3254 386.095 Q57.4967 388.248 57.4967 391.998 Q57.4967 395.725 59.3254 397.901 Q61.1773 400.054 64.3254 400.054 Q67.4735 400.054 69.3022 397.901 Q71.1541 395.725 71.1541 391.998 Q71.1541 388.248 69.3022 386.095 Q67.4735 383.943 64.3254 383.943 M73.6077 369.29 L73.6077 373.549 Q71.8485 372.716 70.0429 372.276 Q68.2606 371.836 66.5013 371.836 Q61.8717 371.836 59.418 374.961 Q56.9875 378.086 56.6402 384.405 Q58.006 382.392 60.0662 381.327 Q62.1263 380.239 64.6032 380.239 Q69.8115 380.239 72.8207 383.41 Q75.8531 386.558 75.8531 391.998 Q75.8531 397.322 72.705 400.54 Q69.5568 403.757 64.3254 403.757 Q58.33 403.757 55.1588 399.174 Q51.9875 394.567 51.9875 385.841 Q51.9875 377.646 55.8764 372.785 Q59.7652 367.901 66.3161 367.901 Q68.0754 367.901 69.8578 368.248 Q71.6633 368.595 73.6077 369.29 Z" fill="#000000" fill-rule="evenodd" fill-opacity="1" /><path clip-path="url(#clip780)" d="M83.9086 397.206 L88.7928 397.206 L88.7928 403.086 L83.9086 403.086 L83.9086 397.206 Z" fill="#000000" fill-rule="evenodd" fill-opacity="1" /><path clip-path="url(#clip780)" d="M108.978 371.605 Q105.367 371.605 103.538 375.169 Q101.733 378.711 101.733 385.841 Q101.733 392.947 103.538 396.512 Q105.367 400.054 108.978 400.054 Q112.612 400.054 114.418 396.512 Q116.246 392.947 116.246 385.841 Q116.246 378.711 114.418 375.169 Q112.612 371.605 108.978 371.605 M108.978 367.901 Q114.788 367.901 117.844 372.507 Q120.922 377.091 120.922 385.841 Q120.922 394.567 117.844 399.174 Q114.788 403.757 108.978 403.757 Q103.168 403.757 100.089 399.174 Q97.0335 394.567 97.0335 385.841 Q97.0335 377.091 100.089 372.507 Q103.168 367.901 108.978 367.901 Z" fill="#000000" fill-rule="evenodd" fill-opacity="1" /><path clip-path="url(#clip780)" d="M157.311 377.623 L146.732 388.248 L157.311 398.827 L154.556 401.628 L143.931 391.003 L133.306 401.628 L130.575 398.827 L141.131 388.248 L130.575 377.623 L133.306 374.822 L143.931 385.447 L154.556 374.822 L157.311 377.623 Z" fill="#000000" fill-rule="evenodd" fill-opacity="1" /><path clip-path="url(#clip780)" d="M169.672 399.151 L177.311 399.151 L177.311 372.785 L169.001 374.452 L169.001 370.193 L177.265 368.526 L181.94 368.526 L181.94 399.151 L189.579 399.151 L189.579 403.086 L169.672 403.086 L169.672 399.151 Z" fill="#000000" fill-rule="evenodd" fill-opacity="1" /><path clip-path="url(#clip780)" d="M209.024 371.605 Q205.413 371.605 203.584 375.169 Q201.778 378.711 201.778 385.841 Q201.778 392.947 203.584 396.512 Q205.413 400.054 209.024 400.054 Q212.658 400.054 214.463 396.512 Q216.292 392.947 216.292 385.841 Q216.292 378.711 214.463 375.169 Q212.658 371.605 209.024 371.605 M209.024 367.901 Q214.834 367.901 217.889 372.507 Q220.968 377.091 220.968 385.841 Q220.968 394.567 217.889 399.174 Q214.834 403.757 209.024 403.757 Q203.214 403.757 200.135 399.174 Q197.079 394.567 197.079 385.841 Q197.079 377.091 200.135 372.507 Q203.214 367.901 209.024 367.901 Z" fill="#000000" fill-rule="evenodd" fill-opacity="1" /><path clip-path="url(#clip780)" d="M233.645 350.906 L224.053 365.895 L233.645 365.895 L233.645 350.906 M232.648 347.596 L237.425 347.596 L237.425 365.895 L241.431 365.895 L241.431 369.055 L237.425 369.055 L237.425 375.676 L233.645 375.676 L233.645 369.055 L220.968 369.055 L220.968 365.388 L232.648 347.596 Z" fill="#000000" fill-rule="evenodd" fill-opacity="1" /><path clip-path="url(#clip780)" d="M764.272 12.096 L815.435 12.096 L815.435 18.9825 L793.965 18.9825 L793.965 72.576 L785.742 72.576 L785.742 18.9825 L764.272 18.9825 L764.272 12.096 Z" fill="#000000" fill-rule="evenodd" fill-opacity="1" /><path clip-path="url(#clip780)" d="M826.494 32.4315 Q820.498 32.4315 817.014 37.1306 Q813.531 41.7891 813.531 49.9314 Q813.531 58.0738 816.974 62.7728 Q820.458 67.4314 826.494 67.4314 Q832.448 67.4314 835.932 62.7323 Q839.416 58.0333 839.416 49.9314 Q839.416 41.8701 835.932 37.1711 Q832.448 32.4315 826.494 32.4315 M826.494 26.1121 Q836.216 26.1121 841.766 32.4315 Q847.315 38.7509 847.315 49.9314 Q847.315 61.0714 841.766 67.4314 Q836.216 73.7508 826.494 73.7508 Q816.731 73.7508 811.181 67.4314 Q805.672 61.0714 805.672 49.9314 Q805.672 38.7509 811.181 32.4315 Q816.731 26.1121 826.494 26.1121 Z" fill="#000000" fill-rule="evenodd" fill-opacity="1" /><path clip-path="url(#clip780)" d="M867.043 14.324 L867.043 27.2059 L882.396 27.2059 L882.396 32.9987 L867.043 32.9987 L867.043 57.6282 Q867.043 63.1779 868.542 64.7578 Q870.081 66.3376 874.74 66.3376 L882.396 66.3376 L882.396 72.576 L874.74 72.576 Q866.111 72.576 862.83 69.3758 Q859.549 66.1351 859.549 57.6282 L859.549 32.9987 L854.08 32.9987 L854.08 27.2059 L859.549 27.2059 L859.549 14.324 L867.043 14.324 Z" fill="#000000" fill-rule="evenodd" fill-opacity="1" /><path clip-path="url(#clip780)" d="M912.818 49.7694 Q903.785 49.7694 900.301 51.8354 Q896.817 53.9013 896.817 58.8839 Q896.817 62.8538 899.41 65.2034 Q902.043 67.5124 906.539 67.5124 Q912.737 67.5124 916.464 63.1374 Q920.232 58.7219 920.232 51.4303 L920.232 49.7694 L912.818 49.7694 M927.685 46.6907 L927.685 72.576 L920.232 72.576 L920.232 65.6895 Q917.679 69.8214 913.872 71.8063 Q910.064 73.7508 904.555 73.7508 Q897.587 73.7508 893.455 69.8619 Q889.364 65.9325 889.364 59.3701 Q889.364 51.7138 894.468 47.825 Q899.612 43.9361 909.78 43.9361 L920.232 43.9361 L920.232 43.2069 Q920.232 38.0623 916.829 35.2672 Q913.467 32.4315 907.35 32.4315 Q903.461 32.4315 899.774 33.3632 Q896.088 34.295 892.685 36.1584 L892.685 29.2718 Q896.777 27.692 900.625 26.9223 Q904.474 26.1121 908.119 26.1121 Q917.963 26.1121 922.824 31.2163 Q927.685 36.3204 927.685 46.6907 Z" fill="#000000" fill-rule="evenodd" fill-opacity="1" /><path clip-path="url(#clip780)" d="M943.038 9.54393 L950.492 9.54393 L950.492 72.576 L943.038 72.576 L943.038 9.54393 Z" fill="#000000" fill-rule="evenodd" fill-opacity="1" /><path clip-path="url(#clip780)" d="M1022.31 34.0924 L1022.31 9.54393 L1029.77 9.54393 L1029.77 72.576 L1022.31 72.576 L1022.31 65.7705 Q1019.96 69.8214 1016.36 71.8063 Q1012.79 73.7508 1007.77 73.7508 Q999.548 73.7508 994.363 67.1883 Q989.218 60.6258 989.218 49.9314 Q989.218 39.2371 994.363 32.6746 Q999.548 26.1121 1007.77 26.1121 Q1012.79 26.1121 1016.36 28.0971 Q1019.96 30.0415 1022.31 34.0924 M996.915 49.9314 Q996.915 58.1548 1000.28 62.8538 Q1003.68 67.5124 1009.59 67.5124 Q1015.51 67.5124 1018.91 62.8538 Q1022.31 58.1548 1022.31 49.9314 Q1022.31 41.7081 1018.91 37.0496 Q1015.51 32.3505 1009.59 32.3505 Q1003.68 32.3505 1000.28 37.0496 Q996.915 41.7081 996.915 49.9314 Z" fill="#000000" fill-rule="evenodd" fill-opacity="1" /><path clip-path="url(#clip780)" d="M1083.93 48.0275 L1083.93 51.6733 L1049.66 51.6733 Q1050.14 59.3701 1054.28 63.421 Q1058.45 67.4314 1065.86 67.4314 Q1070.16 67.4314 1074.17 66.3781 Q1078.22 65.3249 1082.19 63.2184 L1082.19 70.267 Q1078.18 71.9684 1073.96 72.8596 Q1069.75 73.7508 1065.42 73.7508 Q1054.56 73.7508 1048.2 67.4314 Q1041.88 61.1119 1041.88 50.3365 Q1041.88 39.1965 1047.88 32.6746 Q1053.91 26.1121 1064.12 26.1121 Q1073.27 26.1121 1078.58 32.0264 Q1083.93 37.9003 1083.93 48.0275 M1076.47 45.84 Q1076.39 39.7232 1073.03 36.0774 Q1069.71 32.4315 1064.2 32.4315 Q1057.96 32.4315 1054.19 35.9558 Q1050.47 39.4801 1049.9 45.8805 L1076.47 45.84 Z" fill="#000000" fill-rule="evenodd" fill-opacity="1" /><path clip-path="url(#clip780)" d="M1122.53 27.2059 L1129.99 27.2059 L1129.99 72.576 L1122.53 72.576 L1122.53 27.2059 M1122.53 9.54393 L1129.99 9.54393 L1129.99 18.9825 L1122.53 18.9825 L1122.53 9.54393 Z" fill="#000000" fill-rule="evenodd" fill-opacity="1" /><path clip-path="url(#clip780)" d="M1183.3 45.1919 L1183.3 72.576 L1175.84 72.576 L1175.84 45.4349 Q1175.84 38.994 1173.33 35.7938 Q1170.82 32.5936 1165.8 32.5936 Q1159.76 32.5936 1156.28 36.4419 Q1152.79 40.2903 1152.79 46.9338 L1152.79 72.576 L1145.3 72.576 L1145.3 27.2059 L1152.79 27.2059 L1152.79 34.2544 Q1155.47 30.163 1159.07 28.1376 Q1162.72 26.1121 1167.46 26.1121 Q1175.28 26.1121 1179.29 30.9732 Q1183.3 35.7938 1183.3 45.1919 Z" fill="#000000" fill-rule="evenodd" fill-opacity="1" /><path clip-path="url(#clip780)" d="M1205.54 14.324 L1205.54 27.2059 L1220.89 27.2059 L1220.89 32.9987 L1205.54 32.9987 L1205.54 57.6282 Q1205.54 63.1779 1207.04 64.7578 Q1208.57 66.3376 1213.23 66.3376 L1220.89 66.3376 L1220.89 72.576 L1213.23 72.576 Q1204.61 72.576 1201.32 69.3758 Q1198.04 66.1351 1198.04 57.6282 L1198.04 32.9987 L1192.57 32.9987 L1192.57 27.2059 L1198.04 27.2059 L1198.04 14.324 L1205.54 14.324 Z" fill="#000000" fill-rule="evenodd" fill-opacity="1" /><path clip-path="url(#clip780)" d="M1269.5 48.0275 L1269.5 51.6733 L1235.23 51.6733 Q1235.72 59.3701 1239.85 63.421 Q1244.02 67.4314 1251.43 67.4314 Q1255.73 67.4314 1259.74 66.3781 Q1263.79 65.3249 1267.76 63.2184 L1267.76 70.267 Q1263.75 71.9684 1259.54 72.8596 Q1255.32 73.7508 1250.99 73.7508 Q1240.13 73.7508 1233.77 67.4314 Q1227.45 61.1119 1227.45 50.3365 Q1227.45 39.1965 1233.45 32.6746 Q1239.48 26.1121 1249.69 26.1121 Q1258.85 26.1121 1264.15 32.0264 Q1269.5 37.9003 1269.5 48.0275 M1262.05 45.84 Q1261.97 39.7232 1258.6 36.0774 Q1255.28 32.4315 1249.77 32.4315 Q1243.53 32.4315 1239.77 35.9558 Q1236.04 39.4801 1235.47 45.8805 L1262.05 45.84 Z" fill="#000000" fill-rule="evenodd" fill-opacity="1" /><path clip-path="url(#clip780)" d="M1308.02 34.1734 Q1306.77 33.4443 1305.27 33.1202 Q1303.81 32.7556 1302.03 32.7556 Q1295.71 32.7556 1292.31 36.8875 Q1288.94 40.9789 1288.94 48.6757 L1288.94 72.576 L1281.45 72.576 L1281.45 27.2059 L1288.94 27.2059 L1288.94 34.2544 Q1291.29 30.1225 1295.06 28.1376 Q1298.83 26.1121 1304.22 26.1121 Q1304.99 26.1121 1305.92 26.2337 Q1306.85 26.3147 1307.98 26.5172 L1308.02 34.1734 Z" fill="#000000" fill-rule="evenodd" fill-opacity="1" /><path clip-path="url(#clip780)" d="M1352.1 45.1919 L1352.1 72.576 L1344.64 72.576 L1344.64 45.4349 Q1344.64 38.994 1342.13 35.7938 Q1339.62 32.5936 1334.6 32.5936 Q1328.56 32.5936 1325.08 36.4419 Q1321.6 40.2903 1321.6 46.9338 L1321.6 72.576 L1314.1 72.576 L1314.1 27.2059 L1321.6 27.2059 L1321.6 34.2544 Q1324.27 30.163 1327.87 28.1376 Q1331.52 26.1121 1336.26 26.1121 Q1344.08 26.1121 1348.09 30.9732 Q1352.1 35.7938 1352.1 45.1919 Z" fill="#000000" fill-rule="evenodd" fill-opacity="1" /><path clip-path="url(#clip780)" d="M1387.58 49.7694 Q1378.55 49.7694 1375.07 51.8354 Q1371.58 53.9013 1371.58 58.8839 Q1371.58 62.8538 1374.18 65.2034 Q1376.81 67.5124 1381.31 67.5124 Q1387.5 67.5124 1391.23 63.1374 Q1395 58.7219 1395 51.4303 L1395 49.7694 L1387.58 49.7694 M1402.45 46.6907 L1402.45 72.576 L1395 72.576 L1395 65.6895 Q1392.45 69.8214 1388.64 71.8063 Q1384.83 73.7508 1379.32 73.7508 Q1372.35 73.7508 1368.22 69.8619 Q1364.13 65.9325 1364.13 59.3701 Q1364.13 51.7138 1369.23 47.825 Q1374.38 43.9361 1384.55 43.9361 L1395 43.9361 L1395 43.2069 Q1395 38.0623 1391.59 35.2672 Q1388.23 32.4315 1382.12 32.4315 Q1378.23 32.4315 1374.54 33.3632 Q1370.85 34.295 1367.45 36.1584 L1367.45 29.2718 Q1371.54 27.692 1375.39 26.9223 Q1379.24 26.1121 1382.89 26.1121 Q1392.73 26.1121 1397.59 31.2163 Q1402.45 36.3204 1402.45 46.6907 Z" fill="#000000" fill-rule="evenodd" fill-opacity="1" /><path clip-path="url(#clip780)" d="M1447.66 34.0924 L1447.66 9.54393 L1455.11 9.54393 L1455.11 72.576 L1447.66 72.576 L1447.66 65.7705 Q1445.31 69.8214 1441.7 71.8063 Q1438.14 73.7508 1433.12 73.7508 Q1424.89 73.7508 1419.71 67.1883 Q1414.56 60.6258 1414.56 49.9314 Q1414.56 39.2371 1419.71 32.6746 Q1424.89 26.1121 1433.12 26.1121 Q1438.14 26.1121 1441.7 28.0971 Q1445.31 30.0415 1447.66 34.0924 M1422.26 49.9314 Q1422.26 58.1548 1425.62 62.8538 Q1429.03 67.5124 1434.94 67.5124 Q1440.85 67.5124 1444.26 62.8538 Q1447.66 58.1548 1447.66 49.9314 Q1447.66 41.7081 1444.26 37.0496 Q1440.85 32.3505 1434.94 32.3505 Q1429.03 32.3505 1425.62 37.0496 Q1422.26 41.7081 1422.26 49.9314 Z" fill="#000000" fill-rule="evenodd" fill-opacity="1" /><path clip-path="url(#clip780)" d="M1488.05 32.4315 Q1482.05 32.4315 1478.57 37.1306 Q1475.08 41.7891 1475.08 49.9314 Q1475.08 58.0738 1478.53 62.7728 Q1482.01 67.4314 1488.05 67.4314 Q1494 67.4314 1497.49 62.7323 Q1500.97 58.0333 1500.97 49.9314 Q1500.97 41.8701 1497.49 37.1711 Q1494 32.4315 1488.05 32.4315 M1488.05 26.1121 Q1497.77 26.1121 1503.32 32.4315 Q1508.87 38.7509 1508.87 49.9314 Q1508.87 61.0714 1503.32 67.4314 Q1497.77 73.7508 1488.05 73.7508 Q1478.28 73.7508 1472.73 67.4314 Q1467.23 61.0714 1467.23 49.9314 Q1467.23 38.7509 1472.73 32.4315 Q1478.28 26.1121 1488.05 26.1121 Z" fill="#000000" fill-rule="evenodd" fill-opacity="1" /><path clip-path="url(#clip780)" d="M1550.15 28.5427 L1550.15 35.5912 Q1546.99 33.9709 1543.58 33.1607 Q1540.18 32.3505 1536.54 32.3505 Q1530.99 32.3505 1528.19 34.0519 Q1525.44 35.7533 1525.44 39.156 Q1525.44 41.7486 1527.42 43.2475 Q1529.41 44.7058 1535.4 46.0426 L1537.95 46.6097 Q1545.89 48.3111 1549.22 51.4303 Q1552.58 54.509 1552.58 60.0587 Q1552.58 66.3781 1547.55 70.0644 Q1542.57 73.7508 1533.82 73.7508 Q1530.18 73.7508 1526.21 73.0216 Q1522.28 72.3329 1517.9 70.9151 L1517.9 63.2184 Q1522.03 65.3654 1526.04 66.4591 Q1530.05 67.5124 1533.98 67.5124 Q1539.25 67.5124 1542.09 65.73 Q1544.92 63.9071 1544.92 60.6258 Q1544.92 57.5877 1542.86 55.9673 Q1540.83 54.3469 1533.9 52.8481 L1531.31 52.2405 Q1524.38 50.7821 1521.3 47.7845 Q1518.23 44.7463 1518.23 39.4801 Q1518.23 33.0797 1522.76 29.5959 Q1527.3 26.1121 1535.64 26.1121 Q1539.78 26.1121 1543.42 26.7198 Q1547.07 27.3274 1550.15 28.5427 Z" fill="#000000" fill-rule="evenodd" fill-opacity="1" /><path clip-path="url(#clip780)" d="M1598.03 65.7705 L1598.03 89.8329 L1590.53 89.8329 L1590.53 27.2059 L1598.03 27.2059 L1598.03 34.0924 Q1600.38 30.0415 1603.94 28.0971 Q1607.55 26.1121 1612.53 26.1121 Q1620.79 26.1121 1625.94 32.6746 Q1631.12 39.2371 1631.12 49.9314 Q1631.12 60.6258 1625.94 67.1883 Q1620.79 73.7508 1612.53 73.7508 Q1607.55 73.7508 1603.94 71.8063 Q1600.38 69.8214 1598.03 65.7705 M1623.39 49.9314 Q1623.39 41.7081 1619.98 37.0496 Q1616.62 32.3505 1610.71 32.3505 Q1604.79 32.3505 1601.39 37.0496 Q1598.03 41.7081 1598.03 49.9314 Q1598.03 58.1548 1601.39 62.8538 Q1604.79 67.5124 1610.71 67.5124 Q1616.62 67.5124 1619.98 62.8538 Q1623.39 58.1548 1623.39 49.9314 Z" fill="#000000" fill-rule="evenodd" fill-opacity="1" /><path clip-path="url(#clip780)" d="M1661.06 32.4315 Q1655.07 32.4315 1651.58 37.1306 Q1648.1 41.7891 1648.1 49.9314 Q1648.1 58.0738 1651.54 62.7728 Q1655.03 67.4314 1661.06 67.4314 Q1667.02 67.4314 1670.5 62.7323 Q1673.98 58.0333 1673.98 49.9314 Q1673.98 41.8701 1670.5 37.1711 Q1667.02 32.4315 1661.06 32.4315 M1661.06 26.1121 Q1670.78 26.1121 1676.33 32.4315 Q1681.88 38.7509 1681.88 49.9314 Q1681.88 61.0714 1676.33 67.4314 Q1670.78 73.7508 1661.06 73.7508 Q1651.3 73.7508 1645.75 67.4314 Q1640.24 61.0714 1640.24 49.9314 Q1640.24 38.7509 1645.75 32.4315 Q1651.3 26.1121 1661.06 26.1121 Z" fill="#000000" fill-rule="evenodd" fill-opacity="1" /><path clip-path="url(#clip780)" d="M1720.53 34.1734 Q1719.27 33.4443 1717.77 33.1202 Q1716.32 32.7556 1714.53 32.7556 Q1708.21 32.7556 1704.81 36.8875 Q1701.45 40.9789 1701.45 48.6757 L1701.45 72.576 L1693.95 72.576 L1693.95 27.2059 L1701.45 27.2059 L1701.45 34.2544 Q1703.8 30.1225 1707.57 28.1376 Q1711.33 26.1121 1716.72 26.1121 Q1717.49 26.1121 1718.42 26.2337 Q1719.35 26.3147 1720.49 26.5172 L1720.53 34.1734 Z" fill="#000000" fill-rule="evenodd" fill-opacity="1" /><path clip-path="url(#clip780)" d="M1784.57 34.0924 L1784.57 9.54393 L1792.03 9.54393 L1792.03 72.576 L1784.57 72.576 L1784.57 65.7705 Q1782.22 69.8214 1778.62 71.8063 Q1775.05 73.7508 1770.03 73.7508 Q1761.81 73.7508 1756.62 67.1883 Q1751.48 60.6258 1751.48 49.9314 Q1751.48 39.2371 1756.62 32.6746 Q1761.81 26.1121 1770.03 26.1121 Q1775.05 26.1121 1778.62 28.0971 Q1782.22 30.0415 1784.57 34.0924 M1759.17 49.9314 Q1759.17 58.1548 1762.54 62.8538 Q1765.94 67.5124 1771.85 67.5124 Q1777.77 67.5124 1781.17 62.8538 Q1784.57 58.1548 1784.57 49.9314 Q1784.57 41.7081 1781.17 37.0496 Q1777.77 32.3505 1771.85 32.3505 Q1765.94 32.3505 1762.54 37.0496 Q1759.17 41.7081 1759.17 49.9314 Z" fill="#000000" fill-rule="evenodd" fill-opacity="1" /><path clip-path="url(#clip780)" d="M1807.38 27.2059 L1814.83 27.2059 L1814.83 72.576 L1807.38 72.576 L1807.38 27.2059 M1807.38 9.54393 L1814.83 9.54393 L1814.83 18.9825 L1807.38 18.9825 L1807.38 9.54393 Z" fill="#000000" fill-rule="evenodd" fill-opacity="1" /><path clip-path="url(#clip780)" d="M1851.05 49.7694 Q1842.01 49.7694 1838.53 51.8354 Q1835.05 53.9013 1835.05 58.8839 Q1835.05 62.8538 1837.64 65.2034 Q1840.27 67.5124 1844.77 67.5124 Q1850.97 67.5124 1854.69 63.1374 Q1858.46 58.7219 1858.46 51.4303 L1858.46 49.7694 L1851.05 49.7694 M1865.92 46.6907 L1865.92 72.576 L1858.46 72.576 L1858.46 65.6895 Q1855.91 69.8214 1852.1 71.8063 Q1848.29 73.7508 1842.78 73.7508 Q1835.82 73.7508 1831.68 69.8619 Q1827.59 65.9325 1827.59 59.3701 Q1827.59 51.7138 1832.7 47.825 Q1837.84 43.9361 1848.01 43.9361 L1858.46 43.9361 L1858.46 43.2069 Q1858.46 38.0623 1855.06 35.2672 Q1851.7 32.4315 1845.58 32.4315 Q1841.69 32.4315 1838 33.3632 Q1834.32 34.295 1830.92 36.1584 L1830.92 29.2718 Q1835.01 27.692 1838.86 26.9223 Q1842.7 26.1121 1846.35 26.1121 Q1856.19 26.1121 1861.05 31.2163 Q1865.92 36.3204 1865.92 46.6907 Z" fill="#000000" fill-rule="evenodd" fill-opacity="1" /><polyline clip-path="url(#clip782)" style="stroke:#009af9; stroke-linecap:butt; stroke-linejoin:round; stroke-width:4; stroke-opacity:1; fill:none" points="
  336.167,1447.87 340.35,1447.87 344.533,1447.87 348.717,1447.87 352.9,1447.87 357.084,1447.86 361.267,1447.86 365.451,1447.86 369.634,1447.85 373.818,1447.85 
  378.001,1447.85 382.184,1447.85 386.368,1447.85 390.551,1447.84 394.735,1447.84 398.918,1447.84 403.102,1447.84 407.285,1447.84 411.469,1447.84 415.652,1447.83 
  419.835,1447.83 424.019,1447.83 428.202,1447.83 432.386,1447.82 436.569,1447.82 440.753,1447.82 444.936,1447.82 449.12,1447.81 453.303,1447.81 457.487,1447.8 
  461.67,1447.8 465.853,1447.8 470.037,1447.79 474.22,1447.79 478.404,1447.78 482.587,1447.78 486.771,1447.77 490.954,1447.77 495.138,1447.76 499.321,1447.75 
  503.504,1447.75 507.688,1447.74 511.871,1447.73 516.055,1447.73 520.238,1447.72 524.422,1447.71 528.605,1447.7 532.789,1447.69 536.972,1447.68 541.155,1447.67 
  545.339,1447.66 549.522,1447.64 553.706,1447.63 557.889,1447.62 562.073,1447.6 566.256,1447.59 570.44,1447.57 574.623,1447.55 578.807,1447.54 582.99,1447.52 
  587.173,1447.5 591.357,1447.48 595.54,1447.45 599.724,1447.43 603.907,1447.4 608.091,1447.38 612.274,1447.35 616.458,1447.32 620.641,1447.29 624.824,1447.25 
  629.008,1447.22 633.191,1447.18 637.375,1447.14 641.558,1447.1 645.742,1447.06 649.925,1447.01 654.109,1446.96 658.292,1446.91 662.475,1446.86 666.659,1446.8 
  670.842,1446.74 675.026,1446.67 679.209,1446.61 683.393,1446.54 687.576,1446.46 691.76,1446.38 695.943,1446.29 700.127,1446.21 704.31,1446.11 708.493,1446.01 
  712.677,1445.91 716.86,1445.79 721.044,1445.68 725.227,1445.55 729.411,1445.42 733.594,1445.28 737.778,1445.13 741.961,1444.98 746.144,1444.82 750.328,1444.64 
  754.511,1444.46 758.695,1444.27 762.878,1444.06 767.062,1443.85 771.245,1443.62 775.429,1443.38 779.612,1443.12 783.795,1442.86 787.979,1442.57 792.162,1442.27 
  796.346,1441.95 800.529,1441.62 804.713,1441.27 808.896,1440.89 813.08,1440.5 817.263,1440.08 821.447,1439.64 825.63,1439.18 829.813,1438.69 833.997,1438.17 
  838.18,1437.62 842.364,1437.04 846.547,1436.43 850.731,1435.78 854.914,1435.1 859.098,1434.38 863.281,1433.62 867.464,1432.82 871.648,1431.97 875.831,1431.07 
  880.015,1430.13 884.198,1429.13 888.382,1428.08 892.565,1426.96 896.749,1425.79 900.932,1424.55 905.115,1423.24 909.299,1421.86 913.482,1420.4 917.666,1418.86 
  921.849,1417.24 926.033,1415.52 930.216,1413.71 934.4,1411.81 938.583,1409.79 942.767,1407.67 946.95,1405.43 951.133,1403.07 955.317,1400.58 959.5,1397.95 
  963.684,1395.18 967.867,1392.26 972.051,1389.18 976.234,1385.94 980.418,1382.52 984.601,1378.92 988.784,1375.13 992.968,1371.14 997.151,1366.93 1001.33,1362.5 
  1005.52,1357.84 1009.7,1352.94 1013.89,1347.78 1018.07,1342.35 1022.25,1336.64 1026.44,1330.64 1030.62,1324.33 1034.8,1317.7 1038.99,1310.74 1043.17,1303.44 
  1047.35,1295.76 1051.54,1287.72 1055.72,1279.27 1059.9,1270.42 1064.09,1261.15 1068.27,1251.43 1072.45,1241.26 1076.64,1230.62 1080.82,1219.49 1085,1207.86 
  1089.19,1195.7 1093.37,1183.02 1097.55,1169.78 1101.74,1155.98 1105.92,1141.6 1110.1,1126.64 1114.29,1111.07 1118.47,1094.89 1122.65,1078.1 1126.84,1060.67 
  1131.02,1042.62 1135.21,1023.93 1139.39,1004.6 1143.57,984.638 1147.76,964.047 1151.94,942.833 1156.12,921.007 1160.31,898.584 1164.49,875.581 1168.67,852.022 
  1172.86,827.932 1177.04,803.344 1181.22,778.291 1185.41,752.817 1189.59,726.965 1193.77,700.788 1197.96,674.342 1202.14,647.687 1206.32,620.891 1210.51,594.026 
  1214.69,567.167 1218.87,540.397 1223.06,513.8 1227.24,487.467 1231.42,461.491 1235.61,435.968 1239.79,410.997 1243.97,386.677 1248.16,363.111 1252.34,340.401 
  1256.53,318.646 1260.71,297.948 1264.89,278.402 1269.08,260.103 1273.26,243.14 1277.44,227.599 1281.63,213.557 1285.81,201.086 1289.99,190.25 1294.18,181.105 
  1298.36,173.697 1302.54,168.066 1306.73,164.236 1310.91,162.228 1315.09,162.047 1319.28,163.69 1323.46,167.145 1327.64,172.388 1331.83,179.385 1336.01,188.094 
  1340.19,198.464 1344.38,210.435 1348.56,223.94 1352.74,238.906 1356.93,255.253 1361.11,272.896 1365.29,291.746 1369.48,311.712 1373.66,332.697 1377.85,354.605 
  1382.03,377.34 1386.21,400.805 1390.4,424.902 1394.58,449.536 1398.76,474.615 1402.95,500.047 1407.13,525.746 1411.31,551.628 1415.5,577.612 1419.68,603.624 
  1423.86,629.59 1428.05,655.446 1432.23,681.127 1436.41,706.578 1440.6,731.745 1444.78,756.581 1448.96,781.042 1453.15,805.089 1457.33,828.689 1461.51,851.811 
  1465.7,874.43 1469.88,896.523 1474.06,918.073 1478.25,939.063 1482.43,959.483 1486.61,979.324 1490.8,998.58 1494.98,1017.25 1499.17,1035.33 1503.35,1052.82 
  1507.53,1069.72 1511.72,1086.05 1515.9,1101.8 1520.08,1116.99 1524.27,1131.62 1528.45,1145.7 1532.63,1159.24 1536.82,1172.27 1541,1184.78 1545.18,1196.79 
  1549.37,1208.32 1553.55,1219.37 1557.73,1229.97 1561.92,1240.12 1566.1,1249.85 1570.28,1259.15 1574.47,1268.06 1578.65,1276.57 1582.83,1284.72 1587.02,1292.5 
  1591.2,1299.93 1595.38,1307.03 1599.57,1313.81 1603.75,1320.29 1607.93,1326.46 1612.12,1332.35 1616.3,1337.97 1620.49,1343.33 1624.67,1348.43 1628.85,1353.3 
  1633.04,1357.94 1637.22,1362.36 1641.4,1366.57 1645.59,1370.57 1649.77,1374.39 1653.95,1378.02 1658.14,1381.48 1662.32,1384.77 1666.5,1387.91 1670.69,1390.89 
  1674.87,1393.72 1679.05,1396.42 1683.24,1398.99 1687.42,1401.43 1691.6,1403.75 1695.79,1405.95 1699.97,1408.05 1704.15,1410.05 1708.34,1411.94 1712.52,1413.74 
  1716.7,1415.46 1720.89,1417.08 1725.07,1418.63 1729.25,1420.1 1733.44,1421.5 1737.62,1422.83 1741.81,1424.09 1745.99,1425.29 1750.17,1426.42 1754.36,1427.51 
  1758.54,1428.53 1762.72,1429.51 1766.91,1430.44 1771.09,1431.32 1775.27,1432.15 1779.46,1432.95 1783.64,1433.7 1787.82,1434.42 1792.01,1435.1 1796.19,1435.75 
  1800.37,1436.36 1804.56,1436.94 1808.74,1437.5 1812.92,1438.02 1817.11,1438.52 1821.29,1438.99 1825.47,1439.44 1829.66,1439.87 1833.84,1440.28 1838.02,1440.66 
  1842.21,1441.03 1846.39,1441.37 1850.57,1441.7 1854.76,1442.02 1858.94,1442.31 1863.13,1442.6 1867.31,1442.86 1871.49,1443.12 1875.68,1443.36 1879.86,1443.59 
  1884.04,1443.81 1888.23,1444.01 1892.41,1444.21 1896.59,1444.39 1900.78,1444.57 1904.96,1444.74 1909.14,1444.9 1913.33,1445.05 1917.51,1445.19 1921.69,1445.33 
  1925.88,1445.46 1930.06,1445.58 1934.24,1445.7 1938.43,1445.81 1942.61,1445.91 1946.79,1446.01 1950.98,1446.11 1955.16,1446.2 1959.34,1446.28 1963.53,1446.36 
  1967.71,1446.44 1971.89,1446.51 1976.08,1446.58 1980.26,1446.65 1984.45,1446.71 1988.63,1446.77 1992.81,1446.82 1997,1446.88 2001.18,1446.93 2005.36,1446.98 
  2009.55,1447.02 2013.73,1447.06 2017.91,1447.11 2022.1,1447.14 2026.28,1447.18 2030.46,1447.22 2034.65,1447.25 2038.83,1447.28 2043.01,1447.31 2047.2,1447.34 
  2051.38,1447.37 2055.56,1447.39 2059.75,1447.42 2063.93,1447.44 2068.11,1447.46 2072.3,1447.48 2076.48,1447.5 2080.66,1447.52 2084.85,1447.54 2089.03,1447.56 
  2093.21,1447.57 2097.4,1447.59 2101.58,1447.6 2105.77,1447.62 2109.95,1447.63 2114.13,1447.64 2118.32,1447.65 2122.5,1447.66 2126.68,1447.68 2130.87,1447.69 
  2135.05,1447.69 2139.23,1447.7 2143.42,1447.71 2147.6,1447.72 2151.78,1447.73 2155.97,1447.74 2160.15,1447.74 2164.33,1447.75 2168.52,1447.76 2172.7,1447.76 
  2176.88,1447.77 2181.07,1447.77 2185.25,1447.78 2189.43,1447.78 2193.62,1447.79 2197.8,1447.79 2201.98,1447.8 2206.17,1447.8 2210.35,1447.8 2214.53,1447.81 
  2218.72,1447.81 2222.9,1447.81 2227.09,1447.82 2231.27,1447.82 2235.45,1447.82 2239.64,1447.82 2243.82,1447.83 2248,1447.83 2252.19,1447.83 2256.37,1447.83 
  2260.55,1447.84 2264.74,1447.84 2268.92,1447.84 2273.1,1447.84 2277.29,1447.84 2281.47,1447.84 2285.65,1447.85 2289.84,1447.85 2294.02,1447.85 
  "/>
<path clip-path="url(#clip780)" d="
M2000.56 272.585 L2283.58 272.585 L2283.58 168.905 L2000.56 168.905  Z
  " fill="#ffffff" fill-rule="evenodd" fill-opacity="1"/>
<polyline clip-path="url(#clip780)" style="stroke:#000000; stroke-linecap:butt; stroke-linejoin:round; stroke-width:4; stroke-opacity:1; fill:none" points="
  2000.56,272.585 2283.58,272.585 2283.58,168.905 2000.56,168.905 2000.56,272.585 
  "/>
<polyline clip-path="url(#clip780)" style="stroke:#009af9; stroke-linecap:butt; stroke-linejoin:round; stroke-width:4; stroke-opacity:1; fill:none" points="
  2023.62,220.745 2161.97,220.745 
  "/>
<path clip-path="url(#clip780)" d="M2198.87 240.432 Q2197.07 245.062 2195.35 246.474 Q2193.64 247.886 2190.77 247.886 L2187.37 247.886 L2187.37 244.321 L2189.87 244.321 Q2191.63 244.321 2192.6 243.488 Q2193.57 242.654 2194.75 239.552 L2195.52 237.608 L2185.03 212.099 L2189.54 212.099 L2197.65 232.377 L2205.75 212.099 L2210.26 212.099 L2198.87 240.432 Z" fill="#000000" fill-rule="evenodd" fill-opacity="1" /><path clip-path="url(#clip780)" d="M2217.55 234.089 L2225.19 234.089 L2225.19 207.724 L2216.88 209.391 L2216.88 205.131 L2225.15 203.465 L2229.82 203.465 L2229.82 234.089 L2237.46 234.089 L2237.46 238.025 L2217.55 238.025 L2217.55 234.089 Z" fill="#000000" fill-rule="evenodd" fill-opacity="1" /></svg>
