<?xml version="1.0" encoding="utf-8"?>
<svg xmlns="http://www.w3.org/2000/svg" xmlns:xlink="http://www.w3.org/1999/xlink" width="600" height="400" viewBox="0 0 2400 1600">
<defs>
  <clipPath id="clip860">
    <rect x="0" y="0" width="2400" height="1600"/>
  </clipPath>
</defs>
<path clip-path="url(#clip860)" d="
M0 1600 L2400 1600 L2400 0 L0 0  Z
  " fill="#ffffff" fill-rule="evenodd" fill-opacity="1"/>
<defs>
  <clipPath id="clip861">
    <rect x="480" y="0" width="1681" height="1600"/>
  </clipPath>
</defs>
<path clip-path="url(#clip860)" d="
M306.25 1486.45 L2352.76 1486.45 L2352.76 123.472 L306.25 123.472  Z
  " fill="#ffffff" fill-rule="evenodd" fill-opacity="1"/>
<defs>
  <clipPath id="clip862">
    <rect x="306" y="123" width="2048" height="1364"/>
  </clipPath>
</defs>
<polyline clip-path="url(#clip862)" style="stroke:#000000; stroke-linecap:butt; stroke-linejoin:round; stroke-width:2; stroke-opacity:0.1; fill:none" points="
  360.045,1486.45 360.045,123.472 
  "/>
<polyline clip-path="url(#clip862)" style="stroke:#000000; stroke-linecap:butt; stroke-linejoin:round; stroke-width:2; stroke-opacity:0.1; fill:none" points="
  772.58,1486.45 772.58,123.472 
  "/>
<polyline clip-path="url(#clip862)" style="stroke:#000000; stroke-linecap:butt; stroke-linejoin:round; stroke-width:2; stroke-opacity:0.1; fill:none" points="
  1185.12,1486.45 1185.12,123.472 
  "/>
<polyline clip-path="url(#clip862)" style="stroke:#000000; stroke-linecap:butt; stroke-linejoin:round; stroke-width:2; stroke-opacity:0.1; fill:none" points="
  1597.65,1486.45 1597.65,123.472 
  "/>
<polyline clip-path="url(#clip862)" style="stroke:#000000; stroke-linecap:butt; stroke-linejoin:round; stroke-width:2; stroke-opacity:0.1; fill:none" points="
  2010.19,1486.45 2010.19,123.472 
  "/>
<polyline clip-path="url(#clip860)" style="stroke:#000000; stroke-linecap:butt; stroke-linejoin:round; stroke-width:4; stroke-opacity:1; fill:none" points="
  306.25,1486.45 2352.76,1486.45 
  "/>
<polyline clip-path="url(#clip860)" style="stroke:#000000; stroke-linecap:butt; stroke-linejoin:round; stroke-width:4; stroke-opacity:1; fill:none" points="
  360.045,1486.45 360.045,1467.55 
  "/>
<polyline clip-path="url(#clip860)" style="stroke:#000000; stroke-linecap:butt; stroke-linejoin:round; stroke-width:4; stroke-opacity:1; fill:none" points="
  772.58,1486.45 772.58,1467.55 
  "/>
<polyline clip-path="url(#clip860)" style="stroke:#000000; stroke-linecap:butt; stroke-linejoin:round; stroke-width:4; stroke-opacity:1; fill:none" points="
  1185.12,1486.45 1185.12,1467.55 
  "/>
<polyline clip-path="url(#clip860)" style="stroke:#000000; stroke-linecap:butt; stroke-linejoin:round; stroke-width:4; stroke-opacity:1; fill:none" points="
  1597.65,1486.45 1597.65,1467.55 
  "/>
<polyline clip-path="url(#clip860)" style="stroke:#000000; stroke-linecap:butt; stroke-linejoin:round; stroke-width:4; stroke-opacity:1; fill:none" points="
  2010.19,1486.45 2010.19,1467.55 
  "/>
<path clip-path="url(#clip860)" d="M360.045 1515.64 Q356.434 1515.64 354.605 1519.2 Q352.799 1522.75 352.799 1529.87 Q352.799 1536.98 354.605 1540.55 Q356.434 1544.09 360.045 1544.09 Q363.679 1544.09 365.485 1540.55 Q367.313 1536.98 367.313 1529.87 Q367.313 1522.75 365.485 1519.2 Q363.679 1515.64 360.045 1515.64 M360.045 1511.93 Q365.855 1511.93 368.911 1516.54 Q371.989 1521.12 371.989 1529.87 Q371.989 1538.6 368.911 1543.21 Q365.855 1547.79 360.045 1547.79 Q354.235 1547.79 351.156 1543.21 Q348.1 1538.6 348.1 1529.87 Q348.1 1521.12 351.156 1516.54 Q354.235 1511.93 360.045 1511.93 Z" fill="#000000" fill-rule="evenodd" fill-opacity="1" /><path clip-path="url(#clip860)" d="M732.187 1543.18 L739.826 1543.18 L739.826 1516.82 L731.516 1518.49 L731.516 1514.23 L739.779 1512.56 L744.455 1512.56 L744.455 1543.18 L752.094 1543.18 L752.094 1547.12 L732.187 1547.12 L732.187 1543.18 Z" fill="#000000" fill-rule="evenodd" fill-opacity="1" /><path clip-path="url(#clip860)" d="M771.539 1515.64 Q767.927 1515.64 766.099 1519.2 Q764.293 1522.75 764.293 1529.87 Q764.293 1536.98 766.099 1540.55 Q767.927 1544.09 771.539 1544.09 Q775.173 1544.09 776.978 1540.55 Q778.807 1536.98 778.807 1529.87 Q778.807 1522.75 776.978 1519.2 Q775.173 1515.64 771.539 1515.64 M771.539 1511.93 Q777.349 1511.93 780.404 1516.54 Q783.483 1521.12 783.483 1529.87 Q783.483 1538.6 780.404 1543.21 Q777.349 1547.79 771.539 1547.79 Q765.728 1547.79 762.65 1543.21 Q759.594 1538.6 759.594 1529.87 Q759.594 1521.12 762.65 1516.54 Q765.728 1511.93 771.539 1511.93 Z" fill="#000000" fill-rule="evenodd" fill-opacity="1" /><path clip-path="url(#clip860)" d="M801.7 1515.64 Q798.089 1515.64 796.261 1519.2 Q794.455 1522.75 794.455 1529.87 Q794.455 1536.98 796.261 1540.55 Q798.089 1544.09 801.7 1544.09 Q805.335 1544.09 807.14 1540.55 Q808.969 1536.98 808.969 1529.87 Q808.969 1522.75 807.14 1519.2 Q805.335 1515.64 801.7 1515.64 M801.7 1511.93 Q807.511 1511.93 810.566 1516.54 Q813.645 1521.12 813.645 1529.87 Q813.645 1538.6 810.566 1543.21 Q807.511 1547.79 801.7 1547.79 Q795.89 1547.79 792.812 1543.21 Q789.756 1538.6 789.756 1529.87 Q789.756 1521.12 792.812 1516.54 Q795.89 1511.93 801.7 1511.93 Z" fill="#000000" fill-rule="evenodd" fill-opacity="1" /><path clip-path="url(#clip860)" d="M1148.81 1543.18 L1165.13 1543.18 L1165.13 1547.12 L1143.18 1547.12 L1143.18 1543.18 Q1145.85 1540.43 1150.43 1535.8 Q1155.03 1531.15 1156.22 1529.81 Q1158.46 1527.28 1159.34 1525.55 Q1160.24 1523.79 1160.24 1522.1 Q1160.24 1519.34 1158.3 1517.61 Q1156.38 1515.87 1153.28 1515.87 Q1151.08 1515.87 1148.62 1516.63 Q1146.19 1517.4 1143.41 1518.95 L1143.41 1514.23 Q1146.24 1513.09 1148.69 1512.51 Q1151.15 1511.93 1153.18 1511.93 Q1158.55 1511.93 1161.75 1514.62 Q1164.94 1517.31 1164.94 1521.8 Q1164.94 1523.93 1164.13 1525.85 Q1163.34 1527.74 1161.24 1530.34 Q1160.66 1531.01 1157.56 1534.23 Q1154.46 1537.42 1148.81 1543.18 Z" fill="#000000" fill-rule="evenodd" fill-opacity="1" /><path clip-path="url(#clip860)" d="M1184.94 1515.64 Q1181.33 1515.64 1179.5 1519.2 Q1177.7 1522.75 1177.7 1529.87 Q1177.7 1536.98 1179.5 1540.55 Q1181.33 1544.09 1184.94 1544.09 Q1188.58 1544.09 1190.38 1540.55 Q1192.21 1536.98 1192.21 1529.87 Q1192.21 1522.75 1190.38 1519.2 Q1188.58 1515.64 1184.94 1515.64 M1184.94 1511.93 Q1190.75 1511.93 1193.81 1516.54 Q1196.89 1521.12 1196.89 1529.87 Q1196.89 1538.6 1193.81 1543.21 Q1190.75 1547.79 1184.94 1547.79 Q1179.13 1547.79 1176.05 1543.21 Q1173 1538.6 1173 1529.87 Q1173 1521.12 1176.05 1516.54 Q1179.13 1511.93 1184.94 1511.93 Z" fill="#000000" fill-rule="evenodd" fill-opacity="1" /><path clip-path="url(#clip860)" d="M1215.1 1515.64 Q1211.49 1515.64 1209.66 1519.2 Q1207.86 1522.75 1207.86 1529.87 Q1207.86 1536.98 1209.66 1540.55 Q1211.49 1544.09 1215.1 1544.09 Q1218.74 1544.09 1220.54 1540.55 Q1222.37 1536.98 1222.37 1529.87 Q1222.37 1522.75 1220.54 1519.2 Q1218.74 1515.64 1215.1 1515.64 M1215.1 1511.93 Q1220.91 1511.93 1223.97 1516.54 Q1227.05 1521.12 1227.05 1529.87 Q1227.05 1538.6 1223.97 1543.21 Q1220.91 1547.79 1215.1 1547.79 Q1209.29 1547.79 1206.22 1543.21 Q1203.16 1538.6 1203.16 1529.87 Q1203.16 1521.12 1206.22 1516.54 Q1209.29 1511.93 1215.1 1511.93 Z" fill="#000000" fill-rule="evenodd" fill-opacity="1" /><path clip-path="url(#clip860)" d="M1571.41 1528.49 Q1574.77 1529.2 1576.64 1531.47 Q1578.54 1533.74 1578.54 1537.07 Q1578.54 1542.19 1575.02 1544.99 Q1571.51 1547.79 1565.02 1547.79 Q1562.85 1547.79 1560.53 1547.35 Q1558.24 1546.93 1555.79 1546.08 L1555.79 1541.56 Q1557.73 1542.7 1560.05 1543.28 Q1562.36 1543.86 1564.89 1543.86 Q1569.28 1543.86 1571.57 1542.12 Q1573.89 1540.38 1573.89 1537.07 Q1573.89 1534.02 1571.74 1532.31 Q1569.61 1530.57 1565.79 1530.57 L1561.76 1530.57 L1561.76 1526.73 L1565.97 1526.73 Q1569.42 1526.73 1571.25 1525.36 Q1573.08 1523.97 1573.08 1521.38 Q1573.08 1518.72 1571.18 1517.31 Q1569.31 1515.87 1565.79 1515.87 Q1563.87 1515.87 1561.67 1516.29 Q1559.47 1516.7 1556.83 1517.58 L1556.83 1513.42 Q1559.49 1512.68 1561.81 1512.31 Q1564.14 1511.93 1566.2 1511.93 Q1571.53 1511.93 1574.63 1514.37 Q1577.73 1516.77 1577.73 1520.89 Q1577.73 1523.76 1576.09 1525.75 Q1574.45 1527.72 1571.41 1528.49 Z" fill="#000000" fill-rule="evenodd" fill-opacity="1" /><path clip-path="url(#clip860)" d="M1597.41 1515.64 Q1593.8 1515.64 1591.97 1519.2 Q1590.16 1522.75 1590.16 1529.87 Q1590.16 1536.98 1591.97 1540.55 Q1593.8 1544.09 1597.41 1544.09 Q1601.04 1544.09 1602.85 1540.55 Q1604.68 1536.98 1604.68 1529.87 Q1604.68 1522.75 1602.85 1519.2 Q1601.04 1515.64 1597.41 1515.64 M1597.41 1511.93 Q1603.22 1511.93 1606.27 1516.54 Q1609.35 1521.12 1609.35 1529.87 Q1609.35 1538.6 1606.27 1543.21 Q1603.22 1547.79 1597.41 1547.79 Q1591.6 1547.79 1588.52 1543.21 Q1585.46 1538.6 1585.46 1529.87 Q1585.46 1521.12 1588.52 1516.54 Q1591.6 1511.93 1597.41 1511.93 Z" fill="#000000" fill-rule="evenodd" fill-opacity="1" /><path clip-path="url(#clip860)" d="M1627.57 1515.64 Q1623.96 1515.64 1622.13 1519.2 Q1620.32 1522.75 1620.32 1529.87 Q1620.32 1536.98 1622.13 1540.55 Q1623.96 1544.09 1627.57 1544.09 Q1631.2 1544.09 1633.01 1540.55 Q1634.84 1536.98 1634.84 1529.87 Q1634.84 1522.75 1633.01 1519.2 Q1631.2 1515.64 1627.57 1515.64 M1627.57 1511.93 Q1633.38 1511.93 1636.44 1516.54 Q1639.51 1521.12 1639.51 1529.87 Q1639.51 1538.6 1636.44 1543.21 Q1633.38 1547.79 1627.57 1547.79 Q1621.76 1547.79 1618.68 1543.21 Q1615.63 1538.6 1615.63 1529.87 Q1615.63 1521.12 1618.68 1516.54 Q1621.76 1511.93 1627.57 1511.93 Z" fill="#000000" fill-rule="evenodd" fill-opacity="1" /><path clip-path="url(#clip860)" d="M1983.28 1516.63 L1971.47 1535.08 L1983.28 1535.08 L1983.28 1516.63 M1982.05 1512.56 L1987.93 1512.56 L1987.93 1535.08 L1992.86 1535.08 L1992.86 1538.97 L1987.93 1538.97 L1987.93 1547.12 L1983.28 1547.12 L1983.28 1538.97 L1967.68 1538.97 L1967.68 1534.46 L1982.05 1512.56 Z" fill="#000000" fill-rule="evenodd" fill-opacity="1" /><path clip-path="url(#clip860)" d="M2010.59 1515.64 Q2006.98 1515.64 2005.15 1519.2 Q2003.35 1522.75 2003.35 1529.87 Q2003.35 1536.98 2005.15 1540.55 Q2006.98 1544.09 2010.59 1544.09 Q2014.23 1544.09 2016.03 1540.55 Q2017.86 1536.98 2017.86 1529.87 Q2017.86 1522.75 2016.03 1519.2 Q2014.23 1515.64 2010.59 1515.64 M2010.59 1511.93 Q2016.4 1511.93 2019.46 1516.54 Q2022.54 1521.12 2022.54 1529.87 Q2022.54 1538.6 2019.46 1543.21 Q2016.4 1547.79 2010.59 1547.79 Q2004.78 1547.79 2001.7 1543.21 Q1998.65 1538.6 1998.65 1529.87 Q1998.65 1521.12 2001.7 1516.54 Q2004.78 1511.93 2010.59 1511.93 Z" fill="#000000" fill-rule="evenodd" fill-opacity="1" /><path clip-path="url(#clip860)" d="M2040.75 1515.64 Q2037.14 1515.64 2035.31 1519.2 Q2033.51 1522.75 2033.51 1529.87 Q2033.51 1536.98 2035.31 1540.55 Q2037.14 1544.09 2040.75 1544.09 Q2044.39 1544.09 2046.19 1540.55 Q2048.02 1536.98 2048.02 1529.87 Q2048.02 1522.75 2046.19 1519.2 Q2044.39 1515.64 2040.75 1515.64 M2040.75 1511.93 Q2046.56 1511.93 2049.62 1516.54 Q2052.7 1521.12 2052.7 1529.87 Q2052.7 1538.6 2049.62 1543.21 Q2046.56 1547.79 2040.75 1547.79 Q2034.94 1547.79 2031.86 1543.21 Q2028.81 1538.6 2028.81 1529.87 Q2028.81 1521.12 2031.86 1516.54 Q2034.94 1511.93 2040.75 1511.93 Z" fill="#000000" fill-rule="evenodd" fill-opacity="1" /><polyline clip-path="url(#clip862)" style="stroke:#000000; stroke-linecap:butt; stroke-linejoin:round; stroke-width:2; stroke-opacity:0.1; fill:none" points="
  306.25,1447.87 2352.76,1447.87 
  "/>
<polyline clip-path="url(#clip862)" style="stroke:#000000; stroke-linecap:butt; stroke-linejoin:round; stroke-width:2; stroke-opacity:0.1; fill:none" points="
  306.25,1204.21 2352.76,1204.21 
  "/>
<polyline clip-path="url(#clip862)" style="stroke:#000000; stroke-linecap:butt; stroke-linejoin:round; stroke-width:2; stroke-opacity:0.1; fill:none" points="
  306.25,960.554 2352.76,960.554 
  "/>
<polyline clip-path="url(#clip862)" style="stroke:#000000; stroke-linecap:butt; stroke-linejoin:round; stroke-width:2; stroke-opacity:0.1; fill:none" points="
  306.25,716.895 2352.76,716.895 
  "/>
<polyline clip-path="url(#clip862)" style="stroke:#000000; stroke-linecap:butt; stroke-linejoin:round; stroke-width:2; stroke-opacity:0.1; fill:none" points="
  306.25,473.236 2352.76,473.236 
  "/>
<polyline clip-path="url(#clip862)" style="stroke:#000000; stroke-linecap:butt; stroke-linejoin:round; stroke-width:2; stroke-opacity:0.1; fill:none" points="
  306.25,229.576 2352.76,229.576 
  "/>
<polyline clip-path="url(#clip860)" style="stroke:#000000; stroke-linecap:butt; stroke-linejoin:round; stroke-width:4; stroke-opacity:1; fill:none" points="
  306.25,1486.45 306.25,123.472 
  "/>
<polyline clip-path="url(#clip860)" style="stroke:#000000; stroke-linecap:butt; stroke-linejoin:round; stroke-width:4; stroke-opacity:1; fill:none" points="
  306.25,1447.87 325.148,1447.87 
  "/>
<polyline clip-path="url(#clip860)" style="stroke:#000000; stroke-linecap:butt; stroke-linejoin:round; stroke-width:4; stroke-opacity:1; fill:none" points="
  306.25,1204.21 325.148,1204.21 
  "/>
<polyline clip-path="url(#clip860)" style="stroke:#000000; stroke-linecap:butt; stroke-linejoin:round; stroke-width:4; stroke-opacity:1; fill:none" points="
  306.25,960.554 325.148,960.554 
  "/>
<polyline clip-path="url(#clip860)" style="stroke:#000000; stroke-linecap:butt; stroke-linejoin:round; stroke-width:4; stroke-opacity:1; fill:none" points="
  306.25,716.895 325.148,716.895 
  "/>
<polyline clip-path="url(#clip860)" style="stroke:#000000; stroke-linecap:butt; stroke-linejoin:round; stroke-width:4; stroke-opacity:1; fill:none" points="
  306.25,473.236 325.148,473.236 
  "/>
<polyline clip-path="url(#clip860)" style="stroke:#000000; stroke-linecap:butt; stroke-linejoin:round; stroke-width:4; stroke-opacity:1; fill:none" points="
  306.25,229.576 325.148,229.576 
  "/>
<path clip-path="url(#clip860)" d="M258.306 1433.67 Q254.695 1433.67 252.866 1437.24 Q251.06 1440.78 251.06 1447.91 Q251.06 1455.01 252.866 1458.58 Q254.695 1462.12 258.306 1462.12 Q261.94 1462.12 263.746 1458.58 Q265.574 1455.01 265.574 1447.91 Q265.574 1440.78 263.746 1437.24 Q261.94 1433.67 258.306 1433.67 M258.306 1429.97 Q264.116 1429.97 267.172 1434.57 Q270.25 1439.16 270.25 1447.91 Q270.25 1456.63 267.172 1461.24 Q264.116 1465.82 258.306 1465.82 Q252.496 1465.82 249.417 1461.24 Q246.361 1456.63 246.361 1447.91 Q246.361 1439.16 249.417 1434.57 Q252.496 1429.97 258.306 1429.97 Z" fill="#000000" fill-rule="evenodd" fill-opacity="1" /><path clip-path="url(#clip860)" d="M52.4505 1193.38 L70.8068 1193.38 L70.8068 1197.32 L56.7328 1197.32 L56.7328 1205.79 Q57.7513 1205.44 58.7699 1205.28 Q59.7884 1205.09 60.8069 1205.09 Q66.5939 1205.09 69.9735 1208.27 Q73.3531 1211.44 73.3531 1216.85 Q73.3531 1222.43 69.8809 1225.53 Q66.4087 1228.61 60.0893 1228.61 Q57.9134 1228.61 55.6449 1228.24 Q53.3995 1227.87 50.9921 1227.13 L50.9921 1222.43 Q53.0754 1223.57 55.2977 1224.12 Q57.5199 1224.68 59.9967 1224.68 Q64.0013 1224.68 66.3393 1222.57 Q68.6772 1220.46 68.6772 1216.85 Q68.6772 1213.24 66.3393 1211.14 Q64.0013 1209.03 59.9967 1209.03 Q58.1217 1209.03 56.2467 1209.45 Q54.3949 1209.86 52.4505 1210.74 L52.4505 1193.38 Z" fill="#000000" fill-rule="evenodd" fill-opacity="1" /><path clip-path="url(#clip860)" d="M82.566 1222.06 L87.4503 1222.06 L87.4503 1227.94 L82.566 1227.94 L82.566 1222.06 Z" fill="#000000" fill-rule="evenodd" fill-opacity="1" /><path clip-path="url(#clip860)" d="M107.635 1196.46 Q104.024 1196.46 102.196 1200.02 Q100.39 1203.57 100.39 1210.7 Q100.39 1217.8 102.196 1221.37 Q104.024 1224.91 107.635 1224.91 Q111.27 1224.91 113.075 1221.37 Q114.904 1217.8 114.904 1210.7 Q114.904 1203.57 113.075 1200.02 Q111.27 1196.46 107.635 1196.46 M107.635 1192.76 Q113.445 1192.76 116.501 1197.36 Q119.58 1201.95 119.58 1210.7 Q119.58 1219.42 116.501 1224.03 Q113.445 1228.61 107.635 1228.61 Q101.825 1228.61 98.7465 1224.03 Q95.691 1219.42 95.691 1210.7 Q95.691 1201.95 98.7465 1197.36 Q101.825 1192.76 107.635 1192.76 Z" fill="#000000" fill-rule="evenodd" fill-opacity="1" /><path clip-path="url(#clip860)" d="M137.797 1196.46 Q134.186 1196.46 132.357 1200.02 Q130.552 1203.57 130.552 1210.7 Q130.552 1217.8 132.357 1221.37 Q134.186 1224.91 137.797 1224.91 Q141.431 1224.91 143.237 1221.37 Q145.066 1217.8 145.066 1210.7 Q145.066 1203.57 143.237 1200.02 Q141.431 1196.46 137.797 1196.46 M137.797 1192.76 Q143.607 1192.76 146.663 1197.36 Q149.742 1201.95 149.742 1210.7 Q149.742 1219.42 146.663 1224.03 Q143.607 1228.61 137.797 1228.61 Q131.987 1228.61 128.908 1224.03 Q125.853 1219.42 125.853 1210.7 Q125.853 1201.95 128.908 1197.36 Q131.987 1192.76 137.797 1192.76 Z" fill="#000000" fill-rule="evenodd" fill-opacity="1" /><path clip-path="url(#clip860)" d="M186.13 1202.48 L175.552 1213.1 L186.13 1223.68 L183.376 1226.48 L172.751 1215.86 L162.126 1226.48 L159.394 1223.68 L169.95 1213.1 L159.394 1202.48 L162.126 1199.68 L172.751 1210.3 L183.376 1199.68 L186.13 1202.48 Z" fill="#000000" fill-rule="evenodd" fill-opacity="1" /><path clip-path="url(#clip860)" d="M198.491 1224.01 L206.13 1224.01 L206.13 1197.64 L197.82 1199.31 L197.82 1195.05 L206.084 1193.38 L210.76 1193.38 L210.76 1224.01 L218.399 1224.01 L218.399 1227.94 L198.491 1227.94 L198.491 1224.01 Z" fill="#000000" fill-rule="evenodd" fill-opacity="1" /><path clip-path="url(#clip860)" d="M237.843 1196.46 Q234.232 1196.46 232.403 1200.02 Q230.598 1203.57 230.598 1210.7 Q230.598 1217.8 232.403 1221.37 Q234.232 1224.91 237.843 1224.91 Q241.477 1224.91 243.283 1221.37 Q245.111 1217.8 245.111 1210.7 Q245.111 1203.57 243.283 1200.02 Q241.477 1196.46 237.843 1196.46 M237.843 1192.76 Q243.653 1192.76 246.709 1197.36 Q249.787 1201.95 249.787 1210.7 Q249.787 1219.42 246.709 1224.03 Q243.653 1228.61 237.843 1228.61 Q232.033 1228.61 228.954 1224.03 Q225.899 1219.42 225.899 1210.7 Q225.899 1201.95 228.954 1197.36 Q232.033 1192.76 237.843 1192.76 Z" fill="#000000" fill-rule="evenodd" fill-opacity="1" /><path clip-path="url(#clip860)" d="M262.464 1175.76 L252.872 1190.75 L262.464 1190.75 L262.464 1175.76 M261.467 1172.45 L266.244 1172.45 L266.244 1190.75 L270.25 1190.75 L270.25 1193.91 L266.244 1193.91 L266.244 1200.53 L262.464 1200.53 L262.464 1193.91 L249.787 1193.91 L249.787 1190.24 L261.467 1172.45 Z" fill="#000000" fill-rule="evenodd" fill-opacity="1" /><path clip-path="url(#clip860)" d="M55.5089 980.347 L63.1477 980.347 L63.1477 953.981 L54.8376 955.648 L54.8376 951.389 L63.1014 949.722 L67.7773 949.722 L67.7773 980.347 L75.4162 980.347 L75.4162 984.282 L55.5089 984.282 L55.5089 980.347 Z" fill="#000000" fill-rule="evenodd" fill-opacity="1" /><path clip-path="url(#clip860)" d="M84.8606 978.402 L89.7448 978.402 L89.7448 984.282 L84.8606 984.282 L84.8606 978.402 Z" fill="#000000" fill-rule="evenodd" fill-opacity="1" /><path clip-path="url(#clip860)" d="M109.93 952.801 Q106.319 952.801 104.49 956.365 Q102.685 959.907 102.685 967.037 Q102.685 974.143 104.49 977.708 Q106.319 981.25 109.93 981.25 Q113.564 981.25 115.37 977.708 Q117.198 974.143 117.198 967.037 Q117.198 959.907 115.37 956.365 Q113.564 952.801 109.93 952.801 M109.93 949.097 Q115.74 949.097 118.796 953.703 Q121.874 958.287 121.874 967.037 Q121.874 975.763 118.796 980.37 Q115.74 984.953 109.93 984.953 Q104.12 984.953 101.041 980.37 Q97.9855 975.763 97.9855 967.037 Q97.9855 958.287 101.041 953.703 Q104.12 949.097 109.93 949.097 Z" fill="#000000" fill-rule="evenodd" fill-opacity="1" /><path clip-path="url(#clip860)" d="M140.092 952.801 Q136.481 952.801 134.652 956.365 Q132.846 959.907 132.846 967.037 Q132.846 974.143 134.652 977.708 Q136.481 981.25 140.092 981.25 Q143.726 981.25 145.532 977.708 Q147.36 974.143 147.36 967.037 Q147.36 959.907 145.532 956.365 Q143.726 952.801 140.092 952.801 M140.092 949.097 Q145.902 949.097 148.957 953.703 Q152.036 958.287 152.036 967.037 Q152.036 975.763 148.957 980.37 Q145.902 984.953 140.092 984.953 Q134.282 984.953 131.203 980.37 Q128.147 975.763 128.147 967.037 Q128.147 958.287 131.203 953.703 Q134.282 949.097 140.092 949.097 Z" fill="#000000" fill-rule="evenodd" fill-opacity="1" /><path clip-path="url(#clip860)" d="M188.425 958.819 L177.846 969.444 L188.425 980.023 L185.67 982.824 L175.045 972.199 L164.42 982.824 L161.689 980.023 L172.244 969.444 L161.689 958.819 L164.42 956.018 L175.045 966.643 L185.67 956.018 L188.425 958.819 Z" fill="#000000" fill-rule="evenodd" fill-opacity="1" /><path clip-path="url(#clip860)" d="M200.786 980.347 L208.425 980.347 L208.425 953.981 L200.115 955.648 L200.115 951.389 L208.378 949.722 L213.054 949.722 L213.054 980.347 L220.693 980.347 L220.693 984.282 L200.786 984.282 L200.786 980.347 Z" fill="#000000" fill-rule="evenodd" fill-opacity="1" /><path clip-path="url(#clip860)" d="M240.138 952.801 Q236.526 952.801 234.698 956.365 Q232.892 959.907 232.892 967.037 Q232.892 974.143 234.698 977.708 Q236.526 981.25 240.138 981.25 Q243.772 981.25 245.577 977.708 Q247.406 974.143 247.406 967.037 Q247.406 959.907 245.577 956.365 Q243.772 952.801 240.138 952.801 M240.138 949.097 Q245.948 949.097 249.003 953.703 Q252.082 958.287 252.082 967.037 Q252.082 975.763 249.003 980.37 Q245.948 984.953 240.138 984.953 Q234.327 984.953 231.249 980.37 Q228.193 975.763 228.193 967.037 Q228.193 958.287 231.249 953.703 Q234.327 949.097 240.138 949.097 Z" fill="#000000" fill-rule="evenodd" fill-opacity="1" /><path clip-path="url(#clip860)" d="M253.267 928.792 L268.181 928.792 L268.181 931.989 L256.746 931.989 L256.746 938.872 Q257.574 938.59 258.401 938.459 Q259.229 938.308 260.056 938.308 Q264.758 938.308 267.504 940.885 Q270.25 943.462 270.25 947.863 Q270.25 952.395 267.429 954.916 Q264.608 957.417 259.473 957.417 Q257.705 957.417 255.862 957.116 Q254.038 956.815 252.082 956.213 L252.082 952.395 Q253.775 953.317 255.58 953.768 Q257.386 954.22 259.398 954.22 Q262.652 954.22 264.551 952.508 Q266.451 950.797 266.451 947.863 Q266.451 944.929 264.551 943.217 Q262.652 941.506 259.398 941.506 Q257.875 941.506 256.351 941.844 Q254.847 942.183 253.267 942.897 L253.267 928.792 Z" fill="#000000" fill-rule="evenodd" fill-opacity="1" /><path clip-path="url(#clip860)" d="M55.5089 736.687 L63.1477 736.687 L63.1477 710.322 L54.8376 711.988 L54.8376 707.729 L63.1014 706.063 L67.7773 706.063 L67.7773 736.687 L75.4162 736.687 L75.4162 740.623 L55.5089 740.623 L55.5089 736.687 Z" fill="#000000" fill-rule="evenodd" fill-opacity="1" /><path clip-path="url(#clip860)" d="M84.8606 734.743 L89.7448 734.743 L89.7448 740.623 L84.8606 740.623 L84.8606 734.743 Z" fill="#000000" fill-rule="evenodd" fill-opacity="1" /><path clip-path="url(#clip860)" d="M99.9762 706.063 L118.333 706.063 L118.333 709.998 L104.259 709.998 L104.259 718.47 Q105.277 718.123 106.296 717.961 Q107.314 717.775 108.333 717.775 Q114.12 717.775 117.499 720.947 Q120.879 724.118 120.879 729.535 Q120.879 735.113 117.407 738.215 Q113.934 741.294 107.615 741.294 Q105.439 741.294 103.171 740.923 Q100.925 740.553 98.5179 739.812 L98.5179 735.113 Q100.601 736.248 102.823 736.803 Q105.046 737.359 107.522 737.359 Q111.527 737.359 113.865 735.252 Q116.203 733.146 116.203 729.535 Q116.203 725.924 113.865 723.817 Q111.527 721.711 107.522 721.711 Q105.648 721.711 103.773 722.127 Q101.921 722.544 99.9762 723.424 L99.9762 706.063 Z" fill="#000000" fill-rule="evenodd" fill-opacity="1" /><path clip-path="url(#clip860)" d="M140.092 709.141 Q136.481 709.141 134.652 712.706 Q132.846 716.248 132.846 723.377 Q132.846 730.484 134.652 734.048 Q136.481 737.59 140.092 737.59 Q143.726 737.59 145.532 734.048 Q147.36 730.484 147.36 723.377 Q147.36 716.248 145.532 712.706 Q143.726 709.141 140.092 709.141 M140.092 705.438 Q145.902 705.438 148.957 710.044 Q152.036 714.627 152.036 723.377 Q152.036 732.104 148.957 736.711 Q145.902 741.294 140.092 741.294 Q134.282 741.294 131.203 736.711 Q128.147 732.104 128.147 723.377 Q128.147 714.627 131.203 710.044 Q134.282 705.438 140.092 705.438 Z" fill="#000000" fill-rule="evenodd" fill-opacity="1" /><path clip-path="url(#clip860)" d="M188.425 715.16 L177.846 725.785 L188.425 736.363 L185.67 739.164 L175.045 728.539 L164.42 739.164 L161.689 736.363 L172.244 725.785 L161.689 715.16 L164.42 712.359 L175.045 722.984 L185.67 712.359 L188.425 715.16 Z" fill="#000000" fill-rule="evenodd" fill-opacity="1" /><path clip-path="url(#clip860)" d="M200.786 736.687 L208.425 736.687 L208.425 710.322 L200.115 711.988 L200.115 707.729 L208.378 706.063 L213.054 706.063 L213.054 736.687 L220.693 736.687 L220.693 740.623 L200.786 740.623 L200.786 736.687 Z" fill="#000000" fill-rule="evenodd" fill-opacity="1" /><path clip-path="url(#clip860)" d="M240.138 709.141 Q236.526 709.141 234.698 712.706 Q232.892 716.248 232.892 723.377 Q232.892 730.484 234.698 734.048 Q236.526 737.59 240.138 737.59 Q243.772 737.59 245.577 734.048 Q247.406 730.484 247.406 723.377 Q247.406 716.248 245.577 712.706 Q243.772 709.141 240.138 709.141 M240.138 705.438 Q245.948 705.438 249.003 710.044 Q252.082 714.627 252.082 723.377 Q252.082 732.104 249.003 736.711 Q245.948 741.294 240.138 741.294 Q234.327 741.294 231.249 736.711 Q228.193 732.104 228.193 723.377 Q228.193 714.627 231.249 710.044 Q234.327 705.438 240.138 705.438 Z" fill="#000000" fill-rule="evenodd" fill-opacity="1" /><path clip-path="url(#clip860)" d="M253.267 685.132 L268.181 685.132 L268.181 688.329 L256.746 688.329 L256.746 695.213 Q257.574 694.931 258.401 694.799 Q259.229 694.649 260.056 694.649 Q264.758 694.649 267.504 697.226 Q270.25 699.802 270.25 704.203 Q270.25 708.736 267.429 711.256 Q264.608 713.758 259.473 713.758 Q257.705 713.758 255.862 713.457 Q254.038 713.156 252.082 712.554 L252.082 708.736 Q253.775 709.657 255.58 710.109 Q257.386 710.56 259.398 710.56 Q262.652 710.56 264.551 708.849 Q266.451 707.137 266.451 704.203 Q266.451 701.269 264.551 699.558 Q262.652 697.846 259.398 697.846 Q257.875 697.846 256.351 698.185 Q254.847 698.523 253.267 699.238 L253.267 685.132 Z" fill="#000000" fill-rule="evenodd" fill-opacity="1" /><path clip-path="url(#clip860)" d="M58.7265 493.028 L75.0458 493.028 L75.0458 496.963 L53.1015 496.963 L53.1015 493.028 Q55.7635 490.273 60.3468 485.644 Q64.9533 480.991 66.1338 479.648 Q68.3792 477.125 69.2588 475.389 Q70.1616 473.63 70.1616 471.94 Q70.1616 469.186 68.2171 467.449 Q66.2959 465.713 63.194 465.713 Q60.995 465.713 58.5413 466.477 Q56.1107 467.241 53.333 468.792 L53.333 464.07 Q56.157 462.936 58.6107 462.357 Q61.0644 461.778 63.1014 461.778 Q68.4718 461.778 71.6662 464.463 Q74.8606 467.148 74.8606 471.639 Q74.8606 473.769 74.0505 475.69 Q73.2634 477.588 71.1569 480.181 Q70.5782 480.852 67.4764 484.07 Q64.3746 487.264 58.7265 493.028 Z" fill="#000000" fill-rule="evenodd" fill-opacity="1" /><path clip-path="url(#clip860)" d="M84.8606 491.084 L89.7448 491.084 L89.7448 496.963 L84.8606 496.963 L84.8606 491.084 Z" fill="#000000" fill-rule="evenodd" fill-opacity="1" /><path clip-path="url(#clip860)" d="M109.93 465.482 Q106.319 465.482 104.49 469.047 Q102.685 472.588 102.685 479.718 Q102.685 486.824 104.49 490.389 Q106.319 493.931 109.93 493.931 Q113.564 493.931 115.37 490.389 Q117.198 486.824 117.198 479.718 Q117.198 472.588 115.37 469.047 Q113.564 465.482 109.93 465.482 M109.93 461.778 Q115.74 461.778 118.796 466.385 Q121.874 470.968 121.874 479.718 Q121.874 488.445 118.796 493.051 Q115.74 497.634 109.93 497.634 Q104.12 497.634 101.041 493.051 Q97.9855 488.445 97.9855 479.718 Q97.9855 470.968 101.041 466.385 Q104.12 461.778 109.93 461.778 Z" fill="#000000" fill-rule="evenodd" fill-opacity="1" /><path clip-path="url(#clip860)" d="M140.092 465.482 Q136.481 465.482 134.652 469.047 Q132.846 472.588 132.846 479.718 Q132.846 486.824 134.652 490.389 Q136.481 493.931 140.092 493.931 Q143.726 493.931 145.532 490.389 Q147.36 486.824 147.36 479.718 Q147.36 472.588 145.532 469.047 Q143.726 465.482 140.092 465.482 M140.092 461.778 Q145.902 461.778 148.957 466.385 Q152.036 470.968 152.036 479.718 Q152.036 488.445 148.957 493.051 Q145.902 497.634 140.092 497.634 Q134.282 497.634 131.203 493.051 Q128.147 488.445 128.147 479.718 Q128.147 470.968 131.203 466.385 Q134.282 461.778 140.092 461.778 Z" fill="#000000" fill-rule="evenodd" fill-opacity="1" /><path clip-path="url(#clip860)" d="M188.425 471.5 L177.846 482.125 L188.425 492.704 L185.67 495.505 L175.045 484.88 L164.42 495.505 L161.689 492.704 L172.244 482.125 L161.689 471.5 L164.42 468.699 L175.045 479.324 L185.67 468.699 L188.425 471.5 Z" fill="#000000" fill-rule="evenodd" fill-opacity="1" /><path clip-path="url(#clip860)" d="M200.786 493.028 L208.425 493.028 L208.425 466.662 L200.115 468.329 L200.115 464.07 L208.378 462.403 L213.054 462.403 L213.054 493.028 L220.693 493.028 L220.693 496.963 L200.786 496.963 L200.786 493.028 Z" fill="#000000" fill-rule="evenodd" fill-opacity="1" /><path clip-path="url(#clip860)" d="M240.138 465.482 Q236.526 465.482 234.698 469.047 Q232.892 472.588 232.892 479.718 Q232.892 486.824 234.698 490.389 Q236.526 493.931 240.138 493.931 Q243.772 493.931 245.577 490.389 Q247.406 486.824 247.406 479.718 Q247.406 472.588 245.577 469.047 Q243.772 465.482 240.138 465.482 M240.138 461.778 Q245.948 461.778 249.003 466.385 Q252.082 470.968 252.082 479.718 Q252.082 488.445 249.003 493.051 Q245.948 497.634 240.138 497.634 Q234.327 497.634 231.249 493.051 Q228.193 488.445 228.193 479.718 Q228.193 470.968 231.249 466.385 Q234.327 461.778 240.138 461.778 Z" fill="#000000" fill-rule="evenodd" fill-opacity="1" /><path clip-path="url(#clip860)" d="M253.267 441.473 L268.181 441.473 L268.181 444.67 L256.746 444.67 L256.746 451.554 Q257.574 451.272 258.401 451.14 Q259.229 450.989 260.056 450.989 Q264.758 450.989 267.504 453.566 Q270.25 456.143 270.25 460.544 Q270.25 465.077 267.429 467.597 Q264.608 470.098 259.473 470.098 Q257.705 470.098 255.862 469.797 Q254.038 469.496 252.082 468.894 L252.082 465.077 Q253.775 465.998 255.58 466.449 Q257.386 466.901 259.398 466.901 Q262.652 466.901 264.551 465.189 Q266.451 463.478 266.451 460.544 Q266.451 457.61 264.551 455.898 Q262.652 454.187 259.398 454.187 Q257.875 454.187 256.351 454.525 Q254.847 454.864 253.267 455.579 L253.267 441.473 Z" fill="#000000" fill-rule="evenodd" fill-opacity="1" /><path clip-path="url(#clip860)" d="M58.7265 249.369 L75.0458 249.369 L75.0458 253.304 L53.1015 253.304 L53.1015 249.369 Q55.7635 246.614 60.3468 241.984 Q64.9533 237.332 66.1338 235.989 Q68.3792 233.466 69.2588 231.73 Q70.1616 229.971 70.1616 228.281 Q70.1616 225.526 68.2171 223.79 Q66.2959 222.054 63.194 222.054 Q60.995 222.054 58.5413 222.818 Q56.1107 223.582 53.333 225.133 L53.333 220.41 Q56.157 219.276 58.6107 218.697 Q61.0644 218.119 63.1014 218.119 Q68.4718 218.119 71.6662 220.804 Q74.8606 223.489 74.8606 227.98 Q74.8606 230.109 74.0505 232.031 Q73.2634 233.929 71.1569 236.521 Q70.5782 237.193 67.4764 240.41 Q64.3746 243.605 58.7265 249.369 Z" fill="#000000" fill-rule="evenodd" fill-opacity="1" /><path clip-path="url(#clip860)" d="M84.8606 247.424 L89.7448 247.424 L89.7448 253.304 L84.8606 253.304 L84.8606 247.424 Z" fill="#000000" fill-rule="evenodd" fill-opacity="1" /><path clip-path="url(#clip860)" d="M99.9762 218.744 L118.333 218.744 L118.333 222.679 L104.259 222.679 L104.259 231.151 Q105.277 230.804 106.296 230.642 Q107.314 230.457 108.333 230.457 Q114.12 230.457 117.499 233.628 Q120.879 236.799 120.879 242.216 Q120.879 247.795 117.407 250.896 Q113.934 253.975 107.615 253.975 Q105.439 253.975 103.171 253.605 Q100.925 253.234 98.5179 252.494 L98.5179 247.795 Q100.601 248.929 102.823 249.484 Q105.046 250.04 107.522 250.04 Q111.527 250.04 113.865 247.933 Q116.203 245.827 116.203 242.216 Q116.203 238.605 113.865 236.498 Q111.527 234.392 107.522 234.392 Q105.648 234.392 103.773 234.808 Q101.921 235.225 99.9762 236.105 L99.9762 218.744 Z" fill="#000000" fill-rule="evenodd" fill-opacity="1" /><path clip-path="url(#clip860)" d="M140.092 221.822 Q136.481 221.822 134.652 225.387 Q132.846 228.929 132.846 236.058 Q132.846 243.165 134.652 246.73 Q136.481 250.271 140.092 250.271 Q143.726 250.271 145.532 246.73 Q147.36 243.165 147.36 236.058 Q147.36 228.929 145.532 225.387 Q143.726 221.822 140.092 221.822 M140.092 218.119 Q145.902 218.119 148.957 222.725 Q152.036 227.309 152.036 236.058 Q152.036 244.785 148.957 249.392 Q145.902 253.975 140.092 253.975 Q134.282 253.975 131.203 249.392 Q128.147 244.785 128.147 236.058 Q128.147 227.309 131.203 222.725 Q134.282 218.119 140.092 218.119 Z" fill="#000000" fill-rule="evenodd" fill-opacity="1" /><path clip-path="url(#clip860)" d="M188.425 227.841 L177.846 238.466 L188.425 249.045 L185.67 251.845 L175.045 241.221 L164.42 251.845 L161.689 249.045 L172.244 238.466 L161.689 227.841 L164.42 225.04 L175.045 235.665 L185.67 225.04 L188.425 227.841 Z" fill="#000000" fill-rule="evenodd" fill-opacity="1" /><path clip-path="url(#clip860)" d="M200.786 249.369 L208.425 249.369 L208.425 223.003 L200.115 224.67 L200.115 220.41 L208.378 218.744 L213.054 218.744 L213.054 249.369 L220.693 249.369 L220.693 253.304 L200.786 253.304 L200.786 249.369 Z" fill="#000000" fill-rule="evenodd" fill-opacity="1" /><path clip-path="url(#clip860)" d="M240.138 221.822 Q236.526 221.822 234.698 225.387 Q232.892 228.929 232.892 236.058 Q232.892 243.165 234.698 246.73 Q236.526 250.271 240.138 250.271 Q243.772 250.271 245.577 246.73 Q247.406 243.165 247.406 236.058 Q247.406 228.929 245.577 225.387 Q243.772 221.822 240.138 221.822 M240.138 218.119 Q245.948 218.119 249.003 222.725 Q252.082 227.309 252.082 236.058 Q252.082 244.785 249.003 249.392 Q245.948 253.975 240.138 253.975 Q234.327 253.975 231.249 249.392 Q228.193 244.785 228.193 236.058 Q228.193 227.309 231.249 222.725 Q234.327 218.119 240.138 218.119 Z" fill="#000000" fill-rule="evenodd" fill-opacity="1" /><path clip-path="url(#clip860)" d="M253.267 197.813 L268.181 197.813 L268.181 201.011 L256.746 201.011 L256.746 207.894 Q257.574 207.612 258.401 207.481 Q259.229 207.33 260.056 207.33 Q264.758 207.33 267.504 209.907 Q270.25 212.483 270.25 216.884 Q270.25 221.417 267.429 223.937 Q264.608 226.439 259.473 226.439 Q257.705 226.439 255.862 226.138 Q254.038 225.837 252.082 225.235 L252.082 221.417 Q253.775 222.339 255.58 222.79 Q257.386 223.241 259.398 223.241 Q262.652 223.241 264.551 221.53 Q266.451 219.818 266.451 216.884 Q266.451 213.95 264.551 212.239 Q262.652 210.527 259.398 210.527 Q257.875 210.527 256.351 210.866 Q254.847 211.205 253.267 211.919 L253.267 197.813 Z" fill="#000000" fill-rule="evenodd" fill-opacity="1" /><path clip-path="url(#clip860)" d="M778.681 12.096 L829.844 12.096 L829.844 18.9825 L808.374 18.9825 L808.374 72.576 L800.151 72.576 L800.151 18.9825 L778.681 18.9825 L778.681 12.096 Z" fill="#000000" fill-rule="evenodd" fill-opacity="1" /><path clip-path="url(#clip860)" d="M840.903 32.4315 Q834.908 32.4315 831.424 37.1306 Q827.94 41.7891 827.94 49.9314 Q827.94 58.0738 831.384 62.7728 Q834.867 67.4314 840.903 67.4314 Q846.858 67.4314 850.342 62.7323 Q853.826 58.0333 853.826 49.9314 Q853.826 41.8701 850.342 37.1711 Q846.858 32.4315 840.903 32.4315 M840.903 26.1121 Q850.625 26.1121 856.175 32.4315 Q861.725 38.7509 861.725 49.9314 Q861.725 61.0714 856.175 67.4314 Q850.625 73.7508 840.903 73.7508 Q831.141 73.7508 825.591 67.4314 Q820.082 61.0714 820.082 49.9314 Q820.082 38.7509 825.591 32.4315 Q831.141 26.1121 840.903 26.1121 Z" fill="#000000" fill-rule="evenodd" fill-opacity="1" /><path clip-path="url(#clip860)" d="M881.453 14.324 L881.453 27.2059 L896.806 27.2059 L896.806 32.9987 L881.453 32.9987 L881.453 57.6282 Q881.453 63.1779 882.952 64.7578 Q884.491 66.3376 889.15 66.3376 L896.806 66.3376 L896.806 72.576 L889.15 72.576 Q880.521 72.576 877.24 69.3758 Q873.959 66.1351 873.959 57.6282 L873.959 32.9987 L868.49 32.9987 L868.49 27.2059 L873.959 27.2059 L873.959 14.324 L881.453 14.324 Z" fill="#000000" fill-rule="evenodd" fill-opacity="1" /><path clip-path="url(#clip860)" d="M927.228 49.7694 Q918.194 49.7694 914.711 51.8354 Q911.227 53.9013 911.227 58.8839 Q911.227 62.8538 913.82 65.2034 Q916.453 67.5124 920.949 67.5124 Q927.147 67.5124 930.874 63.1374 Q934.641 58.7219 934.641 51.4303 L934.641 49.7694 L927.228 49.7694 M942.095 46.6907 L942.095 72.576 L934.641 72.576 L934.641 65.6895 Q932.089 69.8214 928.281 71.8063 Q924.473 73.7508 918.964 73.7508 Q911.997 73.7508 907.865 69.8619 Q903.773 65.9325 903.773 59.3701 Q903.773 51.7138 908.877 47.825 Q914.022 43.9361 924.19 43.9361 L934.641 43.9361 L934.641 43.2069 Q934.641 38.0623 931.238 35.2672 Q927.876 32.4315 921.759 32.4315 Q917.87 32.4315 914.184 33.3632 Q910.498 34.295 907.095 36.1584 L907.095 29.2718 Q911.186 27.692 915.035 26.9223 Q918.883 26.1121 922.529 26.1121 Q932.373 26.1121 937.234 31.2163 Q942.095 36.3204 942.095 46.6907 Z" fill="#000000" fill-rule="evenodd" fill-opacity="1" /><path clip-path="url(#clip860)" d="M957.448 9.54393 L964.901 9.54393 L964.901 72.576 L957.448 72.576 L957.448 9.54393 Z" fill="#000000" fill-rule="evenodd" fill-opacity="1" /><path clip-path="url(#clip860)" d="M1036.72 34.0924 L1036.72 9.54393 L1044.18 9.54393 L1044.18 72.576 L1036.72 72.576 L1036.72 65.7705 Q1034.37 69.8214 1030.77 71.8063 Q1027.2 73.7508 1022.18 73.7508 Q1013.96 73.7508 1008.77 67.1883 Q1003.63 60.6258 1003.63 49.9314 Q1003.63 39.2371 1008.77 32.6746 Q1013.96 26.1121 1022.18 26.1121 Q1027.2 26.1121 1030.77 28.0971 Q1034.37 30.0415 1036.72 34.0924 M1011.32 49.9314 Q1011.32 58.1548 1014.69 62.8538 Q1018.09 67.5124 1024 67.5124 Q1029.92 67.5124 1033.32 62.8538 Q1036.72 58.1548 1036.72 49.9314 Q1036.72 41.7081 1033.32 37.0496 Q1029.92 32.3505 1024 32.3505 Q1018.09 32.3505 1014.69 37.0496 Q1011.32 41.7081 1011.32 49.9314 Z" fill="#000000" fill-rule="evenodd" fill-opacity="1" /><path clip-path="url(#clip860)" d="M1098.34 48.0275 L1098.34 51.6733 L1064.07 51.6733 Q1064.55 59.3701 1068.69 63.421 Q1072.86 67.4314 1080.27 67.4314 Q1084.57 67.4314 1088.58 66.3781 Q1092.63 65.3249 1096.6 63.2184 L1096.6 70.267 Q1092.59 71.9684 1088.37 72.8596 Q1084.16 73.7508 1079.83 73.7508 Q1068.97 73.7508 1062.61 67.4314 Q1056.29 61.1119 1056.29 50.3365 Q1056.29 39.1965 1062.29 32.6746 Q1068.32 26.1121 1078.53 26.1121 Q1087.68 26.1121 1092.99 32.0264 Q1098.34 37.9003 1098.34 48.0275 M1090.88 45.84 Q1090.8 39.7232 1087.44 36.0774 Q1084.12 32.4315 1078.61 32.4315 Q1072.37 32.4315 1068.6 35.9558 Q1064.88 39.4801 1064.31 45.8805 L1090.88 45.84 Z" fill="#000000" fill-rule="evenodd" fill-opacity="1" /><path clip-path="url(#clip860)" d="M1136.94 27.2059 L1144.4 27.2059 L1144.4 72.576 L1136.94 72.576 L1136.94 27.2059 M1136.94 9.54393 L1144.4 9.54393 L1144.4 18.9825 L1136.94 18.9825 L1136.94 9.54393 Z" fill="#000000" fill-rule="evenodd" fill-opacity="1" /><path clip-path="url(#clip860)" d="M1197.71 45.1919 L1197.71 72.576 L1190.25 72.576 L1190.25 45.4349 Q1190.25 38.994 1187.74 35.7938 Q1185.23 32.5936 1180.21 32.5936 Q1174.17 32.5936 1170.69 36.4419 Q1167.2 40.2903 1167.2 46.9338 L1167.2 72.576 L1159.71 72.576 L1159.71 27.2059 L1167.2 27.2059 L1167.2 34.2544 Q1169.88 30.163 1173.48 28.1376 Q1177.13 26.1121 1181.87 26.1121 Q1189.69 26.1121 1193.7 30.9732 Q1197.71 35.7938 1197.71 45.1919 Z" fill="#000000" fill-rule="evenodd" fill-opacity="1" /><path clip-path="url(#clip860)" d="M1219.95 14.324 L1219.95 27.2059 L1235.3 27.2059 L1235.3 32.9987 L1219.95 32.9987 L1219.95 57.6282 Q1219.95 63.1779 1221.45 64.7578 Q1222.98 66.3376 1227.64 66.3376 L1235.3 66.3376 L1235.3 72.576 L1227.64 72.576 Q1219.01 72.576 1215.73 69.3758 Q1212.45 66.1351 1212.45 57.6282 L1212.45 32.9987 L1206.98 32.9987 L1206.98 27.2059 L1212.45 27.2059 L1212.45 14.324 L1219.95 14.324 Z" fill="#000000" fill-rule="evenodd" fill-opacity="1" /><path clip-path="url(#clip860)" d="M1283.91 48.0275 L1283.91 51.6733 L1249.64 51.6733 Q1250.13 59.3701 1254.26 63.421 Q1258.43 67.4314 1265.84 67.4314 Q1270.14 67.4314 1274.15 66.3781 Q1278.2 65.3249 1282.17 63.2184 L1282.17 70.267 Q1278.16 71.9684 1273.94 72.8596 Q1269.73 73.7508 1265.4 73.7508 Q1254.54 73.7508 1248.18 67.4314 Q1241.86 61.1119 1241.86 50.3365 Q1241.86 39.1965 1247.86 32.6746 Q1253.89 26.1121 1264.1 26.1121 Q1273.26 26.1121 1278.56 32.0264 Q1283.91 37.9003 1283.91 48.0275 M1276.46 45.84 Q1276.38 39.7232 1273.01 36.0774 Q1269.69 32.4315 1264.18 32.4315 Q1257.94 32.4315 1254.18 35.9558 Q1250.45 39.4801 1249.88 45.8805 L1276.46 45.84 Z" fill="#000000" fill-rule="evenodd" fill-opacity="1" /><path clip-path="url(#clip860)" d="M1322.43 34.1734 Q1321.18 33.4443 1319.68 33.1202 Q1318.22 32.7556 1316.44 32.7556 Q1310.12 32.7556 1306.72 36.8875 Q1303.35 40.9789 1303.35 48.6757 L1303.35 72.576 L1295.86 72.576 L1295.86 27.2059 L1303.35 27.2059 L1303.35 34.2544 Q1305.7 30.1225 1309.47 28.1376 Q1313.24 26.1121 1318.63 26.1121 Q1319.4 26.1121 1320.33 26.2337 Q1321.26 26.3147 1322.39 26.5172 L1322.43 34.1734 Z" fill="#000000" fill-rule="evenodd" fill-opacity="1" /><path clip-path="url(#clip860)" d="M1366.51 45.1919 L1366.51 72.576 L1359.05 72.576 L1359.05 45.4349 Q1359.05 38.994 1356.54 35.7938 Q1354.03 32.5936 1349.01 32.5936 Q1342.97 32.5936 1339.49 36.4419 Q1336 40.2903 1336 46.9338 L1336 72.576 L1328.51 72.576 L1328.51 27.2059 L1336 27.2059 L1336 34.2544 Q1338.68 30.163 1342.28 28.1376 Q1345.93 26.1121 1350.67 26.1121 Q1358.49 26.1121 1362.5 30.9732 Q1366.51 35.7938 1366.51 45.1919 Z" fill="#000000" fill-rule="evenodd" fill-opacity="1" /><path clip-path="url(#clip860)" d="M1401.99 49.7694 Q1392.96 49.7694 1389.48 51.8354 Q1385.99 53.9013 1385.99 58.8839 Q1385.99 62.8538 1388.59 65.2034 Q1391.22 67.5124 1395.72 67.5124 Q1401.91 67.5124 1405.64 63.1374 Q1409.41 58.7219 1409.41 51.4303 L1409.41 49.7694 L1401.99 49.7694 M1416.86 46.6907 L1416.86 72.576 L1409.41 72.576 L1409.41 65.6895 Q1406.86 69.8214 1403.05 71.8063 Q1399.24 73.7508 1393.73 73.7508 Q1386.76 73.7508 1382.63 69.8619 Q1378.54 65.9325 1378.54 59.3701 Q1378.54 51.7138 1383.64 47.825 Q1388.79 43.9361 1398.96 43.9361 L1409.41 43.9361 L1409.41 43.2069 Q1409.41 38.0623 1406 35.2672 Q1402.64 32.4315 1396.53 32.4315 Q1392.64 32.4315 1388.95 33.3632 Q1385.26 34.295 1381.86 36.1584 L1381.86 29.2718 Q1385.95 27.692 1389.8 26.9223 Q1393.65 26.1121 1397.29 26.1121 Q1407.14 26.1121 1412 31.2163 Q1416.86 36.3204 1416.86 46.6907 Z" fill="#000000" fill-rule="evenodd" fill-opacity="1" /><path clip-path="url(#clip860)" d="M1462.07 34.0924 L1462.07 9.54393 L1469.52 9.54393 L1469.52 72.576 L1462.07 72.576 L1462.07 65.7705 Q1459.72 69.8214 1456.11 71.8063 Q1452.55 73.7508 1447.53 73.7508 Q1439.3 73.7508 1434.12 67.1883 Q1428.97 60.6258 1428.97 49.9314 Q1428.97 39.2371 1434.12 32.6746 Q1439.3 26.1121 1447.53 26.1121 Q1452.55 26.1121 1456.11 28.0971 Q1459.72 30.0415 1462.07 34.0924 M1436.67 49.9314 Q1436.67 58.1548 1440.03 62.8538 Q1443.43 67.5124 1449.35 67.5124 Q1455.26 67.5124 1458.67 62.8538 Q1462.07 58.1548 1462.07 49.9314 Q1462.07 41.7081 1458.67 37.0496 Q1455.26 32.3505 1449.35 32.3505 Q1443.43 32.3505 1440.03 37.0496 Q1436.67 41.7081 1436.67 49.9314 Z" fill="#000000" fill-rule="evenodd" fill-opacity="1" /><path clip-path="url(#clip860)" d="M1502.46 32.4315 Q1496.46 32.4315 1492.98 37.1306 Q1489.49 41.7891 1489.49 49.9314 Q1489.49 58.0738 1492.94 62.7728 Q1496.42 67.4314 1502.46 67.4314 Q1508.41 67.4314 1511.9 62.7323 Q1515.38 58.0333 1515.38 49.9314 Q1515.38 41.8701 1511.9 37.1711 Q1508.41 32.4315 1502.46 32.4315 M1502.46 26.1121 Q1512.18 26.1121 1517.73 32.4315 Q1523.28 38.7509 1523.28 49.9314 Q1523.28 61.0714 1517.73 67.4314 Q1512.18 73.7508 1502.46 73.7508 Q1492.69 73.7508 1487.14 67.4314 Q1481.63 61.0714 1481.63 49.9314 Q1481.63 38.7509 1487.14 32.4315 Q1492.69 26.1121 1502.46 26.1121 Z" fill="#000000" fill-rule="evenodd" fill-opacity="1" /><path clip-path="url(#clip860)" d="M1564.56 28.5427 L1564.56 35.5912 Q1561.4 33.9709 1557.99 33.1607 Q1554.59 32.3505 1550.95 32.3505 Q1545.4 32.3505 1542.6 34.0519 Q1539.85 35.7533 1539.85 39.156 Q1539.85 41.7486 1541.83 43.2475 Q1543.82 44.7058 1549.81 46.0426 L1552.36 46.6097 Q1560.3 48.3111 1563.63 51.4303 Q1566.99 54.509 1566.99 60.0587 Q1566.99 66.3781 1561.96 70.0644 Q1556.98 73.7508 1548.23 73.7508 Q1544.59 73.7508 1540.62 73.0216 Q1536.69 72.3329 1532.31 70.9151 L1532.31 63.2184 Q1536.44 65.3654 1540.45 66.4591 Q1544.46 67.5124 1548.39 67.5124 Q1553.66 67.5124 1556.5 65.73 Q1559.33 63.9071 1559.33 60.6258 Q1559.33 57.5877 1557.27 55.9673 Q1555.24 54.3469 1548.31 52.8481 L1545.72 52.2405 Q1538.79 50.7821 1535.71 47.7845 Q1532.64 44.7463 1532.64 39.4801 Q1532.64 33.0797 1537.17 29.5959 Q1541.71 26.1121 1550.05 26.1121 Q1554.19 26.1121 1557.83 26.7198 Q1561.48 27.3274 1564.56 28.5427 Z" fill="#000000" fill-rule="evenodd" fill-opacity="1" /><path clip-path="url(#clip860)" d="M1612.44 65.7705 L1612.44 89.8329 L1604.94 89.8329 L1604.94 27.2059 L1612.44 27.2059 L1612.44 34.0924 Q1614.79 30.0415 1618.35 28.0971 Q1621.96 26.1121 1626.94 26.1121 Q1635.2 26.1121 1640.35 32.6746 Q1645.53 39.2371 1645.53 49.9314 Q1645.53 60.6258 1640.35 67.1883 Q1635.2 73.7508 1626.94 73.7508 Q1621.96 73.7508 1618.35 71.8063 Q1614.79 69.8214 1612.44 65.7705 M1637.8 49.9314 Q1637.8 41.7081 1634.39 37.0496 Q1631.03 32.3505 1625.12 32.3505 Q1619.2 32.3505 1615.8 37.0496 Q1612.44 41.7081 1612.44 49.9314 Q1612.44 58.1548 1615.8 62.8538 Q1619.2 67.5124 1625.12 67.5124 Q1631.03 67.5124 1634.39 62.8538 Q1637.8 58.1548 1637.8 49.9314 Z" fill="#000000" fill-rule="evenodd" fill-opacity="1" /><path clip-path="url(#clip860)" d="M1675.47 32.4315 Q1669.48 32.4315 1665.99 37.1306 Q1662.51 41.7891 1662.51 49.9314 Q1662.51 58.0738 1665.95 62.7728 Q1669.43 67.4314 1675.47 67.4314 Q1681.43 67.4314 1684.91 62.7323 Q1688.39 58.0333 1688.39 49.9314 Q1688.39 41.8701 1684.91 37.1711 Q1681.43 32.4315 1675.47 32.4315 M1675.47 26.1121 Q1685.19 26.1121 1690.74 32.4315 Q1696.29 38.7509 1696.29 49.9314 Q1696.29 61.0714 1690.74 67.4314 Q1685.19 73.7508 1675.47 73.7508 Q1665.71 73.7508 1660.16 67.4314 Q1654.65 61.0714 1654.65 49.9314 Q1654.65 38.7509 1660.16 32.4315 Q1665.71 26.1121 1675.47 26.1121 Z" fill="#000000" fill-rule="evenodd" fill-opacity="1" /><path clip-path="url(#clip860)" d="M1734.94 34.1734 Q1733.68 33.4443 1732.18 33.1202 Q1730.72 32.7556 1728.94 32.7556 Q1722.62 32.7556 1719.22 36.8875 Q1715.86 40.9789 1715.86 48.6757 L1715.86 72.576 L1708.36 72.576 L1708.36 27.2059 L1715.86 27.2059 L1715.86 34.2544 Q1718.21 30.1225 1721.97 28.1376 Q1725.74 26.1121 1731.13 26.1121 Q1731.9 26.1121 1732.83 26.2337 Q1733.76 26.3147 1734.9 26.5172 L1734.94 34.1734 Z" fill="#000000" fill-rule="evenodd" fill-opacity="1" /><path clip-path="url(#clip860)" d="M1798.98 34.0924 L1798.98 9.54393 L1806.44 9.54393 L1806.44 72.576 L1798.98 72.576 L1798.98 65.7705 Q1796.63 69.8214 1793.03 71.8063 Q1789.46 73.7508 1784.44 73.7508 Q1776.22 73.7508 1771.03 67.1883 Q1765.89 60.6258 1765.89 49.9314 Q1765.89 39.2371 1771.03 32.6746 Q1776.22 26.1121 1784.44 26.1121 Q1789.46 26.1121 1793.03 28.0971 Q1796.63 30.0415 1798.98 34.0924 M1773.58 49.9314 Q1773.58 58.1548 1776.95 62.8538 Q1780.35 67.5124 1786.26 67.5124 Q1792.18 67.5124 1795.58 62.8538 Q1798.98 58.1548 1798.98 49.9314 Q1798.98 41.7081 1795.58 37.0496 Q1792.18 32.3505 1786.26 32.3505 Q1780.35 32.3505 1776.95 37.0496 Q1773.58 41.7081 1773.58 49.9314 Z" fill="#000000" fill-rule="evenodd" fill-opacity="1" /><path clip-path="url(#clip860)" d="M1821.79 27.2059 L1829.24 27.2059 L1829.24 72.576 L1821.79 72.576 L1821.79 27.2059 M1821.79 9.54393 L1829.24 9.54393 L1829.24 18.9825 L1821.79 18.9825 L1821.79 9.54393 Z" fill="#000000" fill-rule="evenodd" fill-opacity="1" /><path clip-path="url(#clip860)" d="M1865.46 49.7694 Q1856.42 49.7694 1852.94 51.8354 Q1849.46 53.9013 1849.46 58.8839 Q1849.46 62.8538 1852.05 65.2034 Q1854.68 67.5124 1859.18 67.5124 Q1865.38 67.5124 1869.1 63.1374 Q1872.87 58.7219 1872.87 51.4303 L1872.87 49.7694 L1865.46 49.7694 M1880.32 46.6907 L1880.32 72.576 L1872.87 72.576 L1872.87 65.6895 Q1870.32 69.8214 1866.51 71.8063 Q1862.7 73.7508 1857.19 73.7508 Q1850.23 73.7508 1846.09 69.8619 Q1842 65.9325 1842 59.3701 Q1842 51.7138 1847.11 47.825 Q1852.25 43.9361 1862.42 43.9361 L1872.87 43.9361 L1872.87 43.2069 Q1872.87 38.0623 1869.47 35.2672 Q1866.11 32.4315 1859.99 32.4315 Q1856.1 32.4315 1852.41 33.3632 Q1848.73 34.295 1845.32 36.1584 L1845.32 29.2718 Q1849.42 27.692 1853.26 26.9223 Q1857.11 26.1121 1860.76 26.1121 Q1870.6 26.1121 1875.46 31.2163 Q1880.32 36.3204 1880.32 46.6907 Z" fill="#000000" fill-rule="evenodd" fill-opacity="1" /><polyline clip-path="url(#clip862)" style="stroke:#009af9; stroke-linecap:butt; stroke-linejoin:round; stroke-width:4; stroke-opacity:1; fill:none" points="
  364.17,1447.87 368.296,1447.87 372.421,1447.87 376.546,1447.87 380.672,1447.87 384.797,1447.87 388.922,1447.87 393.048,1447.87 397.173,1447.87 401.298,1447.87 
  405.424,1447.86 409.549,1447.86 413.674,1447.86 417.8,1447.86 421.925,1447.86 426.05,1447.85 430.176,1447.85 434.301,1447.85 438.427,1447.85 442.552,1447.84 
  446.677,1447.84 450.803,1447.83 454.928,1447.82 459.053,1447.82 463.179,1447.81 467.304,1447.8 471.429,1447.79 475.555,1447.77 479.68,1447.76 483.805,1447.74 
  487.931,1447.72 492.056,1447.7 496.182,1447.67 500.307,1447.64 504.432,1447.61 508.558,1447.57 512.683,1447.52 516.808,1447.47 520.934,1447.41 525.059,1447.34 
  529.184,1447.26 533.31,1447.17 537.435,1447.06 541.56,1446.94 545.686,1446.8 549.811,1446.63 553.936,1446.45 558.062,1446.23 562.187,1445.98 566.313,1445.7 
  570.438,1445.37 574.563,1444.99 578.689,1444.56 582.814,1444.06 586.939,1443.48 591.065,1442.82 595.19,1442.06 599.315,1441.19 603.441,1440.18 607.566,1439.03 
  611.691,1437.7 615.817,1436.17 619.942,1434.41 624.067,1432.39 628.193,1430.07 632.318,1427.41 636.444,1424.35 640.569,1420.84 644.694,1416.82 648.82,1412.2 
  652.945,1406.92 657.07,1400.86 661.196,1393.93 665.321,1386.02 669.446,1376.97 673.572,1366.65 677.697,1354.9 681.822,1341.53 685.948,1326.35 690.073,1309.15 
  694.199,1289.7 698.324,1267.77 702.449,1243.11 706.575,1215.47 710.7,1184.62 714.825,1150.32 718.951,1112.39 723.076,1070.66 727.201,1025.04 731.327,975.522 
  735.452,922.199 739.577,865.286 743.703,805.148 747.828,742.314 751.953,677.492 756.079,611.566 760.204,545.597 764.33,480.793 768.455,418.483 772.58,360.063 
  776.706,306.938 780.831,260.455 784.956,221.831 789.082,192.09 793.207,172.004 797.332,162.047 801.458,162.38 805.583,172.84 809.708,192.965 813.834,222.023 
  817.959,259.065 822.084,302.984 826.21,352.573 830.335,406.586 834.461,463.793 838.586,523.024 842.711,583.2 846.837,643.367 850.962,702.697 855.087,760.507 
  859.213,816.245 863.338,869.491 867.463,919.941 871.589,967.398 875.714,1011.75 879.839,1052.96 883.965,1091.07 888.09,1126.13 892.216,1158.27 896.341,1187.62 
  900.466,1214.34 904.592,1238.59 908.717,1260.54 912.842,1280.36 916.968,1298.23 921.093,1314.31 925.218,1328.75 929.344,1341.7 933.469,1353.3 937.594,1363.68 
  941.72,1372.96 945.845,1381.24 949.97,1388.63 954.096,1395.22 958.221,1401.09 962.347,1406.31 966.472,1410.96 970.597,1415.1 974.723,1418.78 978.848,1422.05 
  982.973,1424.96 987.099,1427.54 991.224,1429.84 995.349,1431.87 999.475,1433.68 1003.6,1435.28 1007.73,1436.71 1011.85,1437.97 1015.98,1439.09 1020.1,1440.09 
  1024.23,1440.97 1028.35,1441.75 1032.48,1442.45 1036.6,1443.06 1040.73,1443.61 1044.85,1444.09 1048.98,1444.52 1053.1,1444.9 1057.23,1445.24 1061.36,1445.54 
  1065.48,1445.8 1069.61,1446.04 1073.73,1446.25 1077.86,1446.43 1081.98,1446.59 1086.11,1446.74 1090.23,1446.87 1094.36,1446.98 1098.48,1447.08 1102.61,1447.17 
  1106.73,1447.25 1110.86,1447.32 1114.98,1447.39 1119.11,1447.44 1123.24,1447.49 1127.36,1447.53 1131.49,1447.57 1135.61,1447.61 1139.74,1447.64 1143.86,1447.66 
  1147.99,1447.69 1152.11,1447.71 1156.24,1447.73 1160.36,1447.74 1164.49,1447.76 1168.61,1447.77 1172.74,1447.78 1176.86,1447.79 1180.99,1447.8 1185.12,1447.81 
  1189.24,1447.82 1193.37,1447.82 1197.49,1447.83 1201.62,1447.83 1205.74,1447.84 1209.87,1447.84 1213.99,1447.85 1218.12,1447.85 1222.24,1447.85 1226.37,1447.85 
  1230.49,1447.86 1234.62,1447.86 1238.75,1447.86 1242.87,1447.86 1247,1447.86 1251.12,1447.86 1255.25,1447.87 1259.37,1447.87 1263.5,1447.87 1267.62,1447.87 
  1271.75,1447.87 1275.87,1447.87 1280,1447.87 1284.12,1447.87 1288.25,1447.87 1292.37,1447.87 1296.5,1447.87 1300.63,1447.87 1304.75,1447.87 1308.88,1447.87 
  1313,1447.87 1317.13,1447.87 1321.25,1447.87 1325.38,1447.87 1329.5,1447.87 1333.63,1447.87 1337.75,1447.87 1341.88,1447.87 1346,1447.87 1350.13,1447.87 
  1354.26,1447.87 1358.38,1447.87 1362.51,1447.87 1366.63,1447.87 1370.76,1447.87 1374.88,1447.87 1379.01,1447.87 1383.13,1447.87 1387.26,1447.87 1391.38,1447.87 
  1395.51,1447.87 1399.63,1447.87 1403.76,1447.87 1407.88,1447.87 1412.01,1447.87 1416.14,1447.87 1420.26,1447.87 1424.39,1447.87 1428.51,1447.87 1432.64,1447.87 
  1436.76,1447.87 1440.89,1447.87 1445.01,1447.87 1449.14,1447.87 1453.26,1447.87 1457.39,1447.87 1461.51,1447.87 1465.64,1447.87 1469.77,1447.87 1473.89,1447.87 
  1478.02,1447.87 1482.14,1447.87 1486.27,1447.87 1490.39,1447.87 1494.52,1447.87 1498.64,1447.87 1502.77,1447.87 1506.89,1447.87 1511.02,1447.87 1515.14,1447.87 
  1519.27,1447.87 1523.39,1447.87 1527.52,1447.87 1531.65,1447.87 1535.77,1447.87 1539.9,1447.87 1544.02,1447.87 1548.15,1447.87 1552.27,1447.87 1556.4,1447.87 
  1560.52,1447.87 1564.65,1447.87 1568.77,1447.87 1572.9,1447.87 1577.02,1447.87 1581.15,1447.87 1585.28,1447.87 1589.4,1447.87 1593.53,1447.87 1597.65,1447.87 
  1601.78,1447.87 1605.9,1447.87 1610.03,1447.87 1614.15,1447.87 1618.28,1447.87 1622.4,1447.87 1626.53,1447.87 1630.65,1447.87 1634.78,1447.87 1638.9,1447.87 
  1643.03,1447.87 1647.16,1447.87 1651.28,1447.87 1655.41,1447.87 1659.53,1447.87 1663.66,1447.87 1667.78,1447.87 1671.91,1447.87 1676.03,1447.87 1680.16,1447.87 
  1684.28,1447.87 1688.41,1447.87 1692.53,1447.87 1696.66,1447.87 1700.78,1447.87 1704.91,1447.87 1709.04,1447.87 1713.16,1447.87 1717.29,1447.87 1721.41,1447.87 
  1725.54,1447.87 1729.66,1447.87 1733.79,1447.87 1737.91,1447.87 1742.04,1447.87 1746.16,1447.87 1750.29,1447.87 1754.41,1447.87 1758.54,1447.87 1762.67,1447.87 
  1766.79,1447.87 1770.92,1447.87 1775.04,1447.87 1779.17,1447.87 1783.29,1447.87 1787.42,1447.87 1791.54,1447.87 1795.67,1447.87 1799.79,1447.87 1803.92,1447.87 
  1808.04,1447.87 1812.17,1447.87 1816.29,1447.87 1820.42,1447.87 1824.55,1447.87 1828.67,1447.87 1832.8,1447.87 1836.92,1447.87 1841.05,1447.87 1845.17,1447.87 
  1849.3,1447.87 1853.42,1447.87 1857.55,1447.87 1861.67,1447.87 1865.8,1447.87 1869.92,1447.87 1874.05,1447.87 1878.18,1447.87 1882.3,1447.87 1886.43,1447.87 
  1890.55,1447.87 1894.68,1447.87 1898.8,1447.87 1902.93,1447.87 1907.05,1447.87 1911.18,1447.87 1915.3,1447.87 1919.43,1447.87 1923.55,1447.87 1927.68,1447.87 
  1931.8,1447.87 1935.93,1447.87 1940.06,1447.87 1944.18,1447.87 1948.31,1447.87 1952.43,1447.87 1956.56,1447.87 1960.68,1447.87 1964.81,1447.87 1968.93,1447.87 
  1973.06,1447.87 1977.18,1447.87 1981.31,1447.87 1985.43,1447.87 1989.56,1447.87 1993.69,1447.87 1997.81,1447.87 2001.94,1447.87 2006.06,1447.87 2010.19,1447.87 
  2014.31,1447.87 2018.44,1447.87 2022.56,1447.87 2026.69,1447.87 2030.81,1447.87 2034.94,1447.87 2039.06,1447.87 2043.19,1447.87 2047.31,1447.87 2051.44,1447.87 
  2055.57,1447.87 2059.69,1447.87 2063.82,1447.87 2067.94,1447.87 2072.07,1447.87 2076.19,1447.87 2080.32,1447.87 2084.44,1447.87 2088.57,1447.87 2092.69,1447.87 
  2096.82,1447.87 2100.94,1447.87 2105.07,1447.87 2109.19,1447.87 2113.32,1447.87 2117.45,1447.87 2121.57,1447.87 2125.7,1447.87 2129.82,1447.87 2133.95,1447.87 
  2138.07,1447.87 2142.2,1447.87 2146.32,1447.87 2150.45,1447.87 2154.57,1447.87 2158.7,1447.87 2162.82,1447.87 2166.95,1447.87 2171.08,1447.87 2175.2,1447.87 
  2179.33,1447.87 2183.45,1447.87 2187.58,1447.87 2191.7,1447.87 2195.83,1447.87 2199.95,1447.87 2204.08,1447.87 2208.2,1447.87 2212.33,1447.87 2216.45,1447.87 
  2220.58,1447.87 2224.7,1447.87 2228.83,1447.87 2232.96,1447.87 2237.08,1447.87 2241.21,1447.87 2245.33,1447.87 2249.46,1447.87 2253.58,1447.87 2257.71,1447.87 
  2261.83,1447.87 2265.96,1447.87 2270.08,1447.87 2274.21,1447.87 2278.33,1447.87 2282.46,1447.87 2286.59,1447.87 2290.71,1447.87 2294.84,1447.87 
  "/>
<path clip-path="url(#clip860)" d="
M2004.72 272.585 L2284.54 272.585 L2284.54 168.905 L2004.72 168.905  Z
  " fill="#ffffff" fill-rule="evenodd" fill-opacity="1"/>
<polyline clip-path="url(#clip860)" style="stroke:#000000; stroke-linecap:butt; stroke-linejoin:round; stroke-width:4; stroke-opacity:1; fill:none" points="
  2004.72,272.585 2284.54,272.585 2284.54,168.905 2004.72,168.905 2004.72,272.585 
  "/>
<polyline clip-path="url(#clip860)" style="stroke:#009af9; stroke-linecap:butt; stroke-linejoin:round; stroke-width:4; stroke-opacity:1; fill:none" points="
  2027.46,220.745 2163.89,220.745 
  "/>
<path clip-path="url(#clip860)" d="M2200.47 240.432 Q2198.67 245.062 2196.95 246.474 Q2195.24 247.886 2192.37 247.886 L2188.97 247.886 L2188.97 244.321 L2191.47 244.321 Q2193.23 244.321 2194.2 243.488 Q2195.17 242.654 2196.35 239.552 L2197.12 237.608 L2186.63 212.099 L2191.14 212.099 L2199.25 232.377 L2207.35 212.099 L2211.86 212.099 L2200.47 240.432 Z" fill="#000000" fill-rule="evenodd" fill-opacity="1" /><path clip-path="url(#clip860)" d="M2219.15 234.089 L2226.79 234.089 L2226.79 207.724 L2218.48 209.391 L2218.48 205.131 L2226.75 203.465 L2231.42 203.465 L2231.42 234.089 L2239.06 234.089 L2239.06 238.025 L2219.15 238.025 L2219.15 234.089 Z" fill="#000000" fill-rule="evenodd" fill-opacity="1" /></svg>
